<?xml version="1.0" encoding="UTF-8" standalone="no"?>
<!-- Created with Inkscape (http://www.inkscape.org/) -->

<svg
   xmlns:dc="http://purl.org/dc/elements/1.1/"
   xmlns:cc="http://creativecommons.org/ns#"
   xmlns:rdf="http://www.w3.org/1999/02/22-rdf-syntax-ns#"
   xmlns:svg="http://www.w3.org/2000/svg"
   xmlns="http://www.w3.org/2000/svg"
   xmlns:sodipodi="http://sodipodi.sourceforge.net/DTD/sodipodi-0.dtd"
   xmlns:inkscape="http://www.inkscape.org/namespaces/inkscape"
   width="260"
   height="75"
   viewBox="0 0 68.791665 19.843751"
   version="1.1"
   id="svg873"
   inkscape:version="0.92.4 5da689c313, 2019-01-14"
   sodipodi:docname="balluf-logo.svg">
  <defs
     id="defs867" />
  <sodipodi:namedview
     id="base"
     pagecolor="#ffffff"
     bordercolor="#666666"
     borderopacity="1.0"
     inkscape:pageopacity="0.0"
     inkscape:pageshadow="2"
     inkscape:zoom="2.8"
     inkscape:cx="145.31592"
     inkscape:cy="43.624123"
     inkscape:document-units="mm"
     inkscape:current-layer="layer1"
     showgrid="false"
     units="px"
     inkscape:window-width="1366"
     inkscape:window-height="715"
     inkscape:window-x="0"
     inkscape:window-y="25"
     inkscape:window-maximized="1" />
  <metadata
     id="metadata870">
    <rdf:RDF>
      <cc:Work
         rdf:about="">
        <dc:format>image/svg+xml</dc:format>
        <dc:type
           rdf:resource="http://purl.org/dc/dcmitype/StillImage" />
        <dc:title></dc:title>
      </cc:Work>
    </rdf:RDF>
  </metadata>
  <g
     inkscape:label="1. réteg"
     inkscape:groupmode="layer"
     id="layer1"
     transform="translate(0,-277.15622)">
    <path
       style="fill:#ffffff;fill-opacity:0.50196078;stroke-width:0.04913899"
       d="m 23.670472,296.37044 c -0.440516,-0.0767 -0.676276,-0.29668 -0.750106,-0.69979 l -0.03375,-0.18427 h 0.216723 c 0.203191,0 0.220616,0.0108 0.279085,0.17246 0.08163,0.22574 0.294275,0.33473 0.653739,0.33506 0.309182,3.7e-4 0.502358,-0.0936 0.590464,-0.28698 0.07668,-0.1683 -0.0571,-0.35225 -0.34504,-0.47443 -0.866864,-0.36781 -1.039511,-0.51643 -1.039875,-0.89507 -1.86e-4,-0.25185 0.143139,-0.47324 0.402784,-0.62191 0.17613,-0.10086 0.276652,-0.12098 0.60438,-0.12098 0.491961,0 0.757521,0.12919 0.909067,0.44224 0.151716,0.3134 0.134948,0.36855 -0.11207,0.36855 -0.18887,0 -0.216068,-0.0151 -0.266321,-0.14827 -0.147753,-0.39145 -1.095773,-0.36847 -1.095773,0.0265 0,0.17801 0.13504,0.28587 0.590748,0.4718 0.753759,0.30754 0.976359,0.65214 0.738569,1.14335 -0.08649,0.17867 -0.157954,0.24648 -0.362275,0.34378 -0.294351,0.14017 -0.646317,0.18608 -0.980347,0.12789 z m 2.887935,0.004 c -0.557443,-0.0971 -0.859933,-0.48357 -0.859933,-1.09877 0,-1.02899 0.669561,-1.77012 1.528791,-1.69221 0.372302,0.0338 0.621168,0.1643 0.802472,0.42095 0.12813,0.18138 0.146977,0.25484 0.165664,0.64571 l 0.02109,0.44104 -1.025597,0.0133 -1.025596,0.0133 0.0022,0.2592 c 0.0019,0.2218 0.02374,0.28078 0.151742,0.40878 0.318082,0.31808 0.821849,0.28087 1.143422,-0.0845 0.166882,-0.18959 0.21356,-0.21498 0.39519,-0.21498 0.190231,0 0.203533,0.008 0.174211,0.11056 -0.151289,0.5269 -0.836566,0.8885 -1.473616,0.77757 z m 1.203905,-1.8225 c 0,-0.27486 -0.237026,-0.53482 -0.522545,-0.57311 -0.231071,-0.031 -0.493365,0.0416 -0.679661,0.18816 -0.122313,0.0962 -0.321103,0.42502 -0.321103,0.53112 0,0.0332 0.26719,0.0511 0.761655,0.0511 h 0.761654 z m 4.597633,1.81681 c -0.395039,-0.0677 -0.715654,-0.38922 -0.715654,-0.71773 0,-0.16247 0.0031,-0.16472 0.221126,-0.16472 0.183036,0 0.221124,0.0158 0.221124,0.0916 0,0.36108 0.669754,0.54788 1.113288,0.31051 0.116212,-0.0622 0.164327,-0.15856 0.164327,-0.32913 0,-0.1405 -0.151641,-0.25057 -0.604493,-0.43875 -0.456721,-0.18979 -0.632906,-0.3162 -0.737285,-0.52898 -0.262748,-0.53563 0.323831,-1.08475 1.075836,-1.00713 0.484884,0.05 0.85561,0.34495 0.85561,0.68062 0,0.13335 -0.01074,0.14015 -0.221125,0.14015 -0.18133,0 -0.221126,-0.0161 -0.221126,-0.0897 0,-0.1578 -0.222075,-0.31562 -0.477501,-0.33934 -0.286003,-0.0266 -0.473222,0.0396 -0.582068,0.20574 -0.07657,0.11685 -0.07648,0.13335 0.0013,0.25199 0.04575,0.0698 0.164384,0.15984 0.263631,0.20005 0.498995,0.20215 0.817161,0.3746 0.946444,0.513 0.120364,0.12885 0.143076,0.19408 0.143076,0.41097 0,0.18519 -0.03116,0.30482 -0.110634,0.42477 -0.208548,0.31474 -0.782979,0.48074 -1.335827,0.38604 z m 2.93727,0.001 c -0.599123,-0.12266 -0.91675,-0.64461 -0.831855,-1.36694 0.09234,-0.78567 0.650479,-1.36292 1.373306,-1.42032 0.883903,-0.0702 1.368735,0.50314 1.212733,1.43408 -0.157813,0.94176 -0.91412,1.52517 -1.754184,1.35318 z m 0.72831,-0.47215 c 0.594303,-0.29857 0.805515,-1.49301 0.320235,-1.81098 -0.617044,-0.4043 -1.425334,0.24705 -1.431539,1.1536 -0.0017,0.25375 0.02027,0.35089 0.1071,0.47261 0.205858,0.2886 0.638922,0.36827 1.004204,0.18477 z m 4.107665,0.47293 c -0.264229,-0.0465 -0.522574,-0.19061 -0.616315,-0.34374 -0.03485,-0.057 -0.08175,-0.20192 -0.104219,-0.3222 l -0.04085,-0.21868 h 0.239348 c 0.220194,0 0.239349,0.01 0.239349,0.11848 0,0.15617 0.256954,0.37029 0.458307,0.3819 0.538845,0.0311 0.819308,-0.10399 0.819308,-0.3945 0,-0.13423 -0.228788,-0.31399 -0.571564,-0.4491 -0.748124,-0.29489 -1.004064,-0.64805 -0.781522,-1.0784 0.176499,-0.34131 0.581449,-0.52428 1.064403,-0.48091 0.500427,0.045 0.801987,0.27166 0.863224,0.64902 l 0.02799,0.17245 h -0.222228 c -0.196789,0 -0.225801,-0.0143 -0.253444,-0.12437 -0.09637,-0.38396 -0.995073,-0.42367 -1.089328,-0.0482 -0.044,0.17534 0.109968,0.33167 0.463977,0.47108 0.70554,0.27785 0.940746,0.4915 0.940746,0.85457 0,0.23368 -0.12318,0.49404 -0.288607,0.61001 -0.264009,0.18509 -0.755426,0.27174 -1.14857,0.20253 z m 8.447713,-0.02 c -0.424241,-0.11664 -0.672442,-0.38254 -0.766517,-0.82121 -0.09861,-0.45979 0.07754,-1.10841 0.407528,-1.50057 0.439513,-0.52234 1.452249,-0.61083 1.897291,-0.1658 0.584538,0.58454 0.259812,1.9908 -0.548671,2.37604 -0.328027,0.15631 -0.681774,0.19618 -0.989631,0.11154 z m 0.753425,-0.44849 c 0.467281,-0.24117 0.780969,-1.11322 0.555888,-1.54537 -0.416983,-0.80059 -1.584973,-0.25867 -1.639477,0.76068 -0.01998,0.37369 0.0045,0.47045 0.163015,0.64338 0.236864,0.25846 0.588886,0.3125 0.920574,0.14131 z m 5.650983,0.47148 c -0.278403,-0.0562 -0.482732,-0.1887 -0.626734,-0.40649 -0.124744,-0.18867 -0.134921,-0.24146 -0.134921,-0.70001 0,-0.46141 0.01125,-0.51882 0.161505,-0.82391 0.278663,-0.56582 0.751852,-0.87536 1.333868,-0.87256 0.269578,10e-4 0.589079,0.13705 0.722873,0.30713 l 0.09754,0.12401 0.137944,-0.7075 0.137949,-0.7075 h 0.219503 0.219503 l -0.03164,0.18427 c -0.0174,0.10135 -0.191592,0.9361 -0.387087,1.855 l -0.355443,1.67072 -0.211474,0.0154 -0.21148,0.0153 0.0345,-0.15709 0.0345,-0.15709 -0.189628,0.15156 c -0.104298,0.0834 -0.289138,0.17425 -0.410758,0.20198 -0.246048,0.0561 -0.293324,0.0567 -0.540527,0.007 z m 0.774991,-0.50516 c 0.484917,-0.29246 0.761275,-1.17531 0.501364,-1.60162 -0.126946,-0.20821 -0.393647,-0.32227 -0.678467,-0.29017 -0.507036,0.0572 -0.901126,0.57846 -0.933203,1.23448 -0.01475,0.30171 -0.0015,0.37149 0.09882,0.51927 0.199355,0.29375 0.651097,0.35541 1.011487,0.13804 z m 7.92852,0.49864 c -0.263242,-0.0524 -0.402747,-0.14018 -0.569103,-0.35828 -0.47909,-0.62812 -0.109451,-1.88681 0.676521,-2.30368 0.300044,-0.15914 0.916571,-0.15809 1.174034,0.002 0.09995,0.0621 0.196566,0.15973 0.214695,0.21685 0.04981,0.15695 0.09011,0.0436 0.213478,-0.60012 0.151697,-0.79159 0.123806,-0.73709 0.377118,-0.73709 0.201911,0 0.216721,0.009 0.192369,0.11057 -0.03856,0.16162 -0.761713,3.58528 -0.761713,3.60624 0,0.01 -0.09797,0.0178 -0.217697,0.0178 h -0.217696 l 0.04571,-0.15938 c 0.02514,-0.0877 0.04571,-0.16806 0.04571,-0.17868 0,-0.0106 -0.06035,0.041 -0.134111,0.1148 -0.256952,0.25695 -0.623272,0.35177 -1.039314,0.26901 z m 0.731173,-0.46515 c 0.319615,-0.16547 0.598097,-0.61121 0.664345,-1.06337 0.115629,-0.78922 -0.685725,-1.15759 -1.3037,-0.59929 -0.446527,0.40341 -0.568186,1.26411 -0.22434,1.58714 0.209829,0.19712 0.568263,0.22846 0.863695,0.0755 z m 2.571268,0.46778 c -0.72258,-0.14787 -1.007842,-0.75386 -0.775247,-1.64687 0.229185,-0.87988 0.955827,-1.32309 1.771908,-1.08073 0.449661,0.13353 0.658027,0.4754 0.658027,1.07963 v 0.36912 l -1.019635,0.0133 -1.019635,0.0133 -0.0146,0.19815 c -0.01751,0.23786 0.138871,0.50224 0.360393,0.60927 0.346294,0.16732 0.833471,0.0298 1.02058,-0.28807 0.07824,-0.13291 0.115078,-0.15081 0.31043,-0.15081 0.207032,0 0.21945,0.007 0.188178,0.11056 -0.172635,0.57004 -0.820253,0.90827 -1.48041,0.77318 z m 1.212435,-1.79525 c 0,-0.71063 -0.964741,-0.83452 -1.381464,-0.17741 -0.07801,0.12301 -0.141844,0.2525 -0.141844,0.28775 0,0.0499 0.168203,0.0641 0.761654,0.0641 h 0.761654 z m -39.606023,1.70563 c 0,-0.0227 0.121511,-0.61418 0.270026,-1.31446 0.148512,-0.70028 0.270132,-1.28981 0.270264,-1.31009 1.47e-4,-0.0203 0.100747,-0.0369 0.223591,-0.0369 h 0.223352 l -0.03234,0.17239 -0.03234,0.1724 0.251836,-0.16947 c 0.495509,-0.33346 1.199587,-0.28324 1.373266,0.098 0.09572,0.21008 0.0641,0.60078 -0.117089,1.4466 -0.2309,1.07789 -0.187861,0.98278 -0.444683,0.98278 -0.201925,0 -0.216717,-0.009 -0.192317,-0.11057 0.169543,-0.70919 0.36855,-1.71056 0.36855,-1.85449 0,-0.59246 -0.99755,-0.46354 -1.297062,0.16763 -0.07248,0.15274 -0.219565,0.75 -0.373064,1.51487 l -0.0567,0.28256 h -0.217642 c -0.119701,0 -0.21764,-0.0186 -0.21764,-0.0412 z m 8.896736,0.0317 c 0.0015,-0.008 0.128772,-0.61202 0.283009,-1.34173 l 0.28043,-1.32676 0.214493,-0.0154 c 0.202044,-0.0146 0.212966,-0.009 0.1882,0.0983 -0.01447,0.0625 -0.04117,0.19108 -0.05935,0.28567 l -0.03306,0.17199 0.125104,-0.17895 c 0.153173,-0.21912 0.566175,-0.43529 0.831631,-0.43529 0.146382,0 0.185746,0.0167 0.16522,0.0702 -0.01482,0.0386 -0.04176,0.14918 -0.05986,0.24569 -0.03093,0.16488 -0.04427,0.17548 -0.220806,0.17548 -0.361173,0 -0.653292,0.19254 -0.838523,0.55268 -0.05209,0.10127 -0.167384,0.52141 -0.256215,0.93364 l -0.161508,0.7495 -0.230674,0.015 c -0.126872,0.008 -0.229516,0.008 -0.228096,0 z m 6.582045,-0.0601 c 0,-0.0411 -0.06634,-0.62894 -0.147417,-1.30623 -0.08108,-0.67729 -0.147417,-1.25409 -0.147417,-1.28179 0,-0.0294 0.09707,-0.0442 0.23341,-0.0353 l 0.23341,0.015 0.07972,1.02156 c 0.04385,0.56186 0.08849,1.03032 0.09921,1.04104 0.01072,0.0107 0.230373,-0.44899 0.488136,-1.02156 l 0.468655,-1.04104 0.249239,-0.0146 0.249241,-0.0147 0.02931,0.30948 c 0.01612,0.17021 0.04227,0.58588 0.05812,0.92371 0.04776,1.01799 0.01478,1.02689 0.583264,-0.15728 l 0.502454,-1.04662 0.23435,-0.0151 c 0.178227,-0.0115 0.230413,7.3e-4 0.217906,0.0517 -0.009,0.0367 -0.314955,0.64681 -0.679811,1.35565 l -0.663378,1.28879 -0.245696,-0.0138 -0.245693,-0.0138 -0.0566,-0.83536 c -0.03113,-0.45946 -0.05877,-0.91092 -0.06143,-1.00326 -0.0027,-0.0923 -0.02078,-0.15195 -0.04027,-0.13246 -0.01949,0.0195 -0.236254,0.47095 -0.481701,1.00326 l -0.446266,0.96782 -0.255386,0.0148 c -0.202406,0.0118 -0.255385,-7.3e-4 -0.255385,-0.0599 z m 6.78118,0.004 c 0,-0.0617 0.375692,-1.88027 0.496417,-2.40293 0.05334,-0.2309 0.05604,-0.23341 0.251847,-0.23341 h 0.197937 l -0.03074,0.19226 c -0.0169,0.10574 -0.04507,0.2329 -0.06259,0.28255 -0.01751,0.0497 0.05307,-0.007 0.156852,-0.12522 0.216422,-0.24718 0.505359,-0.39609 0.77157,-0.39765 0.202556,-0.001 0.211888,0.0204 0.132547,0.30604 -0.04889,0.17606 -0.06049,0.18427 -0.260367,0.18427 -0.295871,0 -0.609609,0.20981 -0.776892,0.51953 -0.103359,0.19137 -0.434325,1.49089 -0.434325,1.70536 0,0.0196 -0.09951,0.0355 -0.221127,0.0355 -0.15283,0 -0.221124,-0.0204 -0.221124,-0.0663 z m 1.919079,-0.11797 c 0.105662,-0.47083 0.734426,-3.47713 0.734426,-3.51149 0,-0.0495 0.441971,-0.0514 0.443067,-0.002 5.57e-4,0.0203 -0.170675,0.86055 -0.380278,1.86728 l -0.381096,1.83043 h -0.228737 -0.228734 l 0.04135,-0.18428 z m 5.107795,0.16375 c 0,-0.0141 -0.06634,-0.5798 -0.147417,-1.25708 -0.08108,-0.67729 -0.147416,-1.275 -0.147416,-1.32824 0,-0.0816 0.03385,-0.0968 0.215656,-0.0968 0.2609,0 0.245308,-0.056 0.331624,1.19162 0.03319,0.47972 0.07389,0.87222 0.09044,0.87222 0.01655,0 0.239229,-0.45884 0.494834,-1.01963 l 0.464742,-1.01964 0.252841,-0.0147 0.252844,-0.0147 0.035,0.57978 c 0.01925,0.31888 0.05013,0.80091 0.06863,1.07117 l 0.03363,0.49139 0.40633,-0.83537 c 0.223483,-0.45944 0.451867,-0.94039 0.507518,-1.06877 0.100886,-0.23271 0.1019,-0.23341 0.340828,-0.23341 0.131805,0 0.238844,0.0166 0.237861,0.0369 -9.46e-4,0.0203 -0.30531,0.62284 -0.676285,1.33904 l -0.674496,1.30218 -0.250339,0.0146 -0.250344,0.0146 -0.0632,-1.01246 c -0.03477,-0.55685 -0.08078,-0.99462 -0.102268,-0.97282 -0.02148,0.0218 -0.23744,0.47083 -0.479902,0.99785 l -0.44084,0.9582 -0.250133,0.0148 c -0.137575,0.008 -0.250138,0.004 -0.250138,-0.0108 z m 3.602728,-0.09 c 0.01443,-0.0608 0.142234,-0.6689 0.284019,-1.35132 l 0.257783,-1.24076 h 0.212698 c 0.142209,0 0.212698,0.0212 0.212698,0.0642 0,0.0515 -0.417601,2.09297 -0.517108,2.52793 -0.02171,0.0949 -0.05719,0.11057 -0.25081,0.11057 -0.20888,0 -0.223578,-0.008 -0.19928,-0.11057 z m 0.69516,-3.34145 0.05787,-0.25797 0.234152,-0.0151 c 0.206338,-0.0133 0.231047,-0.004 0.207986,0.0737 -0.0144,0.0489 -0.04086,0.17178 -0.05883,0.27313 -0.03234,0.18246 -0.03495,0.18426 -0.265846,0.18426 h -0.233189 z m -62.02414577,-10.1472 0.0125195,-4.95075 3.36602087,-0.0135 c 1.9746483,-0.008 3.5311584,0.007 3.7655244,0.0343 1.1639935,0.13961 2.0311302,0.80539 2.3409481,1.79736 0.1525279,0.48835 0.1520936,1.33241 -9.457e-4,1.81814 -0.1207956,0.38342 -0.3749696,0.75092 -0.6805515,0.984 l -0.200615,0.15301 0.1958975,0.11274 c 0.2761897,0.15896 0.5926638,0.46208 0.7684834,0.73608 0.4475842,0.6975 0.4555612,2.04621 0.016972,2.8703 -0.3125633,0.58731 -1.041484,1.11482 -1.8131683,1.31219 -0.3606321,0.0922 -0.5572541,0.0969 -4.0812521,0.0969 H 0.14571525 l 0.0125195,-4.95075 z m 6.22843437,2.46658 c 0.2831879,-0.16636 0.393308,-0.37758 0.3930964,-0.75398 -1.863e-4,-0.40515 -0.11236,-0.61048 -0.4062284,-0.74388 -0.1907776,-0.0866 -0.3358121,-0.0944 -1.7679896,-0.0954 l -1.5601628,-0.001 v 0.86245 0.86246 l 1.5847319,-0.0148 c 1.4954866,-0.014 1.5944098,-0.0205 1.7565525,-0.11574 z m -0.2316643,-3.67599 c 0.2122158,-0.0898 0.3097364,-0.21031 0.3781624,-0.46722 0.1211091,-0.45473 -0.1002675,-0.86801 -0.528684,-0.98699 -0.1057431,-0.0294 -0.7676702,-0.0509 -1.5709217,-0.0511 l -1.3881768,-1.8e-4 v 0.78622 0.78622 h 1.475748 c 1.1351542,0 1.5122429,-0.0154 1.6338721,-0.0669 z m 3.7826851,6.0994 c 0.013131,-0.0341 1.0155756,-2.26808 2.2276586,-4.9643 l 2.203791,-4.90221 1.763495,0.0129 1.763497,0.0129 1.789685,3.98026 c 0.984328,2.18915 1.986009,4.41698 2.225958,4.95075 l 0.436271,0.9705 h -3.41151 -3.411508 l 0.01312,-1.26533 0.01311,-1.26533 1.170846,-0.0132 c 0.643966,-0.007 1.163611,-0.031 1.154767,-0.0527 -0.0088,-0.0217 -0.402923,-0.99623 -0.87573,-2.16546 -0.567961,-1.40453 -0.87366,-2.10358 -0.900935,-2.0602 -0.0227,0.0361 -0.678859,1.58038 -1.458118,3.43169 l -1.416833,3.36602 -1.655715,0.0129 c -1.317957,0.0103 -1.6508465,3.7e-4 -1.6318475,-0.0491 z m 12.9598446,-4.90228 v -4.96303 h 1.547879 1.547877 v 3.68542 3.68543 h 2.088407 2.088407 v 1.27761 1.27762 h -3.636284 -3.636286 z m 8.157071,0 v -4.96303 h 1.547879 1.547877 v 3.68542 3.68543 h 2.088409 2.088406 v 1.27761 1.27762 h -3.636285 -3.636286 z m 9.630108,4.85121 c -0.800556,-0.27297 -1.388619,-0.89393 -1.594265,-1.68345 -0.06463,-0.24813 -0.07532,-0.84597 -0.07532,-4.21 v -3.92079 h 1.547564 1.547566 l 0.01259,3.67314 0.01259,3.67314 h 1.769004 1.769003 l 0.01259,-3.67314 0.01259,-3.67314 h 1.547567 1.547563 l -0.0011,3.9434 c -7.27e-4,2.47822 -0.01966,4.02348 -0.05088,4.1589 -0.18374,0.79699 -0.915332,1.5372 -1.735024,1.75546 -0.199671,0.0532 -0.850559,0.067 -3.126792,0.0665 -2.841477,-7.3e-4 -2.878328,-0.002 -3.195168,-0.10998 z m 9.190124,-4.85121 v -4.96303 h 3.931121 3.931117 v 1.27761 1.27762 h -2.38324 -2.383241 v 0.90907 0.90907 h 2.088407 2.088407 v 1.15423 1.15423 l -2.076121,0.0128 -2.076124,0.0128 -0.01296,1.6093 -0.01295,1.60931 h -1.547212 -1.547205 z m 8.697602,0 v -4.96303 h 3.93112 3.931117 v 1.27761 1.27762 h -2.38324 -2.383241 v 0.90907 0.90907 h 2.162115 2.162116 v 1.15477 1.15476 h -2.162116 -2.162115 v 1.62159 1.62159 h -1.547879 -1.547877 z"
       id="path1429"
       inkscape:connector-curvature="0" />
  </g>
</svg>
