<?xml version="1.0" encoding="UTF-8" standalone="no"?>
<!-- Created with Inkscape (http://www.inkscape.org/) -->

<svg
   xmlns:dc="http://purl.org/dc/elements/1.1/"
   xmlns:cc="http://creativecommons.org/ns#"
   xmlns:rdf="http://www.w3.org/1999/02/22-rdf-syntax-ns#"
   xmlns:svg="http://www.w3.org/2000/svg"
   xmlns="http://www.w3.org/2000/svg"
   xmlns:sodipodi="http://sodipodi.sourceforge.net/DTD/sodipodi-0.dtd"
   xmlns:inkscape="http://www.inkscape.org/namespaces/inkscape"
   width="260"
   height="65"
   viewBox="0 0 68.791665 17.197917"
   version="1.1"
   id="svg8"
   inkscape:version="0.92.4 5da689c313, 2019-01-14"
   sodipodi:docname="ni-logo.svg">
  <defs
     id="defs2" />
  <sodipodi:namedview
     id="base"
     pagecolor="#ffffff"
     bordercolor="#666666"
     borderopacity="1.0"
     inkscape:pageopacity="0.0"
     inkscape:pageshadow="2"
     inkscape:zoom="2.8"
     inkscape:cx="123.63551"
     inkscape:cy="26.370237"
     inkscape:document-units="mm"
     inkscape:current-layer="layer1"
     showgrid="false"
     units="px"
     inkscape:window-width="1366"
     inkscape:window-height="715"
     inkscape:window-x="0"
     inkscape:window-y="25"
     inkscape:window-maximized="1" />
  <metadata
     id="metadata5">
    <rdf:RDF>
      <cc:Work
         rdf:about="">
        <dc:format>image/svg+xml</dc:format>
        <dc:type
           rdf:resource="http://purl.org/dc/dcmitype/StillImage" />
        <dc:title></dc:title>
      </cc:Work>
    </rdf:RDF>
  </metadata>
  <g
     inkscape:label="1. réteg"
     inkscape:groupmode="layer"
     id="layer1"
     transform="translate(0,-279.80207)">
    <path
       style="fill:#ffffff;fill-opacity:0.50196081;stroke-width:0.06344593"
       d="m 3.9774052,296.22761 c -0.2284726,-1.27592 -0.2456684,-2.59778 -0.047149,-3.62436 0.051704,-0.26737 0.2073202,-0.84057 0.3458118,-1.27377 0.4187072,-1.30971 0.680497,-2.89134 0.7149245,-4.31928 0.0095,-0.3943 0.02784,-0.4788 0.08947,-0.41239 0.042633,0.046 0.2168569,0.24177 0.3871645,0.43519 0.1703053,0.19341 0.4848526,0.55031 0.6989901,0.79307 0.2141376,0.24278 0.7785088,0.89822 1.2541555,1.45655 l 0.8648167,1.01513 -0.038768,0.95169 -0.038767,0.9517 -0.197726,0.15861 c -1.0371167,0.83195 -1.7687766,1.51348 -2.4861542,2.31578 -0.3340498,0.37358 -0.6141432,0.74509 -1.3854269,1.83757 -0.080466,0.11398 -0.094156,0.0898 -0.1613512,-0.28549 z m 20.4529778,-3.43085 c -0.409379,-0.0403 -0.961709,-0.22392 -1.154503,-0.38393 -0.07838,-0.065 -0.01009,-0.22494 0.341429,-0.79988 l 0.08809,-0.14407 0.267322,0.15371 c 0.355281,0.20428 0.631711,0.25528 0.901366,0.16628 0.413715,-0.13654 0.528506,-0.50681 0.270063,-0.87114 -0.07852,-0.11068 -0.385436,-0.40875 -0.682044,-0.66239 -0.776745,-0.66421 -0.914722,-0.84609 -0.987597,-1.30182 -0.200519,-1.25398 1.519471,-2.07098 2.990265,-1.42037 l 0.283302,0.12531 -0.205563,0.41685 c -0.151414,0.30706 -0.231049,0.40673 -0.302325,0.37838 -0.05321,-0.0212 -0.248461,-0.0708 -0.433869,-0.11042 -0.406125,-0.0866 -0.666087,0.0173 -0.696913,0.27865 -0.01561,0.13238 0.10697,0.2776 0.708251,0.83898 0.864639,0.80726 1.055394,1.12001 1.055394,1.73031 0,0.53503 -0.236689,0.99463 -0.658532,1.27871 -0.466031,0.31384 -0.972555,0.40662 -1.784138,0.32684 z m 14.433953,-0.002 c -0.226817,-0.0237 -0.515534,-0.0746 -0.641589,-0.11299 -0.316906,-0.0966 -0.721413,-0.40237 -0.908824,-0.68687 -0.305619,-0.46395 -0.352965,-0.83814 -0.352965,-2.78958 v -1.79489 h 0.821274 0.821275 l 0.01938,1.85581 c 0.01705,1.63107 0.03296,1.88062 0.131489,2.06092 0.146693,0.26841 0.444882,0.42163 0.730383,0.3753 0.281114,-0.0457 0.443049,-0.19133 0.609775,-0.5487 0.123078,-0.26382 0.134833,-0.41689 0.154703,-2.01442 l 0.02151,-1.72891 h 0.692607 0.692606 v 1.76317 c 0,1.94273 -0.04888,2.3108 -0.368003,2.77123 -0.47298,0.6824 -1.288904,0.96854 -2.423619,0.84993 z m 25.563292,9.4e-4 c -0.419441,-0.0436 -1.011429,-0.25404 -1.135701,-0.40379 -0.04849,-0.0585 -0.0045,-0.18991 0.162039,-0.48474 0.125725,-0.22251 0.236084,-0.41212 0.24524,-0.42136 0.0092,-0.009 0.154922,0.0605 0.323923,0.15496 0.601436,0.33614 1.255868,0.15303 1.255868,-0.35138 0,-0.27489 -0.134322,-0.44303 -0.837607,-1.04853 -0.748186,-0.64417 -0.912365,-0.88219 -0.947965,-1.37438 -0.0472,-0.65258 0.245356,-1.07391 0.974845,-1.40394 0.402095,-0.18191 1.222859,-0.1989 1.741267,-0.036 0.572051,0.17969 0.567665,0.171 0.329933,0.65311 -0.166661,0.33796 -0.229141,0.4122 -0.316386,0.37595 -0.506672,-0.21057 -0.990385,-0.18353 -1.102075,0.0616 -0.09637,0.21151 -0.02744,0.30544 0.677876,0.92347 0.377104,0.33044 0.700741,0.67805 0.835703,0.89762 0.434054,0.70611 0.325765,1.48637 -0.280316,2.01986 -0.444622,0.39137 -1.049364,0.52873 -1.926644,0.43762 z M 34.60668,291.7722 c -0.404191,-1.01494 -0.413756,-1.0313 -0.614302,-1.05087 l -0.203715,-0.0199 v 1.01915 1.01916 h -0.8248 -0.824796 v -2.66869 -2.66868 l 1.60201,0.0198 c 1.577543,0.0195 1.607444,0.0224 1.957751,0.18663 0.623228,0.29225 0.891034,0.83705 0.759974,1.54602 -0.08488,0.45916 -0.310665,0.85243 -0.604175,1.05233 -0.12384,0.0844 -0.225127,0.16763 -0.225082,0.18509 4.8e-5,0.0175 0.256191,0.52959 0.569209,1.13811 0.313016,0.6085 0.562601,1.11222 0.554632,1.11935 -0.02664,0.0238 -1.317282,0.15348 -1.528115,0.15348 h -0.208006 z m -0.06586,-2.16826 c 0.307358,-0.15894 0.412698,-0.57387 0.23361,-0.92019 -0.114521,-0.22146 -0.206127,-0.25832 -0.641996,-0.25832 H 33.78867 v 0.63446 0.63447 h 0.288657 c 0.158762,0 0.367334,-0.0407 0.463491,-0.0905 z m -18.707356,0.47129 v -2.66472 h 0.824797 0.824797 v 2.66472 2.66474 h -0.8248 -0.824797 z m 2.347499,0 v -2.66472 h 0.592693 0.592693 l 0.747175,0.93583 c 0.410947,0.5147 0.907965,1.17022 1.104486,1.45671 0.196521,0.28648 0.378725,0.52203 0.404897,0.52343 0.02617,0.002 0.04757,-0.65412 0.04757,-1.45672 v -1.45925 h 0.634461 0.634459 v 2.66472 2.66474 H 22.381243 21.82309 l -0.634202,-0.77722 c -0.716072,-0.87754 -1.094845,-1.36855 -1.476407,-1.91389 l -0.262611,-0.37534 v 1.53323 1.53322 h -0.63446 -0.63446 z m 10.278245,0.50758 v -2.15717 h -0.761351 -0.761352 v -0.50757 -0.50756 h 2.347499 2.3475 v 0.50756 0.50757 H 30.87015 30.108799 v 2.15717 2.15716 h -0.824797 -0.824796 z m 13.89466,-0.50758 v -2.66472 h 1.104098 1.104098 l 0.07645,0.20619 c 0.223358,0.6024 0.95109,2.80599 0.95109,2.87993 0,0.0474 0.02855,0.0861 0.06345,0.0861 0.0349,0 0.06247,-0.0357 0.06126,-0.0794 -0.0012,-0.0436 0.218519,-0.75738 0.488259,-1.58614 l 0.490443,-1.50685 h 1.097891 1.097887 v 2.66474 2.66472 h -0.8248 -0.824795 l -0.0031,-1.82407 -0.0031,-1.82407 -0.496588,1.45926 c -0.273125,0.80259 -0.552775,1.61629 -0.621443,1.80821 l -0.124855,0.34896 -0.533754,0.0181 -0.533756,0.0181 -0.213469,-0.58913 c -0.117404,-0.32402 -0.408609,-1.16013 -0.647117,-1.85804 l -0.433654,-1.26892 -0.0028,1.8558 -0.0029,1.85579 h -0.63438 -0.634459 z m 7.169392,0 v -2.66472 h 1.652265 1.652261 l -0.01853,0.4917 -0.01853,0.49171 -0.808934,0.0177 -0.808936,0.0178 v 0.50568 0.50567 h 0.793074 0.793074 v 0.50756 0.50757 H 51.96593 51.172856 v 0.63446 0.63445 h 0.983411 0.983412 v 0.50758 0.50757 h -1.808215 -1.808211 z m 3.870202,0 v -2.66472 l 0.618599,0.002 0.618598,0.002 0.780735,0.97701 c 0.429404,0.53738 0.936178,1.20926 1.126166,1.4931 l 0.345431,0.51609 v -1.49505 -1.49504 h 0.634458 0.634459 v 2.66473 2.66473 h -0.537502 -0.537502 l -0.855925,-1.05681 c -0.470757,-0.58125 -0.992609,-1.26519 -1.159673,-1.51987 -0.167066,-0.2547 -0.325168,-0.46435 -0.351339,-0.4659 -0.02618,-0.002 -0.04759,0.6824 -0.04759,1.51988 v 1.5227 H 54.02792 53.393458 Z m 6.59838,0.50758 v -2.15717 H 59.23049 58.469139 v -0.50757 -0.50756 h 2.3475 2.347498 v 0.50756 0.50757 h -0.761351 -0.761352 v 2.15717 2.15716 H 60.816637 59.99184 Z M 9.5193083,290.8291 c -0.3102612,-0.1509 -1.9643431,-1.93021 -3.2369821,-3.48204 -2.8913559,-3.52567 -3.8301009,-4.37604 -5.64187015,-5.11077 -0.27789928,-0.1127 -0.51500683,-0.23411 -0.52690318,-0.26981 -0.05427846,-0.16284 1.44369253,-0.98818 2.33281663,-1.28533 0.9140269,-0.30547 1.7787062,-0.44019 2.8182302,-0.43909 1.830478,0.002 2.4369934,0.32109 4.2311131,2.2266 1.2911272,1.37129 2.7695842,3.09945 4.3634972,5.10046 0.589786,0.74042 0.70471,0.91992 0.690572,1.07858 -0.01609,0.18061 -0.08838,0.22633 -1.41277,0.89387 -1.550724,0.78161 -2.952006,1.36072 -3.2767097,1.35416 -0.1170496,-0.003 -0.2704967,-0.0322 -0.340994,-0.0667 z m 4.4677247,-3.78061 c -0.160604,-0.1673 -0.457599,-0.51829 -0.659991,-0.78001 -0.202391,-0.26171 -0.451436,-0.56507 -0.553433,-0.67414 l -0.185449,-0.19828 0.219704,-0.43628 c 0.120838,-0.23996 0.263116,-0.58245 0.316175,-0.76114 0.23673,-0.79715 0.533452,-1.06929 1.247243,-1.14389 0.21098,-0.0221 0.383442,-0.0574 0.383246,-0.0786 -0.0017,-0.1828 -0.159616,-0.53237 -0.272438,-0.60301 -0.07678,-0.0481 -0.396563,-0.10558 -0.71062,-0.12778 -0.314057,-0.0223 -0.705049,-0.0733 -0.868871,-0.11342 -0.42743,-0.10482 -0.687919,-0.005 -1.28438,0.49095 -0.277012,0.23044 -0.588755,0.46299 -0.692765,0.51678 l -0.18911,0.0978 -0.368094,-0.40371 c -0.319742,-0.35068 -0.363445,-0.42872 -0.332694,-0.59405 0.09842,-0.52916 0.550382,-1.11458 1.06201,-1.37559 0.362948,-0.18517 1.326309,-0.4149 2.047506,-0.48826 0.344519,-0.0351 1.457763,-0.0824 2.473874,-0.10535 l 1.847475,-0.0416 -0.437712,0.45361 c -1.153288,1.19518 -1.903336,2.39743 -2.35685,3.7778 -0.263292,0.80137 -0.312906,1.08398 -0.354146,2.0172 l -0.03867,0.87518 z m 22.957811,-1.28908 c -1.363442,-0.34383 -2.200193,-1.84519 -1.880363,-3.37387 0.166941,-0.79792 0.842767,-1.61786 1.561197,-1.89411 1.06025,-0.4077 2.304396,-0.12499 3.041293,0.69106 0.389359,0.43118 0.654654,1.18062 0.655875,1.85278 0.0022,1.14531 -0.567915,2.11302 -1.502107,2.55017 -0.359892,0.16842 -0.502825,0.1983 -1.02787,0.21482 -0.335414,0.0105 -0.717027,-0.007 -0.848025,-0.0409 z m 1.250423,-1.27339 c 0.149473,-0.13124 0.255357,-0.3033 0.319438,-0.51908 0.12883,-0.43382 0.126668,-1.45563 -0.004,-1.83879 -0.346696,-1.0175 -1.503377,-0.90801 -1.743513,0.16503 -0.116154,0.51903 -0.05192,1.52711 0.118488,1.85973 0.196502,0.38353 0.411289,0.52942 0.779427,0.52942 0.252119,0 0.346117,-0.0348 0.530049,-0.19631 z m -19.90856,1.23259 c -0.02327,-0.0233 -0.04229,-1.23667 -0.04229,-2.69645 V 280.368 h 0.600535 0.600536 l 0.798294,0.99929 c 0.439061,0.54958 0.953965,1.22611 1.144228,1.50337 l 0.345933,0.50411 v -1.50338 -1.50339 h 0.63446 0.63446 v 2.69646 2.69644 l -0.52343,-0.002 -0.523429,-0.002 -0.523264,-0.6306 c -0.479879,-0.5783 -1.548813,-1.96848 -1.805493,-2.34806 -0.102131,-0.15104 -0.107414,-0.0836 -0.110584,1.41167 l -0.0033,1.57028 h -0.592162 c -0.325689,0 -0.611195,-0.019 -0.634459,-0.0423 z m 4.970165,-0.005 c 1.27e-4,-0.0261 0.483828,-1.23242 1.074891,-2.68058 l 1.074658,-2.63302 0.66651,-0.018 c 0.585912,-0.0158 0.673732,-0.004 0.726245,0.0952 0.09308,0.17628 1.97726,5.15264 1.97726,5.22217 0,0.037 -0.338121,0.0618 -0.843028,0.0618 H 27.09038 l -0.207961,-0.63446 -0.207963,-0.63446 h -0.836639 -0.836643 l -0.247256,0.63446 -0.24726,0.63446 h -0.625009 c -0.343755,0 -0.624905,-0.0214 -0.624777,-0.0476 z m 3.109049,-2.15716 c 7.19e-4,-0.0783 -0.466413,-1.79163 -0.483757,-1.77428 -0.0087,0.008 -0.142199,0.42232 -0.296433,0.91893 l -0.280424,0.90294 h 0.530092 c 0.291552,0 0.530287,-0.0214 0.530522,-0.0476 z m 2.966501,0.0317 -0.01669,-2.17303 -0.777214,-0.0178 -0.77721,-0.0178 v -0.50561 -0.50562 h 2.347499 2.347501 v 0.50757 0.50757 h -0.761351 -0.761352 v 2.18888 2.18889 h -0.792241 -0.792243 l -0.01669,-2.17303 z m 3.694893,-0.52343 v -2.69647 h 0.793075 0.793073 v 2.69646 2.69645 h -0.793076 -0.793074 z m 7.67696,0 v -2.69646 h 0.594267 0.594268 l 0.772555,0.96755 c 0.424904,0.53216 0.935489,1.20607 1.134634,1.49759 l 0.362079,0.53004 0.017,-1.49759 0.017,-1.49759 h 0.633311 0.633312 v 2.69646 2.69645 h -0.531773 -0.531774 l -0.6639,-0.80894 c -0.589851,-0.71871 -1.470853,-1.87886 -1.679037,-2.21104 -0.05974,-0.0953 -0.07636,0.20847 -0.07931,1.4497 l -0.0037,1.57028 H 41.33876 40.704302 Z m 4.948784,2.62126 c 0,-0.0724 1.65323,-4.18389 2.005152,-4.98679 l 0.146948,-0.33528 0.673698,0.018 0.673699,0.018 0.978733,2.56955 c 0.538305,1.41327 0.994794,2.61952 1.014427,2.6806 0.0328,0.10204 -0.03364,0.11102 -0.817409,0.11102 H 49.47521 l -0.06717,-0.17447 c -0.03694,-0.096 -0.131681,-0.38147 -0.210523,-0.63446 l -0.143348,-0.45998 h -0.8369 -0.836902 l -0.248856,0.6186 -0.248855,0.61859 -0.614796,0.0181 c -0.461155,0.0136 -0.614794,-0.002 -0.614794,-0.0616 z m 3.092702,-2.16128 c -0.01635,-0.0436 -0.126466,-0.44313 -0.244709,-0.8878 -0.118242,-0.44467 -0.229265,-0.80862 -0.246711,-0.8088 -0.01745,-1.8e-4 -0.144017,0.36364 -0.281268,0.80849 -0.13725,0.44483 -0.261644,0.84449 -0.276433,0.88811 -0.02015,0.0595 0.111642,0.0794 0.525978,0.0794 0.415849,0 0.545502,-0.0197 0.523143,-0.0794 z m 2.807771,-0.45998 v -2.69646 h 0.793074 0.793073 v 2.18888 2.1889 h 0.983412 0.983412 v 0.50756 0.50757 H 53.330015 51.55353 Z"
       id="path826"
       inkscape:connector-curvature="0"
       sodipodi:nodetypes="ccsccsscccccscccccccccccsccccccsccccsscccscscscccsscccccccsccsccccscsccccccccccccsccccsccccscccscccccccccccccccscscccccccccccccccccccccccccccccccccccccsscscccccccccsscccccccccccccccccccccccccccccccccccccccccccccccccccsccsccccccccccccccccccccccsccccsccccccccccccccccccccccsscccscccssscccccscccscccscccsccccccccccccscscccscccsscccccccsccccccsccccccccccccccccccccccccccccccccsscccccccccscscccccscccscsccscccccccccscscscccccccccccccc" />
    <g
       aria-label="TM"
       style="font-style:normal;font-variant:normal;font-weight:normal;font-stretch:normal;font-size:3.88055563px;line-height:1.25;font-family:'Libre Franklin';-inkscape-font-specification:'Libre Franklin';letter-spacing:0px;word-spacing:0px;fill:#999999;fill-opacity:0.50196078;stroke:none;stroke-width:0.26458332"
       id="text830"
       transform="matrix(0.2397957,0,0,0.2397957,33.450705,229.901)">
      <path
         d="m 140.78222,239.78842 h 2.60725 v 0.55138 h -0.93793 v 2.27756 h -0.72949 v -2.27756 h -0.93983 z"
         style="font-style:normal;font-variant:normal;font-weight:bold;font-stretch:normal;font-family:sans-serif;-inkscape-font-specification:'sans-serif Bold';fill:#999999;fill-opacity:0.50196078;stroke-width:0.26458332"
         id="path832"
         inkscape:connector-curvature="0" />
      <path
         d="m 143.76464,239.78842 h 0.92846 l 0.64423,1.51394 0.64802,-1.51394 h 0.92656 v 2.82894 h -0.68971 v -2.06913 l -0.65181,1.52532 h -0.46233 l -0.65181,-1.52532 v 2.06913 h -0.69161 z"
         style="font-style:normal;font-variant:normal;font-weight:bold;font-stretch:normal;font-family:sans-serif;-inkscape-font-specification:'sans-serif Bold';fill:#999999;fill-opacity:0.50196078;stroke-width:0.26458332"
         id="path834"
         inkscape:connector-curvature="0" />
    </g>
  </g>
</svg>
