<?xml version="1.0" encoding="UTF-8" standalone="no"?>
<!-- Created with Inkscape (http://www.inkscape.org/) -->

<svg
   xmlns:dc="http://purl.org/dc/elements/1.1/"
   xmlns:cc="http://creativecommons.org/ns#"
   xmlns:rdf="http://www.w3.org/1999/02/22-rdf-syntax-ns#"
   xmlns:svg="http://www.w3.org/2000/svg"
   xmlns="http://www.w3.org/2000/svg"
   xmlns:sodipodi="http://sodipodi.sourceforge.net/DTD/sodipodi-0.dtd"
   xmlns:inkscape="http://www.inkscape.org/namespaces/inkscape"
   width="260mm"
   height="85mm"
   viewBox="0 0 260 85"
   version="1.1"
   id="svg8"
   inkscape:version="0.92.4 5da689c313, 2019-01-14"
   sodipodi:docname="sch-logo.svg">
  <defs
     id="defs2" />
  <sodipodi:namedview
     id="base"
     pagecolor="#ffffff"
     bordercolor="#666666"
     borderopacity="1.0"
     inkscape:pageopacity="0.0"
     inkscape:pageshadow="2"
     inkscape:zoom="0.49497475"
     inkscape:cx="304.91126"
     inkscape:cy="340.61338"
     inkscape:document-units="mm"
     inkscape:current-layer="layer1"
     showgrid="false"
     inkscape:window-width="1366"
     inkscape:window-height="715"
     inkscape:window-x="0"
     inkscape:window-y="25"
     inkscape:window-maximized="1" />
  <metadata
     id="metadata5">
    <rdf:RDF>
      <cc:Work
         rdf:about="">
        <dc:format>image/svg+xml</dc:format>
        <dc:type
           rdf:resource="http://purl.org/dc/dcmitype/StillImage" />
        <dc:title></dc:title>
      </cc:Work>
    </rdf:RDF>
  </metadata>
  <g
     inkscape:label="1. réteg"
     inkscape:groupmode="layer"
     id="layer1"
     transform="translate(0,-212)">
    <g
       id="surface5303"
       transform="matrix(0.31325742,0,0,0.31325742,-57.954458,113.53416)"
       style="fill:#ffffff;fill-opacity:0.50196081">
      <path
         id="path815"
         d="m 270.55469,462.25781 17.96093,-9.64062 -1.01953,-131.0625 -48.22656,2.2539 -2.04297,148.29688 28.29688,0.29687 z m 0,0"
         style="fill:#ffffff;fill-opacity:0.50196081;fill-rule:evenodd;stroke:none"
         inkscape:connector-curvature="0" />
      <path
         id="path817"
         d="m 254.84375,493.92578 6.55078,-13.20312 -30.60547,-0.28516 2.29297,-147.70703 -0.74609,0.0273 -14.36328,0.53125 -3.25782,151.1875 -23.52734,25.26563 -1.92969,51.1914 61.625,-0.0937 z m 0,0"
         style="fill:#ffffff;fill-opacity:0.50196081;fill-rule:evenodd;stroke:none"
         inkscape:connector-curvature="0" />
      <path
         id="path819"
         d="m 309.54297,441.32812 -1.60156,-110.95312 -13.22266,0.0742 -0.9375,0.0351 1.03906,118.7461 z m 0,0"
         style="fill:#ffffff;fill-opacity:0.50196081;fill-rule:evenodd;stroke:none"
         inkscape:connector-curvature="0" />
      <path
         id="path821"
         d="m 292.89453,496.90234 7.51172,-9.01562 7.51562,9.76562 -0.5039,25.29688 -15.27344,-0.5 z m 31.30469,3.50782 7.51562,-8.01563 6.26172,8.26563 -0.5039,24.04296 -13.77344,-0.5 z m 31.30859,4.00781 6.26172,-7.26563 5.75781,7.01172 0.25,22.79297 -13.02343,-0.25 z m 59.10547,-0.75391 4.75781,7.76563 -0.5,19.03515 h -9.76562 l -0.50391,-20.03906 z m 21.53906,1.75391 5.00782,7.01172 0.5039,18.53515 -10.51953,0.25 -0.25,-18.53515 z m 18.28516,2.5039 4.75781,6.76172 v 17.28125 l -8.76562,0.50391 -0.25391,-18.03516 z m -190.67969,-11.76953 -4.00781,64.11719 116.3125,0.375 0.73047,-35.35547 5.26172,0.30469 v -18.17188 l 6.76172,-7.51562 6.26171,7.26562 -0.23046,19.16016 4.98828,0.28906 0.74218,34.10547 64.87891,0.20703 -1.75391,-64.78125 -44.91406,-26.29687 -100.93359,-21.78906 -39.40625,20.03515 z m 0,0"
         style="fill:#ffffff;fill-opacity:0.50196081;fill-rule:evenodd;stroke:none"
         inkscape:connector-curvature="0" />
      <path
         id="path823"
         d="m 188.02344,578.44531 h 277.42968 v -8.98437 H 188.02344 Z m 0,0"
         style="fill:#ffffff;fill-opacity:0.50196081;fill-rule:evenodd;stroke:none"
         inkscape:connector-curvature="0" />
      <path
         id="path825"
         d="m 517.17187,567.73828 4.8086,-11.66797 c 5.14062,3.60547 10.19922,5.41016 15.17187,5.41016 7.64453,0 11.46875,-2.67188 11.46875,-8.01563 0,-2.5039 -0.89843,-4.89062 -2.70312,-7.16015 -1.80469,-2.26953 -5.51953,-4.81641 -11.14453,-7.63672 -5.625,-2.82422 -9.41407,-5.14063 -11.36719,-6.96094 -1.95313,-1.82031 -3.45703,-3.98437 -4.50781,-6.48828 -1.05078,-2.50391 -1.57813,-5.27344 -1.57813,-8.3125 0,-5.67578 2.07813,-10.38281 6.23438,-14.125 4.16015,-3.73828 9.49218,-5.60938 16.0039,-5.60938 8.47657,0 14.70703,1.58594 18.67969,4.75782 l -3.95703,11.21875 c -4.57422,-3.26953 -9.39844,-4.90625 -14.47266,-4.90625 -3.0039,0 -5.33593,0.79297 -6.98828,2.3789 -1.65234,1.58594 -2.47656,3.64844 -2.47656,6.1836 0,4.20703 4.65625,8.58203 13.97266,13.12109 4.90625,2.40625 8.44531,4.61719 10.61718,6.63672 2.16797,2.01953 3.82032,4.375 4.95703,7.0625 1.13282,2.6875 1.70313,5.68359 1.70313,8.98828 0,5.94531 -2.34766,10.83594 -7.03516,14.67578 -4.6914,3.83985 -10.97656,5.75781 -18.85937,5.75781 -6.84375,0 -13.01953,-1.76953 -18.52735,-5.30859"
         style="fill:#ffffff;fill-opacity:0.50196081;fill-rule:nonzero;stroke:none"
         inkscape:connector-curvature="0" />
      <path
         id="path827"
         d="m 614.42969,522.41406 -5.35938,9.36719 c -2.9375,-2.77344 -6.8789,-4.16016 -11.82031,-4.16016 -4.73828,0 -8.48828,1.57813 -11.24219,4.73438 -2.7539,3.15625 -4.13281,7.51953 -4.13281,13.09765 0,11.25 5.35937,16.875 16.07812,16.875 4.64063,0 8.73047,-1.53515 12.26954,-4.60546 l 4.60937,9.86718 c -3.64062,2.26953 -6.82422,3.70313 -9.54297,4.30469 -2.72265,0.60156 -5.93359,0.90234 -9.64062,0.90234 -8.28125,0 -14.81641,-2.41015 -19.60547,-7.23828 -4.79297,-4.82422 -7.1875,-11.52343 -7.1875,-20.10547 0,-8.44921 2.62109,-15.27734 7.86328,-20.48437 5.24219,-5.20703 12.38672,-7.8125 21.43359,-7.8125 6.24219,0 11.66797,1.75391 16.27735,5.25781"
         style="fill:#ffffff;fill-opacity:0.50196081;fill-rule:nonzero;stroke:none"
         inkscape:connector-curvature="0" />
      <path
         id="path829"
         d="m 659.55078,571.79687 v -33.05468 c 0,-3.30469 -1.03516,-5.96094 -3.10156,-7.96485 -2.07031,-2.0039 -4.77735,-3.0039 -8.11328,-3.0039 -2.07422,0 -4.16016,0.55859 -6.26172,1.67968 -2.10156,1.11719 -3.60547,2.39454 -4.50781,3.82813 v 38.51562 h -12.71875 v -73.62109 l 12.71875,-3.00391 v 26.39063 c 3.23828,-2.9375 7.69531,-4.40625 13.37109,-4.40625 6.71094,0 11.92187,1.85937 15.62891,5.58594 3.70312,3.72265 5.55859,9.05468 5.55859,16 v 33.05468 z m 0,0"
         style="fill:#ffffff;fill-opacity:0.50196081;fill-rule:nonzero;stroke:none"
         inkscape:connector-curvature="0" />
      <path
         id="path831"
         d="m 724.35937,496.67187 c 1.96875,0 3.64454,0.70313 5.03125,2.10547 1.38672,1.40235 2.07813,3.08594 2.07813,5.0586 0,1.96875 -0.69141,3.64843 -2.07813,5.03125 -1.38671,1.38672 -3.0625,2.07812 -5.03125,2.07812 -1.97265,0 -3.65625,-0.6914 -5.05859,-2.07812 -1.40234,-1.38282 -2.10547,-3.0625 -2.10547,-5.03125 0,-1.97266 0.70313,-3.65625 2.10547,-5.0586 1.40234,-1.40234 3.08594,-2.10547 5.05859,-2.10547 m -29.19921,48.17969 c 0,11.82031 4.25781,17.73047 12.76953,17.73047 3.90625,0 7.0039,-1.53906 9.29297,-4.60937 2.28515,-3.07032 3.42968,-7.44532 3.42968,-13.1211 0,-11.65234 -4.24218,-17.48047 -12.72265,-17.48047 -3.90625,0 -7.00782,1.53907 -9.3125,4.60938 -2.30469,3.07031 -3.45703,7.36328 -3.45703,12.87109 m -1.85157,-48.17969 c 1.96875,0 3.64453,0.70313 5.03125,2.10547 1.38672,1.40235 2.08203,3.08594 2.08203,5.0586 0,1.96875 -0.69531,3.64843 -2.08203,5.03125 -1.38672,1.38672 -3.0625,2.07812 -5.03125,2.07812 -1.97265,0 -3.65625,-0.6914 -5.05859,-2.07812 -1.40234,-1.38282 -2.10547,-3.0625 -2.10547,-5.03125 0,-1.97266 0.70313,-3.65625 2.10547,-5.0586 1.40234,-1.40234 3.08594,-2.10547 5.05859,-2.10547 m -11.16797,48.17969 c 0,-8.17969 2.35938,-14.83984 7.08594,-19.98437 4.72266,-5.14063 10.95703,-7.71094 18.70313,-7.71094 8.14843,0 14.47265,2.47266 18.98047,7.41406 4.51171,4.9375 6.76171,11.69922 6.76171,20.28125 0,8.54688 -2.29296,15.34375 -6.88671,20.38281 -4.58985,5.04297 -10.875,7.5625 -18.85547,7.5625 -8.14453,0 -14.48047,-2.54687 -19.00391,-7.63671 -4.52344,-5.08985 -6.78516,-11.86329 -6.78516,-20.3086"
         style="fill:#ffffff;fill-opacity:0.50196081;fill-rule:nonzero;stroke:none"
         inkscape:connector-curvature="0" />
      <path
         id="path833"
         d="m 778.19531,571.79687 v -31.0039 c 0,-4.57422 -0.875,-7.91016 -2.6289,-10.01563 -1.75391,-2.10156 -4.61719,-3.15234 -8.58985,-3.15234 -1.83594,0 -3.79687,0.51562 -5.88281,1.55078 -2.08594,1.03516 -3.71484,2.32031 -4.88281,3.85547 v 38.76562 h -12.51953 v -53.63671 h 9.01171 l 2.30469,5.00781 c 3.40625,-4.00781 8.42969,-6.01172 15.07813,-6.01172 6.375,0 11.40625,1.91016 15.09765,5.73437 3.6875,3.82422 5.53516,9.15625 5.53516,16 v 32.90625 z m 0,0"
         style="fill:#ffffff;fill-opacity:0.50196081;fill-rule:nonzero;stroke:none"
         inkscape:connector-curvature="0" />
      <path
         id="path835"
         d="m 838.94531,571.79687 v -33.05468 c 0,-3.30469 -1.03515,-5.96094 -3.10547,-7.96485 -2.07031,-2.0039 -4.77343,-3.0039 -8.11328,-3.0039 -2.07031,0 -4.15625,0.55859 -6.25781,1.67968 -2.10547,1.11719 -3.60547,2.39454 -4.50781,3.82813 v 38.51562 h -12.72266 v -73.62109 l 12.72266,-3.00391 v 26.39063 c 3.23828,-2.9375 7.69531,-4.40625 13.37109,-4.40625 6.71094,0 11.91797,1.85937 15.625,5.58594 3.70703,3.72265 5.55859,9.05468 5.55859,16 v 33.05468 z m 0,0"
         style="fill:#ffffff;fill-opacity:0.50196081;fill-rule:nonzero;stroke:none"
         inkscape:connector-curvature="0" />
      <path
         id="path837"
         d="m 875.05469,539.39062 h 26.33984 C 900.52734,531.54687 896.1875,527.625 888.375,527.625 c -7.14453,0 -11.58594,3.92187 -13.32031,11.76562 m 37.86328,9.41797 h -38.31641 c 0.23438,4.27344 1.70313,7.59375 4.41016,9.96485 2.70312,2.37109 6.33984,3.55468 10.91797,3.55468 5.70703,0 10.04687,-1.48437 13.01953,-4.45703 l 4.85937,9.56641 c -4.40625,3.57422 -10.98437,5.35937 -19.73437,5.35937 -8.17969,0 -14.64844,-2.39453 -19.40625,-7.1875 -4.75781,-4.78906 -7.13672,-11.47656 -7.13672,-20.05859 0,-8.44531 2.61328,-15.28906 7.83984,-20.53125 5.22266,-5.24219 11.49219,-7.86328 18.80469,-7.86328 7.78125,0 14.02344,2.32031 18.73047,6.96094 4.70703,4.64062 7.0625,10.55078 7.0625,17.73047 0,1.53515 -0.35156,3.85546 -1.05078,6.96093"
         style="fill:#ffffff;fill-opacity:0.50196081;fill-rule:nonzero;stroke:none"
         inkscape:connector-curvature="0" />
      <path
         id="path839"
         d="m 954.98437,529.82812 c -2.23828,-1.46875 -4.6914,-2.20312 -7.36328,-2.20312 -2.90234,0 -5.48437,1.31641 -7.73828,3.95703 -2.25,2.63672 -3.3789,5.85547 -3.3789,9.66406 v 30.55078 h -12.51954 v -53.64062 h 12.51954 v 4.91016 c 3.50781,-3.9375 8.16406,-5.91016 13.97265,-5.91016 4.27344,0 7.54688,0.65234 9.81641,1.95312 z m 0,0"
         style="fill:#ffffff;fill-opacity:0.50196081;fill-rule:nonzero;stroke:none"
         inkscape:connector-curvature="0" />
      <path
         id="path841"
         d="m 964.29687,571.79687 v -4.25781 l 29.10157,-38.46484 h -28.59766 v -10.91406 h 46.87502 v 4.40625 l -28.04689,38.3125 h 28.34769 v 10.91796 z m 0,0"
         style="fill:#ffffff;fill-opacity:0.50196081;fill-rule:nonzero;stroke:none"
         inkscape:connector-curvature="0" />
    </g>
  </g>
</svg>
