<?xml version="1.0" encoding="UTF-8" standalone="no"?>
<svg
   xmlns:dc="http://purl.org/dc/elements/1.1/"
   xmlns:cc="http://creativecommons.org/ns#"
   xmlns:rdf="http://www.w3.org/1999/02/22-rdf-syntax-ns#"
   xmlns:svg="http://www.w3.org/2000/svg"
   xmlns="http://www.w3.org/2000/svg"
   xmlns:sodipodi="http://sodipodi.sourceforge.net/DTD/sodipodi-0.dtd"
   xmlns:inkscape="http://www.inkscape.org/namespaces/inkscape"
   width="2366.1733"
   height="457.7688"
   viewBox="0 0 626.05004 121.118"
   version="1.1"
   id="svg8"
   inkscape:version="1.0 (4035a4fb49, 2020-05-01)"
   sodipodi:docname="3dnyomtato.svg">
  <defs
     id="defs2">
    <inkscape:path-effect
       hide_knot="false"
       lpeversion="0"
       fuse_tolerance="0"
       vertical_pattern="false"
       prop_units="false"
       tang_offset="0"
       normal_offset="0"
       spacing="0"
       scale_y_rel="false"
       prop_scale="0.5"
       copytype="single_stretched"
       pattern="M 0,5 C 0,2.24 2.24,0 5,0 7.76,0 10,2.24 10,5 10,7.76 7.76,10 5,10 2.24,10 0,7.76 0,5 Z"
       is_visible="true"
       id="path-effect889"
       effect="skeletal" />
    <inkscape:path-effect
       hide_knot="false"
       lpeversion="0"
       fuse_tolerance="0"
       vertical_pattern="false"
       prop_units="false"
       tang_offset="0"
       normal_offset="0"
       spacing="0"
       scale_y_rel="false"
       prop_scale="0.5"
       copytype="single_stretched"
       pattern="M 0,5 C 0,2.24 2.24,0 5,0 7.76,0 10,2.24 10,5 10,7.76 7.76,10 5,10 2.24,10 0,7.76 0,5 Z"
       is_visible="true"
       id="path-effect884"
       effect="skeletal" />
    <inkscape:path-effect
       hide_knot="false"
       lpeversion="0"
       fuse_tolerance="0"
       vertical_pattern="false"
       prop_units="false"
       tang_offset="0"
       normal_offset="0"
       spacing="0"
       scale_y_rel="false"
       prop_scale="0.5"
       copytype="single_stretched"
       pattern="M 0,5 C 0,2.24 2.24,0 5,0 7.76,0 10,2.24 10,5 10,7.76 7.76,10 5,10 2.24,10 0,7.76 0,5 Z"
       is_visible="true"
       id="path-effect879"
       effect="skeletal" />
    <inkscape:path-effect
       hide_knot="false"
       lpeversion="0"
       fuse_tolerance="0"
       vertical_pattern="false"
       prop_units="false"
       tang_offset="0"
       normal_offset="0"
       spacing="0"
       scale_y_rel="false"
       prop_scale="0.5"
       copytype="single_stretched"
       pattern="M 0,5 C 0,2.24 2.24,0 5,0 7.76,0 10,2.24 10,5 10,7.76 7.76,10 5,10 2.24,10 0,7.76 0,5 Z"
       is_visible="true"
       id="path-effect874"
       effect="skeletal" />
    <inkscape:path-effect
       hide_knot="false"
       lpeversion="0"
       fuse_tolerance="0"
       vertical_pattern="false"
       prop_units="false"
       tang_offset="0"
       normal_offset="0"
       spacing="0"
       scale_y_rel="false"
       prop_scale="0.5"
       copytype="single_stretched"
       pattern="M 0,5 C 0,2.24 2.24,0 5,0 7.76,0 10,2.24 10,5 10,7.76 7.76,10 5,10 2.24,10 0,7.76 0,5 Z"
       is_visible="true"
       id="path-effect1215"
       effect="skeletal" />
    <inkscape:path-effect
       hide_knot="false"
       lpeversion="0"
       effect="skeletal"
       id="path-effect1211"
       is_visible="true"
       pattern="M 0,5 C 0,2.24 2.24,0 5,0 7.76,0 10,2.24 10,5 10,7.76 7.76,10 5,10 2.24,10 0,7.76 0,5 Z"
       copytype="single_stretched"
       prop_scale="0.5"
       scale_y_rel="false"
       spacing="0"
       normal_offset="0"
       tang_offset="0"
       prop_units="false"
       vertical_pattern="false"
       fuse_tolerance="0" />
    <inkscape:path-effect
       hide_knot="false"
       lpeversion="0"
       fuse_tolerance="0"
       vertical_pattern="false"
       prop_units="false"
       tang_offset="0"
       normal_offset="0"
       spacing="0"
       scale_y_rel="false"
       prop_scale="0.5"
       copytype="single_stretched"
       pattern="M 0,5 C 0,2.24 2.24,0 5,0 7.76,0 10,2.24 10,5 10,7.76 7.76,10 5,10 2.24,10 0,7.76 0,5 Z"
       is_visible="true"
       id="path-effect1207"
       effect="skeletal" />
    <inkscape:path-effect
       hide_knot="false"
       lpeversion="0"
       fuse_tolerance="0"
       vertical_pattern="false"
       prop_units="false"
       tang_offset="0"
       normal_offset="0"
       spacing="0"
       scale_y_rel="false"
       prop_scale="0.5"
       copytype="single_stretched"
       pattern="M 0,5 C 0,2.24 2.24,0 5,0 7.76,0 10,2.24 10,5 10,7.76 7.76,10 5,10 2.24,10 0,7.76 0,5 Z"
       is_visible="true"
       id="path-effect1200"
       effect="skeletal" />
    <inkscape:path-effect
       hide_knot="false"
       lpeversion="0"
       effect="skeletal"
       id="path-effect1196"
       is_visible="true"
       pattern="M 0,5 C 0,2.24 2.24,0 5,0 7.76,0 10,2.24 10,5 10,7.76 7.76,10 5,10 2.24,10 0,7.76 0,5 Z"
       copytype="single_stretched"
       prop_scale="0.5"
       scale_y_rel="false"
       spacing="0"
       normal_offset="0"
       tang_offset="0"
       prop_units="false"
       vertical_pattern="false"
       fuse_tolerance="0" />
    <inkscape:path-effect
       hide_knot="false"
       lpeversion="0"
       fuse_tolerance="0"
       vertical_pattern="false"
       prop_units="false"
       tang_offset="0"
       normal_offset="0"
       spacing="0"
       scale_y_rel="false"
       prop_scale="0.5"
       copytype="single_stretched"
       pattern="M 0,5 C 0,2.24 2.24,0 5,0 7.76,0 10,2.24 10,5 10,7.76 7.76,10 5,10 2.24,10 0,7.76 0,5 Z"
       is_visible="true"
       id="path-effect1192"
       effect="skeletal" />
    <inkscape:path-effect
       hide_knot="false"
       lpeversion="0"
       fuse_tolerance="0"
       vertical_pattern="false"
       prop_units="false"
       tang_offset="0"
       normal_offset="0"
       spacing="0"
       scale_y_rel="false"
       prop_scale="0.5"
       copytype="single_stretched"
       pattern="M 0,5 C 0,2.24 2.24,0 5,0 7.76,0 10,2.24 10,5 10,7.76 7.76,10 5,10 2.24,10 0,7.76 0,5 Z"
       is_visible="true"
       id="path-effect1184"
       effect="skeletal" />
    <inkscape:path-effect
       hide_knot="false"
       lpeversion="0"
       effect="skeletal"
       id="path-effect1180"
       is_visible="true"
       pattern="M 0,5 C 0,2.24 2.24,0 5,0 7.76,0 10,2.24 10,5 10,7.76 7.76,10 5,10 2.24,10 0,7.76 0,5 Z"
       copytype="single_stretched"
       prop_scale="0.5"
       scale_y_rel="false"
       spacing="0"
       normal_offset="0"
       tang_offset="0"
       prop_units="false"
       vertical_pattern="false"
       fuse_tolerance="0" />
    <inkscape:path-effect
       hide_knot="false"
       lpeversion="0"
       fuse_tolerance="0"
       vertical_pattern="false"
       prop_units="false"
       tang_offset="0"
       normal_offset="0"
       spacing="0"
       scale_y_rel="false"
       prop_scale="0.5"
       copytype="single_stretched"
       pattern="M 0,5 C 0,2.24 2.24,0 5,0 7.76,0 10,2.24 10,5 10,7.76 7.76,10 5,10 2.24,10 0,7.76 0,5 Z"
       is_visible="true"
       id="path-effect1176"
       effect="skeletal" />
    <inkscape:path-effect
       hide_knot="false"
       lpeversion="0"
       effect="skeletal"
       id="path-effect1170"
       is_visible="true"
       pattern="M 0,5 C 0,2.24 2.24,0 5,0 7.76,0 10,2.24 10,5 10,7.76 7.76,10 5,10 2.24,10 0,7.76 0,5 Z"
       copytype="single_stretched"
       prop_scale="0.5"
       scale_y_rel="false"
       spacing="0"
       normal_offset="0"
       tang_offset="0"
       prop_units="false"
       vertical_pattern="false"
       fuse_tolerance="0" />
    <inkscape:path-effect
       hide_knot="false"
       lpeversion="0"
       fuse_tolerance="0"
       vertical_pattern="false"
       prop_units="false"
       tang_offset="0"
       normal_offset="0"
       spacing="0"
       scale_y_rel="false"
       prop_scale="0.5"
       copytype="single_stretched"
       pattern="M 0,5 C 0,2.24 2.24,0 5,0 7.76,0 10,2.24 10,5 10,7.76 7.76,10 5,10 2.24,10 0,7.76 0,5 Z"
       is_visible="true"
       id="path-effect1166"
       effect="skeletal" />
    <inkscape:path-effect
       hide_knot="false"
       lpeversion="0"
       fuse_tolerance="0"
       vertical_pattern="false"
       prop_units="false"
       tang_offset="0"
       normal_offset="0"
       spacing="0"
       scale_y_rel="false"
       prop_scale="0.5"
       copytype="single_stretched"
       pattern="M 0,5 C 0,2.24 2.24,0 5,0 7.76,0 10,2.24 10,5 10,7.76 7.76,10 5,10 2.24,10 0,7.76 0,5 Z"
       is_visible="true"
       id="path-effect1157"
       effect="skeletal" />
    <inkscape:path-effect
       hide_knot="false"
       lpeversion="0"
       fuse_tolerance="0"
       vertical_pattern="false"
       prop_units="false"
       tang_offset="0"
       normal_offset="0"
       spacing="0"
       scale_y_rel="false"
       prop_scale="0.2"
       copytype="single_stretched"
       pattern="M 0,5 C 0,2.24 2.24,0 5,0 7.76,0 10,2.24 10,5 10,7.76 7.76,10 5,10 2.24,10 0,7.76 0,5 Z"
       is_visible="true"
       id="path-effect1002"
       effect="skeletal" />
    <inkscape:path-effect
       hide_knot="false"
       lpeversion="0"
       effect="skeletal"
       id="path-effect998"
       is_visible="true"
       pattern="M 0,0 H 1"
       copytype="single_stretched"
       prop_scale="1"
       scale_y_rel="false"
       spacing="0"
       normal_offset="0"
       tang_offset="0"
       prop_units="false"
       vertical_pattern="false"
       fuse_tolerance="0" />
    <inkscape:path-effect
       hide_knot="false"
       lpeversion="0"
       fuse_tolerance="0"
       vertical_pattern="false"
       prop_units="false"
       tang_offset="0"
       normal_offset="0"
       spacing="0"
       scale_y_rel="false"
       prop_scale="0.05"
       copytype="single_stretched"
       pattern="M 0,5 C 0,2.24 2.24,0 5,0 7.76,0 10,2.24 10,5 10,7.76 7.76,10 5,10 2.24,10 0,7.76 0,5 Z"
       is_visible="true"
       id="path-effect996"
       effect="skeletal" />
    <inkscape:path-effect
       hide_knot="false"
       lpeversion="0"
       fuse_tolerance="0"
       vertical_pattern="false"
       prop_units="false"
       tang_offset="0"
       normal_offset="0"
       spacing="0"
       scale_y_rel="false"
       prop_scale="0.15"
       copytype="single_stretched"
       pattern="M 0,5 C 0,2.24 2.24,0 5,0 7.76,0 10,2.24 10,5 10,7.76 7.76,10 5,10 2.24,10 0,7.76 0,5 Z"
       is_visible="true"
       id="path-effect992"
       effect="skeletal" />
    <inkscape:path-effect
       hide_knot="false"
       lpeversion="0"
       effect="skeletal"
       id="path-effect984"
       is_visible="true"
       pattern="M 0,5 C 0,2.24 2.24,0 5,0 7.76,0 10,2.24 10,5 10,7.76 7.76,10 5,10 2.24,10 0,7.76 0,5 Z"
       copytype="single_stretched"
       prop_scale="0.15"
       scale_y_rel="false"
       spacing="0"
       normal_offset="0"
       tang_offset="0"
       prop_units="false"
       vertical_pattern="false"
       fuse_tolerance="0" />
    <inkscape:path-effect
       hide_knot="false"
       lpeversion="0"
       fuse_tolerance="0"
       vertical_pattern="false"
       prop_units="false"
       tang_offset="0"
       normal_offset="0"
       spacing="0"
       scale_y_rel="false"
       prop_scale="0.15"
       copytype="single_stretched"
       pattern="M 0,5 C 0,2.24 2.24,0 5,0 7.76,0 10,2.24 10,5 10,7.76 7.76,10 5,10 2.24,10 0,7.76 0,5 Z"
       is_visible="true"
       id="path-effect980"
       effect="skeletal" />
    <inkscape:perspective
       sodipodi:type="inkscape:persp3d"
       inkscape:vp_x="-132.12849 : 76.284418 : 0"
       inkscape:vp_y="0 : 1000 : 0"
       inkscape:vp_z="132.12849 : 76.28442 : 0"
       inkscape:persp3d-origin="148.5 : 70.00015 : 1"
       id="perspective867" />
    <inkscape:path-effect
       hide_knot="false"
       lpeversion="0"
       effect="skeletal"
       id="path-effect865"
       is_visible="true"
       pattern="M 0,5 C 0,2.24 2.24,0 5,0 7.76,0 10,2.24 10,5 10,7.76 7.76,10 5,10 2.24,10 0,7.76 0,5 Z"
       copytype="single_stretched"
       prop_scale="0.25"
       scale_y_rel="false"
       spacing="0"
       normal_offset="0"
       tang_offset="0"
       prop_units="false"
       vertical_pattern="false"
       fuse_tolerance="0" />
    <inkscape:path-effect
       hide_knot="false"
       lpeversion="0"
       effect="skeletal"
       id="path-effect861"
       is_visible="true"
       pattern="M 0,5 C 0,2.24 2.24,0 5,0 7.76,0 10,2.24 10,5 10,7.76 7.76,10 5,10 2.24,10 0,7.76 0,5 Z"
       copytype="single_stretched"
       prop_scale="0.25"
       scale_y_rel="false"
       spacing="0"
       normal_offset="0"
       tang_offset="0"
       prop_units="false"
       vertical_pattern="false"
       fuse_tolerance="0" />
    <inkscape:path-effect
       hide_knot="false"
       lpeversion="0"
       effect="skeletal"
       id="path-effect857"
       is_visible="true"
       pattern="M 0,5 C 0,2.24 2.24,0 5,0 7.76,0 10,2.24 10,5 10,7.76 7.76,10 5,10 2.24,10 0,7.76 0,5 Z"
       copytype="single_stretched"
       prop_scale="0.25"
       scale_y_rel="false"
       spacing="0"
       normal_offset="0"
       tang_offset="0"
       prop_units="false"
       vertical_pattern="false"
       fuse_tolerance="0" />
    <inkscape:path-effect
       hide_knot="false"
       lpeversion="0"
       effect="skeletal"
       id="path-effect853"
       is_visible="true"
       pattern="M 0,5 C 0,2.24 2.24,0 5,0 7.76,0 10,2.24 10,5 10,7.76 7.76,10 5,10 2.24,10 0,7.76 0,5 Z"
       copytype="single_stretched"
       prop_scale="0.25"
       scale_y_rel="false"
       spacing="0"
       normal_offset="0"
       tang_offset="0"
       prop_units="false"
       vertical_pattern="false"
       fuse_tolerance="0" />
    <inkscape:path-effect
       hide_knot="false"
       lpeversion="0"
       effect="skeletal"
       id="path-effect849"
       is_visible="true"
       pattern="M 0,5 C 0,2.24 2.24,0 5,0 7.76,0 10,2.24 10,5 10,7.76 7.76,10 5,10 2.24,10 0,7.76 0,5 Z"
       copytype="single_stretched"
       prop_scale="0.25"
       scale_y_rel="false"
       spacing="0"
       normal_offset="0"
       tang_offset="0"
       prop_units="false"
       vertical_pattern="false"
       fuse_tolerance="0" />
    <inkscape:path-effect
       hide_knot="false"
       lpeversion="0"
       effect="skeletal"
       id="path-effect845"
       is_visible="true"
       pattern="M 0,5 C 0,2.24 2.24,0 5,0 7.76,0 10,2.24 10,5 10,7.76 7.76,10 5,10 2.24,10 0,7.76 0,5 Z"
       copytype="single_stretched"
       prop_scale="0.25"
       scale_y_rel="false"
       spacing="0"
       normal_offset="0"
       tang_offset="0"
       prop_units="false"
       vertical_pattern="false"
       fuse_tolerance="0" />
    <inkscape:path-effect
       hide_knot="false"
       lpeversion="0"
       effect="skeletal"
       id="path-effect841"
       is_visible="true"
       pattern="M 0,5 C 0,2.24 2.24,0 5,0 7.76,0 10,2.24 10,5 10,7.76 7.76,10 5,10 2.24,10 0,7.76 0,5 Z"
       copytype="single_stretched"
       prop_scale="0.25"
       scale_y_rel="false"
       spacing="0"
       normal_offset="0"
       tang_offset="0"
       prop_units="false"
       vertical_pattern="false"
       fuse_tolerance="0" />
    <inkscape:path-effect
       hide_knot="false"
       lpeversion="0"
       effect="skeletal"
       id="path-effect837"
       is_visible="true"
       pattern="M 0,5 C 0,2.24 2.24,0 5,0 7.76,0 10,2.24 10,5 10,7.76 7.76,10 5,10 2.24,10 0,7.76 0,5 Z"
       copytype="single_stretched"
       prop_scale="0.25"
       scale_y_rel="false"
       spacing="0"
       normal_offset="0"
       tang_offset="0"
       prop_units="false"
       vertical_pattern="false"
       fuse_tolerance="0" />
    <inkscape:path-effect
       hide_knot="false"
       lpeversion="0"
       effect="skeletal"
       id="path-effect833"
       is_visible="true"
       pattern="M 0,5 C 0,2.24 2.24,0 5,0 7.76,0 10,2.24 10,5 10,7.76 7.76,10 5,10 2.24,10 0,7.76 0,5 Z"
       copytype="single_stretched"
       prop_scale="0.25"
       scale_y_rel="false"
       spacing="0"
       normal_offset="0"
       tang_offset="0"
       prop_units="false"
       vertical_pattern="false"
       fuse_tolerance="0" />
    <inkscape:path-effect
       hide_knot="false"
       lpeversion="0"
       effect="skeletal"
       id="path-effect829"
       is_visible="true"
       pattern="M 0,5 C 0,2.24 2.24,0 5,0 7.76,0 10,2.24 10,5 10,7.76 7.76,10 5,10 2.24,10 0,7.76 0,5 Z"
       copytype="single_stretched"
       prop_scale="0.25"
       scale_y_rel="false"
       spacing="0"
       normal_offset="0"
       tang_offset="0"
       prop_units="false"
       vertical_pattern="false"
       fuse_tolerance="0" />
    <inkscape:path-effect
       hide_knot="false"
       lpeversion="0"
       effect="skeletal"
       id="path-effect825"
       is_visible="true"
       pattern="M 0,5 C 0,2.24 2.24,0 5,0 7.76,0 10,2.24 10,5 10,7.76 7.76,10 5,10 2.24,10 0,7.76 0,5 Z"
       copytype="single_stretched"
       prop_scale="0.25"
       scale_y_rel="false"
       spacing="0"
       normal_offset="0"
       tang_offset="0"
       prop_units="false"
       vertical_pattern="false"
       fuse_tolerance="0" />
    <inkscape:path-effect
       hide_knot="false"
       lpeversion="0"
       effect="skeletal"
       id="path-effect821"
       is_visible="true"
       pattern="M 0,5 C 0,2.24 2.24,0 5,0 7.76,0 10,2.24 10,5 10,7.76 7.76,10 5,10 2.24,10 0,7.76 0,5 Z"
       copytype="single_stretched"
       prop_scale="0.25"
       scale_y_rel="false"
       spacing="0"
       normal_offset="0"
       tang_offset="0"
       prop_units="false"
       vertical_pattern="false"
       fuse_tolerance="0" />
  </defs>
  <sodipodi:namedview
     id="base"
     pagecolor="#ffffff"
     bordercolor="#666666"
     borderopacity="1.0"
     inkscape:pageopacity="0.0"
     inkscape:pageshadow="2"
     inkscape:zoom="0.12374369"
     inkscape:cx="1960.7158"
     inkscape:cy="822.64763"
     inkscape:document-units="mm"
     inkscape:current-layer="layer1"
     showgrid="false"
     inkscape:window-width="1366"
     inkscape:window-height="713"
     inkscape:window-x="0"
     inkscape:window-y="0"
     inkscape:window-maximized="1"
     fit-margin-top="2"
     fit-margin-right="5"
     fit-margin-left="2"
     units="px"
     fit-margin-bottom="2"
     inkscape:document-rotation="0"
     showguides="true"
     inkscape:guide-bbox="true"
     inkscape:snap-bbox="true"
     inkscape:snap-smooth-nodes="true">
    <inkscape:grid
       type="axonomgrid"
       id="grid815"
       units="mm"
       empspacing="5"
       spacingy="10"
       originx="-25.445811"
       originy="-39.440999" />
    <sodipodi:guide
       position="121.77866,25.558861"
       orientation="-0.50000093,-0.86602487"
       id="guide11021" />
    <sodipodi:guide
       position="121.77866,95.558724"
       orientation="0.49999799,-0.86602656"
       id="guide11023" />
  </sodipodi:namedview>
  <metadata
     id="metadata5">
    <rdf:RDF>
      <cc:Work
         rdf:about="">
        <dc:format>image/svg+xml</dc:format>
        <dc:type
           rdf:resource="http://purl.org/dc/dcmitype/StillImage" />
        <dc:title />
      </cc:Work>
    </rdf:RDF>
  </metadata>
  <g
     inkscape:label="1. réteg"
     inkscape:groupmode="layer"
     id="layer1"
     transform="translate(-25.44581,-136.441)">
    <g
       id="g11029">
      <path
         sodipodi:nodetypes="cccscscscscscscscscscscscscscscscscscscscscscscsccccssscccscscsccccscscscscssscsccsccsscscscscsc"
         id="path847"
         d="m 69.35945,136.97025 c -0.04059,0.001 -0.06673,0.0113 -0.07751,0.03 -0.220414,0.38177 5.936538,4.38299 15.386656,10.09602 -6.382925,3.424 -15.112222,8.30211 -24.671877,13.82138 -5.664197,3.27023 -10.971509,6.39194 -15.650208,9.19376 -0.223383,-10.89724 -0.608009,-18.11156 -1.045414,-18.11156 -0.44265,0 -0.83053,7.39552 -1.052649,18.51257 -4.618624,-2.42283 -7.463775,-3.76102 -7.607288,-3.51245 -0.143513,0.24857 2.438022,2.04382 6.845577,4.83226 -9.516579,5.75088 -15.727355,9.78451 -15.50603,10.16786 0.218705,0.37881 6.658688,-2.89569 16.207796,-8.15093 -0.0871,5.45289 -0.137459,11.61021 -0.137459,18.15083 -10e-7,11.0385 0.14019,21.03706 0.366386,28.27683 -9.672631,-5.32749 -16.21631,-8.65878 -16.436723,-8.27702 -0.220099,0.38123 5.918166,4.37179 15.345316,10.07174 -4.264479,2.72627 -6.868641,4.61007 -6.684863,4.92838 0.187637,0.325 3.238452,-1.04841 7.893059,-3.4711 0.211933,5.28927 0.477485,8.47131 0.766878,8.47131 0.285861,0 0.548984,-3.10963 0.759643,-8.28269 4.746205,2.8446 10.157878,6.02933 15.935979,9.36532 9.559655,5.51927 18.288952,10.39686 24.671877,13.82086 -9.450118,5.71303 -15.60707,9.71477 -15.386656,10.09654 0.221324,0.38334 6.819971,-2.97855 16.558678,-8.34471 0.211085,5.21115 0.474689,8.34471 0.761712,8.34471 0.292885,0 0.561993,-3.2527 0.775147,-8.65787 4.787616,2.518 7.738861,3.9113 7.885305,3.65766 0.142936,-0.24757 -2.418466,-2.02957 -6.793383,-4.79868 4.83667,-2.68806 10.300398,-5.78277 16.078601,-9.11882 9.55966,-5.51927 18.14876,-10.63967 24.30549,-14.45545 0.22257,11.04044 0.60924,18.37304 1.05007,18.37304 0.43617,0 0.8202,-7.17142 1.04386,-18.01699 9.10463,5.08273 15.99225,8.51035 16.27704,8.01708 0.28783,-0.49852 -6.26025,-4.83322 -15.36495,-10.25725 4.31955,-2.7363 6.84645,-4.497 6.7045,-4.74286 -0.14293,-0.24757 -2.96706,1.07986 -7.55251,3.48402 0.0904,-5.53276 0.14211,-11.81197 0.14211,-18.48414 0,-11.21454 -0.14465,-21.34115 -0.37724,-28.60652 4.72793,2.48436 7.64223,3.85836 7.78764,3.60649 0.14351,-0.24857 -2.43802,-2.0433 -6.84558,-4.83174 9.51658,-5.75088 15.72736,-9.78451 15.50603,-10.16786 -0.22132,-0.38334 -6.81997,2.97803 -16.55868,8.3442 -0.21108,-5.21116 -0.4752,-8.3442 -0.76222,-8.3442 -0.29083,0 -0.55754,3.21061 -0.76998,8.54728 -6.17572,-3.83412 -14.87339,-9.02278 -24.58558,-14.63011 -5.777978,-3.33592 -11.241552,-6.43031 -16.078085,-9.11831 4.374687,-2.76897 6.935798,-4.55162 6.792867,-4.79919 -0.143827,-0.24911 -3.000578,1.09548 -7.637258,3.52847 -0.226206,-5.15113 -0.60012,-8.52816 -1.023194,-8.52816 -0.414116,0 -0.780185,3.2408 -1.007693,8.20828 -9.133853,-5.02856 -15.449332,-8.26056 -16.235182,-8.23825 z m 16.108061,11.70884 c -0.0728,2.53665 -0.114724,5.34841 -0.114724,8.32094 0,11.04 0.559536,18.27659 1.249538,18.27659 0.689998,0 1.250053,-7.23659 1.250053,-18.27659 0,-2.86667 -0.03847,-5.587 -0.106456,-8.05274 4.655246,2.78699 9.9269,5.8877 15.552028,9.13536 9.5301,5.50221 18.23222,10.36594 24.60986,13.78831 -4.80537,2.6717 -10.2218,5.73964 -15.94941,9.04647 -9.55966,5.51927 -18.148765,10.63967 -24.305494,14.45545 -0.222573,-11.04044 -0.609757,-18.46398 -1.050581,-18.46398 -0.437412,0 -0.821518,7.30549 -1.044898,18.20302 -4.678778,-2.80187 -9.98588,-5.92397 -15.650207,-9.19427 -9.530295,-5.50232 -18.232709,-10.36593 -24.610384,-13.78831 4.805512,-2.67177 10.222093,-5.74003 15.949931,-9.04699 9.517798,-5.49511 18.069793,-10.59283 24.220744,-14.40326 z m -41.056409,24.98452 c 6.1527,3.81204 14.715778,8.91645 24.246065,14.41876 5.778208,3.33605 11.241931,6.43076 16.078604,9.11882 -4.374917,2.76912 -6.936319,4.55111 -6.793383,4.79868 0.14293,0.24756 2.96714,-1.0794 7.55251,-3.48351 -0.0904,5.53263 -0.142111,11.81165 -0.142111,18.48363 0,11.14742 0.142447,21.22489 0.372587,28.48094 -6.168845,-3.82732 -14.824715,-8.98977 -24.478607,-14.56345 -5.657244,-3.26621 -11.008147,-6.29755 -15.769581,-8.94622 3.361877,-1.80491 7.274329,-3.98393 11.439611,-6.38876 11.951152,-6.9 18.941551,-11.5617 18.59655,-12.15926 -0.345001,-0.59756 -7.895451,3.09402 -19.846603,9.99402 -4.262667,2.46105 -8.191128,4.81269 -11.481469,6.85436 0.226106,-7.23937 0.365869,-17.23567 0.365869,-28.27166 0,-6.61384 -0.05111,-12.83882 -0.140042,-18.33635 z m 84.606718,0.12971 c -0.22496,7.23437 -0.3638,17.20219 -0.3638,28.20655 0,6.45353 0.0489,12.53096 0.13384,17.93017 -0.8584,-0.50256 -1.69956,-0.99906 -2.58899,-1.51257 -11.95115,-6.9 -21.16374,-11.57244 -21.50874,-10.97488 -0.345,0.59756 8.30754,6.24012 20.25869,13.14012 0.96712,0.55837 1.89463,1.08302 2.83187,1.61593 -6.36638,3.41878 -15.01352,8.252 -24.48274,13.71905 -5.727638,3.30685 -11.09292,6.46311 -15.809375,9.28884 0.224962,-7.23437 0.363803,-17.20219 0.363803,-28.20654 0,-6.54062 -0.04984,-12.69795 -0.136943,-18.15083 9.549108,5.25524 15.979975,8.52447 16.198675,8.14566 0.22041,-0.38176 -5.927416,-4.37773 -15.377538,-10.09077 6.382927,-3.42399 15.112228,-8.3021 24.671878,-13.82137 5.72767,-3.30687 11.0929,-6.46361 15.80937,-9.28936 z"
         style="fill:#363636;fill-opacity:1;stroke:none;stroke-width:0.264583px;stroke-linecap:butt;stroke-linejoin:miter;stroke-opacity:1" />
      <path
         sodipodi:nodetypes="cscscscscsc"
         inkscape:connector-curvature="0"
         id="path1073"
         d="m 86.242564,153.32268 c -4.95072,3.29361 -11.963363,7.61407 -19.863965,12.17548 -4.181972,2.41446 -8.1591,4.63056 -11.790925,6.59146 5.139592,2.60416 11.738518,6.19194 18.873003,10.31104 4.135474,2.38762 8.020146,4.70647 11.505684,6.85177 0.372451,-8.01421 0.964067,-13.87037 1.635822,-13.87037 0.682296,0 1.282341,6.0235 1.653567,14.25239 4.847498,-3.17125 11.333235,-7.14414 18.57001,-11.32229 4.175,-2.41043 8.16032,-4.63422 11.7884,-6.59357 -5.1365,-2.602 -11.73513,-6.18975 -18.870469,-10.30935 -4.940237,-2.85225 -9.536649,-5.61215 -13.501127,-8.08656 z"
         style="fill:#f89719;fill-opacity:1;fill-rule:evenodd;stroke:none;stroke-width:3.02361;stroke-linecap:round;stroke-linejoin:round;stroke-miterlimit:4;stroke-dasharray:none;stroke-dashoffset:0;stroke-opacity:1" />
      <path
         inkscape:connector-curvature="0"
         id="path1075"
         d="m 124.52054,181.69554 c -3.53587,2.17825 -7.46807,4.52895 -11.67596,6.95838 -7.28161,4.20403 -14.006628,7.85678 -19.208759,10.48539 6.983769,4.46337 11.397559,7.70873 11.054309,8.30328 -0.33835,0.58604 -5.193092,-1.52531 -12.375826,-5.2393 0.116299,4.11048 0.181559,8.66336 0.181559,13.46731 3e-6,8.29046 -0.19339,15.84534 -0.510236,21.63027 3.532625,-2.17573 7.475096,-4.53003 11.675953,-6.9554 7.94724,-4.58833 15.24924,-8.53186 20.60979,-11.18909 -0.16298,-4.70741 -0.26107,-10.06832 -0.26107,-15.82759 0,-8.28911 0.19377,-15.84458 0.51024,-21.63325 z"
         style="fill:#f89719;fill-opacity:1;fill-rule:evenodd;stroke:none;stroke-width:3.02361;stroke-linecap:round;stroke-linejoin:round;stroke-miterlimit:4;stroke-dasharray:none;stroke-dashoffset:0;stroke-opacity:1" />
      <path
         inkscape:connector-curvature="0"
         id="path1077"
         d="m 49.176768,181.84661 c 0.116623,4.10138 0.183333,8.64215 0.183333,13.4393 0,9.07491 -0.233186,17.27847 -0.60803,23.18332 4.112237,2.18811 8.75184,4.75504 13.684442,7.60289 7.271365,4.19812 13.780534,8.18792 18.618477,11.35829 -0.327377,-5.77318 -0.529397,-13.39871 -0.529397,-21.80202 0,-5.01367 0.07855,-9.69451 0.20646,-13.92664 -3.098674,1.41825 -5.012051,2.07943 -5.218706,1.72149 -0.206505,-0.35768 1.320662,-1.68294 4.094316,-3.65491 -3.725729,-2.00571 -7.83361,-4.29227 -12.158481,-6.78924 -7.100263,-4.09933 -13.472441,-7.99959 -18.272414,-11.13248 z"
         style="fill:#f89719;fill-opacity:1;fill-rule:evenodd;stroke:none;stroke-width:3.02362;stroke-linecap:round;stroke-linejoin:round;stroke-miterlimit:4;stroke-dasharray:none;stroke-dashoffset:0;stroke-opacity:1" />
    </g>
    <text
       xml:space="preserve"
       style="font-style:normal;font-variant:normal;font-weight:normal;font-stretch:normal;font-size:75.583px;line-height:1.25;font-family:'Libre Franklin';-inkscape-font-specification:'Libre Franklin';letter-spacing:0px;word-spacing:0px;fill:#363636;fill-opacity:1;stroke:none;stroke-width:1.57465"
       x="167.65163"
       y="224.2715"
       id="text1037"><tspan
         sodipodi:role="line"
         id="tspan1035"
         x="167.65163"
         y="224.2715"
         style="font-style:normal;font-variant:normal;font-weight:normal;font-stretch:normal;font-family:'Libre Franklin';-inkscape-font-specification:'Libre Franklin';fill:#363636;fill-opacity:1;stroke-width:1.57465"><tspan
   id="tspan2246"
   style="font-style:normal;font-variant:normal;font-weight:600;font-stretch:normal;font-family:'Libre Franklin';-inkscape-font-specification:'Libre Franklin Semi-Bold'">3D</tspan> Nyomtató</tspan></text>
  </g>
</svg>
