<?xml version="1.0" encoding="UTF-8" standalone="no"?>
<!-- Created with Inkscape (http://www.inkscape.org/) -->

<svg
   width="297mm"
   height="150mm"
   viewBox="0 0 297 150"
   version="1.1"
   id="svg1565"
   inkscape:version="1.1.2 (b8e25be833, 2022-02-05)"
   sodipodi:docname="dora.svg"
   xmlns:inkscape="http://www.inkscape.org/namespaces/inkscape"
   xmlns:sodipodi="http://sodipodi.sourceforge.net/DTD/sodipodi-0.dtd"
   xmlns="http://www.w3.org/2000/svg"
   xmlns:svg="http://www.w3.org/2000/svg">
  <sodipodi:namedview
     id="namedview1567"
     pagecolor="#ffffff"
     bordercolor="#666666"
     borderopacity="1.0"
     inkscape:pageshadow="2"
     inkscape:pageopacity="0.0"
     inkscape:pagecheckerboard="0"
     inkscape:document-units="mm"
     showgrid="false"
     inkscape:snap-global="false"
     height="209mm"
     inkscape:zoom="0.56569164"
     inkscape:cx="294.32996"
     inkscape:cy="328.80104"
     inkscape:window-width="1600"
     inkscape:window-height="837"
     inkscape:window-x="-8"
     inkscape:window-y="-8"
     inkscape:window-maximized="1"
     inkscape:current-layer="layer1" />
  <defs
     id="defs1562" />
  <g
     inkscape:label="Réteg 1"
     inkscape:groupmode="layer"
     id="layer1">
    <g
       id="g10824"
       transform="matrix(1.2021437,0,0,1.1648476,-65.896933,-14.327628)">
      <g
         id="g9894"
         transform="translate(22.684252,34.377165)">
        <rect
           style="fill:none;fill-opacity:0.858824;stroke:#fca804;stroke-width:2.84917;stroke-miterlimit:4;stroke-dasharray:none;stroke-opacity:1;stop-color:#000000"
           id="rect1637"
           width="31.555208"
           height="9.7671661"
           x="-7.083951"
           y="53.017639"
           transform="matrix(0.65140163,-0.7587331,0.75168947,0.6595172,0,0)" />
        <rect
           style="fill:none;fill-opacity:0.858824;stroke:#fca804;stroke-width:3;stroke-miterlimit:4;stroke-dasharray:none;stroke-opacity:1;stop-color:#000000"
           id="rect3104"
           width="33.207874"
           height="10.289763"
           x="74.366936"
           y="91.672432" />
        <rect
           style="fill:none;fill-opacity:0.858824;stroke:#fca804;stroke-width:2.72925;stroke-miterlimit:4;stroke-dasharray:none;stroke-opacity:1;stop-color:#000000"
           id="rect3186"
           width="30.249071"
           height="9.3492727"
           x="90.036507"
           y="-90.262886"
           transform="matrix(0.60774395,0.79413304,-0.76618234,0.64262323,0,0)" />
        <path
           style="fill:none;stroke:#000000;stroke-width:3.39625;stroke-linecap:butt;stroke-linejoin:miter;stroke-miterlimit:4;stroke-dasharray:none;stroke-opacity:1"
           d="m 77.173228,35.546459 -15.685356,-0.03907 -4.418451,6.202534 30.929161,43.68741 6.237815,2e-6 28.070163,-44.766113 -3.37882,-5.123833 -22.110417,-0.194791"
           id="path3484"
           sodipodi:nodetypes="cccccc" />
        <g
           id="g4691"
           style="fill:none;fill-opacity:1;stroke:#fca804;stroke-width:3;stroke-miterlimit:4;stroke-dasharray:none;stroke-opacity:1"
           transform="matrix(0.73105042,0.01803201,-0.01783968,1.1382538,58.779962,-84.565026)">
          <path
             style="fill:none;fill-opacity:1;stroke:#fca804;stroke-width:3;stroke-linecap:butt;stroke-linejoin:miter;stroke-miterlimit:4;stroke-dasharray:none;stroke-opacity:1"
             d="M 54.722834,121.13858 39.989762,78.576378 26.893701,122.07402"
             id="path4682" />
          <path
             style="fill:none;fill-opacity:1;stroke:#fca804;stroke-width:3;stroke-linecap:butt;stroke-linejoin:miter;stroke-miterlimit:4;stroke-dasharray:none;stroke-opacity:1"
             d="M 34.844881,94.478738 45.60236,94.244881"
             id="path4684" />
          <path
             style="fill:none;fill-opacity:1;stroke:#fca804;stroke-width:3;stroke-linecap:butt;stroke-linejoin:miter;stroke-miterlimit:4;stroke-dasharray:none;stroke-opacity:1"
             d="m 50.513384,109.44567 -20.345667,0.46771"
             id="path4686" />
        </g>
      </g>
      <path
         style="fill:#fca804;fill-opacity:1;stroke:#fca804;stroke-width:0.263;stroke-miterlimit:4;stroke-dasharray:none;stroke-opacity:1;stop-color:#000000"
         id="path10020"
         sodipodi:type="arc"
         sodipodi:cx="109.32874"
         sodipodi:cy="35.663387"
         sodipodi:rx="8.2447681"
         sodipodi:ry="7.5431924"
         sodipodi:start="0"
         sodipodi:end="6.2692925"
         sodipodi:open="true"
         sodipodi:arc-type="arc"
         d="m 117.57351,35.663387 a 8.2447681,7.5431924 0 0 1 -8.21613,7.543147 8.2447681,7.5431924 0 0 1 -8.27321,-7.490749 8.2447681,7.5431924 0 0 1 8.15867,-7.595181 8.2447681,7.5431924 0 0 1 8.32988,7.437991" />
      <path
         d="m 105.72688,22.593456 c -3.69724,0.952082 -6.810696,3.490968 -8.406336,6.862925 -1.59565,3.292618 -1.86808,5.593483 -1.0508,8.72742 0.73945,2.776906 3.1913,6.545565 3.813986,5.910843 0.23351,-0.23802 -0.0778,-1.071092 -0.972956,-2.380205 -4.12533,-6.148864 -1.98483,-13.884531 4.748026,-17.097809 4.51452,-2.142185 10.31333,-1.071092 13.85489,2.578556 3.6194,3.768659 4.28101,9.758842 1.51781,13.884532 -0.50593,0.753731 -0.93403,1.626473 -0.93403,1.943834 0,2.221525 2.87995,-2.142185 3.54156,-5.355462 1.24538,-5.871173 -1.907,-11.742347 -7.62798,-14.320903 -2.06267,-0.912412 -6.30475,-1.309113 -8.48417,-0.753731 z"
         id="path10786"
         style="stroke:#000000;stroke-width:3;stroke-miterlimit:4;stroke-dasharray:none;stroke-opacity:1" />
      <path
         d="m 103.27995,15.248207 c -5.948272,1.506131 -10.957312,5.522484 -13.524432,10.856701 -2.56715,5.208708 -3.00544,8.848527 -1.69057,13.806212 1.18965,4.392885 5.13429,10.354659 6.13608,9.35057 0.37568,-0.376532 -0.12517,-1.694398 -1.56532,-3.76533 -6.63699,-9.727103 -3.19327,-21.964426 7.638802,-27.047624 7.26313,-3.388797 16.59249,-1.694398 22.29029,4.079109 5.82303,5.961773 6.88745,15.437854 2.44191,21.964428 -0.81396,1.192353 -1.5027,2.572974 -1.5027,3.075019 0,3.514308 4.63337,-3.388798 5.6978,-8.471993 2.00361,-9.287815 -3.06806,-18.575631 -12.2722,-22.654739 -3.3185,-1.443376 -10.14333,-2.070932 -13.64966,-1.192353 z"
         id="path10810"
         style="stroke:#000000;stroke-width:3;stroke-miterlimit:4;stroke-dasharray:none;stroke-opacity:1" />
    </g>
    <text
       xml:space="preserve"
       style="font-style:normal;font-variant:normal;font-weight:normal;font-stretch:normal;font-size:94.05px;line-height:1.25;font-family:'Agency FB';-inkscape-font-specification:'Agency FB, Normal';font-variant-ligatures:normal;font-variant-caps:normal;font-variant-numeric:normal;font-variant-east-asian:normal;letter-spacing:0px;stroke-width:0.489841"
       x="126.90185"
       y="120.12698"
       id="text1867"
       transform="scale(1.0216525,0.9788064)"
       inkscape:label="dora"><tspan
         sodipodi:role="line"
         id="tspan1865"
         style="font-style:normal;font-variant:normal;font-weight:normal;font-stretch:normal;font-size:94.05px;font-family:'Agency FB';-inkscape-font-specification:'Agency FB, Normal';font-variant-ligatures:normal;font-variant-caps:normal;font-variant-numeric:normal;font-variant-east-asian:normal;stroke-width:0.489841"
         x="126.90185"
         y="120.12698">DORA</tspan></text>
  </g>
</svg>
