<?xml version="1.0" encoding="UTF-8" standalone="no"?>
<svg
   xmlns:dc="http://purl.org/dc/elements/1.1/"
   xmlns:cc="http://creativecommons.org/ns#"
   xmlns:rdf="http://www.w3.org/1999/02/22-rdf-syntax-ns#"
   xmlns:svg="http://www.w3.org/2000/svg"
   xmlns="http://www.w3.org/2000/svg"
   xmlns:sodipodi="http://sodipodi.sourceforge.net/DTD/sodipodi-0.dtd"
   xmlns:inkscape="http://www.inkscape.org/namespaces/inkscape"
   width="744.87561"
   height="171.13582"
   viewBox="0 0 197.08167 45.279686"
   version="1.1"
   id="svg3195"
   inkscape:version="1.0.1 (3bc2e813f5, 2020-09-07)"
   sodipodi:docname="fpga.svg">
  <defs
     id="defs3189">
    <marker
       inkscape:collect="always"
       inkscape:stockid="DotS"
       orient="auto"
       refY="0"
       refX="0"
       id="marker3565"
       style="overflow:visible"
       inkscape:isstock="true">
      <path
         id="path3563"
         d="m -2.5,-1 c 0,2.76 -2.24,5 -5,5 -2.76,0 -5,-2.24 -5,-5 0,-2.76 2.24,-5 5,-5 2.76,0 5,2.24 5,5 z"
         style="fill:#363636;fill-opacity:1;fill-rule:evenodd;stroke:#363636;stroke-width:1pt;stroke-opacity:1"
         transform="matrix(0.2,0,0,0.2,1.48,0.2)" />
    </marker>
    <marker
       inkscape:isstock="true"
       style="overflow:visible"
       id="marker3577"
       refX="0"
       refY="0"
       orient="auto"
       inkscape:stockid="DotS">
      <path
         transform="matrix(0.2,0,0,0.2,1.48,0.2)"
         style="fill:#f5f5f5;fill-opacity:1;fill-rule:evenodd;stroke:#f5f5f5;stroke-width:1pt;stroke-opacity:1"
         d="m -2.5,-1 c 0,2.76 -2.24,5 -5,5 -2.76,0 -5,-2.24 -5,-5 0,-2.76 2.24,-5 5,-5 2.76,0 5,2.24 5,5 z"
         id="path3575" />
    </marker>
    <marker
       inkscape:stockid="DotS"
       orient="auto"
       refY="0"
       refX="0"
       id="marker3583"
       style="overflow:visible"
       inkscape:isstock="true">
      <path
         id="path3581"
         d="m -2.5,-1 c 0,2.76 -2.24,5 -5,5 -2.76,0 -5,-2.24 -5,-5 0,-2.76 2.24,-5 5,-5 2.76,0 5,2.24 5,5 z"
         style="fill:#f5f5f5;fill-opacity:1;fill-rule:evenodd;stroke:#f5f5f5;stroke-width:1pt;stroke-opacity:1"
         transform="matrix(0.2,0,0,0.2,1.48,0.2)" />
    </marker>
    <marker
       inkscape:collect="always"
       inkscape:isstock="true"
       style="overflow:visible"
       id="marker3627"
       refX="0"
       refY="0"
       orient="auto"
       inkscape:stockid="DotS">
      <path
         transform="matrix(0.2,0,0,0.2,1.48,0.2)"
         style="fill:#363636;fill-opacity:1;fill-rule:evenodd;stroke:#363636;stroke-width:1pt;stroke-opacity:1"
         d="m -2.5,-1 c 0,2.76 -2.24,5 -5,5 -2.76,0 -5,-2.24 -5,-5 0,-2.76 2.24,-5 5,-5 2.76,0 5,2.24 5,5 z"
         id="path3625" />
    </marker>
    <marker
       inkscape:stockid="DotS"
       orient="auto"
       refY="0"
       refX="0"
       id="marker3633"
       style="overflow:visible"
       inkscape:isstock="true">
      <path
         id="path3631"
         d="m -2.5,-1 c 0,2.76 -2.24,5 -5,5 -2.76,0 -5,-2.24 -5,-5 0,-2.76 2.24,-5 5,-5 2.76,0 5,2.24 5,5 z"
         style="fill:#363636;fill-opacity:1;fill-rule:evenodd;stroke:#363636;stroke-width:1pt;stroke-opacity:1"
         transform="matrix(0.2,0,0,0.2,1.48,0.2)" />
    </marker>
  </defs>
  <sodipodi:namedview
     id="base"
     pagecolor="#ffffff"
     bordercolor="#666666"
     borderopacity="1.0"
     inkscape:pageopacity="0.0"
     inkscape:pageshadow="2"
     inkscape:zoom="1"
     inkscape:cx="388.51311"
     inkscape:cy="60.475641"
     inkscape:document-units="mm"
     inkscape:current-layer="layer1"
     inkscape:document-rotation="0"
     showgrid="false"
     inkscape:window-width="1366"
     inkscape:window-height="713"
     inkscape:window-x="0"
     inkscape:window-y="0"
     inkscape:window-maximized="1"
     showguides="true"
     inkscape:guide-bbox="true"
     inkscape:snap-bbox="true"
     inkscape:snap-bbox-edge-midpoints="false"
     inkscape:snap-bbox-midpoints="true"
     inkscape:bbox-nodes="true"
     fit-margin-top="0"
     fit-margin-left="0"
     fit-margin-right="0"
     fit-margin-bottom="0"
     inkscape:snap-nodes="true"
     units="px">
    <inkscape:grid
       type="xygrid"
       id="grid4392"
       originx="-12.09629"
       originy="-73.395333" />
    <sodipodi:guide
       position="69.658398,37.349122"
       orientation="0,-1"
       id="guide4579" />
    <sodipodi:guide
       position="67.380082,39.619698"
       orientation="1,0"
       id="guide4583" />
    <sodipodi:guide
       position="67.380083,7.9232565"
       orientation="0,-1"
       id="guide4587" />
  </sodipodi:namedview>
  <metadata
     id="metadata3192">
    <rdf:RDF>
      <cc:Work
         rdf:about="">
        <dc:format>image/svg+xml</dc:format>
        <dc:type
           rdf:resource="http://purl.org/dc/dcmitype/StillImage" />
        <dc:title></dc:title>
      </cc:Work>
    </rdf:RDF>
  </metadata>
  <g
     inkscape:label="Réteg 1"
     inkscape:groupmode="layer"
     id="layer1"
     transform="translate(-12.096289,-73.395324)">
    <path
       sodipodi:nodetypes="ccsscsssscsscccsscsssscsscccsscsssscsscccsscsssscsscccsscsssscsscssscssccsscssssscssccsscssssscssccsscssssscssccsscssssscssccsscss"
       style="fill:#363636;fill-opacity:1;stroke-width:0.264584"
       inkscape:connector-curvature="0"
       d="m 47.679623,107.47577 v 3.26868 h -3.312855 c -0.31549,0 -0.473263,-0.13634 -0.473263,-0.40855 v -0.40862 h -1.419797 c -0.315492,0 -0.473263,-0.13634 -0.473263,-0.40855 v -0.81721 c 0,-0.27231 0.157728,-0.4086 0.473263,-0.4086 h 1.419797 v -0.40858 c 0,-0.27227 0.157732,-0.40857 0.473263,-0.40857 z m 0,-6.53749 v 3.26874 h -3.312855 c -0.31549,0 -0.473263,-0.13634 -0.473263,-0.40859 v -0.4086 h -1.419797 c -0.315492,0 -0.473263,-0.13634 -0.473263,-0.4086 v -0.81718 c 0,-0.27227 0.157728,-0.40859 0.473263,-0.40859 h 1.419797 v -0.4086 c 0,-0.27228 0.157732,-0.40858 0.473263,-0.40858 z m 0,-6.537478 v 3.268742 h -3.312855 c -0.31549,0 -0.473263,-0.136342 -0.473263,-0.408575 V 96.85237 h -1.419797 c -0.315492,0 -0.473263,-0.136342 -0.473263,-0.408598 v -0.817173 c 0,-0.272308 0.157728,-0.408623 0.473263,-0.408623 h 1.419797 v -0.40855 c 0,-0.272283 0.157732,-0.408624 0.473263,-0.408624 z m 0,-6.537458 v 3.268717 h -3.312855 c -0.31549,0 -0.473263,-0.136343 -0.473263,-0.408575 v -0.408573 h -1.419797 c -0.315492,0 -0.473263,-0.136344 -0.473263,-0.408623 v -0.817174 c 0,-0.272282 0.157728,-0.408574 0.473263,-0.408574 h 1.419797 v -0.4086 c 0,-0.272281 0.157732,-0.408598 0.473263,-0.408598 z m 0,-6.537456 v 3.268715 h -3.312855 c -0.31549,0 -0.473263,-0.136342 -0.473263,-0.4086 v -0.408572 h -1.419797 c -0.315492,0 -0.473263,-0.136343 -0.473263,-0.408574 v -0.817223 c 0,-0.272281 0.157728,-0.408573 0.473263,-0.408573 h 1.419797 v -0.408575 c 0,-0.272306 0.157732,-0.408598 0.473263,-0.408598 z m 39.754248,27.375622 v 0.8172 c 0,0.27228 -0.157794,0.40856 -0.473266,0.40856 h -1.419797 v 0.40861 c 0,0.27227 -0.157782,0.40857 -0.473255,0.40857 h -3.312866 v -3.2687 h 3.312866 c 0.315484,0 0.473255,0.13634 0.473255,0.40858 v 0.40858 h 1.419797 c 0.315484,0 0.473266,0.13634 0.473266,0.4086 z m 0,-6.53746 v 0.81718 c 0,0.27228 -0.157794,0.4086 -0.473266,0.4086 h -1.419797 v 0.4086 c 0,0.27227 -0.157782,0.40859 -0.473255,0.40859 h -3.312866 v -3.26874 h 3.312866 c 0.315484,0 0.473255,0.13635 0.473255,0.40858 v 0.4086 h 1.419797 c 0.315484,0 0.473266,0.13634 0.473266,0.40859 z m 0,-6.537451 v 0.817173 c 0,0.272281 -0.157794,0.408598 -0.473266,0.408598 h -1.419797 v 0.408599 c 0,0.272283 -0.157782,0.408575 -0.473255,0.408575 h -3.312866 v -3.268742 h 3.312866 c 0.315484,0 0.473255,0.136341 0.473255,0.408624 v 0.40855 h 1.419797 c 0.315484,0 0.473266,0.136341 0.473266,0.408623 z m 0,-6.537483 v 0.817174 c 0,0.272279 -0.157794,0.408623 -0.473266,0.408623 h -1.419797 v 0.408573 c 0,0.272283 -0.157782,0.408575 -0.473255,0.408575 h -3.312866 v -3.268717 h 3.312866 c 0.315484,0 0.473255,0.136343 0.473255,0.408598 v 0.4086 h 1.419797 c 0.315484,0 0.473266,0.136343 0.473266,0.408574 z m 0,-6.537482 v 0.817223 c 0,0.272282 -0.157794,0.408574 -0.473266,0.408574 h -1.419797 v 0.408572 c 0,0.272308 -0.157782,0.4086 -0.473255,0.4086 h -3.312866 v -3.268715 h 3.312866 c 0.315484,0 0.473255,0.136341 0.473255,0.408598 v 0.408575 h 1.419797 c 0.315484,0 0.473266,0.136341 0.473266,0.408573 z"
       id="path3529" />
    <rect
       y="83.568596"
       x="52.207947"
       height="24.933157"
       width="25.018425"
       id="rect3540"
       style="fill:none;fill-opacity:1;stroke:#ff9e1b;stroke-width:4.5;stroke-linecap:butt;stroke-linejoin:bevel;stroke-miterlimit:4;stroke-dasharray:none;stroke-dashoffset:0;stroke-opacity:1" />
    <path
       id="path3548"
       d="m 53.237744,79.055313 h -3.279812 v -3.301671 c 0,-0.314391 0.136804,-0.471638 0.409961,-0.471638 h 0.409987 v -1.41499 c 0,-0.314442 0.136804,-0.47169 0.40996,-0.47169 h 0.819973 c 0.273231,0 0.409985,0.157221 0.409985,0.47169 v 1.41499 h 0.409959 c 0.273208,0 0.409987,0.15697 0.409987,0.471638 z m 6.559652,0 h -3.279837 v -3.301671 c 0,-0.314391 0.136805,-0.471638 0.409987,-0.471638 h 0.409983 v -1.41499 c 0,-0.314442 0.136806,-0.47169 0.409989,-0.47169 h 0.819947 c 0.273206,0 0.409986,0.157221 0.409986,0.47169 v 1.41499 h 0.409986 c 0.273207,0 0.409959,0.15697 0.409959,0.471638 z m 6.559678,0 h -3.279837 v -3.301671 c 0,-0.314391 0.136804,-0.471638 0.409961,-0.471638 h 0.409985 v -1.41499 c 0,-0.314442 0.136805,-0.47169 0.409986,-0.47169 h 0.819948 c 0.273232,0 0.410011,0.157221 0.410011,0.47169 v 1.41499 h 0.409936 c 0.273206,0 0.41001,0.15697 0.41001,0.471638 z m 6.559655,0 h -3.279816 v -3.301671 c 0,-0.314391 0.136805,-0.471638 0.409961,-0.471638 h 0.409962 v -1.41499 c 0,-0.314442 0.136805,-0.47169 0.410012,-0.47169 h 0.819954 c 0.273194,0 0.409959,0.157221 0.409959,0.47169 v 1.41499 h 0.409983 c 0.273205,0 0.409985,0.15697 0.409985,0.471638 z m 6.559642,0 h -3.279805 v -3.301671 c 0,-0.314391 0.136806,-0.471638 0.409991,-0.471638 h 0.409953 v -1.41499 c 0,-0.314442 0.136806,-0.47169 0.409977,-0.47169 h 0.819979 c 0.27322,0 0.409953,0.157221 0.409953,0.47169 v 1.41499 h 0.409978 c 0.273237,0 0.409974,0.15697 0.409974,0.471638 z M 52.007813,118.67501 H 51.18784 c -0.273206,0 -0.40996,-0.15747 -0.40996,-0.47163 v -1.41501 h -0.409987 c -0.273207,0 -0.409961,-0.15722 -0.409961,-0.47163 v -3.30164 h 3.279812 v 3.30164 c 0,0.31445 -0.136804,0.47163 -0.409987,0.47163 h -0.409959 v 1.41501 c 0,0.31445 -0.136804,0.47163 -0.409985,0.47163 z m 6.559652,0 h -0.819947 c -0.273207,0 -0.409989,-0.15747 -0.409989,-0.47163 v -1.41501 h -0.409983 c -0.273208,0 -0.409987,-0.15722 -0.409987,-0.47163 v -3.30164 h 3.279837 v 3.30164 c 0,0.31445 -0.136804,0.47163 -0.409959,0.47163 h -0.409986 v 1.41501 c 0,0.31445 -0.136804,0.47163 -0.409986,0.47163 z m 6.559652,0 h -0.819948 c -0.273207,0 -0.409986,-0.15747 -0.409986,-0.47163 v -1.41501 h -0.409985 c -0.273207,0 -0.409961,-0.15722 -0.409961,-0.47163 v -3.30164 h 3.279837 v 3.30164 c 0,0.31445 -0.136804,0.47163 -0.41001,0.47163 h -0.409936 v 1.41501 c 0,0.31445 -0.136805,0.47163 -0.410011,0.47163 z m 6.559685,0 h -0.819954 c -0.273207,0 -0.410012,-0.15747 -0.410012,-0.47163 v -1.41501 h -0.409962 c -0.273206,0 -0.409961,-0.15722 -0.409961,-0.47163 v -3.30164 h 3.279816 v 3.30164 c 0,0.31445 -0.136804,0.47163 -0.409985,0.47163 h -0.409983 v 1.41501 c 0,0.31445 -0.136816,0.47163 -0.409959,0.47163 z m 6.559664,0 h -0.819979 c -0.27322,0 -0.409977,-0.15747 -0.409977,-0.47163 v -1.41501 h -0.409953 c -0.273233,0 -0.409991,-0.15722 -0.409991,-0.47163 v -3.30164 h 3.279805 v 3.30164 c 0,0.31445 -0.136785,0.47163 -0.409974,0.47163 h -0.409978 v 1.41501 c 0,0.31445 -0.136781,0.47163 -0.409953,0.47163 z"
       inkscape:connector-curvature="0"
       style="fill:#363636;fill-opacity:1;stroke-width:0.264584"
       sodipodi:nodetypes="ccsscsssscsscccsscsssscsscccsscsssscsscccsscsssscsscccsscsssscsscssscssccsscssssscssccsscssssscssccsscssssscssccsscssssscssccsscss" />
    <path
       sodipodi:nodetypes="cc"
       style="fill:none;stroke:#363636;stroke-width:1.5;stroke-linecap:butt;stroke-linejoin:miter;stroke-miterlimit:4;stroke-dasharray:none;stroke-opacity:1;marker-end:url(#marker3565)"
       d="M 42.250747,109.11187 H 13.766289"
       id="path3561"
       inkscape:connector-curvature="0" />
    <path
       inkscape:connector-curvature="0"
       id="path3623"
       d="M 46.473937,102.5494 H 22.946289"
       style="fill:none;stroke:#363636;stroke-width:1.5;stroke-linecap:butt;stroke-linejoin:miter;stroke-miterlimit:4;stroke-dasharray:none;stroke-opacity:1;marker-end:url(#marker3627)"
       sodipodi:nodetypes="cc" />
    <path
       sodipodi:nodetypes="cc"
       style="fill:none;stroke:#363636;stroke-width:1.5;stroke-linecap:butt;stroke-linejoin:miter;stroke-miterlimit:4;stroke-dasharray:none;stroke-opacity:1;marker-end:url(#marker3633)"
       d="m 42.474289,96.016746 -9.51,-4.02e-4"
       id="path3629"
       inkscape:connector-curvature="0" />
    <text
       xml:space="preserve"
       style="font-size:39.7278px;line-height:1.25;font-family:'Open Sans';-inkscape-font-specification:'Open Sans';text-align:center;letter-spacing:0px;word-spacing:0px;text-anchor:middle;fill:#363636;fill-opacity:1;stroke-width:0.264584"
       x="154.96844"
       y="110.94593"
       id="text4372"
       transform="scale(1.0016961,0.99830677)"><tspan
         sodipodi:role="line"
         id="tspan4370"
         x="154.96844"
         y="110.94593"
         style="font-style:normal;font-variant:normal;font-weight:500;font-stretch:normal;font-family:'Libre Franklin';-inkscape-font-specification:'Libre Franklin Medium';fill:#363636;fill-opacity:1;stroke-width:0.264584">FPGA</tspan></text>
    <rect
       style="fill:none;fill-opacity:1;stroke:#363636;stroke-width:3;stroke-linecap:round;stroke-linejoin:bevel;stroke-miterlimit:4;stroke-dasharray:none;stroke-opacity:1"
       id="rect4386"
       width="7.6671782"
       height="7.6412063"
       x="60.883568"
       y="92.214569" />
  </g>
</svg>
