<?xml version="1.0" encoding="UTF-8" standalone="no"?>
<svg
   xmlns:dc="http://purl.org/dc/elements/1.1/"
   xmlns:cc="http://creativecommons.org/ns#"
   xmlns:rdf="http://www.w3.org/1999/02/22-rdf-syntax-ns#"
   xmlns:svg="http://www.w3.org/2000/svg"
   xmlns="http://www.w3.org/2000/svg"
   xmlns:sodipodi="http://sodipodi.sourceforge.net/DTD/sodipodi-0.dtd"
   xmlns:inkscape="http://www.inkscape.org/namespaces/inkscape"
   width="294.92181mm"
   height="53.784039mm"
   viewBox="0 0 294.9218 53.784039"
   version="1.1"
   id="svg8"
   inkscape:version="1.0 (4035a4fb49, 2020-05-01)"
   sodipodi:docname="gepilatas.svg"
   inkscape:export-filename="/mnt/Storage/BME/SIMONYI/LEGO_KOR/PROJEKT_LOGOK/gepi_latas.svg.png"
   inkscape:export-xdpi="160"
   inkscape:export-ydpi="160">
  <defs
     id="defs2">
    <inkscape:path-effect
       is_visible="true"
       id="path-effect1155"
       effect="spiro"
       lpeversion="0" />
    <inkscape:path-effect
       effect="spiro"
       id="path-effect1151"
       is_visible="true"
       lpeversion="0" />
    <inkscape:path-effect
       is_visible="true"
       id="path-effect1147"
       effect="spiro"
       lpeversion="0" />
    <inkscape:path-effect
       effect="spiro"
       id="path-effect1143"
       is_visible="true"
       lpeversion="0" />
    <inkscape:path-effect
       is_visible="true"
       id="path-effect1139"
       effect="spiro"
       lpeversion="0" />
    <inkscape:path-effect
       effect="spiro"
       id="path-effect1135"
       is_visible="true"
       lpeversion="0" />
    <inkscape:path-effect
       is_visible="true"
       id="path-effect1131"
       effect="spiro"
       lpeversion="0" />
    <inkscape:path-effect
       effect="spiro"
       id="path-effect1060"
       is_visible="true"
       lpeversion="0" />
    <inkscape:path-effect
       fuse_tolerance="0"
       vertical_pattern="false"
       prop_units="false"
       tang_offset="0"
       normal_offset="0"
       spacing="0"
       scale_y_rel="false"
       prop_scale="0.05"
       copytype="single_stretched"
       pattern="M 0,5 C 0,2.24 2.24,0 5,0 7.76,0 10,2.24 10,5 10,7.76 7.76,10 5,10 2.24,10 0,7.76 0,5 Z"
       is_visible="true"
       id="path-effect1018"
       effect="skeletal"
       lpeversion="0"
       hide_knot="false" />
    <inkscape:path-effect
       is_visible="true"
       id="path-effect1016"
       effect="spiro"
       lpeversion="0" />
    <inkscape:path-effect
       effect="skeletal"
       id="path-effect1006"
       is_visible="true"
       pattern="M 0,5 C 0,2.24 2.24,0 5,0 7.76,0 10,2.24 10,5 10,7.76 7.76,10 5,10 2.24,10 0,7.76 0,5 Z"
       copytype="single_stretched"
       prop_scale="0.05"
       scale_y_rel="false"
       spacing="0"
       normal_offset="0"
       tang_offset="0"
       prop_units="false"
       vertical_pattern="false"
       fuse_tolerance="0"
       lpeversion="0"
       hide_knot="false" />
    <inkscape:path-effect
       effect="spiro"
       id="path-effect1004"
       is_visible="true"
       lpeversion="0" />
    <inkscape:path-effect
       effect="spiro"
       id="path-effect821"
       is_visible="true"
       lpeversion="0" />
    <inkscape:path-effect
       effect="spiro"
       id="path-effect819"
       is_visible="true"
       lpeversion="0" />
  </defs>
  <sodipodi:namedview
     id="base"
     pagecolor="#ffffff"
     bordercolor="#666666"
     borderopacity="1.0"
     inkscape:pageopacity="0.0"
     inkscape:pageshadow="2"
     inkscape:zoom="0.49497475"
     inkscape:cx="503.54559"
     inkscape:cy="157.09973"
     inkscape:document-units="mm"
     inkscape:current-layer="layer1"
     showgrid="true"
     inkscape:window-width="1366"
     inkscape:window-height="713"
     inkscape:window-x="0"
     inkscape:window-y="0"
     inkscape:window-maximized="1"
     inkscape:snap-center="false"
     inkscape:object-nodes="false"
     inkscape:snap-smooth-nodes="false"
     inkscape:snap-others="true"
     inkscape:snap-bbox="true"
     inkscape:bbox-nodes="true"
     fit-margin-top="0"
     fit-margin-left="0"
     fit-margin-right="0"
     fit-margin-bottom="0"
     inkscape:document-rotation="0"
     inkscape:snap-bbox-midpoints="false">
    <inkscape:grid
       type="xygrid"
       id="grid815"
       spacingx="2.6458333"
       spacingy="2.6458333"
       originx="-23.812489"
       originy="-78.941339" />
  </sodipodi:namedview>
  <metadata
     id="metadata5">
    <rdf:RDF>
      <cc:Work
         rdf:about="">
        <dc:format>image/svg+xml</dc:format>
        <dc:type
           rdf:resource="http://purl.org/dc/dcmitype/StillImage" />
        <dc:title></dc:title>
      </cc:Work>
    </rdf:RDF>
  </metadata>
  <g
     inkscape:label="1. réteg"
     inkscape:groupmode="layer"
     id="layer1"
     transform="translate(-23.812501,-164.27467)">
    <text
       xml:space="preserve"
       style="font-style:normal;font-variant:normal;font-weight:normal;font-stretch:normal;font-size:35.2778px;line-height:1.25;font-family:'Libre Franklin';-inkscape-font-specification:'Libre Franklin';letter-spacing:0px;word-spacing:0px;fill:#363636;fill-opacity:1;stroke:none;stroke-width:0.264583"
       x="117.7925"
       y="204.38966"
       id="text1046"><tspan
         sodipodi:role="line"
         id="tspan1044"
         x="117.7925"
         y="204.38966"
         style="font-style:normal;font-variant:normal;font-weight:500;font-stretch:normal;font-size:35.2778px;font-family:'Libre Franklin';-inkscape-font-specification:'Libre Franklin Medium';fill:#363636;fill-opacity:1;stroke-width:0.264583">GÉPI LÁTÁS</tspan></text>
    <g
       id="g5293">
      <path
         d="M 86.592284,185.68805 A 21.167721,21.167721 0 0 1 84.47762,201.75052"
         sodipodi:arc-type="arc"
         sodipodi:open="true"
         sodipodi:end="0.52359878"
         sodipodi:start="6.0213859"
         sodipodi:ry="21.167721"
         sodipodi:rx="21.167721"
         sodipodi:cy="191.16666"
         sodipodi:cx="66.145836"
         sodipodi:type="arc"
         id="path5188"
         style="fill:none;stroke:#363636;stroke-width:1.5;stroke-linecap:butt;stroke-miterlimit:4;stroke-dasharray:none;stroke-opacity:1" />
      <circle
         r="11.385145"
         cy="191.16667"
         cx="66.145836"
         id="path881"
         style="opacity:1;vector-effect:none;fill:#ffffff;fill-opacity:1;stroke:none;stroke-width:1.07576;stroke-linecap:round;stroke-linejoin:round;stroke-miterlimit:4;stroke-dasharray:none;stroke-dashoffset:0;stroke-opacity:1" />
      <ellipse
         transform="scale(1,-1)"
         ry="25.392019"
         rx="25.392004"
         cy="-191.16669"
         cx="66.145836"
         id="path1042"
         style="opacity:1;vector-effect:none;fill:none;fill-opacity:1;stroke:#363636;stroke-width:3;stroke-linecap:round;stroke-linejoin:round;stroke-miterlimit:4;stroke-dasharray:none;stroke-dashoffset:0;stroke-opacity:1" />
      <path
         inkscape:connector-curvature="0"
         id="path1153"
         d="m 44.153705,204.42676 a 1.0001,1.0001 0 0 0 0.712629,1.66833 c 1.687884,0.0779 3.385739,-0.11307 5.014659,-0.5621 2.849914,-0.7856 5.411725,-2.34074 7.575155,-4.26612 0.688203,-0.61246 1.340373,-1.26462 1.95283,-1.95283 a 1.0001,1.0001 0 1 0 -1.494313,-1.32858 c -0.560844,0.6302 -1.158285,1.22764 -1.788483,1.78848 -1.976287,1.75882 -4.284359,3.14538 -6.776899,3.83247 -1.424735,0.39274 -2.91411,0.55845 -4.390421,0.49027 a 1.0001,1.0001 0 0 0 -0.805157,0.33008 z"
         style="color:#000000;font-style:normal;font-variant:normal;font-weight:normal;font-stretch:normal;font-size:medium;line-height:normal;font-family:sans-serif;font-variant-ligatures:normal;font-variant-position:normal;font-variant-caps:normal;font-variant-numeric:normal;font-variant-alternates:normal;font-feature-settings:normal;text-indent:0;text-align:start;text-decoration:none;text-decoration-line:none;text-decoration-style:solid;text-decoration-color:#000000;letter-spacing:normal;word-spacing:normal;text-transform:none;writing-mode:lr-tb;direction:ltr;text-orientation:mixed;dominant-baseline:auto;baseline-shift:baseline;text-anchor:start;white-space:normal;shape-padding:0;clip-rule:nonzero;display:inline;overflow:visible;visibility:visible;opacity:1;isolation:auto;mix-blend-mode:normal;color-interpolation:sRGB;color-interpolation-filters:linearRGB;solid-color:#000000;solid-opacity:1;vector-effect:none;fill:#363636;fill-opacity:1;fill-rule:nonzero;stroke:none;stroke-width:2;stroke-linecap:round;stroke-linejoin:miter;stroke-miterlimit:4;stroke-dasharray:none;stroke-dashoffset:0;stroke-opacity:1;color-rendering:auto;image-rendering:auto;shape-rendering:auto;text-rendering:auto;enable-background:accumulate" />
      <path
         id="path1137"
         d="m 86.792116,176.22143 c -1.477999,-0.01 -2.956337,0.18587 -4.381642,0.57877 -2.849915,0.7856 -5.411304,2.34104 -7.574733,4.26641 -0.600308,0.53424 -1.171591,1.10018 -1.714624,1.6924 a 2.036575,2.036575 0 0 1 1.425752,1.40353 c 0.511606,-0.56164 1.050965,-1.09792 1.618507,-1.603 1.976286,-1.75883 4.284308,-3.14575 6.776847,-3.83284 1.424733,-0.39274 2.914118,-0.55807 4.390429,-0.48989 a 1.0001,1.0001 0 0 0 0.805119,-0.33022 1.0001,1.0001 0 0 0 -0.712618,-1.66811 c -0.210984,-0.01 -0.421894,-0.0157 -0.633037,-0.0171 z"
         style="color:#000000;font-style:normal;font-variant:normal;font-weight:normal;font-stretch:normal;font-size:medium;line-height:normal;font-family:sans-serif;font-variant-ligatures:normal;font-variant-position:normal;font-variant-caps:normal;font-variant-numeric:normal;font-variant-alternates:normal;font-feature-settings:normal;text-indent:0;text-align:start;text-decoration:none;text-decoration-line:none;text-decoration-style:solid;text-decoration-color:#000000;letter-spacing:normal;word-spacing:normal;text-transform:none;writing-mode:lr-tb;direction:ltr;text-orientation:mixed;dominant-baseline:auto;baseline-shift:baseline;text-anchor:start;white-space:normal;shape-padding:0;clip-rule:nonzero;display:inline;overflow:visible;visibility:visible;opacity:1;isolation:auto;mix-blend-mode:normal;color-interpolation:sRGB;color-interpolation-filters:linearRGB;solid-color:#000000;solid-opacity:1;vector-effect:none;fill:#363636;fill-opacity:1;fill-rule:nonzero;stroke:none;stroke-width:2;stroke-linecap:round;stroke-linejoin:miter;stroke-miterlimit:4;stroke-dasharray:none;stroke-dashoffset:0;stroke-opacity:1;color-rendering:auto;image-rendering:auto;shape-rendering:auto;text-rendering:auto;enable-background:accumulate"
         inkscape:connector-curvature="0" />
      <path
         sodipodi:nodetypes="cc"
         inkscape:connector-curvature="0"
         id="path817"
         d="m 66.145833,172.64584 c 15.875,-2e-5 29.104167,7.93748 39.687497,18.52083"
         style="fill:none;stroke:#f89719;stroke-width:4;stroke-linecap:butt;stroke-linejoin:round;stroke-miterlimit:4;stroke-dasharray:none;stroke-opacity:1" />
      <path
         sodipodi:nodetypes="cc"
         inkscape:connector-curvature="0"
         style="fill:none;stroke:#f89719;stroke-width:4;stroke-linecap:butt;stroke-linejoin:round;stroke-miterlimit:4;stroke-dasharray:none;stroke-opacity:1"
         d="m 26.458333,191.16667 c 13.229168,13.22915 23.812501,18.52082 39.6875,18.52083"
         id="path825" />
      <path
         inkscape:connector-curvature="0"
         id="path994"
         d="m 66.144856,182.83757 c -4.574045,0 -8.328125,3.75603 -8.328125,8.33007 0,4.57405 3.75408,8.32813 8.328125,8.32813 4.574044,0 8.330078,-3.75408 8.330078,-8.32813 0,-4.57404 -3.756034,-8.33007 -8.330078,-8.33007 z m 0,4.35351 c 2.222115,0 3.976562,1.75445 3.976562,3.97656 0,2.22212 -1.754447,3.97657 -3.976562,3.97657 -2.222116,0 -3.976563,-1.75445 -3.976563,-3.97657 0,-2.22211 1.754447,-3.97656 3.976563,-3.97656 z"
         style="color:#000000;font-style:normal;font-variant:normal;font-weight:normal;font-stretch:normal;font-size:medium;line-height:normal;font-family:sans-serif;font-variant-ligatures:normal;font-variant-position:normal;font-variant-caps:normal;font-variant-numeric:normal;font-variant-alternates:normal;font-feature-settings:normal;text-indent:0;text-align:start;text-decoration:none;text-decoration-line:none;text-decoration-style:solid;text-decoration-color:#000000;letter-spacing:normal;word-spacing:normal;text-transform:none;writing-mode:lr-tb;direction:ltr;text-orientation:mixed;dominant-baseline:auto;baseline-shift:baseline;text-anchor:start;white-space:normal;shape-padding:0;clip-rule:nonzero;display:inline;overflow:visible;visibility:visible;opacity:1;isolation:auto;mix-blend-mode:normal;color-interpolation:sRGB;color-interpolation-filters:linearRGB;solid-color:#000000;solid-opacity:1;vector-effect:none;fill:#363636;fill-opacity:1;fill-rule:nonzero;stroke:none;stroke-width:4.35188;stroke-linecap:round;stroke-linejoin:round;stroke-miterlimit:4;stroke-dasharray:none;stroke-dashoffset:0;stroke-opacity:1;color-rendering:auto;image-rendering:auto;shape-rendering:auto;text-rendering:auto;enable-background:accumulate" />
      <path
         inkscape:connector-curvature="0"
         id="path929"
         d="m 66.144856,179.58366 c -6.385454,0 -11.582032,5.19853 -11.582032,11.58398 0,6.38546 5.196578,11.58204 11.582032,11.58204 6.385453,0 11.583984,-5.19658 11.583984,-11.58204 0,-6.38545 -5.198531,-11.58398 -11.583984,-11.58398 z m 0,2 c 5.304573,0 9.583984,4.27941 9.583984,9.58398 0,5.30458 -4.279411,9.58204 -9.583984,9.58204 -5.304574,0 -9.582032,-4.27746 -9.582032,-9.58204 0,-5.30457 4.277458,-9.58398 9.582032,-9.58398 z"
         style="color:#000000;font-style:normal;font-variant:normal;font-weight:normal;font-stretch:normal;font-size:medium;line-height:normal;font-family:sans-serif;font-variant-ligatures:normal;font-variant-position:normal;font-variant-caps:normal;font-variant-numeric:normal;font-variant-alternates:normal;font-feature-settings:normal;text-indent:0;text-align:start;text-decoration:none;text-decoration-line:none;text-decoration-style:solid;text-decoration-color:#000000;letter-spacing:normal;word-spacing:normal;text-transform:none;writing-mode:lr-tb;direction:ltr;text-orientation:mixed;dominant-baseline:auto;baseline-shift:baseline;text-anchor:start;white-space:normal;shape-padding:0;clip-rule:nonzero;display:inline;overflow:visible;visibility:visible;opacity:1;isolation:auto;mix-blend-mode:normal;color-interpolation:sRGB;color-interpolation-filters:linearRGB;solid-color:#000000;solid-opacity:1;vector-effect:none;fill:#363636;fill-opacity:1;fill-rule:nonzero;stroke:none;stroke-width:2;stroke-linecap:round;stroke-linejoin:round;stroke-miterlimit:4;stroke-dasharray:none;stroke-dashoffset:0;stroke-opacity:1;color-rendering:auto;image-rendering:auto;shape-rendering:auto;text-rendering:auto;enable-background:accumulate" />
      <path
         id="circle945"
         d="M 66.145507,180.58376 A 10.583333,10.583333 0 0 0 55.562174,191.1671 10.583333,10.583333 0 0 0 66.145507,201.75043 10.583333,10.583333 0 0 0 76.728841,191.1671 10.583333,10.583333 0 0 0 66.145507,180.58376 Z m -3.231327,3.36311 a 1.50015,1.50015 0 0 1 0.683678,2.80861 c -1.859219,1.07342 -2.841378,3.1826 -2.468581,5.29684 0.372793,2.11423 2.016784,3.75821 4.131014,4.13101 2.114227,0.37279 4.223411,-0.60937 5.296834,-2.46858 a 1.50015,1.50015 0 1 1 2.597256,1.49965 c -1.698863,2.94251 -5.067848,4.5138 -8.413957,3.92378 -3.346106,-0.59 -5.976514,-3.21989 -6.566524,-6.566 -0.590007,-3.34611 0.981792,-6.71562 3.924308,-8.41448 a 1.50015,1.50015 0 0 1 0.815972,-0.21083 z"
         style="opacity:1;vector-effect:none;fill:none;fill-opacity:1;stroke:none;stroke-width:2;stroke-linecap:round;stroke-linejoin:round;stroke-miterlimit:4;stroke-dasharray:none;stroke-dashoffset:0;stroke-opacity:1"
         inkscape:connector-curvature="0" />
      <path
         id="path933"
         d="m 66.145507,188.52126 a 2.6458333,2.6458333 0 0 0 -2.645833,2.64584 2.6458333,2.6458333 0 0 0 0.307475,1.23351 0.8196188,0.8196188 0 0 1 0.377754,-0.0925 0.8196188,0.8196188 0 0 1 0.819589,0.81959 0.8196188,0.8196188 0 0 1 -0.09302,0.37775 2.6458333,2.6458333 0 0 0 1.234032,0.30748 2.6458333,2.6458333 0 0 0 2.645834,-2.64583 2.6458333,2.6458333 0 0 0 -2.645834,-2.64584 z"
         style="opacity:1;vector-effect:none;fill:#363636;fill-opacity:1;stroke:none;stroke-width:1.5;stroke-linecap:round;stroke-linejoin:round;stroke-miterlimit:4;stroke-dasharray:none;stroke-dashoffset:0;stroke-opacity:1"
         inkscape:connector-curvature="0" />
      <path
         style="color:#000000;font-style:normal;font-variant:normal;font-weight:normal;font-stretch:normal;font-size:medium;line-height:normal;font-family:sans-serif;font-variant-ligatures:normal;font-variant-position:normal;font-variant-caps:normal;font-variant-numeric:normal;font-variant-alternates:normal;font-feature-settings:normal;text-indent:0;text-align:start;text-decoration:none;text-decoration-line:none;text-decoration-style:solid;text-decoration-color:#000000;letter-spacing:normal;word-spacing:normal;text-transform:none;writing-mode:lr-tb;direction:ltr;text-orientation:mixed;dominant-baseline:auto;baseline-shift:baseline;text-anchor:start;white-space:normal;shape-padding:0;clip-rule:nonzero;display:inline;overflow:visible;visibility:visible;opacity:1;isolation:auto;mix-blend-mode:normal;color-interpolation:sRGB;color-interpolation-filters:linearRGB;solid-color:#000000;solid-opacity:1;vector-effect:none;fill:#363636;fill-opacity:1;fill-rule:nonzero;stroke:none;stroke-width:2;stroke-linecap:round;stroke-linejoin:round;stroke-miterlimit:4;stroke-dasharray:none;stroke-dashoffset:0;stroke-opacity:1;color-rendering:auto;image-rendering:auto;shape-rendering:auto;text-rendering:auto;enable-background:accumulate"
         d="m 66.144856,179.58366 c -6.385454,0 -11.582032,5.19853 -11.582032,11.58398 0,6.38546 5.196578,11.58204 11.582032,11.58204 6.385453,0 11.583984,-5.19658 11.583984,-11.58204 0,-6.38545 -5.198531,-11.58398 -11.583984,-11.58398 z m 0,2 c 5.304573,0 9.583984,4.27941 9.583984,9.58398 0,5.30458 -4.279411,9.58204 -9.583984,9.58204 -5.304574,0 -9.582032,-4.27746 -9.582032,-9.58204 0,-5.30457 4.277458,-9.58398 9.582032,-9.58398 z"
         id="path992"
         inkscape:connector-curvature="0" />
      <path
         transform="matrix(0.89860473,0,0,0.89860473,125.54938,7.531019)"
         sodipodi:nodetypes="cscc"
         inkscape:original-d="m -69.90848,197.33203 c -2.681392,1.79637 -2.615304,-1.06691 -4.174852,7.06381 -0.276065,1.43927 7.282283,6.62648 7.937499,7.9375 0.881684,1.76416 7.138164,-1.52903 7.138164,-4.17486"
         inkscape:path-effect="#path-effect1004;#path-effect1006"
         inkscape:connector-curvature="0"
         id="path1002"
         d="m -69.90848,197.33203 c 0.03264,0.0603 -1.630048,0.7783 -2.915481,3.04251 0,0 0,0 0,0 -0.596064,1.04949 -1.056865,2.44171 -1.032489,4.01965 0.02744,1.83417 0.774671,3.90007 2.294243,5.41655 0.0074,0.007 0.01477,0.0147 0.02218,0.0221 1.515673,1.50216 3.569215,2.24064 5.396507,2.27315 0,0 10e-7,0 10e-7,0 1.589708,0.0289 2.994076,-0.42972 4.05467,-1.02584 2.286516,-1.28464 3.020816,-2.9548 3.081188,-2.92165 0.06037,0.0332 -0.558379,1.80244 -2.902966,3.22637 -1.088161,0.66062 -2.552529,1.18019 -4.237512,1.17588 0,0 -10e-7,0 -10e-7,0 -1.939208,-0.006 -4.124384,-0.77016 -5.7437,-2.37265 -0.0079,-0.008 -0.01582,-0.0157 -0.02369,-0.0236 -1.621339,-1.62048 -2.394552,-3.81964 -2.394677,-5.76703 6.78e-4,-1.67325 0.522673,-3.12522 1.18329,-4.20201 0,0 0,0 0,0 1.424956,-2.32174 3.185801,-2.92379 3.218444,-2.86345 z"
         style="fill:#ffffff;fill-opacity:1;stroke:none;stroke-width:0.264583px;stroke-linecap:butt;stroke-linejoin:miter;stroke-opacity:1" />
      <circle
         r="2.0365751"
         cy="184.72273"
         cx="72.589775"
         id="path1010"
         style="opacity:1;vector-effect:none;fill:#ffffff;fill-opacity:1;stroke:none;stroke-width:3.46378;stroke-linecap:round;stroke-linejoin:round;stroke-miterlimit:4;stroke-dasharray:none;stroke-dashoffset:0;stroke-opacity:1" />
      <circle
         style="opacity:1;vector-effect:none;fill:#ffffff;fill-opacity:1;stroke:none;stroke-width:2.82092;stroke-linecap:round;stroke-linejoin:round;stroke-miterlimit:4;stroke-dasharray:none;stroke-dashoffset:0;stroke-opacity:1"
         id="circle1012"
         cx="68.956703"
         cy="188.3558"
         r="1.6586007" />
      <path
         style="fill:#ffffff;fill-opacity:1;stroke:none;stroke-width:0.264583px;stroke-linecap:butt;stroke-linejoin:miter;stroke-opacity:1"
         d="m -69.90848,196.97353 c 0.03419,0.0604 -1.68218,0.83958 -2.966863,3.21649 -0.596925,1.10396 -1.043503,2.56107 -0.979709,4.19869 0,0 0,0 0,0 0.07025,1.82141 0.82711,3.84415 2.316844,5.34936 0.0086,0.009 0.01717,0.0173 0.02578,0.0259 1.506473,1.50962 3.543244,2.27667 5.372993,2.34161 1.623994,0.0584 3.067026,-0.39069 4.158124,-0.98755 0,0 10e-7,0 10e-7,0 2.351177,-1.28559 3.111532,-2.9932 3.171925,-2.95958 0.06039,0.0336 -0.584517,1.84211 -2.996853,3.26724 0,0 -10e-7,0 -10e-7,0 -1.12014,0.66147 -2.624999,1.17096 -4.345992,1.13537 -1.943344,-0.0411 -4.087649,-0.81627 -5.713993,-2.44378 -0.0092,-0.009 -0.01833,-0.0184 -0.02746,-0.0276 -1.586849,-1.60548 -2.371029,-3.75546 -2.417926,-5.68668 0,0 10e-7,0 10e-7,0 -0.04147,-1.73457 0.465177,-3.25378 1.126664,-4.38709 1.423955,-2.43867 3.242275,-3.10279 3.276467,-3.04235 z"
         id="path1014"
         inkscape:connector-curvature="0"
         inkscape:path-effect="#path-effect1016;#path-effect1018"
         inkscape:original-d="m -69.90848,196.97353 c -2.681392,1.79637 -2.615304,-0.70841 -4.174852,7.42231 -0.276065,1.43927 7.282283,6.62648 7.937499,7.9375 0.881684,1.76416 7.336444,-1.52903 7.336444,-4.17486"
         sodipodi:nodetypes="cscc"
         transform="matrix(0.68780838,0,0,0.68780838,111.58018,50.642815)" />
      <path
         inkscape:connector-curvature="0"
         id="path1129"
         d="m 52.88574,169.17454 a 1.0001,1.0001 0 0 0 -1.668327,0.71263 c -0.07794,1.68789 0.113065,3.38574 0.562093,5.01466 0.7856,2.84992 2.340746,5.41173 4.266121,7.57516 0.612458,0.6882 1.264627,1.34037 1.95283,1.95283 a 1.0001,1.0001 0 1 0 1.328585,-1.49432 c -0.630198,-0.56084 -1.227639,-1.15828 -1.788483,-1.78848 -1.758824,-1.97629 -3.14538,-4.28436 -3.832465,-6.7769 -0.39274,-1.42473 -0.558453,-2.91411 -0.490273,-4.39042 a 1.0001,1.0001 0 0 0 -0.330081,-0.80516 z"
         style="color:#000000;font-style:normal;font-variant:normal;font-weight:normal;font-stretch:normal;font-size:medium;line-height:normal;font-family:sans-serif;font-variant-ligatures:normal;font-variant-position:normal;font-variant-caps:normal;font-variant-numeric:normal;font-variant-alternates:normal;font-feature-settings:normal;text-indent:0;text-align:start;text-decoration:none;text-decoration-line:none;text-decoration-style:solid;text-decoration-color:#000000;letter-spacing:normal;word-spacing:normal;text-transform:none;writing-mode:lr-tb;direction:ltr;text-orientation:mixed;dominant-baseline:auto;baseline-shift:baseline;text-anchor:start;white-space:normal;shape-padding:0;clip-rule:nonzero;display:inline;overflow:visible;visibility:visible;opacity:1;isolation:auto;mix-blend-mode:normal;color-interpolation:sRGB;color-interpolation-filters:linearRGB;solid-color:#000000;solid-opacity:1;vector-effect:none;fill:#363636;fill-opacity:1;fill-rule:nonzero;stroke:none;stroke-width:2;stroke-linecap:round;stroke-linejoin:miter;stroke-miterlimit:4;stroke-dasharray:none;stroke-dashoffset:0;stroke-opacity:1;color-rendering:auto;image-rendering:auto;shape-rendering:auto;text-rendering:auto;enable-background:accumulate" />
      <path
         inkscape:connector-curvature="0"
         id="path1145"
         d="m 79.405924,213.1588 a 1.0001,1.0001 0 0 0 1.668327,-0.71263 c 0.07794,-1.68789 -0.113065,-3.38574 -0.562092,-5.01466 -0.785601,-2.84992 -2.340747,-5.41173 -4.266122,-7.57516 -0.612458,-0.6882 -1.264627,-1.34037 -1.95283,-1.95283 a 1.0001,1.0001 0 1 0 -1.328585,1.49432 c 0.630198,0.56084 1.227639,1.15828 1.788484,1.78848 1.758823,1.97629 3.14538,4.28436 3.832464,6.7769 0.39274,1.42473 0.558454,2.91411 0.490274,4.39042 a 1.0001,1.0001 0 0 0 0.33008,0.80516 z"
         style="color:#000000;font-style:normal;font-variant:normal;font-weight:normal;font-stretch:normal;font-size:medium;line-height:normal;font-family:sans-serif;font-variant-ligatures:normal;font-variant-position:normal;font-variant-caps:normal;font-variant-numeric:normal;font-variant-alternates:normal;font-feature-settings:normal;text-indent:0;text-align:start;text-decoration:none;text-decoration-line:none;text-decoration-style:solid;text-decoration-color:#000000;letter-spacing:normal;word-spacing:normal;text-transform:none;writing-mode:lr-tb;direction:ltr;text-orientation:mixed;dominant-baseline:auto;baseline-shift:baseline;text-anchor:start;white-space:normal;shape-padding:0;clip-rule:nonzero;display:inline;overflow:visible;visibility:visible;opacity:1;isolation:auto;mix-blend-mode:normal;color-interpolation:sRGB;color-interpolation-filters:linearRGB;solid-color:#000000;solid-opacity:1;vector-effect:none;fill:#363636;fill-opacity:1;fill-rule:nonzero;stroke:none;stroke-width:2;stroke-linecap:round;stroke-linejoin:miter;stroke-miterlimit:4;stroke-dasharray:none;stroke-dashoffset:0;stroke-opacity:1;color-rendering:auto;image-rendering:auto;shape-rendering:auto;text-rendering:auto;enable-background:accumulate" />
      <path
         style="fill:none;stroke:#363636;stroke-width:1.5;stroke-linecap:butt;stroke-miterlimit:4;stroke-dasharray:none;stroke-opacity:1"
         id="path5190"
         sodipodi:type="arc"
         sodipodi:cx="66.145836"
         sodipodi:cy="191.16666"
         sodipodi:rx="21.167721"
         sodipodi:ry="21.167721"
         sodipodi:start="2.8797933"
         sodipodi:end="3.6651914"
         sodipodi:open="true"
         sodipodi:arc-type="arc"
         d="M 45.699387,196.64527 A 21.167721,21.167721 0 0 1 47.814052,180.5828" />
      <g
         id="g5204">
        <rect
           style="fill:#363636;fill-opacity:1;stroke:none;stroke-width:2;stroke-linecap:butt;stroke-miterlimit:4;stroke-dasharray:none;stroke-opacity:1"
           id="rect5192"
           width="2.6458333"
           height="2.6458333"
           x="63.5"
           y="169.99998" />
        <rect
           y="172.64583"
           x="66.145836"
           height="2.6458333"
           width="2.6458333"
           id="rect5194"
           style="fill:#363636;fill-opacity:1;stroke:none;stroke-width:2;stroke-linecap:butt;stroke-miterlimit:4;stroke-dasharray:none;stroke-opacity:1"
           inkscape:transform-center-x="2.6733326"
           inkscape:transform-center-y="-2.9017239" />
        <rect
           inkscape:transform-center-y="-2.9017239"
           inkscape:transform-center-x="2.6733326"
           style="fill:#ffffff;fill-opacity:1;stroke:none;stroke-width:2;stroke-linecap:butt;stroke-miterlimit:4;stroke-dasharray:none;stroke-opacity:1"
           id="rect5196"
           width="2.6458333"
           height="2.6458333"
           x="66.145836"
           y="169.99998" />
        <rect
           y="172.64583"
           x="63.5"
           height="2.6458333"
           width="2.6458333"
           id="rect5198"
           style="fill:#ffffff;fill-opacity:1;stroke:none;stroke-width:2;stroke-linecap:butt;stroke-miterlimit:4;stroke-dasharray:none;stroke-opacity:1"
           inkscape:transform-center-x="2.6733326"
           inkscape:transform-center-y="-2.9017239" />
      </g>
      <g
         transform="matrix(-1,0,0,1,171.97917,18.520827)"
         id="g5214">
        <rect
           y="169.99998"
           x="63.5"
           height="2.6458333"
           width="2.6458333"
           id="rect5206"
           style="fill:#363636;fill-opacity:1;stroke:none;stroke-width:2;stroke-linecap:butt;stroke-miterlimit:4;stroke-dasharray:none;stroke-opacity:1" />
        <rect
           inkscape:transform-center-y="-2.9017239"
           inkscape:transform-center-x="2.6733326"
           style="fill:#363636;fill-opacity:1;stroke:none;stroke-width:2;stroke-linecap:butt;stroke-miterlimit:4;stroke-dasharray:none;stroke-opacity:1"
           id="rect5208"
           width="2.6458333"
           height="2.6458333"
           x="66.145836"
           y="172.64583" />
        <rect
           y="169.99998"
           x="66.145836"
           height="2.6458333"
           width="2.6458333"
           id="rect5210"
           style="fill:#ffffff;fill-opacity:1;stroke:none;stroke-width:2;stroke-linecap:butt;stroke-miterlimit:4;stroke-dasharray:none;stroke-opacity:1"
           inkscape:transform-center-x="2.6733326"
           inkscape:transform-center-y="-2.9017239" />
        <rect
           inkscape:transform-center-y="-2.9017239"
           inkscape:transform-center-x="2.6733326"
           style="fill:#ffffff;fill-opacity:1;stroke:none;stroke-width:2;stroke-linecap:butt;stroke-miterlimit:4;stroke-dasharray:none;stroke-opacity:1"
           id="rect5212"
           width="2.6458333"
           height="2.6458333"
           x="63.5"
           y="172.64583" />
      </g>
      <g
         transform="matrix(1,0,0,-1,-2.3303254e-6,382.33331)"
         id="g5224">
        <rect
           y="169.99998"
           x="63.5"
           height="2.6458333"
           width="2.6458333"
           id="rect5216"
           style="fill:#363636;fill-opacity:1;stroke:none;stroke-width:2;stroke-linecap:butt;stroke-miterlimit:4;stroke-dasharray:none;stroke-opacity:1" />
        <rect
           inkscape:transform-center-y="-2.9017239"
           inkscape:transform-center-x="2.6733326"
           style="fill:#363636;fill-opacity:1;stroke:none;stroke-width:2;stroke-linecap:butt;stroke-miterlimit:4;stroke-dasharray:none;stroke-opacity:1"
           id="rect5218"
           width="2.6458333"
           height="2.6458333"
           x="66.145836"
           y="172.64583" />
        <rect
           y="169.99998"
           x="66.145836"
           height="2.6458333"
           width="2.6458333"
           id="rect5220"
           style="fill:#ffffff;fill-opacity:1;stroke:none;stroke-width:2;stroke-linecap:butt;stroke-miterlimit:4;stroke-dasharray:none;stroke-opacity:1"
           inkscape:transform-center-x="2.6733326"
           inkscape:transform-center-y="-2.9017239" />
        <rect
           inkscape:transform-center-y="-2.9017239"
           inkscape:transform-center-x="2.6733326"
           style="fill:#ffffff;fill-opacity:1;stroke:none;stroke-width:2;stroke-linecap:butt;stroke-miterlimit:4;stroke-dasharray:none;stroke-opacity:1"
           id="rect5222"
           width="2.6458333"
           height="2.6458333"
           x="63.5"
           y="172.64583" />
      </g>
      <g
         transform="translate(-39.687499,18.520827)"
         id="g5234">
        <rect
           y="169.99998"
           x="63.5"
           height="2.6458333"
           width="2.6458333"
           id="rect5226"
           style="fill:#363636;fill-opacity:1;stroke:none;stroke-width:2;stroke-linecap:butt;stroke-miterlimit:4;stroke-dasharray:none;stroke-opacity:1" />
        <rect
           inkscape:transform-center-y="-2.9017239"
           inkscape:transform-center-x="2.6733326"
           style="fill:#363636;fill-opacity:1;stroke:none;stroke-width:2;stroke-linecap:butt;stroke-miterlimit:4;stroke-dasharray:none;stroke-opacity:1"
           id="rect5228"
           width="2.6458333"
           height="2.6458333"
           x="66.145836"
           y="172.64583" />
        <rect
           y="169.99998"
           x="66.145836"
           height="2.6458333"
           width="2.6458333"
           id="rect5230"
           style="fill:#ffffff;fill-opacity:1;stroke:none;stroke-width:2;stroke-linecap:butt;stroke-miterlimit:4;stroke-dasharray:none;stroke-opacity:1"
           inkscape:transform-center-x="2.6733326"
           inkscape:transform-center-y="-2.9017239" />
        <rect
           inkscape:transform-center-y="-2.9017239"
           inkscape:transform-center-x="2.6733326"
           style="fill:#ffffff;fill-opacity:1;stroke:none;stroke-width:2;stroke-linecap:butt;stroke-miterlimit:4;stroke-dasharray:none;stroke-opacity:1"
           id="rect5232"
           width="2.6458333"
           height="2.6458333"
           x="63.5"
           y="172.64583" />
      </g>
    </g>
  </g>
</svg>
