<?xml version="1.0" encoding="UTF-8" standalone="no"?>
<!-- Created with Inkscape (http://www.inkscape.org/) -->

<svg
   width="210mm"
   height="297mm"
   viewBox="0 0 210 297"
   version="1.1"
   id="svg1"
   xml:space="preserve"
   inkscape:version="1.3 (0e150ed6c4, 2023-07-21)"
   sodipodi:docname="IPA.svg"
   xmlns:inkscape="http://www.inkscape.org/namespaces/inkscape"
   xmlns:sodipodi="http://sodipodi.sourceforge.net/DTD/sodipodi-0.dtd"
   xmlns="http://www.w3.org/2000/svg"
   xmlns:svg="http://www.w3.org/2000/svg"><sodipodi:namedview
     id="namedview1"
     pagecolor="#ffffff"
     bordercolor="#000000"
     borderopacity="0.25"
     inkscape:showpageshadow="2"
     inkscape:pageopacity="0.0"
     inkscape:pagecheckerboard="0"
     inkscape:deskcolor="#d1d1d1"
     inkscape:document-units="mm"
     showgrid="true"
     inkscape:zoom="1.0343421"
     inkscape:cx="354.81492"
     inkscape:cy="178.37426"
     inkscape:window-width="1920"
     inkscape:window-height="1017"
     inkscape:window-x="-8"
     inkscape:window-y="-8"
     inkscape:window-maximized="1"
     inkscape:current-layer="layer2"><inkscape:grid
       id="grid21"
       units="mm"
       originx="0"
       originy="0"
       spacingx="0.99999998"
       spacingy="1"
       empcolor="#0099e5"
       empopacity="0.30196078"
       color="#0099e5"
       opacity="0.14901961"
       empspacing="5"
       dotted="false"
       gridanglex="30"
       gridanglez="30"
       visible="true" /></sodipodi:namedview><defs
     id="defs1"><linearGradient
       id="swatch9"
       inkscape:swatch="solid"><stop
         style="stop-color:#000000;stop-opacity:1;"
         offset="0"
         id="stop9" /></linearGradient></defs><g
     inkscape:label="Layer 1"
     inkscape:groupmode="layer"
     id="layer1"
     style="display:inline;opacity:0.439" /><g
     inkscape:groupmode="layer"
     id="layer2"
     inkscape:label="Layer 2"><path
       style="fill:#f79719;fill-opacity:1;stroke:#ffffff;stroke-width:0;stroke-linecap:butt;stroke-linejoin:round;stroke-dasharray:none;stroke-dashoffset:0;stroke-opacity:1;paint-order:normal"
       d="m 65.268899,189.82517 c 39.543181,15.13714 79.729781,0.32327 79.729781,0.32327 -4.67455,15.38697 -6.36245,36.15964 -9.90512,44.99373 0,0 -16.3147,5.03695 -30.2634,4.8279 -14.469479,-0.21685 -29.664344,-4.78523 -29.664344,-4.78523 -4.80771,-15.04878 -5.442474,-29.60817 -9.896917,-45.35967 z"
       id="path18-9"
       sodipodi:nodetypes="cccscc" /><path
       style="fill:#f79719;fill-opacity:1;stroke:#ffffff;stroke-width:0;stroke-linecap:butt;stroke-linejoin:round;stroke-dasharray:none;stroke-dashoffset:0;stroke-opacity:1;paint-order:normal"
       d="m 70.040444,90.302467 c 34.993746,15.179233 70.329946,-0.366573 70.329946,-0.366573 0,0 -0.12,0.481227 4.99946,25.785856 1.95476,9.66209 1.78706,22.9642 1.78706,22.9642 0,0 -26.47463,6.11585 -42.10826,6.19084 -15.824046,0.0759 -42.318067,-6.18601 -42.318067,-6.18601 0,0 0.115238,-13.50316 2.151238,-23.59846 5.042849,-25.004462 5.158623,-24.789853 5.158623,-24.789853 z"
       id="path18"
       sodipodi:nodetypes="ccscscsc" /><path
       style="fill:#000000;fill-opacity:1;stroke:#ffffff;stroke-width:0;stroke-linecap:round;stroke-linejoin:round;stroke-dasharray:none;stroke-dashoffset:0;stroke-opacity:1;paint-order:normal"
       d="m 105.19378,4.8583149 c 0,0 -7.229599,9.1078871 -16.461155,27.4541551 -5.343452,10.619275 -8.659833,27.67095 -8.659833,27.67095 0,0 9.856354,4.532443 24.943358,4.64536 14.25373,0.106679 24.9795,-4.073397 24.9795,-4.073397 0,0 -4.43095,-20.342501 -8.35432,-29.159537 C 115.57839,17.770491 105.19378,4.8583149 105.19378,4.8583149 Z"
       id="path17"
       sodipodi:nodetypes="cscscsc" /><path
       style="fill:none;fill-opacity:1;stroke:#000000;stroke-width:7;stroke-linecap:round;stroke-linejoin:round;stroke-dasharray:none;stroke-dashoffset:0;stroke-opacity:1;paint-order:normal"
       d="M 104.98698,5.0150705 C 27.923421,112.96605 83.415145,257.37013 84.84141,260.22847"
       id="path3"
       sodipodi:nodetypes="cc" /><path
       style="fill:none;fill-opacity:1;stroke:#000000;stroke-width:7;stroke-linecap:round;stroke-linejoin:round;stroke-dasharray:none;stroke-dashoffset:0;stroke-opacity:1;paint-order:normal"
       d="M 105.0042,4.9761477 C 182.06775,112.92713 126.5308,257.24078 125.10455,260.09912"
       id="path3-0"
       sodipodi:nodetypes="cc" /><path
       style="fill:none;fill-opacity:1;stroke:#000000;stroke-width:5;stroke-linecap:round;stroke-linejoin:round;stroke-dasharray:none;stroke-dashoffset:0;stroke-opacity:1;paint-order:normal"
       d="m 69.314935,204.46011 c 0,0 -5.552553,3.02869 -10.095545,7.82407 -4.542999,4.79537 -7.82405,9.59076 -7.82405,9.59076 0,0 -3.38128,16.46374 1.76672,35.33438 3.578564,13.1177 13.124211,29.0247 13.124211,29.0247 0,0 1.679783,-8.2332 7.571656,-16.65344 5.204771,-7.43826 12.951728,-6.70515 12.951728,-6.70515 -6.299561,-19.18727 -12.838373,-38.63811 -17.49472,-58.41532 z"
       id="path20"
       sodipodi:nodetypes="cscscscc" /><path
       style="fill:none;fill-opacity:1;stroke:#000000;stroke-width:5;stroke-linecap:round;stroke-linejoin:round;stroke-dasharray:none;stroke-dashoffset:0;stroke-opacity:1;paint-order:normal"
       d="m 141.10469,204.56513 c 0,0 5.55256,3.02868 10.09555,7.82407 4.54296,4.79537 7.82401,9.59075 7.82401,9.59075 0,0 3.38129,16.46375 -1.76669,35.33439 -3.57858,13.11769 -13.12422,29.02469 -13.12422,29.02469 0,0 -1.86067,-8.59495 -7.75252,-17.0152 -5.20478,-7.43825 -12.77084,-6.70513 -12.77084,-6.70513 5.75691,-19.36816 12.29572,-38.99987 17.49471,-58.05357 z"
       id="path20-4"
       sodipodi:nodetypes="cscscscc" /><path
       style="fill:#000000;fill-opacity:1;stroke:#000000;stroke-width:0;stroke-linecap:round;stroke-linejoin:round;stroke-dasharray:none;stroke-dashoffset:0;stroke-opacity:1;paint-order:normal"
       d="m 125.208,265.15688 4.68031,-25.11783 c 0,0 2.02726,9.58208 -25.09952,9.58208 -27.126788,0 -25.02999,-9.87407 -25.02999,-9.87407 l 5.26206,25.77155"
       id="path21"
       sodipodi:nodetypes="ccscc" /><path
       style="fill:none;fill-opacity:1;stroke:#000000;stroke-width:5;stroke-linecap:round;stroke-linejoin:round;stroke-dasharray:none;stroke-dashoffset:0;stroke-opacity:1;paint-order:normal"
       d="m 64.753957,150.30877 c 39.973813,9.94823 80.309383,0 80.309383,0"
       id="path22" /></g></svg>
