<?xml version="1.0" encoding="UTF-8" standalone="no"?>
<svg
   xmlns:dc="http://purl.org/dc/elements/1.1/"
   xmlns:cc="http://creativecommons.org/ns#"
   xmlns:rdf="http://www.w3.org/1999/02/22-rdf-syntax-ns#"
   xmlns:svg="http://www.w3.org/2000/svg"
   xmlns="http://www.w3.org/2000/svg"
   xmlns:sodipodi="http://sodipodi.sourceforge.net/DTD/sodipodi-0.dtd"
   xmlns:inkscape="http://www.inkscape.org/namespaces/inkscape"
   sodipodi:docname="mam.svg"
   inkscape:version="1.0.1 (3bc2e813f5, 2020-09-07)"
   id="svg8"
   version="1.1"
   viewBox="0 0 237.25929 57.790283"
   height="57.790283mm"
   width="237.25929mm">
  <defs
     id="defs2">
    <marker
       inkscape:isstock="true"
       style="overflow:visible"
       id="marker3314"
       refX="0"
       refY="0"
       orient="auto"
       inkscape:stockid="DotS">
      <path
         transform="matrix(0.2,0,0,0.2,1.48,0.2)"
         style="fill:#363636;fill-opacity:1;fill-rule:evenodd;stroke:#363636;stroke-width:1pt;stroke-opacity:1"
         d="m -2.5,-1 c 0,2.76 -2.24,5 -5,5 -2.76,0 -5,-2.24 -5,-5 0,-2.76 2.24,-5 5,-5 2.76,0 5,2.24 5,5 z"
         id="path3312" />
    </marker>
    <marker
       inkscape:isstock="true"
       style="overflow:visible"
       id="DotS"
       refX="0"
       refY="0"
       orient="auto"
       inkscape:stockid="DotS">
      <path
         transform="matrix(0.2,0,0,0.2,1.48,0.2)"
         style="fill:#363636;fill-opacity:1;fill-rule:evenodd;stroke:#363636;stroke-width:1pt;stroke-opacity:1"
         d="m -2.5,-1 c 0,2.76 -2.24,5 -5,5 -2.76,0 -5,-2.24 -5,-5 0,-2.76 2.24,-5 5,-5 2.76,0 5,2.24 5,5 z"
         id="path3091" />
    </marker>
  </defs>
  <sodipodi:namedview
     fit-margin-bottom="0"
     fit-margin-right="0"
     fit-margin-left="0"
     fit-margin-top="0"
     inkscape:snap-nodes="true"
     inkscape:snap-center="true"
     inkscape:snap-object-midpoints="true"
     inkscape:guide-bbox="true"
     showguides="true"
     inkscape:snap-smooth-nodes="true"
     inkscape:snap-bbox-midpoints="true"
     inkscape:window-maximized="1"
     inkscape:window-y="0"
     inkscape:window-x="0"
     inkscape:window-height="713"
     inkscape:window-width="1366"
     inkscape:object-paths="false"
     inkscape:snap-bbox="true"
     showgrid="false"
     inkscape:document-rotation="0"
     inkscape:current-layer="layer1"
     inkscape:document-units="mm"
     inkscape:cy="139.57932"
     inkscape:cx="478.52766"
     inkscape:zoom="1"
     inkscape:pageshadow="2"
     inkscape:pageopacity="0.0"
     borderopacity="1.0"
     bordercolor="#666666"
     pagecolor="#ffffff"
     id="base">
    <sodipodi:guide
       id="guide3634"
       orientation="0,-1"
       position="56.20072,18.68422" />
    <sodipodi:guide
       id="guide3636"
       orientation="0,-1"
       position="59.074447,36.59631" />
  </sodipodi:namedview>
  <metadata
     id="metadata5">
    <rdf:RDF>
      <cc:Work
         rdf:about="">
        <dc:format>image/svg+xml</dc:format>
        <dc:type
           rdf:resource="http://purl.org/dc/dcmitype/StillImage" />
        <dc:title />
      </cc:Work>
    </rdf:RDF>
  </metadata>
  <g
     transform="translate(-30.552637,-75.376357)"
     id="layer1"
     inkscape:groupmode="layer"
     inkscape:label="Réteg 1">
    <g
       aria-label="Magyarok
a Marson"
       id="text3356"
       style="font-size:28.2222px;line-height:1.05;font-family:'Exo 2';-inkscape-font-specification:'Exo 2, ';text-align:center;letter-spacing:0px;word-spacing:0px;text-anchor:middle;fill:#363636;fill-opacity:1;stroke-width:0.264583">
      <path
         d="m 142.27987,79.015764 h -3.64067 c -0.79022,0 -1.27,0.395111 -1.46755,1.185332 l -2.76578,10.526881 c -0.254,0.931333 -0.42333,1.777999 -0.59266,2.681109 h -0.42334 c -0.19755,-0.90311 -0.33866,-1.749776 -0.59266,-2.652887 l -2.76578,-10.555103 c -0.19755,-0.790221 -0.64911,-1.185332 -1.43933,-1.185332 h -3.66889 c -0.90311,0 -1.35466,0.479777 -1.38288,1.382888 l -0.73378,18.09043 h 3.44311 l 0.62089,-16.622876 h 0.47977 l 3.41489,12.95399 c 0.19755,0.762 0.67733,1.185333 1.49578,1.185333 h 2.70933 c 0.79022,0 1.27,-0.423333 1.46755,-1.185333 l 3.35844,-12.95399 h 0.53623 l 0.64911,16.622876 h 3.47133 l -0.79023,-18.09043 c -0.0282,-0.903111 -0.47977,-1.382888 -1.38288,-1.382888 z"
         style="font-style:normal;font-variant:normal;font-weight:600;font-stretch:normal;font-size:28.2222px;font-family:'Exo 2';-inkscape-font-specification:'Exo 2 Semi-Bold';text-align:start;text-anchor:start;fill:#363636;fill-opacity:1;stroke-width:0.264583"
         id="path4479" />
      <path
         d="m 154.97983,84.265093 c -1.83444,0 -4.93888,0.310445 -6.91444,0.677333 l 0.33867,2.427109 c 2.17311,-0.169333 4.51555,-0.282222 5.78555,-0.282222 1.97555,0 2.51178,0.395111 2.54,1.975554 v 0.846666 h -5.19289 c -2.59644,0 -4.09222,1.269999 -4.09222,3.471331 v 1.41111 c 0,2.596443 1.83445,4.007553 4.37445,4.007553 2.48355,0 4.28977,-1.326444 5.27755,-2.398887 l 0.36689,2.088442 h 2.70933 V 89.09109 c 0,-3.697109 -1.778,-4.825997 -5.19289,-4.825997 z m -4.12044,10.075326 v -0.536222 c 0,-0.931333 0.33867,-1.495777 1.46755,-1.552221 h 4.40267 v 2.144887 c -1.43933,1.185333 -2.99156,1.636888 -4.064,1.636888 -1.24178,0 -1.80622,-0.508 -1.80622,-1.693332 z"
         style="font-style:normal;font-variant:normal;font-weight:600;font-stretch:normal;font-size:28.2222px;font-family:'Exo 2';-inkscape-font-specification:'Exo 2 Semi-Bold';text-align:start;text-anchor:start;fill:#363636;fill-opacity:1;stroke-width:0.264583"
         id="path4481" />
      <path
         d="m 177.55755,84.660204 h -4.28977 c -0.90311,-0.282222 -2.08845,-0.395111 -3.556,-0.395111 -4.71311,0 -6.26533,1.241777 -6.26533,4.48733 0,1.834443 0.53622,3.019776 1.91911,3.725331 -1.27,0.818443 -1.60866,3.132664 -0.33867,4.289774 -1.49577,0.762 -2.1731,1.552221 -2.1731,3.019776 0,3.160886 1.63688,4.233326 6.9991,4.233326 5.22111,0 6.97088,-1.016 6.97088,-4.430882 0,-2.398887 -1.07244,-3.668886 -3.80999,-4.035775 L 167.962,94.848418 c -1.10066,-0.169333 -1.18533,-1.15711 -0.81844,-1.834443 0.73378,0.112889 1.58044,0.169334 2.54,0.169334 4.71311,0 6.2371,-1.326444 6.2371,-4.459108 0,-0.874888 -0.11288,-1.580443 -0.36688,-2.201332 L 177.36,86.325314 Z m -7.87399,6.124218 c -2.34244,0 -3.10444,-0.536222 -3.10444,-2.060221 0,-1.552221 0.762,-2.031998 3.10444,-2.031998 2.34244,0 3.07622,0.479777 3.07622,2.031998 0,1.523999 -0.73378,2.060221 -3.07622,2.060221 z m 3.83822,8.664215 c 0,1.552223 -0.70556,1.834443 -3.69711,1.834443 -2.99155,0 -3.66889,-0.22578 -3.66889,-1.862665 0,-0.818444 0.39511,-1.354666 1.10067,-1.947332 l 3.92288,0.479778 c 1.86267,0.225777 2.34245,0.310444 2.34245,1.495776 z"
         style="font-style:normal;font-variant:normal;font-weight:600;font-stretch:normal;font-size:28.2222px;font-family:'Exo 2';-inkscape-font-specification:'Exo 2 Semi-Bold';text-align:start;text-anchor:start;fill:#363636;fill-opacity:1;stroke-width:0.264583"
         id="path4483" />
      <path
         d="m 189.38263,84.660204 -2.96334,9.510882 -0.56444,1.834443 h -0.39511 c -0.11289,-0.620889 -0.254,-1.213555 -0.45156,-1.834443 l -3.01977,-9.510882 h -3.64066 l 4.68488,12.982212 c 0.14111,0.536222 0.59267,0.846666 1.15711,0.846666 h 0.67733 l -0.14111,0.310445 c -0.67733,1.608663 -1.83444,2.624663 -4.06399,3.245553 l 0.28222,2.17311 c 4.06399,0.22578 6.06777,-2.73755 6.97088,-5.305775 l 5.13644,-14.252211 z"
         style="font-style:normal;font-variant:normal;font-weight:600;font-stretch:normal;font-size:28.2222px;font-family:'Exo 2';-inkscape-font-specification:'Exo 2 Semi-Bold';text-align:start;text-anchor:start;fill:#363636;fill-opacity:1;stroke-width:0.264583"
         id="path4485" />
      <path
         d="m 201.96966,84.265093 c -1.83444,0 -4.93888,0.310445 -6.91444,0.677333 l 0.33867,2.427109 c 2.17311,-0.169333 4.51555,-0.282222 5.78555,-0.282222 1.97555,0 2.51178,0.395111 2.54,1.975554 v 0.846666 h -5.19289 c -2.59644,0 -4.09222,1.269999 -4.09222,3.471331 v 1.41111 c 0,2.596443 1.83445,4.007553 4.37445,4.007553 2.48355,0 4.28977,-1.326444 5.27755,-2.398887 l 0.36689,2.088442 h 2.70933 V 89.09109 c 0,-3.697109 -1.778,-4.825997 -5.19289,-4.825997 z m -4.12044,10.075326 v -0.536222 c 0,-0.931333 0.33867,-1.495777 1.46755,-1.552221 h 4.40267 v 2.144887 c -1.43933,1.185333 -2.99156,1.636888 -4.064,1.636888 -1.24178,0 -1.80622,-0.508 -1.80622,-1.693332 z"
         style="font-style:normal;font-variant:normal;font-weight:600;font-stretch:normal;font-size:28.2222px;font-family:'Exo 2';-inkscape-font-specification:'Exo 2 Semi-Bold';text-align:start;text-anchor:start;fill:#363636;fill-opacity:1;stroke-width:0.264583"
         id="path4487" />
      <path
         d="m 219.58027,84.265093 c -1.80622,0 -3.80999,0.874889 -5.70088,2.42711 l -0.31044,-2.031999 h -2.68111 v 13.828878 h 3.44311 v -9.793103 c 1.97555,-0.762 3.24555,-1.213555 4.57199,-1.213555 h 0.98778 l 0.36689,-3.217331 z"
         style="font-style:normal;font-variant:normal;font-weight:600;font-stretch:normal;font-size:28.2222px;font-family:'Exo 2';-inkscape-font-specification:'Exo 2 Semi-Bold';text-align:start;text-anchor:start;fill:#363636;fill-opacity:1;stroke-width:0.264583"
         id="path4489" />
      <path
         d="m 228.58305,84.265093 c -4.99533,0 -6.85799,2.003777 -6.85799,7.30955 0,5.305774 1.86266,7.281328 6.85799,7.281328 4.96711,0 6.80155,-1.975554 6.80155,-7.281328 0,-5.305773 -1.83444,-7.30955 -6.80155,-7.30955 z m 0,2.737554 c 2.48355,0 3.24555,0.987777 3.24555,4.571996 0,3.555997 -0.762,4.543775 -3.24555,4.543775 -2.54,0 -3.27378,-0.987778 -3.27378,-4.543775 0,-3.584219 0.73378,-4.571996 3.27378,-4.571996 z"
         style="font-style:normal;font-variant:normal;font-weight:600;font-stretch:normal;font-size:28.2222px;font-family:'Exo 2';-inkscape-font-specification:'Exo 2 Semi-Bold';text-align:start;text-anchor:start;fill:#363636;fill-opacity:1;stroke-width:0.264583"
         id="path4491" />
      <path
         d="m 247.60477,98.489082 h 3.89466 l -4.31799,-6.378217 c -0.31045,-0.508 -0.84667,-1.128888 -1.15711,-1.326443 v -0.05645 c 0.31044,-0.197555 0.84666,-0.677333 1.15711,-1.15711 l 3.86644,-4.910663 h -3.89467 l -3.78177,4.910663 h -1.49578 c 0.14111,-0.790222 0.19756,-1.580443 0.19756,-2.427109 l -0.0282,-8.410216 h -3.44311 v 19.75554 h 3.44311 v -4.48733 c 0,-0.64911 -0.0564,-1.382887 -0.16934,-2.116665 h 1.524 z"
         style="font-style:normal;font-variant:normal;font-weight:600;font-stretch:normal;font-size:28.2222px;font-family:'Exo 2';-inkscape-font-specification:'Exo 2 Semi-Bold';text-align:start;text-anchor:start;fill:#363636;fill-opacity:1;stroke-width:0.264583"
         id="path4493" />
      <path
         d="m 129.74921,114.04539 c -1.83444,0 -4.93888,0.31045 -6.91444,0.67734 l 0.33867,2.42711 c 2.17311,-0.16934 4.51555,-0.28223 5.78555,-0.28223 1.97555,0 2.51177,0.39511 2.54,1.97556 v 0.84666 h -5.19289 c -2.59644,0 -4.09222,1.27 -4.09222,3.47133 v 1.41111 c 0,2.59645 1.83445,4.00756 4.37444,4.00756 2.48356,0 4.28978,-1.32645 5.27756,-2.39889 l 0.36688,2.08844 h 2.70934 v -9.39799 c 0,-3.69711 -1.778,-4.826 -5.19289,-4.826 z m -4.12044,10.07533 v -0.53622 c 0,-0.93133 0.33867,-1.49578 1.46755,-1.55222 h 4.40267 v 2.14488 c -1.43934,1.18534 -2.99156,1.63689 -4.064,1.63689 -1.24178,0 -1.80622,-0.508 -1.80622,-1.69333 z"
         style="font-style:normal;font-variant:normal;font-weight:600;font-stretch:normal;font-size:28.2222px;font-family:'Exo 2';-inkscape-font-specification:'Exo 2 Semi-Bold';text-align:start;text-anchor:start;fill:#363636;fill-opacity:1;stroke-width:0.264583"
         id="path4495" />
      <path
         d="m 164.23668,108.79606 h -3.64066 c -0.79022,0 -1.27,0.39512 -1.46756,1.18534 l -2.76577,10.52688 c -0.254,0.93133 -0.42334,1.778 -0.59267,2.68111 h -0.42333 c -0.19756,-0.90311 -0.33867,-1.74978 -0.59267,-2.65289 l -2.76577,-10.5551 c -0.19756,-0.79022 -0.64911,-1.18534 -1.43934,-1.18534 h -3.66888 c -0.90311,0 -1.35467,0.47978 -1.38289,1.38289 l -0.73378,18.09043 h 3.44311 l 0.62089,-16.62287 h 0.47978 l 3.41488,12.95399 c 0.19756,0.762 0.67734,1.18533 1.49578,1.18533 h 2.70933 c 0.79022,0 1.27,-0.42333 1.46756,-1.18533 l 3.35844,-12.95399 h 0.53622 l 0.64911,16.62287 h 3.47133 l -0.79022,-18.09043 c -0.0282,-0.90311 -0.47978,-1.38289 -1.38289,-1.38289 z"
         style="font-style:normal;font-variant:normal;font-weight:600;font-stretch:normal;font-size:28.2222px;font-family:'Exo 2';-inkscape-font-specification:'Exo 2 Semi-Bold';text-align:start;text-anchor:start;fill:#363636;fill-opacity:1;stroke-width:0.264583"
         id="path4497" />
      <path
         d="m 176.93665,114.04539 c -1.83445,0 -4.93889,0.31045 -6.91444,0.67734 l 0.33866,2.42711 c 2.17311,-0.16934 4.51555,-0.28223 5.78555,-0.28223 1.97556,0 2.51178,0.39511 2.54,1.97556 v 0.84666 h -5.19288 c -2.59645,0 -4.09222,1.27 -4.09222,3.47133 v 1.41111 c 0,2.59645 1.83444,4.00756 4.37444,4.00756 2.48355,0 4.28977,-1.32645 5.27755,-2.39889 l 0.36689,2.08844 h 2.70933 v -9.39799 c 0,-3.69711 -1.778,-4.826 -5.19288,-4.826 z m -4.12045,10.07533 v -0.53622 c 0,-0.93133 0.33867,-1.49578 1.46756,-1.55222 h 4.40266 v 2.14488 c -1.43933,1.18534 -2.99155,1.63689 -4.064,1.63689 -1.24177,0 -1.80622,-0.508 -1.80622,-1.69333 z"
         style="font-style:normal;font-variant:normal;font-weight:600;font-stretch:normal;font-size:28.2222px;font-family:'Exo 2';-inkscape-font-specification:'Exo 2 Semi-Bold';text-align:start;text-anchor:start;fill:#363636;fill-opacity:1;stroke-width:0.264583"
         id="path4499" />
      <path
         d="m 194.54726,114.04539 c -1.80622,0 -3.80999,0.87489 -5.70088,2.42711 l -0.31045,-2.032 h -2.68111 v 13.82888 h 3.44311 v -9.7931 c 1.97556,-0.762 3.24556,-1.21356 4.572,-1.21356 h 0.98778 l 0.36688,-3.21733 z"
         style="font-style:normal;font-variant:normal;font-weight:600;font-stretch:normal;font-size:28.2222px;font-family:'Exo 2';-inkscape-font-specification:'Exo 2 Semi-Bold';text-align:start;text-anchor:start;fill:#363636;fill-opacity:1;stroke-width:0.264583"
         id="path4501" />
      <path
         d="m 202.44943,114.04539 c -4.064,0 -5.64444,0.87489 -5.64444,3.92289 0,2.20133 0.79022,3.35844 3.24555,4.064 l 3.64066,0.98777 c 1.29822,0.36689 2.032,0.45156 2.032,1.49578 0,1.10067 -0.79022,1.32644 -3.72533,1.32644 -1.778,0 -3.61244,-0.0282 -4.71311,-0.11289 l -0.22577,2.39889 c 2.51177,0.42333 4.85421,0.45156 5.78555,0.45156 4.31799,0 6.18066,-0.70556 6.18066,-4.09222 0,-2.42711 -1.016,-3.33022 -3.302,-3.97933 l -3.72533,-1.016 c -1.29822,-0.36689 -1.89089,-0.39511 -1.89089,-1.49578 0,-1.15711 0.62089,-1.18533 2.93511,-1.18533 1.74978,0 3.52778,0.0564 5.27755,0.11289 l 0.254,-2.37067 c -1.69333,-0.28222 -4.23333,-0.47977 -6.12421,-0.508 z"
         style="font-style:normal;font-variant:normal;font-weight:600;font-stretch:normal;font-size:28.2222px;font-family:'Exo 2';-inkscape-font-specification:'Exo 2 Semi-Bold';text-align:start;text-anchor:start;fill:#363636;fill-opacity:1;stroke-width:0.264583"
         id="path4503" />
      <path
         d="m 218.33847,114.04539 c -4.99532,0 -6.85799,2.00378 -6.85799,7.30955 0,5.30578 1.86267,7.28133 6.85799,7.28133 4.96711,0 6.80155,-1.97555 6.80155,-7.28133 0,-5.30577 -1.83444,-7.30955 -6.80155,-7.30955 z m 0,2.73756 c 2.48356,0 3.24556,0.98777 3.24556,4.57199 0,3.556 -0.762,4.54378 -3.24556,4.54378 -2.53999,0 -3.27377,-0.98778 -3.27377,-4.54378 0,-3.58422 0.73378,-4.57199 3.27377,-4.57199 z"
         style="font-style:normal;font-variant:normal;font-weight:600;font-stretch:normal;font-size:28.2222px;font-family:'Exo 2';-inkscape-font-specification:'Exo 2 Semi-Bold';text-align:start;text-anchor:start;fill:#363636;fill-opacity:1;stroke-width:0.264583"
         id="path4505" />
      <path
         d="m 237.44486,114.04539 c -2.032,0 -4.00755,0.93134 -5.98311,2.45534 l -0.22577,-2.06023 h -2.87867 v 13.82888 h 3.44311 l -0.0282,-9.62377 c 1.94733,-1.07244 3.18911,-1.69333 4.57199,-1.69333 1.10067,0 1.46756,0.42333 1.46756,1.97555 v 9.34155 h 3.44311 v -10.38577 c 0,-2.48355 -1.35467,-3.83822 -3.81,-3.83822 z"
         style="font-style:normal;font-variant:normal;font-weight:600;font-stretch:normal;font-size:28.2222px;font-family:'Exo 2';-inkscape-font-specification:'Exo 2 Semi-Bold';text-align:start;text-anchor:start;fill:#363636;fill-opacity:1;stroke-width:0.264583"
         id="path4507" />
    </g>
    <g
       id="g3521">
      <path
         id="path2878"
         style="color:#000000;font-style:normal;font-variant:normal;font-weight:normal;font-stretch:normal;font-size:medium;line-height:normal;font-family:sans-serif;font-variant-ligatures:normal;font-variant-position:normal;font-variant-caps:normal;font-variant-numeric:normal;font-variant-alternates:normal;font-variant-east-asian:normal;font-feature-settings:normal;font-variation-settings:normal;text-indent:0;text-align:start;text-decoration:none;text-decoration-line:none;text-decoration-style:solid;text-decoration-color:#000000;letter-spacing:normal;word-spacing:normal;text-transform:none;writing-mode:lr-tb;direction:ltr;text-orientation:mixed;dominant-baseline:auto;baseline-shift:baseline;text-anchor:start;white-space:normal;shape-padding:0;shape-margin:0;inline-size:0;clip-rule:nonzero;display:inline;overflow:visible;visibility:visible;isolation:auto;mix-blend-mode:normal;color-interpolation:sRGB;color-interpolation-filters:linearRGB;solid-color:#000000;solid-opacity:1;vector-effect:none;fill:#363636;fill-opacity:1;fill-rule:nonzero;stroke:none;stroke-width:1.5;stroke-linecap:butt;stroke-linejoin:miter;stroke-miterlimit:4;stroke-dasharray:none;stroke-dashoffset:0;stroke-opacity:1;color-rendering:auto;image-rendering:auto;shape-rendering:auto;text-rendering:auto;enable-background:accumulate;stop-color:#000000"
         d="m 48.222378,103.30635 v 3.73104 l 1.559079,-0.49454 0.259416,-0.0822 1.599901,0.0842 2.683557,1.17408 h 1.180807 l 4.401282,-4.41265 z m 32.740637,0 3.414263,3.42357 v -3.42357 z m -7.985559,0.49145 -6.716903,1.63452 -2.280997,2.28668 h 12.908772 z m 4.527889,0.29094 2.068091,2.07325 h 0.0011 z" />
      <path
         id="path2796"
         style="color:#000000;font-style:normal;font-variant:normal;font-weight:normal;font-stretch:normal;font-size:medium;line-height:normal;font-family:sans-serif;font-variant-ligatures:normal;font-variant-position:normal;font-variant-caps:normal;font-variant-numeric:normal;font-variant-alternates:normal;font-variant-east-asian:normal;font-feature-settings:normal;font-variation-settings:normal;text-indent:0;text-align:start;text-decoration:none;text-decoration-line:none;text-decoration-style:solid;text-decoration-color:#000000;letter-spacing:normal;word-spacing:normal;text-transform:none;writing-mode:lr-tb;direction:ltr;text-orientation:mixed;dominant-baseline:auto;baseline-shift:baseline;text-anchor:start;white-space:normal;shape-padding:0;shape-margin:0;inline-size:0;clip-rule:nonzero;display:inline;overflow:visible;visibility:visible;isolation:auto;mix-blend-mode:normal;color-interpolation:sRGB;color-interpolation-filters:linearRGB;solid-color:#000000;solid-opacity:1;vector-effect:none;fill:#363636;fill-opacity:1;fill-rule:nonzero;stroke:none;stroke-width:3;stroke-linecap:butt;stroke-linejoin:bevel;stroke-miterlimit:4;stroke-dasharray:none;stroke-dashoffset:0;stroke-opacity:1;color-rendering:auto;image-rendering:auto;shape-rendering:auto;text-rendering:auto;enable-background:accumulate;stop-color:#000000"
         d="m 79.734661,75.943168 -1.500167,1.500166 v 6.113323 l 1.500167,1.500166 h 9.892421 l 1.500166,-1.500166 v -2.747119 c -0.677793,0.769964 -1.664988,1.26297 -2.757971,1.26297 -0.105656,0 -0.209606,0.009 -0.313158,-8e-6 h -6.821808 v -3.128999 h 3.496945 c -0.02835,-0.182206 -0.04754,-0.367112 -0.04754,-0.556557 0,-0.934138 0.360934,-1.790671 0.945679,-2.443776 z"
         sodipodi:nodetypes="cccccccsccccscc" />
      <path
         style="color:#000000;font-style:normal;font-variant:normal;font-weight:normal;font-stretch:normal;font-size:medium;line-height:normal;font-family:sans-serif;font-variant-ligatures:normal;font-variant-position:normal;font-variant-caps:normal;font-variant-numeric:normal;font-variant-alternates:normal;font-variant-east-asian:normal;font-feature-settings:normal;font-variation-settings:normal;text-indent:0;text-align:start;text-decoration:none;text-decoration-line:none;text-decoration-style:solid;text-decoration-color:#000000;letter-spacing:normal;word-spacing:normal;text-transform:none;writing-mode:lr-tb;direction:ltr;text-orientation:mixed;dominant-baseline:auto;baseline-shift:baseline;text-anchor:start;white-space:normal;shape-padding:0;shape-margin:0;inline-size:0;clip-rule:nonzero;display:inline;overflow:visible;visibility:visible;isolation:auto;mix-blend-mode:normal;color-interpolation:sRGB;color-interpolation-filters:linearRGB;solid-color:#000000;solid-opacity:1;vector-effect:none;fill:#363636;fill-opacity:1;fill-rule:nonzero;stroke:none;stroke-width:3.00001;stroke-linecap:round;stroke-linejoin:bevel;stroke-miterlimit:4;stroke-dasharray:none;stroke-dashoffset:0;stroke-opacity:1;color-rendering:auto;image-rendering:auto;shape-rendering:auto;text-rendering:auto;enable-background:accumulate;stop-color:#000000"
         d="m 92.175273,115.20063 0.769872,0.60361 0.886346,-0.41855 1.96303,0.65202 0.457378,0.8684 0.980094,-0.0228 1.528381,1.39513 0.06818,0.97943 0.903391,0.37869 0.829535,1.89908 -0.33523,0.92251 0.67045,0.71465 -0.0114,2.07277 -0.6818,0.7061 0.32386,0.92536 -0.852262,1.88769 -0.909073,0.36729 -0.07955,0.97945 -1.545425,1.3752 -0.977252,-0.0342 -0.471583,0.85986 -1.971553,0.62923 -0.877825,-0.42993 -0.781234,0.59507 -2.053938,-0.23062 -0.63067,-0.75166 -0.951686,0.22492 -1.784058,-1.04492 -0.26988,-0.94528 -0.96305,-0.18222 -1.204523,-1.68271 0.136361,-0.97374 -0.803961,-0.55805 -0.417605,-2.03007 0.517034,-0.83138 -0.508512,-0.83993 0.443172,-2.02436 0.812485,-0.54667 -0.124997,-0.97375 1.22725,-1.66846 0.963049,-0.17084 0.281244,-0.93958 1.798262,-1.025 0.948845,0.23632 0.639192,-0.74311 z m -0.718737,3.24868 -0.309652,0.35874 -1.499971,0.47834 -0.457378,-0.1139 -0.136361,0.45271 -1.176114,1.04778 -0.465901,0.0826 0.0625,0.46978 -0.650556,1.435 -0.392038,0.26763 0.247155,0.40432 -0.01136,1.57449 -0.249995,0.40432 0.389197,0.26763 0.63067,1.44354 -0.06534,0.46979 0.463059,0.0883 1.161909,1.06201 0.13068,0.45555 0.460218,-0.10818 1.49429,0.49541 0.303971,0.36444 0.374993,-0.28757 1.565312,-0.15374 0.426127,0.20783 0.227268,-0.41854 1.366452,-0.77728 0.471581,0.0171 0.03977,-0.47263 0.9318,-1.26986 0.437491,-0.17938 -0.156247,-0.44701 0.338062,-1.5375 0.326699,-0.34165 -0.323859,-0.34452 -0.318175,-1.54318 0.16193,-0.44703 -0.434652,-0.18222 -0.917596,-1.28124 -0.03125,-0.47264 -0.474423,0.0114 -1.355088,-0.79721 -0.224428,-0.41854 -0.426127,0.20214 -1.56247,-0.17367 z"
         id="path2590" />
      <path
         style="color:#000000;font-style:normal;font-variant:normal;font-weight:normal;font-stretch:normal;font-size:medium;line-height:normal;font-family:sans-serif;font-variant-ligatures:normal;font-variant-position:normal;font-variant-caps:normal;font-variant-numeric:normal;font-variant-alternates:normal;font-variant-east-asian:normal;font-feature-settings:normal;font-variation-settings:normal;text-indent:0;text-align:start;text-decoration:none;text-decoration-line:none;text-decoration-style:solid;text-decoration-color:#000000;letter-spacing:normal;word-spacing:normal;text-transform:none;writing-mode:lr-tb;direction:ltr;text-orientation:mixed;dominant-baseline:auto;baseline-shift:baseline;text-anchor:start;white-space:normal;shape-padding:0;shape-margin:0;inline-size:0;clip-rule:nonzero;display:inline;overflow:visible;visibility:visible;isolation:auto;mix-blend-mode:normal;color-interpolation:sRGB;color-interpolation-filters:linearRGB;solid-color:#000000;solid-opacity:1;vector-effect:none;fill:#363636;fill-opacity:1;fill-rule:nonzero;stroke:none;stroke-width:3.00001;stroke-linecap:round;stroke-linejoin:bevel;stroke-miterlimit:4;stroke-dasharray:none;stroke-dashoffset:0;stroke-opacity:1;color-rendering:auto;image-rendering:auto;shape-rendering:auto;text-rendering:auto;enable-background:accumulate;stop-color:#000000"
         d="m 33.274542,117.78311 0.97225,-0.1208 0.329441,-0.92208 1.84809,-0.93013 0.9381,0.28789 0.674958,-0.70867 2.065032,-0.0966 0.739229,0.64425 0.905968,-0.37245 1.926422,0.75497 0.413819,0.88988 0.980283,0.0282 1.45236,1.47575 0.01807,0.98046 0.881863,0.42481 0.727178,1.9408 -0.381672,0.90195 0.632773,0.75096 -0.122535,2.06764 -0.715131,0.66841 0.2752,0.9402 -0.950157,1.84215 -0.926049,0.32012 -0.130576,0.97241 -1.61707,1.29454 -0.974257,-0.0866 -0.514257,0.83349 -2.000745,0.52749 -0.857755,-0.47715 -0.807532,0.55164 -2.040932,-0.33421 -0.590585,-0.78518 -0.962207,0.17515 -1.727559,-1.13952 -0.218955,-0.9563 -0.952164,-0.23354 -1.114875,-1.74552 0.186817,-0.96033 -0.773384,-0.60198 -0.311361,-2.0475 0.562458,-0.80532 -0.464029,-0.8637 0.546385,-1.99718 0.839674,-0.50735 -0.07231,-0.97845 z m 1.783808,2.80653 0.03415,0.47311 -0.721149,1.39924 -0.40578,0.24562 0.222978,0.41675 -0.0904,1.57237 -0.271187,0.38857 0.373628,0.2899 0.554431,1.47373 -0.08839,0.46708 0.45801,0.11275 1.104824,1.11938 0.106473,0.46507 0.464026,-0.0866 1.464412,0.57379 0.285242,0.37849 0.391716,-0.26776 1.570867,-0.0725 0.41381,0.22952 0.249099,-0.40265 1.404138,-0.70667 0.472066,0.0423 0.06428,-0.47111 0.996368,-1.21601 0.447952,-0.15504 -0.13459,-0.45701 0.417831,-1.51801 0.345513,-0.32213 -0.305338,-0.36239 -0.237033,-1.55828 0.184806,-0.4389 -0.425862,-0.20535 -0.847711,-1.32475 -0.008,-0.47512 -0.472067,-0.0141 -1.313744,-0.86571 -0.200888,-0.43085 -0.437916,0.1812 -1.550777,-0.2577 -0.357566,-0.31005 -0.325426,0.34226 -1.522656,0.39864 -0.451978,-0.13892 -0.160705,0.44695 -1.227369,0.98449 z"
         id="path2582" />
      <path
         style="color:#000000;font-style:normal;font-variant:normal;font-weight:normal;font-stretch:normal;font-size:medium;line-height:normal;font-family:sans-serif;font-variant-ligatures:normal;font-variant-position:normal;font-variant-caps:normal;font-variant-numeric:normal;font-variant-alternates:normal;font-variant-east-asian:normal;font-feature-settings:normal;font-variation-settings:normal;text-indent:0;text-align:start;text-decoration:none;text-decoration-line:none;text-decoration-style:solid;text-decoration-color:#000000;letter-spacing:normal;word-spacing:normal;text-transform:none;writing-mode:lr-tb;direction:ltr;text-orientation:mixed;dominant-baseline:auto;baseline-shift:baseline;text-anchor:start;white-space:normal;shape-padding:0;shape-margin:0;inline-size:0;clip-rule:nonzero;display:inline;overflow:visible;visibility:visible;isolation:auto;mix-blend-mode:normal;color-interpolation:sRGB;color-interpolation-filters:linearRGB;solid-color:#000000;solid-opacity:1;vector-effect:none;fill:#363636;fill-opacity:1;fill-rule:nonzero;stroke:none;stroke-width:3.00001;stroke-linecap:round;stroke-linejoin:bevel;stroke-miterlimit:4;stroke-dasharray:none;stroke-dashoffset:0;stroke-opacity:1;color-rendering:auto;image-rendering:auto;shape-rendering:auto;text-rendering:auto;enable-background:accumulate;stop-color:#000000"
         d="m 64.848237,115.49441 0.902259,0.3826 0.745317,-0.63346 2.064519,0.1206 0.668792,0.71942 0.938075,-0.27549 1.836583,0.95113 0.318787,0.92838 0.970401,0.13144 1.291686,1.6192 -0.08557,0.97803 0.834892,0.51564 0.521556,2.00584 -0.473485,0.85816 0.551785,0.80982 -0.338478,2.04518 -0.780505,0.58985 0.176101,0.96671 -1.140377,1.72996 -0.952779,0.22049 -0.230719,0.95215 -1.741881,1.11921 -0.961682,-0.18684 -0.598201,0.7767 -2.046251,0.31077 -0.800545,-0.56319 -0.861175,0.46412 -1.995852,-0.54579 -0.504794,-0.84306 -0.974548,0.0731 -1.598024,-1.31292 -0.119747,-0.97594 -0.923423,-0.32975 -0.927623,-1.85257 0.287465,-0.93791 -0.708088,-0.67939 -0.0947,-2.07035 0.643629,-0.73879 -0.372199,-0.90815 0.75182,-1.92922 0.888862,-0.41557 0.02902,-0.98052 1.472288,-1.45654 0.977542,-0.0179 0.42551,-0.8836 z m 0.144696,3.32442 -0.206459,0.42685 -1.322591,0.85039 -0.473949,0.009 -0.01206,0.47192 -0.865461,1.31716 -0.428703,0.20061 0.178943,0.4383 -0.255068,1.55412 -0.309567,0.36021 0.3404,0.32716 0.398368,1.52306 -0.137067,0.45538 0.442306,0.15829 0.981961,1.23077 0.0582,0.47072 0.472819,-0.0356 1.396571,0.72442 0.24387,0.40613 0.4166,-0.22388 1.568564,0.0917 0.387728,0.27318 0.290696,-0.37579 1.469529,-0.5538 0.465279,0.0902 0.11144,-0.46323 1.119163,-1.10526 0.46267,-0.10656 -0.08638,-0.46611 0.572123,-1.46829 0.379005,-0.28749 -0.26636,-0.39125 -0.07325,-1.57207 0.230081,-0.4155 -0.401791,-0.24876 -0.705848,-1.40807 0.04097,-0.4738 -0.469641,-0.0625 -1.214453,-1.00029 -0.154983,-0.44769 -0.452573,0.13332 -1.517532,-0.4178 -0.322121,-0.3468 -0.362149,0.30653 -1.554081,0.23755 z"
         id="path2586" />
      <path
         id="path2613"
         style="color:#000000;font-style:normal;font-variant:normal;font-weight:normal;font-stretch:normal;font-size:medium;line-height:normal;font-family:sans-serif;font-variant-ligatures:normal;font-variant-position:normal;font-variant-caps:normal;font-variant-numeric:normal;font-variant-alternates:normal;font-variant-east-asian:normal;font-feature-settings:normal;font-variation-settings:normal;text-indent:0;text-align:start;text-decoration:none;text-decoration-line:none;text-decoration-style:solid;text-decoration-color:#000000;letter-spacing:normal;word-spacing:normal;text-transform:none;writing-mode:lr-tb;direction:ltr;text-orientation:mixed;dominant-baseline:auto;baseline-shift:baseline;text-anchor:start;white-space:normal;shape-padding:0;shape-margin:0;inline-size:0;clip-rule:nonzero;display:inline;overflow:visible;visibility:visible;isolation:auto;mix-blend-mode:normal;color-interpolation:sRGB;color-interpolation-filters:linearRGB;solid-color:#000000;solid-opacity:1;vector-effect:none;fill:#363636;fill-opacity:1;fill-rule:nonzero;stroke:none;stroke-width:3;stroke-linecap:round;stroke-linejoin:bevel;stroke-miterlimit:4;stroke-dasharray:none;stroke-dashoffset:0;stroke-opacity:1;color-rendering:auto;image-rendering:auto;shape-rendering:auto;text-rendering:auto;enable-background:accumulate;stop-color:#000000"
         d="m 89.627084,96.57033 1.500166,1.500169 v 11.804451 l -3.750159,-1.69551 v -7.8729 h -9.407176 l -0.573092,-0.574127 c -0.365707,-1.577874 -1.792698,-2.775542 -3.472657,-2.775542 -0.973632,0 -1.863164,0.40241 -2.51044,1.047483 l -7.593335,1.847432 -0.806151,0.454754 H 45.222561 v 7.6817 l -3.749643,1.18907 V 98.070499 l 1.49965,-1.500169 z m -9.745657,14.14849 0.903819,0.90641 0.669727,0.4625 5.298384,2.39469 H 68.090414 l -0.902788,-1.13844 -6.003766,-2.62516 z m -33.34267,0 -5.065839,1.60662 v -0.002 l 5.061707,-1.60507 z m 3.980638,1.88464 2.347143,1.0263 c 0.221424,0.32721 0.497789,0.61376 0.811836,0.85266 h -9.082648 z m 8.562268,0.46974 3.222541,1.40922 h -10e-4 l -3.222027,-1.40819 c 1.59e-4,-3.5e-4 3.6e-4,-6.8e-4 5.18e-4,-0.001 z" />
      <path
         style="fill:none;stroke:#363636;stroke-width:1.5;stroke-linecap:butt;stroke-linejoin:miter;stroke-miterlimit:4;stroke-dasharray:none;stroke-opacity:1;marker-end:url(#marker3314)"
         d="M 48.903264,98.362279 V 90.454253"
         id="path867" />
      <path
         id="path870"
         d="M 84.642788,98.276262 V 84.111506"
         style="fill:none;stroke:#363636;stroke-width:3;stroke-linecap:butt;stroke-linejoin:miter;stroke-miterlimit:4;stroke-dasharray:none;stroke-opacity:1"
         sodipodi:nodetypes="cc" />
      <path
         id="path2626"
         style="color:#000000;font-style:normal;font-variant:normal;font-weight:normal;font-stretch:normal;font-size:medium;line-height:normal;font-family:sans-serif;font-variant-ligatures:normal;font-variant-position:normal;font-variant-caps:normal;font-variant-numeric:normal;font-variant-alternates:normal;font-variant-east-asian:normal;font-feature-settings:normal;font-variation-settings:normal;text-indent:0;text-align:start;text-decoration:none;text-decoration-line:none;text-decoration-style:solid;text-decoration-color:#000000;letter-spacing:normal;word-spacing:normal;text-transform:none;writing-mode:lr-tb;direction:ltr;text-orientation:mixed;dominant-baseline:auto;baseline-shift:baseline;text-anchor:start;white-space:normal;shape-padding:0;shape-margin:0;inline-size:0;clip-rule:nonzero;display:inline;overflow:visible;visibility:visible;isolation:auto;mix-blend-mode:normal;color-interpolation:sRGB;color-interpolation-filters:linearRGB;solid-color:#000000;solid-opacity:1;vector-effect:none;fill:#f89719;fill-opacity:1;fill-rule:nonzero;stroke:none;stroke-width:3;stroke-linecap:square;stroke-linejoin:miter;stroke-miterlimit:4;stroke-dasharray:none;stroke-dashoffset:0;stroke-opacity:1;color-rendering:auto;image-rendering:auto;shape-rendering:auto;text-rendering:auto;enable-background:accumulate;stop-color:#000000"
         d="m 50.234658,107.97274 1.054714,0.0563 2.181262,0.95395 c -0.741037,0.65572 -1.214911,1.60863 -1.214911,2.6634 l 1.500166,0.002 h -1.500166 c 0,0.0268 0.0035,0.0529 0.0041,0.0796 l -1.656229,-0.72399 -9.701217,3.07578 v 0.91468 l -0.307991,-0.26769 -0.526584,-0.185 -2.064989,0.0966 -0.100253,0.0455 v -1.7017 l 1.046964,-1.43144 z m 5.587773,3.10937 c 0.330366,0 0.564303,0.23394 0.564306,0.5643 -3e-6,0.33037 -0.236009,0.56638 -0.566375,0.56638 -0.329795,0 -0.563491,-0.23484 -0.564306,-0.56431 -3e-6,-0.001 0,-0.002 0,-0.002 7.93e-4,-0.32947 0.236574,-0.56431 0.566375,-0.56431 z m 3.560506,0.48627 6.861079,2.99982 0.01601,0.0202 -0.249079,0.0837 -0.393774,0.33279 -0.477491,-0.20205 -0.555522,-0.01 -1.933731,0.73122 -0.411345,0.37569 -0.07648,0.15813 -3.992522,-1.74563 c 0.742344,-0.65627 1.21698,-1.61056 1.21698,-2.66599 0,-0.0263 -0.0035,-0.0518 -0.0041,-0.078 z m 7.903908,7.85585 0.04961,0.031 0.132811,0.0796 0.37982,0.10439 0.338481,1.83658 c -0.360114,-0.15722 -0.75628,-0.24547 -1.172022,-0.24547 -0.67949,0 -1.305851,0.23596 -1.807125,0.62632 l -0.328145,-1.78025 0.31006,-0.19947 0.141076,-0.15555 0.209807,0.0274 1.553908,-0.23771 0.139012,-0.0636 z m -28.02206,0.0382 0.05064,0.0222 0.136427,0.0646 1.450557,0.24082 v 1.8557 c -0.424249,-0.23634 -0.911066,-0.37259 -1.427819,-0.37259 -0.577146,0 -1.115454,0.17104 -1.571998,0.46096 v -1.85622 l 1.179772,-0.30851 0.132292,-0.0765 z"
         sodipodi:nodetypes="cccccccccccccccccsssscscccccccccccsccccccscccccccccccccsccccc" />
      <path
         id="path2617"
         style="color:#000000;font-style:normal;font-variant:normal;font-weight:normal;font-stretch:normal;font-size:medium;line-height:normal;font-family:sans-serif;font-variant-ligatures:normal;font-variant-position:normal;font-variant-caps:normal;font-variant-numeric:normal;font-variant-alternates:normal;font-variant-east-asian:normal;font-feature-settings:normal;font-variation-settings:normal;text-indent:0;text-align:start;text-decoration:none;text-decoration-line:none;text-decoration-style:solid;text-decoration-color:#000000;letter-spacing:normal;word-spacing:normal;text-transform:none;writing-mode:lr-tb;direction:ltr;text-orientation:mixed;dominant-baseline:auto;baseline-shift:baseline;text-anchor:start;white-space:normal;shape-padding:0;shape-margin:0;inline-size:0;clip-rule:nonzero;display:inline;overflow:visible;visibility:visible;isolation:auto;mix-blend-mode:normal;color-interpolation:sRGB;color-interpolation-filters:linearRGB;solid-color:#000000;solid-opacity:1;vector-effect:none;fill:#f89719;fill-opacity:1;fill-rule:nonzero;stroke:none;stroke-width:3;stroke-linecap:butt;stroke-linejoin:miter;stroke-miterlimit:4;stroke-dasharray:none;stroke-dashoffset:0;stroke-opacity:1;color-rendering:auto;image-rendering:auto;shape-rendering:auto;text-rendering:auto;enable-background:accumulate;stop-color:#000000"
         d="m 70.43704,99.78564 c -0.05134,0.23859 -0.07958,0.48529 -0.07958,0.73794 3e-6,0.81915 0.286761,1.57685 0.761196,2.18281 l -5.622396,1.36788 -6.334498,6.34845 c -0.363919,-0.97655 -1.145223,-1.75624 -2.122869,-2.11822 l 6.63112,-6.64611 0.706935,-0.39842 z m 3.487126,0.171566 c 0.33037,0 0.566376,0.236004 0.566376,0.566374 -3e-6,0.33036 -0.236009,0.56637 -0.566376,0.56637 -0.330366,0 -0.566372,-0.23601 -0.566372,-0.56637 0,-0.33037 0.236006,-0.566374 0.566372,-0.566374 z m 3.347601,1.774054 6.409944,6.42286 9.033039,4.08399 0.881084,1.36736 v 1.09502 l -0.08268,0.005 -0.468704,0.2222 -0.408763,-0.31884 -0.534334,-0.15399 -1.505334,0.14986 v -0.032 l -8.400521,-3.79719 -0.445449,-0.30644 -6.590813,-6.60786 c 0.975188,-0.36708 1.753314,-1.15076 2.112533,-2.12959 z m -21.449336,9.35085 c 0.330366,0 0.564303,0.23394 0.564306,0.5643 0,0.16491 -0.05865,0.30642 -0.158647,0.4067 l -0.813387,-0.81132 c 0.100335,-0.10056 0.242263,-0.15968 0.407728,-0.15968 z m 35.728049,8.32662 0.195856,0.0806 1.562176,0.17363 0.150897,-0.0253 0.05684,-0.009 0.03979,0.0398 0.03979,0.0408 v 1.9575 c -0.459976,-0.29571 -1.00462,-0.46974 -1.588016,-0.46974 -0.510074,0 -0.991433,0.13156 -1.411801,0.36226 v -1.78904 l 0.778248,-0.24805 z"
         sodipodi:nodetypes="cscccccccssssscccccccccccccccssccsccccccccscccc" />
      <circle
         style="fill:none;fill-opacity:1;stroke:#363636;stroke-width:1.5;stroke-linecap:butt;stroke-linejoin:miter;stroke-miterlimit:4;stroke-dasharray:none;stroke-opacity:1"
         id="path2689"
         cx="-73.92395"
         cy="100.52343"
         r="2.0660133"
         transform="scale(-1,1)" />
      <circle
         r="2.0660133"
         cy="111.64746"
         cx="-55.821407"
         id="circle2693"
         style="fill:none;fill-opacity:1;stroke:#363636;stroke-width:1.5;stroke-linecap:butt;stroke-linejoin:miter;stroke-miterlimit:4;stroke-dasharray:none;stroke-opacity:1"
         transform="scale(-1,1)" />
      <circle
         r="2.1840007"
         cy="78.387695"
         cx="88.368263"
         id="circle2719"
         style="fill:none;fill-opacity:1;stroke:#f89719;stroke-width:1.5;stroke-linecap:butt;stroke-linejoin:miter;stroke-miterlimit:4;stroke-dasharray:none;stroke-opacity:1" />
      <circle
         style="fill:none;fill-opacity:1;stroke:#363636;stroke-width:1.5;stroke-linecap:butt;stroke-linejoin:bevel;stroke-miterlimit:4;stroke-dasharray:none;stroke-opacity:1"
         id="path2944"
         cx="-67.015915"
         cy="124.18672"
         r="1.5"
         transform="scale(-1,1)" />
      <circle
         r="1.5"
         cy="124.22965"
         cx="-39.475674"
         id="circle2946"
         style="fill:none;fill-opacity:1;stroke:#363636;stroke-width:1.5;stroke-linecap:butt;stroke-linejoin:bevel;stroke-miterlimit:4;stroke-dasharray:none;stroke-opacity:1"
         transform="scale(-1,1)" />
      <circle
         r="1.5"
         cy="124.15369"
         cx="-92.00766"
         id="circle2948"
         style="fill:none;fill-opacity:1;stroke:#363636;stroke-width:1.5;stroke-linecap:butt;stroke-linejoin:bevel;stroke-miterlimit:4;stroke-dasharray:none;stroke-opacity:1"
         transform="scale(-1,1)" />
      <circle
         style="fill:#363636;fill-opacity:1;stroke:none;stroke-width:3.00001;stroke-linecap:butt;stroke-linejoin:bevel;stroke-miterlimit:4;stroke-dasharray:none;stroke-opacity:0.60342"
         id="path3022"
         cx="88.368263"
         cy="78.387695"
         r="0.69535148" />
      <path
         d="m 42.403263,90.454247 a 6.5,6.5 0 0 1 4.012558,-6.005217 6.5,6.5 0 0 1 7.083636,1.409022"
         style="fill:none;fill-opacity:1;stroke:#f89719;stroke-width:1.5;stroke-linecap:butt;stroke-linejoin:bevel;stroke-miterlimit:4;stroke-dasharray:none;stroke-opacity:1"
         id="path3340"
         sodipodi:type="arc"
         sodipodi:cx="48.903263"
         sodipodi:cy="90.454247"
         sodipodi:rx="6.5"
         sodipodi:ry="6.5"
         sodipodi:start="3.1415927"
         sodipodi:end="5.4977871"
         sodipodi:open="true"
         sodipodi:arc-type="arc" />
      <path
         d="m 38.903263,90.454247 a 10,10 0 0 1 6.173166,-9.238796 10,10 0 0 1 10.897902,2.167727"
         sodipodi:arc-type="arc"
         sodipodi:open="true"
         sodipodi:end="5.4977871"
         sodipodi:start="3.1415927"
         sodipodi:ry="10"
         sodipodi:rx="10"
         sodipodi:cy="90.454247"
         sodipodi:cx="48.903263"
         sodipodi:type="arc"
         id="path3344"
         style="fill:none;fill-opacity:1;stroke:#f89719;stroke-width:1.5;stroke-linecap:butt;stroke-linejoin:bevel;stroke-miterlimit:4;stroke-dasharray:none;stroke-opacity:1" />
      <path
         d="m 35.403263,90.454247 a 13.5,13.5 0 0 1 8.333774,-12.472374 13.5,13.5 0 0 1 14.712167,2.926432"
         style="fill:none;fill-opacity:1;stroke:#f89719;stroke-width:1.5;stroke-linecap:butt;stroke-linejoin:bevel;stroke-miterlimit:4;stroke-dasharray:none;stroke-opacity:1"
         id="path3346"
         sodipodi:type="arc"
         sodipodi:cx="48.903263"
         sodipodi:cy="90.454247"
         sodipodi:rx="13.5"
         sodipodi:ry="13.5"
         sodipodi:start="3.1415927"
         sodipodi:end="5.4977871"
         sodipodi:open="true"
         sodipodi:arc-type="arc" />
      <circle
         r="0.58808154"
         cy="100.52343"
         cx="73.92395"
         id="circle3348"
         style="fill:#363636;fill-opacity:1;stroke:none;stroke-width:3.00001;stroke-linecap:butt;stroke-linejoin:bevel;stroke-miterlimit:4;stroke-dasharray:none;stroke-opacity:0.60342" />
      <circle
         style="fill:#363636;fill-opacity:1;stroke:none;stroke-width:3.00001;stroke-linecap:butt;stroke-linejoin:bevel;stroke-miterlimit:4;stroke-dasharray:none;stroke-opacity:0.60342"
         id="circle3350"
         cx="55.821407"
         cy="111.64746"
         r="0.58808154" />
      <path
         sodipodi:nodetypes="cc"
         style="fill:none;stroke:#363636;stroke-width:4.5;stroke-linecap:butt;stroke-linejoin:miter;stroke-miterlimit:4;stroke-dasharray:none;stroke-opacity:1"
         d="M 84.642788,98.276262 V 93.394137"
         id="path3490" />
    </g>
  </g>
</svg>
