<?xml version="1.0" encoding="UTF-8" standalone="no"?>
<svg
   xmlns:dc="http://purl.org/dc/elements/1.1/"
   xmlns:cc="http://creativecommons.org/ns#"
   xmlns:rdf="http://www.w3.org/1999/02/22-rdf-syntax-ns#"
   xmlns:svg="http://www.w3.org/2000/svg"
   xmlns="http://www.w3.org/2000/svg"
   xmlns:sodipodi="http://sodipodi.sourceforge.net/DTD/sodipodi-0.dtd"
   xmlns:inkscape="http://www.inkscape.org/namespaces/inkscape"
   sodipodi:docname="mi.svg"
   inkscape:version="1.0 (4035a4fb49, 2020-05-01)"
   id="svg8"
   version="1.1"
   viewBox="0 0 241.43139 57.725655"
   height="57.725655mm"
   width="241.4314mm">
  <defs
     id="defs2" />
  <sodipodi:namedview
     fit-margin-bottom="0"
     fit-margin-right="0"
     fit-margin-left="0"
     fit-margin-top="0"
     inkscape:guide-bbox="true"
     showguides="true"
     inkscape:window-maximized="1"
     inkscape:window-y="0"
     inkscape:window-x="0"
     inkscape:window-height="713"
     inkscape:window-width="1366"
     showgrid="false"
     inkscape:document-rotation="0"
     inkscape:current-layer="layer1"
     inkscape:document-units="mm"
     inkscape:cy="143.18995"
     inkscape:cx="150.49663"
     inkscape:zoom="1.979899"
     inkscape:pageshadow="2"
     inkscape:pageopacity="0.0"
     borderopacity="1.0"
     bordercolor="#666666"
     pagecolor="#ffffff"
     id="base" />
  <metadata
     id="metadata5">
    <rdf:RDF>
      <cc:Work
         rdf:about="">
        <dc:format>image/svg+xml</dc:format>
        <dc:type
           rdf:resource="http://purl.org/dc/dcmitype/StillImage" />
        <dc:title></dc:title>
      </cc:Work>
    </rdf:RDF>
  </metadata>
  <g
     transform="translate(-111.95351,-84.688947)"
     id="layer1"
     inkscape:groupmode="layer"
     inkscape:label="Réteg 1">
    <path
       transform="matrix(0.26458333,0,0,0.26458333,111.95351,84.688947)"
       d="M 141.84961 0.52539062 L 122.46484 2.5117188 L 119.28906 3.9003906 L 111.39062 10.882812 L 99.277344 10.21875 L 96.191406 10.933594 L 78.955078 20.605469 L 76.378906 23.683594 L 73.951172 30.658203 L 65.601562 32.333984 L 61.984375 34.763672 L 49.714844 53.285156 L 48.792969 56.923828 L 50.041016 70.882812 L 46.697266 82.966797 L 46.931641 86.666016 L 54.794922 105.45312 L 56.832031 107.93945 L 65.984375 114.19141 L 73.242188 119.7207 L 73.242188 105.4668 L 72.740234 105.08398 L 72.503906 104.91406 L 64.611328 99.525391 L 58.152344 84.095703 L 61.238281 72.912109 L 61.423828 70.898438 L 60.263672 57.890625 L 70.140625 42.986328 L 79.353516 41.140625 L 83.591797 37.451172 L 86.380859 29.441406 L 100.29688 21.630859 L 113.08984 22.332031 L 117.15625 20.921875 L 125.43164 13.607422 L 141.26562 11.982422 L 149.69336 16.546875 L 138.17188 25.910156 L 117.05273 30.259766 L 117.5293 32.574219 L 102.14844 27.21875 L 100.28125 32.570312 L 112.0918 36.685547 L 107.03516 40.298828 L 106.16406 41.302734 L 101.83203 49.638672 L 106.85938 52.25 L 110.88281 44.521484 L 118.82227 38.845703 L 119.3418 41.363281 L 131.86523 38.783203 L 130.14062 43.517578 L 130.55859 53.660156 L 118.83984 55.779297 L 119.85156 61.359375 L 134.07812 58.777344 L 136.96484 58.658203 L 146.54297 64.623047 L 144.89844 73.318359 L 150.46289 74.367188 L 152.4707 63.773438 L 151.1875 60.835938 L 141.96875 55.095703 L 141.56055 45.289062 L 143.32227 40.458984 L 150.78125 48.810547 L 155.01172 45.039062 L 145.58984 34.486328 L 162.00195 21.150391 L 181.36328 19.955078 L 206.24805 35.568359 L 211.29688 53.195312 L 212.68555 55.587891 L 221.01172 64.142578 L 223.38281 79.261719 L 218.45508 84.433594 L 208.10938 74.345703 L 202.32227 48.9375 L 202.50586 41.333984 L 201.0957 38.816406 L 185.17383 29.574219 L 182.32422 34.474609 L 196.79883 42.875 L 196.62305 50.0625 L 194.2832 50.595703 L 177.45117 43.886719 L 166.01758 34.304688 L 162.37891 38.654297 L 174.16016 48.523438 L 174.93359 48.988281 L 192.27734 55.900391 L 195.63672 70.650391 L 173.30469 67.957031 L 166.99219 60.917969 L 165.52344 50.929688 L 159.91211 51.755859 L 161.50781 62.585938 L 162.20117 64.068359 L 170.93555 73.800781 L 164.4082 76.138672 L 163.10938 77.083984 L 152.56836 90.857422 L 157.0625 94.304688 L 167.10156 81.1875 L 172.45703 79.275391 L 200.36133 82.632812 L 212.92383 94.876953 L 212.86328 105.86523 L 205.42969 117.06445 L 199.57617 119.56641 L 197.19141 121.47852 L 193.89062 126.08398 L 185.41016 127.95312 L 181.00195 134.18945 L 182.50781 146.28125 L 168.72656 130.07812 L 166.89648 128.6543 L 155.15039 122.91992 L 168.88867 113.73438 L 179.79883 108.90625 L 189.19727 111.60156 L 189.44727 110.72852 L 191.23438 112.8418 L 176.4043 119.16797 L 178.625 124.37891 L 196.99219 116.54688 L 198.04688 112.11133 L 191.33008 104.17383 L 191.375 104.01953 L 203.39844 98.757812 L 201.125 93.560547 L 188.52539 99.082031 L 188.79102 99.689453 L 178.97266 96.867188 L 172.98047 99.523438 L 176.24023 92.931641 L 185.32812 90.984375 L 184.14062 85.439453 L 173.7168 87.675781 L 171.76758 89.189453 L 164.87109 103.11914 L 163.4043 103.76953 L 152.97266 110.74023 L 148.4043 97.722656 L 146.30664 95.892578 L 123.11328 91.042969 L 121.95508 96.59375 L 143.58398 101.11133 L 148.10938 113.99023 L 141.11914 118.66211 L 131.83984 122.46094 L 121.95508 119.95703 L 121.95508 131.65039 L 130.86523 133.91016 L 134.4082 133.6582 L 143.5918 129.90039 L 160.85742 138.32422 L 186.16211 168.07227 L 196.10547 163.69531 L 192.89453 137.91797 L 198.45312 136.69141 L 201.8418 134.45508 L 205.48828 129.36914 L 211.44531 126.83008 L 213.94141 124.74805 L 223.24805 110.72266 L 224.19336 107.62305 L 224.26758 94.777344 L 233.52539 85.056641 L 235.01562 80.265625 L 231.92969 60.607422 L 230.39453 57.537109 L 221.80273 48.701172 L 216.54688 30.355469 L 214.10938 27.115234 L 185.85156 9.3847656 L 182.48633 8.5273438 L 161.12305 9.8417969 L 145.12695 1.1835938 L 141.84961 0.52539062 z M 88.433594 48.212891 L 75.396484 55.662109 L 74.060547 58.865234 L 77.96875 73.205078 L 70.820312 72.691406 L 67.800781 75.216797 L 66.369141 88.429688 L 72.009766 89.035156 L 73.138672 78.544922 L 77.3125 78.84375 L 98.621094 94.203125 L 97.880859 103.51172 L 109.25586 103.51172 L 110.07031 93.279297 L 114.28516 86.414062 L 120.32227 83.175781 L 136.72656 83.041016 L 143.25195 88.488281 L 146.89062 84.140625 L 139.56055 78.021484 L 137.72266 77.363281 L 123.13672 77.484375 L 131.05664 70.136719 L 127.19531 65.980469 L 117.62695 74.865234 L 116.33008 72.447266 L 106.22461 77.873047 L 104.65039 80.433594 L 101.67578 68.734375 L 109.08008 63.367188 L 105.75195 58.777344 L 96.796875 65.273438 L 95.712891 68.261719 L 98.779297 80.339844 L 82.617188 68.693359 L 80.113281 59.492188 L 91.246094 53.136719 L 88.433594 48.212891 z M 119.01562 77.457031 L 119.07227 77.517578 L 119.04883 77.517578 L 119.01562 77.457031 z M 121.95508 109.09766 L 121.95508 114.80273 L 128.20703 115.51367 L 128.8418 109.88086 L 121.95508 109.09766 z "
       style="color:#000000;font-style:normal;font-variant:normal;font-weight:normal;font-stretch:normal;font-size:medium;line-height:normal;font-family:sans-serif;font-variant-ligatures:normal;font-variant-position:normal;font-variant-caps:normal;font-variant-numeric:normal;font-variant-alternates:normal;font-variant-east-asian:normal;font-feature-settings:normal;font-variation-settings:normal;text-indent:0;text-align:start;text-decoration:none;text-decoration-line:none;text-decoration-style:solid;text-decoration-color:#000000;letter-spacing:normal;word-spacing:normal;text-transform:none;writing-mode:lr-tb;direction:ltr;text-orientation:mixed;dominant-baseline:auto;baseline-shift:baseline;text-anchor:start;white-space:normal;shape-padding:0;shape-margin:0;inline-size:0;clip-rule:nonzero;display:inline;overflow:visible;visibility:visible;opacity:1;isolation:auto;mix-blend-mode:normal;color-interpolation:sRGB;color-interpolation-filters:linearRGB;solid-color:#000000;solid-opacity:1;vector-effect:none;fill:#363636;fill-opacity:1;fill-rule:nonzero;stroke:none;stroke-width:5.66929;stroke-linecap:butt;stroke-linejoin:bevel;stroke-miterlimit:4;stroke-dasharray:none;stroke-dashoffset:0;stroke-opacity:1;color-rendering:auto;image-rendering:auto;shape-rendering:auto;text-rendering:auto;enable-background:accumulate;stop-color:#000000;stop-opacity:1"
       id="path1119" />
    <circle
       transform="rotate(4.5282866)"
       r="1.25"
       cy="100.4364"
       cx="164.49849"
       id="path899"
       style="fill:#ffffff;fill-opacity:1;stroke:#f89719;stroke-width:1.5;stroke-linecap:round;stroke-linejoin:bevel;stroke-miterlimit:4;stroke-dasharray:none;stroke-opacity:1" />
    <circle
       transform="rotate(4.5282866)"
       style="fill:#ffffff;fill-opacity:1;stroke:#f89719;stroke-width:1.5;stroke-linecap:round;stroke-linejoin:bevel;stroke-miterlimit:4;stroke-dasharray:none;stroke-opacity:1"
       id="circle907"
       cx="172.93456"
       cy="91.344398"
       r="1.25" />
    <circle
       transform="rotate(4.5282866)"
       r="1.25"
       cy="81.140884"
       cx="155.52531"
       id="circle909"
       style="fill:#ffffff;fill-opacity:1;stroke:#f89719;stroke-width:1.5;stroke-linecap:round;stroke-linejoin:bevel;stroke-miterlimit:4;stroke-dasharray:none;stroke-opacity:1" />
    <circle
       transform="rotate(4.5282866)"
       style="fill:#ffffff;fill-opacity:1;stroke:#f89719;stroke-width:1.5;stroke-linecap:round;stroke-linejoin:bevel;stroke-miterlimit:4;stroke-dasharray:none;stroke-opacity:1"
       id="circle911"
       cx="147.5434"
       cy="96.902008"
       r="1.25" />
    <circle
       transform="rotate(4.5282866)"
       r="1.25"
       cy="85.507927"
       cx="171.36917"
       id="circle949"
       style="fill:#ffffff;fill-opacity:1;stroke:#f89719;stroke-width:1.5;stroke-linecap:round;stroke-linejoin:bevel;stroke-miterlimit:4;stroke-dasharray:none;stroke-opacity:1" />
    <circle
       transform="rotate(4.5282866)"
       style="fill:#ffffff;fill-opacity:1;stroke:#f89719;stroke-width:1.5;stroke-linecap:round;stroke-linejoin:bevel;stroke-miterlimit:4;stroke-dasharray:none;stroke-opacity:1"
       id="circle951"
       cx="165.17329"
       cy="91.218597"
       r="1.25" />
    <circle
       transform="rotate(4.5282866)"
       style="fill:#ffffff;fill-opacity:1;stroke:#f89719;stroke-width:1.5;stroke-linecap:round;stroke-linejoin:bevel;stroke-miterlimit:4;stroke-dasharray:none;stroke-opacity:1"
       id="circle953"
       cx="170.02362"
       cy="99.133598"
       r="1.25" />
    <circle
       transform="rotate(4.5282866)"
       r="1.25"
       cy="93.438278"
       cx="151.6254"
       id="circle955"
       style="fill:#ffffff;fill-opacity:1;stroke:#f89719;stroke-width:1.5;stroke-linecap:round;stroke-linejoin:bevel;stroke-miterlimit:4;stroke-dasharray:none;stroke-opacity:1" />
    <circle
       transform="rotate(4.5282866)"
       style="fill:#ffffff;fill-opacity:1;stroke:#f89719;stroke-width:1.5;stroke-linecap:round;stroke-linejoin:bevel;stroke-miterlimit:4;stroke-dasharray:none;stroke-opacity:1"
       id="circle957"
       cx="141.13618"
       cy="93.432556"
       r="1.25" />
    <circle
       transform="rotate(4.5282866)"
       r="1.25"
       cy="82.590286"
       cx="150.29288"
       id="circle959"
       style="fill:#ffffff;fill-opacity:1;stroke:#f89719;stroke-width:1.5;stroke-linecap:round;stroke-linejoin:bevel;stroke-miterlimit:4;stroke-dasharray:none;stroke-opacity:1" />
    <circle
       transform="rotate(4.5282866)"
       style="fill:#ffffff;fill-opacity:1;stroke:#f89719;stroke-width:1.5;stroke-linecap:round;stroke-linejoin:bevel;stroke-miterlimit:4;stroke-dasharray:none;stroke-opacity:1"
       id="circle961"
       cx="155.43819"
       cy="87.254272"
       r="1.25" />
    <circle
       transform="rotate(4.5282866)"
       r="1.25"
       cy="81.686134"
       cx="162.37981"
       id="circle963"
       style="fill:#ffffff;fill-opacity:1;stroke:#f89719;stroke-width:1.5;stroke-linecap:round;stroke-linejoin:bevel;stroke-miterlimit:4;stroke-dasharray:none;stroke-opacity:1" />
    <circle
       transform="rotate(4.5282866)"
       style="fill:#ffffff;fill-opacity:1;stroke:#f89719;stroke-width:1.5;stroke-linecap:round;stroke-linejoin:bevel;stroke-miterlimit:4;stroke-dasharray:none;stroke-opacity:1"
       id="circle967"
       cx="143.0676"
       cy="87.092964"
       r="1.25" />
    <path
       id="path977"
       d="m 114.20351,114.32671 v 25.83789 h 8.38867 v -4.5 h -3.88867 v -16.83789 h 3.88867 v -4.5 z"
       style="color:#000000;font-style:normal;font-variant:normal;font-weight:normal;font-stretch:normal;font-size:medium;line-height:normal;font-family:sans-serif;font-variant-ligatures:normal;font-variant-position:normal;font-variant-caps:normal;font-variant-numeric:normal;font-variant-alternates:normal;font-variant-east-asian:normal;font-feature-settings:normal;font-variation-settings:normal;text-indent:0;text-align:start;text-decoration:none;text-decoration-line:none;text-decoration-style:solid;text-decoration-color:#000000;letter-spacing:normal;word-spacing:normal;text-transform:none;writing-mode:lr-tb;direction:ltr;text-orientation:mixed;dominant-baseline:auto;baseline-shift:baseline;text-anchor:start;white-space:normal;shape-padding:0;shape-margin:0;inline-size:0;clip-rule:nonzero;display:inline;overflow:visible;visibility:visible;isolation:auto;mix-blend-mode:normal;color-interpolation:sRGB;color-interpolation-filters:linearRGB;solid-color:#000000;solid-opacity:1;vector-effect:none;fill:#f89719;fill-opacity:1;fill-rule:nonzero;stroke:none;stroke-width:4.5;stroke-linecap:butt;stroke-linejoin:miter;stroke-miterlimit:4;stroke-dasharray:none;stroke-dashoffset:0;stroke-opacity:1;paint-order:normal;color-rendering:auto;image-rendering:auto;shape-rendering:auto;text-rendering:auto;enable-background:accumulate;stop-color:#000000" />
    <path
       style="color:#000000;font-style:normal;font-variant:normal;font-weight:normal;font-stretch:normal;font-size:medium;line-height:normal;font-family:sans-serif;font-variant-ligatures:normal;font-variant-position:normal;font-variant-caps:normal;font-variant-numeric:normal;font-variant-alternates:normal;font-variant-east-asian:normal;font-feature-settings:normal;font-variation-settings:normal;text-indent:0;text-align:start;text-decoration:none;text-decoration-line:none;text-decoration-style:solid;text-decoration-color:#000000;letter-spacing:normal;word-spacing:normal;text-transform:none;writing-mode:lr-tb;direction:ltr;text-orientation:mixed;dominant-baseline:auto;baseline-shift:baseline;text-anchor:start;white-space:normal;shape-padding:0;shape-margin:0;inline-size:0;clip-rule:nonzero;display:inline;overflow:visible;visibility:visible;isolation:auto;mix-blend-mode:normal;color-interpolation:sRGB;color-interpolation-filters:linearRGB;solid-color:#000000;solid-opacity:1;vector-effect:none;fill:#f89719;fill-opacity:1;fill-rule:nonzero;stroke:none;stroke-width:4.5;stroke-linecap:butt;stroke-linejoin:miter;stroke-miterlimit:4;stroke-dasharray:none;stroke-dashoffset:0;stroke-opacity:1;paint-order:normal;color-rendering:auto;image-rendering:auto;shape-rendering:auto;text-rendering:auto;enable-background:accumulate;stop-color:#000000"
       d="m 141.97121,114.32671 v 25.83789 h -8.38867 v -4.5 h 3.88867 v -16.83789 h -3.88867 v -4.5 z"
       id="path979" />
    <circle
       transform="rotate(4.5282866)"
       r="1.25"
       cy="102.08948"
       cx="154.36885"
       id="circle965"
       style="fill:#ffffff;fill-opacity:1;stroke:#f89719;stroke-width:1.5;stroke-linecap:round;stroke-linejoin:bevel;stroke-miterlimit:4;stroke-dasharray:none;stroke-opacity:1" />
    <circle
       transform="rotate(4.5282866)"
       r="1.25"
       cy="99.814041"
       cx="141.76164"
       id="circle969"
       style="fill:#ffffff;fill-opacity:1;stroke:#f89719;stroke-width:1.5;stroke-linecap:round;stroke-linejoin:bevel;stroke-miterlimit:4;stroke-dasharray:none;stroke-opacity:1" />
    <circle
       style="fill:#ffffff;fill-opacity:1;stroke:#f89719;stroke-width:1.5;stroke-linecap:round;stroke-linejoin:bevel;stroke-miterlimit:4;stroke-dasharray:none;stroke-opacity:1"
       id="circle983"
       cx="159.66788"
       cy="105.02129"
       r="1.25"
       transform="rotate(4.5282866)" />
    <circle
       transform="rotate(4.5282866)"
       r="1.25"
       cy="107.13342"
       cx="170.50162"
       id="circle985"
       style="fill:#ffffff;fill-opacity:1;stroke:#f89719;stroke-width:1.5;stroke-linecap:round;stroke-linejoin:bevel;stroke-miterlimit:4;stroke-dasharray:none;stroke-opacity:1" />
    <text
       id="text989"
       y="105.93264"
       x="186.31181"
       style="font-size:28.4768px;line-height:1;font-family:'Exo 2';-inkscape-font-specification:'Exo 2, ';text-align:start;letter-spacing:0px;word-spacing:0px;text-anchor:start;fill:#363636;fill-opacity:1;stroke-width:0.264583"
       xml:space="preserve"><tspan
         style="font-style:normal;font-variant:normal;font-weight:500;font-stretch:normal;font-size:28.4768px;font-family:'Exo 2';-inkscape-font-specification:'Exo 2 Medium';text-align:start;text-anchor:start;fill:#363636;fill-opacity:1;stroke-width:0.264583"
         y="105.93264"
         x="186.31181"
         id="tspan987"
         sodipodi:role="line">Mesterséges</tspan><tspan
         id="tspan991"
         style="font-style:normal;font-variant:normal;font-weight:500;font-stretch:normal;font-size:28.4768px;font-family:'Exo 2';-inkscape-font-specification:'Exo 2 Medium';text-align:start;text-anchor:start;fill:#363636;fill-opacity:1;stroke-width:0.264583"
         y="134.45866"
         x="186.31181"
         sodipodi:role="line">Intelligencia</tspan></text>
  </g>
</svg>
