<?xml version="1.0" encoding="UTF-8" standalone="no"?>
<svg
   xmlns:dc="http://purl.org/dc/elements/1.1/"
   xmlns:cc="http://creativecommons.org/ns#"
   xmlns:rdf="http://www.w3.org/1999/02/22-rdf-syntax-ns#"
   xmlns:svg="http://www.w3.org/2000/svg"
   xmlns="http://www.w3.org/2000/svg"
   xmlns:sodipodi="http://sodipodi.sourceforge.net/DTD/sodipodi-0.dtd"
   xmlns:inkscape="http://www.inkscape.org/namespaces/inkscape"
   width="576.65387mm"
   height="113.91398mm"
   viewBox="0 0 576.65387 113.91398"
   version="1.1"
   id="svg8"
   sodipodi:docname="qc.svg"
   inkscape:version="1.0.1 (3bc2e813f5, 2020-09-07)">
  <defs
     id="defs2" />
  <sodipodi:namedview
     id="base"
     pagecolor="#ffffff"
     bordercolor="#666666"
     borderopacity="1.0"
     inkscape:pageopacity="0.0"
     inkscape:pageshadow="2"
     inkscape:zoom="0.35"
     inkscape:cx="1011.9656"
     inkscape:cy="209.48078"
     inkscape:document-units="mm"
     inkscape:current-layer="layer1"
     showgrid="false"
     inkscape:snap-page="true"
     inkscape:snap-object-midpoints="true"
     inkscape:window-width="1366"
     inkscape:window-height="713"
     inkscape:window-x="0"
     inkscape:window-y="0"
     inkscape:window-maximized="1"
     inkscape:snap-smooth-nodes="true"
     inkscape:snap-bbox="true"
     inkscape:object-paths="false"
     inkscape:snap-grids="false"
     fit-margin-top="0"
     fit-margin-left="0"
     fit-margin-right="0"
     fit-margin-bottom="0"
     inkscape:document-rotation="0"
     inkscape:snap-nodes="false">
    <inkscape:grid
       type="xygrid"
       id="grid823"
       spacingx="2.6458333"
       spacingy="2.6458333"
       originx="-28.118395"
       originy="-15.066426" />
  </sodipodi:namedview>
  <metadata
     id="metadata5">
    <rdf:RDF>
      <cc:Work
         rdf:about="">
        <dc:format>image/svg+xml</dc:format>
        <dc:type
           rdf:resource="http://purl.org/dc/dcmitype/StillImage" />
        <dc:title />
      </cc:Work>
    </rdf:RDF>
  </metadata>
  <g
     inkscape:label="1. réteg"
     inkscape:groupmode="layer"
     id="layer1"
     transform="translate(-28.118397,-165.88017)">
    <circle
       r="22.263813"
       cy="190.39398"
       cx="52.63221"
       id="circle3478"
       style="fill:none;stroke:#363636;stroke-width:4.5;stroke-miterlimit:4;stroke-dasharray:none;stroke-opacity:1" />
    <circle
       style="fill:none;stroke:#363636;stroke-width:4.5;stroke-miterlimit:4;stroke-dasharray:none;stroke-opacity:1"
       id="circle3480"
       cx="52.63221"
       cy="255.28029"
       r="22.263813" />
    <circle
       r="22.263813"
       cy="255.28033"
       cx="117.51823"
       id="circle3482"
       style="fill:none;stroke:#363636;stroke-width:4.5;stroke-miterlimit:4;stroke-dasharray:none;stroke-opacity:1" />
    <circle
       style="fill:none;stroke:#363636;stroke-width:4.5;stroke-miterlimit:4;stroke-dasharray:none;stroke-opacity:1"
       id="path3476"
       cx="117.51852"
       cy="190.39398"
       r="22.263813" />
    <g
       aria-label="QuadCopter"
       id="text4747"
       style="font-style:normal;font-variant:normal;font-weight:normal;font-stretch:normal;font-size:83.6814px;line-height:1.25;font-family:'Libre Franklin';-inkscape-font-specification:'Libre Franklin';letter-spacing:0px;word-spacing:0px;fill:#363636;fill-opacity:1;stroke:none;stroke-width:0.842185">
      <path
         d="m 173.24861,220.69302 c 0,18.32757 9.46424,28.46782 24.41172,28.46782 1.95294,0 3.90588,-0.15022 5.7837,-0.52579 0.52579,-0.15022 0.90136,0 1.1267,0.30045 4.657,6.3095 9.76469,8.78823 14.79726,8.78823 1.65248,0 2.25339,-0.22534 2.25339,-1.50226 v -4.35656 c 0,-0.37556 -0.15023,-0.75113 -0.82624,-0.82624 -4.65701,-0.67602 -9.08868,-4.0561 -9.08868,-5.7837 0,-0.30045 0.0751,-0.45068 0.37557,-0.60091 6.30949,-4.58189 9.99003,-12.31853 9.99003,-23.96104 0,-18.25246 -9.38913,-28.76828 -24.41173,-28.76828 -15.0226,0 -24.41172,10.51582 -24.41172,28.76828 z m 9.46424,0.15022 c 0,-15.0226 4.88234,-22.30856 14.94748,-22.30856 10.06514,0 14.94749,7.28596 14.94749,22.23345 0,15.0226 -4.95746,21.70766 -14.94749,21.70766 -9.99003,0 -14.94748,-6.68506 -14.94748,-21.63255 z"
         style="font-style:normal;font-variant:normal;font-weight:500;font-stretch:normal;font-size:75.113px;font-family:'Libre Franklin';-inkscape-font-specification:'Libre Franklin Medium';fill:#363636;fill-opacity:1;stroke-width:0.842185"
         id="path3079" />
      <path
         d="m 246.1833,243.1518 c -4.28144,0 -6.91039,-2.9294 -6.91039,-7.28596 v -26.06421 c 0,-0.82624 -0.37557,-1.20181 -1.1267,-1.20181 h -5.48325 c -0.97647,0 -1.35203,0.45068 -1.35203,1.35204 v 27.56647 c 0,7.13573 5.03257,11.64251 11.79274,11.64251 4.43167,0 8.33754,-1.50226 13.44523,-6.15926 0.52579,-0.45068 0.75113,-0.30045 0.75113,0.22534 v 4.20632 c 0,0.67602 0.30045,0.97647 0.90135,0.97647 h 5.85882 c 0.6009,0 0.90135,-0.37556 0.90135,-1.05158 l 0.15023,-37.5565 c 0,-0.82624 -0.37557,-1.20181 -1.20181,-1.20181 h -5.40814 c -0.97646,0 -1.42714,0.37557 -1.42714,1.27693 v 27.34113 c -3.4552,3.60542 -6.98551,5.93392 -10.89139,5.93392 z"
         style="font-style:normal;font-variant:normal;font-weight:500;font-stretch:normal;font-size:75.113px;font-family:'Libre Franklin';-inkscape-font-specification:'Libre Franklin Medium';fill:#363636;fill-opacity:1;stroke-width:0.842185"
         id="path3081" />
      <path
         d="m 298.01115,243.90293 c 0.75113,-0.67601 1.12669,-0.6009 1.27692,0.15023 l 0.0751,2.85429 c 0.15023,0.90136 0.37556,1.50226 1.20181,1.50226 h 5.10768 c 0.82624,0 1.1267,-0.30045 1.1267,-1.27692 V 220.6179 c 0,-7.81175 -4.95746,-12.76921 -15.69862,-12.76921 -8.26243,0 -14.04613,3.15475 -16.82531,8.48777 -0.45068,0.97647 -0.22534,1.27692 0.22534,1.42715 l 5.10768,1.50226 c 0.75113,0.22534 0.97647,0 1.27692,-0.52579 2.55384,-3.83076 5.93393,-5.55836 9.8398,-5.55836 5.25791,0 8.41266,3.07963 8.41266,7.96198 v 1.87782 c 0,0.75113 -0.6009,1.05158 -1.20181,1.1267 l -4.88234,0.37556 c -13.06966,0.6009 -20.35563,5.63347 -20.35563,13.74568 0,6.53483 4.65701,10.89138 12.39365,10.89138 5.1828,0 9.38912,-1.87782 12.91944,-5.25791 z m 1.12669,-14.19635 v 5.85881 c 0,1.80271 -1.20181,3.60542 -3.22986,5.25791 -2.02805,1.57737 -4.73212,2.77918 -7.73664,2.77918 -4.657,0 -7.66152,-2.40361 -7.66152,-6.30949 0,-5.1828 5.55836,-7.88686 13.52034,-8.41266 l 4.0561,-0.30045 c 0.75113,-0.0751 1.05158,0.30045 1.05158,1.1267 z"
         style="font-style:normal;font-variant:normal;font-weight:500;font-stretch:normal;font-size:75.113px;font-family:'Libre Franklin';-inkscape-font-specification:'Libre Franklin Medium';fill:#363636;fill-opacity:1;stroke-width:0.842185"
         id="path3083" />
      <path
         d="m 345.10685,248.40971 h 5.1828 c 1.05158,0 1.42715,-0.37556 1.42715,-1.27692 v -53.33023 c 0,-0.75113 -0.45068,-1.12669 -0.97647,-1.12669 h -6.00904 c -0.67602,0 -0.97647,0.37556 -0.97647,1.12669 v 17.50133 c 0,1.05158 -0.37556,1.20181 -1.20181,0.52579 -2.62895,-2.25339 -5.70858,-3.98099 -10.36559,-3.98099 -9.8398,0 -17.20088,8.48777 -17.20088,21.18187 0,13.37011 7.06062,20.13028 16.37464,20.13028 6.15926,0 9.61446,-3.22986 11.5674,-5.10768 0.52579,-0.52579 0.97647,-0.45068 0.97647,0.30045 v 2.8543 c 0,0.82624 0.52579,1.2018 1.2018,1.2018 z m -1.35203,-30.49587 v 17.57644 c 0,3.83076 -4.20633,8.26243 -9.61446,8.26243 -6.08416,0 -11.04161,-4.35656 -11.04161,-14.94749 0,-10.29048 4.80723,-15.47328 11.41717,-15.47328 3.60543,0 6.38461,1.65249 9.2389,4.5819 z"
         style="font-style:normal;font-variant:normal;font-weight:500;font-stretch:normal;font-size:75.113px;font-family:'Libre Franklin';-inkscape-font-specification:'Libre Franklin Medium';fill:#363636;fill-opacity:1;stroke-width:0.842185"
         id="path3085" />
      <path
         d="m 385.44248,191.92474 c -14.94749,0 -24.11127,10.81627 -24.11127,28.46783 0,17.57644 9.16378,28.76827 24.33661,28.76827 12.46876,0 19.52938,-8.63799 21.40721,-15.17282 0.15022,-0.97647 -0.22534,-1.20181 -0.5258,-1.27692 l -5.33302,-1.27692 c -0.67602,-0.0751 -1.05158,0 -1.12669,0.37556 -2.8543,7.36107 -7.36108,10.44071 -14.04613,10.44071 -10.14026,0 -15.17283,-7.13574 -15.17283,-21.78277 0,-14.87238 5.33302,-21.933 14.87237,-21.933 6.45972,0 10.81628,4.20633 12.16831,10.21537 0.15023,0.67602 0.30045,0.90136 0.90136,0.82624 l 6.9855,-0.45067 c 0.75113,-0.0751 0.90136,-0.30046 0.67602,-1.42715 -1.35203,-8.638 -10.36559,-15.77373 -21.03164,-15.77373 z"
         style="font-style:normal;font-variant:normal;font-weight:500;font-stretch:normal;font-size:75.113px;font-family:'Libre Franklin';-inkscape-font-specification:'Libre Franklin Medium';fill:#363636;fill-opacity:1;stroke-width:0.842185"
         id="path3087" />
      <path
         d="m 432.91388,249.16084 c 11.5674,0 19.37915,-8.48777 19.37915,-20.50584 0,-12.16831 -7.73664,-20.80631 -19.30404,-20.80631 -11.34206,0 -19.37915,8.48777 -19.37915,20.88142 0,12.01808 7.73664,20.43073 19.30404,20.43073 z m 0.15023,-5.63347 c -7.13574,0 -11.34207,-5.55836 -11.34207,-15.0226 0,-9.46424 4.20633,-15.17283 11.26695,-15.17283 7.06062,0 11.19184,5.63348 11.19184,15.17283 0,9.46424 -4.0561,15.0226 -11.11672,15.0226 z"
         style="font-style:normal;font-variant:normal;font-weight:500;font-stretch:normal;font-size:75.113px;font-family:'Libre Franklin';-inkscape-font-specification:'Libre Franklin Medium';fill:#363636;fill-opacity:1;stroke-width:0.842185"
         id="path3089" />
      <path
         d="m 467.39067,208.59982 h -5.2579 c -1.05159,0 -1.42715,0.37557 -1.42715,1.35204 v 49.79992 c 0,0.67601 0.37556,1.05158 0.97647,1.05158 h 6.08415 c 0.67602,0 0.90136,-0.37557 0.90136,-1.05158 v -13.89591 c 0,-1.20181 0.30045,-1.27692 1.27692,-0.45068 2.62895,2.25339 6.08415,3.75565 10.4407,3.75565 9.99003,0 16.90043,-7.43618 16.90043,-21.18186 0,-13.59545 -7.06062,-20.13029 -16.1493,-20.13029 -6.45971,0 -9.61446,3.22986 -11.49229,5.10769 -0.6009,0.52579 -0.97646,0.52579 -0.97646,-0.22534 v -2.92941 c 0,-0.82624 -0.37557,-1.20181 -1.27693,-1.20181 z m 1.27693,30.57099 v -18.10223 c 0,-3.60542 3.98098,-7.81175 9.61446,-7.81175 6.00904,0 10.89138,4.13122 10.89138,14.72215 0,10.66604 -4.657,15.77373 -11.26695,15.77373 -3.68053,0 -6.53483,-1.80271 -9.23889,-4.5819 z"
         style="font-style:normal;font-variant:normal;font-weight:500;font-stretch:normal;font-size:75.113px;font-family:'Libre Franklin';-inkscape-font-specification:'Libre Franklin Medium';fill:#363636;fill-opacity:1;stroke-width:0.842185"
         id="path3091" />
      <path
         d="m 526.27912,214.30841 c 0.75113,0 1.05158,-0.37556 1.05158,-0.90135 v -3.98099 c 0,-0.60091 -0.37556,-0.82625 -0.90135,-0.82625 h -9.01356 c -0.45068,0 -0.67602,-0.22533 -0.67602,-0.67601 v -11.64252 c 0,-0.82624 -0.37556,-1.20181 -0.97647,-1.20181 h -5.18279 c -0.60091,0 -0.82625,0.37557 -0.90136,1.05159 l -0.90136,11.79274 c 0,0.45068 -0.22534,0.67601 -0.6009,0.67601 h -6.00904 c -0.6009,0 -0.90136,0.30046 -0.90136,0.82625 v 3.98099 c 0,0.52579 0.30046,0.90135 0.97647,0.90135 h 5.63348 c 0.52579,0 0.75113,0.30045 0.75113,0.90136 v 23.81082 c 0,6.45972 3.22986,9.38912 9.76469,9.38912 2.02805,0 5.70859,-0.0751 7.66152,-0.37556 0.75113,-0.15023 1.1267,-0.52579 1.1267,-1.27692 v -3.22986 c 0,-0.52579 -0.30045,-0.90136 -0.90136,-0.90136 h -4.80723 c -3.30497,0 -4.88234,-1.20181 -4.88234,-5.55836 v -22.00811 c 0,-0.52579 0.30045,-0.75113 0.67601,-0.75113 z"
         style="font-style:normal;font-variant:normal;font-weight:500;font-stretch:normal;font-size:75.113px;font-family:'Libre Franklin';-inkscape-font-specification:'Libre Franklin Medium';fill:#363636;fill-opacity:1;stroke-width:0.842185"
         id="path3093" />
      <path
         d="m 539.94947,231.28395 c 0,-0.75113 0.22534,-1.20181 0.75113,-1.20181 h 27.79181 c 1.20181,0 1.12669,-0.75113 1.12669,-1.65248 0,-12.99455 -7.43618,-20.58097 -18.55291,-20.58097 -10.81627,0 -19.30404,8.11221 -19.30404,21.10676 0,11.94296 8.11221,20.20539 19.45427,20.20539 7.58641,0 12.76921,-2.47873 17.05065,-8.78822 0.37557,-0.52579 0.30045,-0.97647 -0.15023,-1.20181 l -3.83076,-1.80271 c -0.6009,-0.30045 -0.82624,-0.22534 -1.12669,0.15023 -3.00452,3.98099 -6.53483,5.85881 -11.11673,5.85881 -6.76017,0 -12.09319,-5.25791 -12.09319,-12.09319 z m 0.15023,-6.00904 c -0.0751,-6.30949 4.13121,-12.09319 11.19183,-12.09319 6.68506,0 10.44071,5.40813 10.44071,11.11672 0,0.82624 -0.22534,1.05158 -1.27692,1.05158 z"
         style="font-style:normal;font-variant:normal;font-weight:500;font-stretch:normal;font-size:75.113px;font-family:'Libre Franklin';-inkscape-font-specification:'Libre Franklin Medium';fill:#363636;fill-opacity:1;stroke-width:0.842185"
         id="path3095" />
      <path
         d="m 578.78279,248.40971 h 5.33303 c 0.97646,0 1.42714,-0.37556 1.42714,-1.27692 v -23.96104 c 0,-4.05611 5.70859,-8.03709 9.91492,-8.03709 1.35203,0 2.85429,0.0751 3.98099,0.37556 0.52579,0.0751 0.82624,-0.22534 0.82624,-0.75113 v -5.85881 c 0,-0.75113 -0.82624,-1.05159 -2.62896,-1.05159 -3.83076,0 -7.88686,2.32851 -11.5674,6.68506 -0.37556,0.52579 -0.82624,0.37557 -0.82624,-0.22534 v -4.73212 c 0,-0.67601 -0.30045,-0.97647 -0.90136,-0.97647 h -5.7837 c -0.67601,0 -0.97647,0.37557 -0.97647,1.1267 v 37.48139 c 0,0.82624 0.37557,1.2018 1.20181,1.2018 z"
         style="font-style:normal;font-variant:normal;font-weight:500;font-stretch:normal;font-size:75.113px;font-family:'Libre Franklin';-inkscape-font-specification:'Libre Franklin Medium';fill:#363636;fill-opacity:1;stroke-width:0.842185"
         id="path3097" />
    </g>
    <path
       id="path3533"
       d="m 51.45217,172.52678 c -1.18793,0 -2.15098,4.30207 -2.15098,9.60899 0,2.67748 0.24533,5.09823 0.6408,6.84071 a 3.042657,3.042657 0 0 0 -0.35277,1.41754 3.042657,3.042657 0 0 0 2.42724,2.9791 2.1509382,9.6090143 0 0 0 -0.35576,5.27916 2.1509382,9.6090143 0 0 0 2.15097,9.60898 2.1509382,9.6090143 0 0 0 2.15097,-9.60898 2.1509382,9.6090143 0 0 0 -0.64241,-6.83726 3.042657,3.042657 0 0 0 0.35439,-1.421 3.042657,3.042657 0 0 0 -2.4261,-2.97887 c 0.22366,-1.51561 0.35462,-3.32826 0.35462,-5.27938 0,-5.30692 -0.96304,-9.60899 -2.15097,-9.60899 z"
       style="vector-effect:none;fill:#f89719;fill-opacity:1;stroke:none;stroke-width:0.442106;stroke-linecap:round;stroke-linejoin:round;stroke-miterlimit:4;stroke-dasharray:none;stroke-dashoffset:0;stroke-opacity:1"
       inkscape:connector-curvature="0" />
    <path
       sodipodi:nodetypes="cccc"
       inkscape:connector-curvature="0"
       id="path3535"
       d="m 53.81167,172.69772 c 1.17975,2.3595 1.17975,3.53925 1.17975,5.89875 9.438013,0 12.977262,10.61776 14.157016,11.79751 0,-14.15701 -12.977266,-17.69626 -15.336766,-17.69626 z"
       style="fill:#363636;fill-opacity:1;stroke:none;stroke-width:0.117975px;stroke-linecap:butt;stroke-linejoin:miter;stroke-opacity:1" />
    <path
       style="fill:#363636;fill-opacity:1;stroke:none;stroke-width:0.117975px;stroke-linecap:butt;stroke-linejoin:miter;stroke-opacity:1"
       d="m 51.45217,208.09025 c -1.17975,-2.3595 -1.17975,-3.53925 -1.17975,-5.89875 -9.43802,0 -12.97727,-10.61776 -14.15702,-11.79751 0,14.15701 12.97726,17.69626 15.33677,17.69626 z"
       id="path3537"
       inkscape:connector-curvature="0"
       sodipodi:nodetypes="cccc" />
    <path
       inkscape:connector-curvature="0"
       style="vector-effect:none;fill:#f89719;fill-opacity:1;stroke:none;stroke-width:0.442106;stroke-linecap:round;stroke-linejoin:round;stroke-miterlimit:4;stroke-dasharray:none;stroke-dashoffset:0;stroke-opacity:1"
       d="m 107.56291,175.51042 c -1.02877,0.59396 0.28824,4.80118 2.9417,9.39711 1.33874,2.31876 2.76157,4.29253 3.9753,5.60383 a 3.042657,3.042657 0 0 0 0.40326,1.40401 3.042657,3.042657 0 0 0 3.59161,1.36636 9.6090143,2.1509382 60 0 0 2.33147,4.74976 9.6090143,2.1509382 60 0 0 6.6673,7.24614 9.6090143,2.1509382 60 0 0 -2.9417,-9.39711 9.6090143,2.1509382 60 0 0 -3.97498,-5.60003 3.042657,3.042657 0 0 0 -0.40359,-1.40782 3.042657,3.042657 0 0 0 -3.5905,-1.36673 c -0.5641,-1.42438 -1.35702,-3.05967 -2.33258,-4.74938 -2.65345,-4.59593 -5.63851,-7.84011 -6.66729,-7.24614 z"
       id="path3541" />
    <path
       style="fill:#363636;fill-opacity:1;stroke:#363636;stroke-width:0.118;stroke-linecap:butt;stroke-linejoin:miter;stroke-miterlimit:4;stroke-dasharray:none;stroke-opacity:1"
       d="m 109.69177,174.4787 c 2.20144,1.45351 2.79132,2.4752 3.97107,4.51859 8.17356,-4.719 16.54752,2.70662 18.15909,3.13844 -7.0785,-12.26033 -20.08677,-8.83678 -22.13016,-7.65703 z"
       id="path3543"
       inkscape:connector-curvature="0"
       sodipodi:nodetypes="cccc" />
    <path
       sodipodi:nodetypes="cccc"
       inkscape:connector-curvature="0"
       id="path3545"
       d="m 125.34465,206.30928 c -2.20144,-1.45351 -2.79131,-2.4752 -3.97107,-4.51859 -8.17356,4.71901 -16.54751,-2.70662 -18.15908,-3.13844 7.07849,12.26033 20.08677,8.83679 22.13015,7.65703 z"
       style="fill:#363636;fill-opacity:1;stroke:none;stroke-width:0.117975px;stroke-linecap:butt;stroke-linejoin:miter;stroke-opacity:1" />
    <path
       inkscape:connector-curvature="0"
       style="vector-effect:none;fill:#f89719;fill-opacity:1;stroke:none;stroke-width:0.442106;stroke-linecap:round;stroke-linejoin:round;stroke-miterlimit:4;stroke-dasharray:none;stroke-dashoffset:0;stroke-opacity:1"
       d="m 37.74831,265.23566 c 0.59396,1.02878 4.80119,-0.28824 9.39711,-2.9417 2.31876,-1.33873 4.29253,-2.76157 5.60383,-3.9753 a 3.042657,3.042657 0 0 0 1.40401,-0.40326 3.042657,3.042657 0 0 0 1.36636,-3.59161 2.1509382,9.6090143 60 0 0 4.749768,-2.33147 2.1509382,9.6090143 60 0 0 7.246136,-6.6673 2.1509382,9.6090143 60 0 0 -9.39711,2.9417 2.1509382,9.6090143 60 0 0 -5.600034,3.97498 3.042657,3.042657 0 0 0 -1.40781,0.40359 3.042657,3.042657 0 0 0 -1.36673,3.59049 c -1.4244,0.56411 -3.05968,1.35703 -4.74939,2.33259 -4.59593,2.65346 -7.84011,5.63851 -7.24614,6.66729 z"
       id="path3549" />
    <path
       style="fill:#363636;fill-opacity:1;stroke:none;stroke-width:0.117975px;stroke-linecap:butt;stroke-linejoin:miter;stroke-opacity:1"
       d="m 36.71659,263.1068 c 1.45351,-2.20144 2.4752,-2.79132 4.51859,-3.97107 -4.719,-8.17356 2.70662,-16.54752 3.13844,-18.15909 -12.26033,7.07851 -8.83678,20.08678 -7.65703,22.13016 z"
       id="path3551"
       inkscape:connector-curvature="0"
       sodipodi:nodetypes="cccc" />
    <path
       sodipodi:nodetypes="cccc"
       inkscape:connector-curvature="0"
       id="path3553"
       d="m 68.547175,247.45392 c -1.453513,2.20145 -2.475203,2.79132 -4.518593,3.97107 4.719003,8.17356 -2.706621,16.54752 -3.138439,18.15909 12.260332,-7.0785 8.836787,-20.08676 7.657032,-22.13016 z"
       style="fill:#363636;fill-opacity:1;stroke:none;stroke-width:0.117975px;stroke-linecap:butt;stroke-linejoin:miter;stroke-opacity:1" />
    <path
       id="path3557"
       d="m 135.38547,254.10059 c 0,-1.18793 -4.30207,-2.15097 -9.60898,-2.15097 -2.67748,0 -5.09823,0.24532 -6.84071,0.6408 a 3.042657,3.042657 0 0 0 -1.41755,-0.35278 3.042657,3.042657 0 0 0 -2.9791,2.42725 9.6090143,2.1509382 0 0 0 -5.27915,-0.35577 9.6090143,2.1509382 0 0 0 -9.608982,2.15097 9.6090143,2.1509382 0 0 0 9.608982,2.15097 9.6090143,2.1509382 0 0 0 6.83725,-0.64241 3.042657,3.042657 0 0 0 1.421,0.35439 3.042657,3.042657 0 0 0 2.97888,-2.4261 c 1.51561,0.22367 3.32826,0.35462 5.27938,0.35462 5.30691,0 9.60898,-0.96304 9.60898,-2.15097 z"
       style="vector-effect:none;fill:#f89719;fill-opacity:1;stroke:none;stroke-width:0.442106;stroke-linecap:round;stroke-linejoin:round;stroke-miterlimit:4;stroke-dasharray:none;stroke-dashoffset:0;stroke-opacity:1"
       inkscape:connector-curvature="0" />
    <path
       sodipodi:nodetypes="cccc"
       inkscape:connector-curvature="0"
       id="path3559"
       d="m 135.21454,256.46009 c -2.3595,1.17975 -3.53925,1.17975 -5.89875,1.17975 0,9.43802 -10.61776,12.97726 -11.79752,14.15702 14.15702,0 17.69627,-12.97727 17.69627,-15.33677 z"
       style="fill:#363636;fill-opacity:1;stroke:none;stroke-width:0.117975px;stroke-linecap:butt;stroke-linejoin:miter;stroke-opacity:1" />
    <path
       style="fill:#363636;fill-opacity:1;stroke:none;stroke-width:0.117975px;stroke-linecap:butt;stroke-linejoin:miter;stroke-opacity:1"
       d="m 99.82201,254.10059 c 2.35949,-1.17975 3.53925,-1.17975 5.89876,-1.17975 0,-9.43801 10.61775,-12.97726 11.7975,-14.15701 -14.157,0 -17.69626,12.97726 -17.69626,15.33676 z"
       id="path3561"
       inkscape:connector-curvature="0"
       sodipodi:nodetypes="cccc" />
    <path
       id="path3563"
       d="M 77.646042,204.76532 A 22.053932,22.053932 0 0 1 67.00555,215.40796 c 5.9203,0.18358 8.607678,1.20802 8.607678,6.93123 v 0.99597 c 0,5.72112 -2.701957,6.74691 -8.610012,6.93104 a 22.053932,22.053932 0 0 1 10.64263,10.6403 c 0.183607,-5.92016 1.208085,-8.60749 6.931233,-8.60749 h 0.995986 c 5.721104,0 6.746901,2.70197 6.931037,8.61003 a 22.053932,22.053932 0 0 1 10.640108,-10.64265 c -5.920037,-0.18361 -8.607289,-1.20814 -8.607289,-6.93123 v -0.99597 c 0,-5.72111 2.701956,-6.74691 8.610009,-6.93104 A 22.053932,22.053932 0 0 1 92.504297,204.76784 c -0.183605,5.92018 -1.20808,8.60749 -6.931232,8.60749 h -0.995986 c -5.721098,0 -6.746896,-2.70196 -6.931037,-8.61001 z"
       style="vector-effect:none;fill:#363636;fill-opacity:1;stroke:#363636;stroke-width:3;stroke-linecap:round;stroke-linejoin:bevel;stroke-miterlimit:4;stroke-dasharray:none;stroke-dashoffset:0;stroke-opacity:1"
       inkscape:connector-curvature="0" />
  </g>
</svg>
