<?xml version="1.0" encoding="UTF-8" standalone="no"?>
<svg
   xmlns:dc="http://purl.org/dc/elements/1.1/"
   xmlns:cc="http://creativecommons.org/ns#"
   xmlns:rdf="http://www.w3.org/1999/02/22-rdf-syntax-ns#"
   xmlns:svg="http://www.w3.org/2000/svg"
   xmlns="http://www.w3.org/2000/svg"
   xmlns:sodipodi="http://sodipodi.sourceforge.net/DTD/sodipodi-0.dtd"
   xmlns:inkscape="http://www.inkscape.org/namespaces/inkscape"
   width="576.65387mm"
   height="113.91398mm"
   viewBox="0 0 576.65387 113.91398"
   version="1.1"
   id="svg8"
   sodipodi:docname="qc.svg"
   inkscape:version="1.0 (4035a4fb49, 2020-05-01)">
  <defs
     id="defs2" />
  <sodipodi:namedview
     id="base"
     pagecolor="#ffffff"
     bordercolor="#666666"
     borderopacity="1.0"
     inkscape:pageopacity="0.0"
     inkscape:pageshadow="2"
     inkscape:zoom="0.35"
     inkscape:cx="1011.9656"
     inkscape:cy="209.48078"
     inkscape:document-units="mm"
     inkscape:current-layer="layer1"
     showgrid="false"
     inkscape:snap-page="true"
     inkscape:snap-object-midpoints="true"
     inkscape:window-width="1366"
     inkscape:window-height="713"
     inkscape:window-x="0"
     inkscape:window-y="0"
     inkscape:window-maximized="1"
     inkscape:snap-smooth-nodes="true"
     inkscape:snap-bbox="true"
     inkscape:object-paths="false"
     inkscape:snap-grids="false"
     fit-margin-top="0"
     fit-margin-left="0"
     fit-margin-right="0"
     fit-margin-bottom="0"
     inkscape:document-rotation="0"
     inkscape:snap-nodes="false">
    <inkscape:grid
       type="xygrid"
       id="grid823"
       spacingx="2.6458333"
       spacingy="2.6458333"
       originx="-28.118395"
       originy="-15.066426" />
  </sodipodi:namedview>
  <metadata
     id="metadata5">
    <rdf:RDF>
      <cc:Work
         rdf:about="">
        <dc:format>image/svg+xml</dc:format>
        <dc:type
           rdf:resource="http://purl.org/dc/dcmitype/StillImage" />
        <dc:title />
      </cc:Work>
    </rdf:RDF>
  </metadata>
  <g
     inkscape:label="1. réteg"
     inkscape:groupmode="layer"
     id="layer1"
     transform="translate(-28.118397,-165.88017)">
    <circle
       r="22.263813"
       cy="190.39398"
       cx="52.63221"
       id="circle3478"
       style="fill:none;stroke:#363636;stroke-width:4.5;stroke-miterlimit:4;stroke-dasharray:none;stroke-opacity:1" />
    <circle
       style="fill:none;stroke:#363636;stroke-width:4.5;stroke-miterlimit:4;stroke-dasharray:none;stroke-opacity:1"
       id="circle3480"
       cx="52.63221"
       cy="255.28029"
       r="22.263813" />
    <circle
       r="22.263813"
       cy="255.28033"
       cx="117.51823"
       id="circle3482"
       style="fill:none;stroke:#363636;stroke-width:4.5;stroke-miterlimit:4;stroke-dasharray:none;stroke-opacity:1" />
    <circle
       style="fill:none;stroke:#363636;stroke-width:4.5;stroke-miterlimit:4;stroke-dasharray:none;stroke-opacity:1"
       id="path3476"
       cx="117.51852"
       cy="190.39398"
       r="22.263813" />
    <text
       xml:space="preserve"
       style="font-style:normal;font-variant:normal;font-weight:normal;font-stretch:normal;font-size:83.6814px;line-height:1.25;font-family:'Libre Franklin';-inkscape-font-specification:'Libre Franklin';letter-spacing:0px;word-spacing:0px;fill:#363636;fill-opacity:1;stroke:none;stroke-width:0.842185"
       x="168.81694"
       y="248.40971"
       id="text4747"><tspan
         sodipodi:role="line"
         id="tspan4745"
         x="168.81694"
         y="248.40971"
         style="font-style:normal;font-variant:normal;font-weight:500;font-stretch:normal;font-size:75.113px;font-family:'Libre Franklin';-inkscape-font-specification:'Libre Franklin Medium';fill:#363636;fill-opacity:1;stroke-width:0.842185">QuadCopter</tspan></text>
    <path
       id="path3533"
       d="m 51.45217,172.52678 c -1.18793,0 -2.15098,4.30207 -2.15098,9.60899 0,2.67748 0.24533,5.09823 0.6408,6.84071 a 3.042657,3.042657 0 0 0 -0.35277,1.41754 3.042657,3.042657 0 0 0 2.42724,2.9791 2.1509382,9.6090143 0 0 0 -0.35576,5.27916 2.1509382,9.6090143 0 0 0 2.15097,9.60898 2.1509382,9.6090143 0 0 0 2.15097,-9.60898 2.1509382,9.6090143 0 0 0 -0.64241,-6.83726 3.042657,3.042657 0 0 0 0.35439,-1.421 3.042657,3.042657 0 0 0 -2.4261,-2.97887 c 0.22366,-1.51561 0.35462,-3.32826 0.35462,-5.27938 0,-5.30692 -0.96304,-9.60899 -2.15097,-9.60899 z"
       style="vector-effect:none;fill:#f89719;fill-opacity:1;stroke:none;stroke-width:0.442106;stroke-linecap:round;stroke-linejoin:round;stroke-miterlimit:4;stroke-dasharray:none;stroke-dashoffset:0;stroke-opacity:1"
       inkscape:connector-curvature="0" />
    <path
       sodipodi:nodetypes="cccc"
       inkscape:connector-curvature="0"
       id="path3535"
       d="m 53.81167,172.69772 c 1.17975,2.3595 1.17975,3.53925 1.17975,5.89875 9.438013,0 12.977262,10.61776 14.157016,11.79751 0,-14.15701 -12.977266,-17.69626 -15.336766,-17.69626 z"
       style="fill:#363636;fill-opacity:1;stroke:none;stroke-width:0.117975px;stroke-linecap:butt;stroke-linejoin:miter;stroke-opacity:1" />
    <path
       style="fill:#363636;fill-opacity:1;stroke:none;stroke-width:0.117975px;stroke-linecap:butt;stroke-linejoin:miter;stroke-opacity:1"
       d="m 51.45217,208.09025 c -1.17975,-2.3595 -1.17975,-3.53925 -1.17975,-5.89875 -9.43802,0 -12.97727,-10.61776 -14.15702,-11.79751 0,14.15701 12.97726,17.69626 15.33677,17.69626 z"
       id="path3537"
       inkscape:connector-curvature="0"
       sodipodi:nodetypes="cccc" />
    <path
       inkscape:connector-curvature="0"
       style="vector-effect:none;fill:#f89719;fill-opacity:1;stroke:none;stroke-width:0.442106;stroke-linecap:round;stroke-linejoin:round;stroke-miterlimit:4;stroke-dasharray:none;stroke-dashoffset:0;stroke-opacity:1"
       d="m 107.56291,175.51042 c -1.02877,0.59396 0.28824,4.80118 2.9417,9.39711 1.33874,2.31876 2.76157,4.29253 3.9753,5.60383 a 3.042657,3.042657 0 0 0 0.40326,1.40401 3.042657,3.042657 0 0 0 3.59161,1.36636 9.6090143,2.1509382 60 0 0 2.33147,4.74976 9.6090143,2.1509382 60 0 0 6.6673,7.24614 9.6090143,2.1509382 60 0 0 -2.9417,-9.39711 9.6090143,2.1509382 60 0 0 -3.97498,-5.60003 3.042657,3.042657 0 0 0 -0.40359,-1.40782 3.042657,3.042657 0 0 0 -3.5905,-1.36673 c -0.5641,-1.42438 -1.35702,-3.05967 -2.33258,-4.74938 -2.65345,-4.59593 -5.63851,-7.84011 -6.66729,-7.24614 z"
       id="path3541" />
    <path
       style="fill:#363636;fill-opacity:1;stroke:#363636;stroke-width:0.118;stroke-linecap:butt;stroke-linejoin:miter;stroke-miterlimit:4;stroke-dasharray:none;stroke-opacity:1"
       d="m 109.69177,174.4787 c 2.20144,1.45351 2.79132,2.4752 3.97107,4.51859 8.17356,-4.719 16.54752,2.70662 18.15909,3.13844 -7.0785,-12.26033 -20.08677,-8.83678 -22.13016,-7.65703 z"
       id="path3543"
       inkscape:connector-curvature="0"
       sodipodi:nodetypes="cccc" />
    <path
       sodipodi:nodetypes="cccc"
       inkscape:connector-curvature="0"
       id="path3545"
       d="m 125.34465,206.30928 c -2.20144,-1.45351 -2.79131,-2.4752 -3.97107,-4.51859 -8.17356,4.71901 -16.54751,-2.70662 -18.15908,-3.13844 7.07849,12.26033 20.08677,8.83679 22.13015,7.65703 z"
       style="fill:#363636;fill-opacity:1;stroke:none;stroke-width:0.117975px;stroke-linecap:butt;stroke-linejoin:miter;stroke-opacity:1" />
    <path
       inkscape:connector-curvature="0"
       style="vector-effect:none;fill:#f89719;fill-opacity:1;stroke:none;stroke-width:0.442106;stroke-linecap:round;stroke-linejoin:round;stroke-miterlimit:4;stroke-dasharray:none;stroke-dashoffset:0;stroke-opacity:1"
       d="m 37.74831,265.23566 c 0.59396,1.02878 4.80119,-0.28824 9.39711,-2.9417 2.31876,-1.33873 4.29253,-2.76157 5.60383,-3.9753 a 3.042657,3.042657 0 0 0 1.40401,-0.40326 3.042657,3.042657 0 0 0 1.36636,-3.59161 2.1509382,9.6090143 60 0 0 4.749768,-2.33147 2.1509382,9.6090143 60 0 0 7.246136,-6.6673 2.1509382,9.6090143 60 0 0 -9.39711,2.9417 2.1509382,9.6090143 60 0 0 -5.600034,3.97498 3.042657,3.042657 0 0 0 -1.40781,0.40359 3.042657,3.042657 0 0 0 -1.36673,3.59049 c -1.4244,0.56411 -3.05968,1.35703 -4.74939,2.33259 -4.59593,2.65346 -7.84011,5.63851 -7.24614,6.66729 z"
       id="path3549" />
    <path
       style="fill:#363636;fill-opacity:1;stroke:none;stroke-width:0.117975px;stroke-linecap:butt;stroke-linejoin:miter;stroke-opacity:1"
       d="m 36.71659,263.1068 c 1.45351,-2.20144 2.4752,-2.79132 4.51859,-3.97107 -4.719,-8.17356 2.70662,-16.54752 3.13844,-18.15909 -12.26033,7.07851 -8.83678,20.08678 -7.65703,22.13016 z"
       id="path3551"
       inkscape:connector-curvature="0"
       sodipodi:nodetypes="cccc" />
    <path
       sodipodi:nodetypes="cccc"
       inkscape:connector-curvature="0"
       id="path3553"
       d="m 68.547175,247.45392 c -1.453513,2.20145 -2.475203,2.79132 -4.518593,3.97107 4.719003,8.17356 -2.706621,16.54752 -3.138439,18.15909 12.260332,-7.0785 8.836787,-20.08676 7.657032,-22.13016 z"
       style="fill:#363636;fill-opacity:1;stroke:none;stroke-width:0.117975px;stroke-linecap:butt;stroke-linejoin:miter;stroke-opacity:1" />
    <path
       id="path3557"
       d="m 135.38547,254.10059 c 0,-1.18793 -4.30207,-2.15097 -9.60898,-2.15097 -2.67748,0 -5.09823,0.24532 -6.84071,0.6408 a 3.042657,3.042657 0 0 0 -1.41755,-0.35278 3.042657,3.042657 0 0 0 -2.9791,2.42725 9.6090143,2.1509382 0 0 0 -5.27915,-0.35577 9.6090143,2.1509382 0 0 0 -9.608982,2.15097 9.6090143,2.1509382 0 0 0 9.608982,2.15097 9.6090143,2.1509382 0 0 0 6.83725,-0.64241 3.042657,3.042657 0 0 0 1.421,0.35439 3.042657,3.042657 0 0 0 2.97888,-2.4261 c 1.51561,0.22367 3.32826,0.35462 5.27938,0.35462 5.30691,0 9.60898,-0.96304 9.60898,-2.15097 z"
       style="vector-effect:none;fill:#f89719;fill-opacity:1;stroke:none;stroke-width:0.442106;stroke-linecap:round;stroke-linejoin:round;stroke-miterlimit:4;stroke-dasharray:none;stroke-dashoffset:0;stroke-opacity:1"
       inkscape:connector-curvature="0" />
    <path
       sodipodi:nodetypes="cccc"
       inkscape:connector-curvature="0"
       id="path3559"
       d="m 135.21454,256.46009 c -2.3595,1.17975 -3.53925,1.17975 -5.89875,1.17975 0,9.43802 -10.61776,12.97726 -11.79752,14.15702 14.15702,0 17.69627,-12.97727 17.69627,-15.33677 z"
       style="fill:#363636;fill-opacity:1;stroke:none;stroke-width:0.117975px;stroke-linecap:butt;stroke-linejoin:miter;stroke-opacity:1" />
    <path
       style="fill:#363636;fill-opacity:1;stroke:none;stroke-width:0.117975px;stroke-linecap:butt;stroke-linejoin:miter;stroke-opacity:1"
       d="m 99.82201,254.10059 c 2.35949,-1.17975 3.53925,-1.17975 5.89876,-1.17975 0,-9.43801 10.61775,-12.97726 11.7975,-14.15701 -14.157,0 -17.69626,12.97726 -17.69626,15.33676 z"
       id="path3561"
       inkscape:connector-curvature="0"
       sodipodi:nodetypes="cccc" />
    <path
       id="path3563"
       d="M 77.646042,204.76532 A 22.053932,22.053932 0 0 1 67.00555,215.40796 c 5.9203,0.18358 8.607678,1.20802 8.607678,6.93123 v 0.99597 c 0,5.72112 -2.701957,6.74691 -8.610012,6.93104 a 22.053932,22.053932 0 0 1 10.64263,10.6403 c 0.183607,-5.92016 1.208085,-8.60749 6.931233,-8.60749 h 0.995986 c 5.721104,0 6.746901,2.70197 6.931037,8.61003 a 22.053932,22.053932 0 0 1 10.640108,-10.64265 c -5.920037,-0.18361 -8.607289,-1.20814 -8.607289,-6.93123 v -0.99597 c 0,-5.72111 2.701956,-6.74691 8.610009,-6.93104 A 22.053932,22.053932 0 0 1 92.504297,204.76784 c -0.183605,5.92018 -1.20808,8.60749 -6.931232,8.60749 h -0.995986 c -5.721098,0 -6.746896,-2.70196 -6.931037,-8.61001 z"
       style="vector-effect:none;fill:#363636;fill-opacity:1;stroke:#363636;stroke-width:3;stroke-linecap:round;stroke-linejoin:bevel;stroke-miterlimit:4;stroke-dasharray:none;stroke-dashoffset:0;stroke-opacity:1"
       inkscape:connector-curvature="0" />
  </g>
</svg>
