<?xml version="1.0" encoding="UTF-8" standalone="no"?>
<svg
   xmlns:dc="http://purl.org/dc/elements/1.1/"
   xmlns:cc="http://creativecommons.org/ns#"
   xmlns:rdf="http://www.w3.org/1999/02/22-rdf-syntax-ns#"
   xmlns:svg="http://www.w3.org/2000/svg"
   xmlns="http://www.w3.org/2000/svg"
   xmlns:sodipodi="http://sodipodi.sourceforge.net/DTD/sodipodi-0.dtd"
   xmlns:inkscape="http://www.inkscape.org/namespaces/inkscape"
   sodipodi:docname="smarthome.svg"
   inkscape:version="1.0.1 (3bc2e813f5, 2020-09-07)"
   id="svg8"
   version="1.1"
   viewBox="0 0 351.83195 61.566904"
   height="232.69382"
   width="1329.7585">
  <defs
     id="defs2">
    <inkscape:path-effect
       lpeversion="1"
       is_visible="true"
       id="path-effect7478"
       effect="spiro" />
    <inkscape:path-effect
       lpeversion="0"
       effect="spiro"
       id="path-effect7440"
       is_visible="true" />
    <inkscape:path-effect
       lpeversion="0"
       is_visible="true"
       id="path-effect7436"
       effect="spiro" />
    <inkscape:path-effect
       lpeversion="0"
       effect="spiro"
       id="path-effect7432"
       is_visible="true" />
    <inkscape:path-effect
       lpeversion="0"
       effect="spiro"
       id="path-effect7428"
       is_visible="true" />
    <inkscape:path-effect
       lpeversion="0"
       effect="spiro"
       id="path-effect4855"
       is_visible="true" />
    <inkscape:path-effect
       lpeversion="0"
       is_visible="true"
       id="path-effect4851"
       effect="spiro" />
    <inkscape:path-effect
       lpeversion="0"
       effect="spiro"
       id="path-effect4847"
       is_visible="true" />
    <inkscape:path-effect
       lpeversion="0"
       effect="spiro"
       id="path-effect4843"
       is_visible="true" />
    <inkscape:path-effect
       lpeversion="0"
       effect="spiro"
       id="path-effect4821"
       is_visible="true" />
    <inkscape:path-effect
       lpeversion="0"
       is_visible="true"
       id="path-effect4817"
       effect="spiro" />
    <inkscape:path-effect
       lpeversion="0"
       effect="spiro"
       id="path-effect4813"
       is_visible="true" />
    <inkscape:path-effect
       lpeversion="0"
       effect="spiro"
       id="path-effect4809"
       is_visible="true" />
    <inkscape:path-effect
       lpeversion="0"
       is_visible="true"
       id="path-effect4805"
       effect="spiro" />
    <inkscape:path-effect
       lpeversion="0"
       effect="spiro"
       id="path-effect4801"
       is_visible="true" />
    <inkscape:path-effect
       lpeversion="0"
       is_visible="true"
       id="path-effect4797"
       effect="spiro" />
    <inkscape:path-effect
       lpeversion="0"
       is_visible="true"
       id="path-effect4793"
       effect="spiro" />
    <inkscape:path-effect
       hide_knot="false"
       lpeversion="0"
       fuse_tolerance="0"
       vertical_pattern="false"
       prop_units="false"
       tang_offset="0"
       normal_offset="0"
       spacing="0"
       scale_y_rel="false"
       prop_scale="0.26458334"
       copytype="single_stretched"
       pattern="M 0,5 C 0,2.24 2.24,0 5,0 7.76,0 10,2.24 10,5 10,7.76 7.76,10 5,10 2.24,10 0,7.76 0,5 Z"
       is_visible="true"
       id="path-effect4695"
       effect="skeletal" />
  </defs>
  <sodipodi:namedview
     inkscape:guide-bbox="true"
     showguides="true"
     inkscape:document-rotation="0"
     units="px"
     fit-margin-left="5"
     fit-margin-bottom="5"
     fit-margin-right="5"
     fit-margin-top="5"
     inkscape:window-maximized="1"
     inkscape:window-y="0"
     inkscape:window-x="0"
     inkscape:window-height="713"
     inkscape:window-width="1366"
     showgrid="false"
     inkscape:current-layer="layer1"
     inkscape:document-units="mm"
     inkscape:cy="73.179291"
     inkscape:cx="452.19979"
     inkscape:zoom="0.35"
     inkscape:pageshadow="2"
     inkscape:pageopacity="0.0"
     borderopacity="1.0"
     bordercolor="#666666"
     pagecolor="#ffffff"
     id="base">
    <inkscape:grid
       originy="-45.252229"
       originx="-11.311696"
       spacingy="2.6458333"
       spacingx="2.6458333"
       id="grid4582"
       type="xygrid" />
  </sodipodi:namedview>
  <metadata
     id="metadata5">
    <rdf:RDF>
      <cc:Work
         rdf:about="">
        <dc:format>image/svg+xml</dc:format>
        <dc:type
           rdf:resource="http://purl.org/dc/dcmitype/StillImage" />
        <dc:title />
      </cc:Work>
    </rdf:RDF>
  </metadata>
  <g
     transform="translate(-11.311695,-222.71926)"
     id="layer1"
     inkscape:groupmode="layer"
     inkscape:label="1. réteg">
    <path
       sodipodi:nodetypes="ccccccccccccccccssssssscccccccccc"
       d="m 40.210046,232.92961 -19.61156,16.08221 v 12.50839 h 6.418329 l 2.496017,2.50168 v 7.50503 l -2.496017,2.50168 h -6.418329 v 5.36074 l 3.565738,3.57382 h 15.007093 v -3.33057 h -1.074598 v -3.37908 l -0.51153,-0.0715 0.464869,-3.34523 c 0.230937,-1.66101 -0.06689,-3.44892 -0.822835,-4.94507 -0.723654,-1.43226 -2.385158,-3.18476 -3.562604,-6.00186 -1.646598,-3.93957 -1.215591,-8.45941 1.144935,-12.01559 2.360528,-3.55618 6.354122,-5.70102 10.615732,-5.70102 4.261612,0 8.253812,2.14484 10.61434,5.70102 2.360527,3.55618 2.791533,8.07602 1.144935,12.01559 -1.177446,2.8171 -2.83895,4.5696 -3.562604,6.00186 -0.75594,1.49615 -1.053422,3.28406 -0.822487,4.94507 l 0.464521,3.34523 -0.510138,0.0712 v 3.37943 h -1.07564 v 3.33057 l 6.360555,4e-5 1.782869,-1.78691 -3e-5,-32.16447 z"
       style="color:#000000;font-style:normal;font-variant:normal;font-weight:normal;font-stretch:normal;font-size:medium;line-height:normal;font-family:sans-serif;font-variant-ligatures:normal;font-variant-position:normal;font-variant-caps:normal;font-variant-numeric:normal;font-variant-alternates:normal;font-variant-east-asian:normal;font-feature-settings:normal;font-variation-settings:normal;text-indent:0;text-align:start;text-decoration:none;text-decoration-line:none;text-decoration-style:solid;text-decoration-color:#000000;letter-spacing:normal;word-spacing:normal;text-transform:none;writing-mode:lr-tb;direction:ltr;text-orientation:mixed;dominant-baseline:auto;baseline-shift:baseline;text-anchor:start;white-space:normal;shape-padding:0;shape-margin:0;inline-size:0;clip-rule:nonzero;display:inline;overflow:visible;visibility:visible;isolation:auto;mix-blend-mode:normal;color-interpolation:sRGB;color-interpolation-filters:linearRGB;solid-color:#000000;solid-opacity:1;vector-effect:none;fill:#f89719;fill-opacity:1;fill-rule:nonzero;stroke:none;stroke-width:3.00001;stroke-linecap:square;stroke-linejoin:bevel;stroke-miterlimit:4;stroke-dasharray:none;stroke-dashoffset:0;stroke-opacity:1;color-rendering:auto;image-rendering:auto;shape-rendering:auto;text-rendering:auto;enable-background:accumulate;stop-color:#000000"
       id="path7449" />
    <path
       sodipodi:nodetypes="cccccc"
       inkscape:original-d="m 41.858372,271.3736 c 0,-2.04265 -0.631369,-4.78706 -1.019021,-6.12798 -0.95223,-3.29383 -2.112536,-1.79399 -3.057059,-5.10665 -0.967802,-3.39434 15.371266,-5.01059 15.285294,0 -0.01695,0.9863 -2.14151,3.77299 -3.057059,5.10665 -1.993235,2.90352 -1.019022,4.08533 -1.019022,6.12798"
       inkscape:path-effect="#path-effect4793"
       inkscape:connector-curvature="0"
       id="path4791"
       d="m 41.858372,271.3736 c 0.290669,-2.08265 -0.06999,-4.25148 -1.019021,-6.12798 -0.896608,-1.77284 -2.292503,-3.27299 -3.057059,-5.10665 -1.044071,-2.50403 -0.752228,-5.52141 0.752383,-7.77893 1.504611,-2.25752 4.177286,-3.68811 6.890264,-3.68811 2.712977,0 5.385653,1.43059 6.890264,3.68811 1.504611,2.25752 1.796454,5.2749 0.752383,7.77893 -0.764556,1.83366 -2.160451,3.33381 -3.057059,5.10665 -0.949035,1.8765 -1.30969,4.04533 -1.019022,6.12798"
       style="fill:none;stroke:#363636;stroke-width:3;stroke-linecap:square;stroke-linejoin:bevel;stroke-miterlimit:4;stroke-dasharray:none;stroke-opacity:1" />
    <path
       inkscape:original-d="m 41.858371,274.96323 c 2.377811,-1e-4 4.755527,-1e-4 7.133135,0"
       inkscape:path-effect="#path-effect4797"
       inkscape:connector-curvature="0"
       id="path4795"
       d="m 41.858371,274.96323 h 7.133135"
       style="fill:none;stroke:#363636;stroke-width:1.5;stroke-linecap:square;stroke-linejoin:bevel;stroke-miterlimit:4;stroke-dasharray:none;stroke-opacity:1" />
    <path
       sodipodi:nodetypes="cc"
       style="fill:none;stroke:#363636;stroke-width:1.5;stroke-linecap:square;stroke-linejoin:bevel;stroke-miterlimit:4;stroke-dasharray:none;stroke-opacity:1"
       d="m 42.877389,277.60245 h 5.095099"
       id="path4799"
       inkscape:connector-curvature="0"
       inkscape:path-effect="#path-effect4801"
       inkscape:original-d="m 42.877389,277.60245 c 2.377812,-10e-5 2.717491,-10e-5 5.095099,0" />
    <path
       inkscape:original-d="m 43.896411,280.2415 c 2.377812,-1.1e-4 0.679451,-1.1e-4 3.057059,0"
       inkscape:path-effect="#path-effect4805"
       inkscape:connector-curvature="0"
       id="path4803"
       d="M 43.896411,280.2415 H 46.95347"
       style="fill:none;stroke:#363636;stroke-width:1.5;stroke-linecap:square;stroke-linejoin:bevel;stroke-miterlimit:4;stroke-dasharray:none;stroke-opacity:1"
       sodipodi:nodetypes="cc" />
    <path
       sodipodi:nodetypes="ccccc"
       inkscape:connector-curvature="0"
       id="path4823"
       d="m 42.877395,260.13897 1.273772,2.04266 1.273773,-2.04266 1.273773,2.04266 1.27378,-2.04266"
       style="fill:none;stroke:#363636;stroke-width:1.5;stroke-linecap:square;stroke-linejoin:bevel;stroke-miterlimit:4;stroke-dasharray:none;stroke-opacity:1" />
    <g
       aria-label="SmartHome"
       id="text4907"
       style="font-style:normal;font-variant:normal;font-weight:normal;font-stretch:normal;font-size:48.3728px;line-height:132.815px;font-family:'Libre Franklin';-inkscape-font-specification:'Libre Franklin';letter-spacing:0px;word-spacing:0px;fill:#363636;fill-opacity:1;stroke:none;stroke-width:0.243705">
      <path
         d="m 107.96007,251.90789 c 0.48372,0.5321 0.67722,0.62884 1.0642,0.33861 l 3.43447,-2.56376 c 0.48372,-0.38698 0.24186,-0.77397 0,-1.11258 -2.46702,-3.04748 -6.96569,-4.98239 -12.14158,-4.98239 -8.029881,0 -13.302516,4.40192 -13.302516,10.59364 0,4.20843 2.708877,8.07826 8.271749,9.7713 l 7.304297,2.22515 c 3.48284,1.16095 4.49867,2.56376 4.49867,4.49867 0,3.24098 -2.95074,4.69217 -7.449415,4.69217 -4.401925,0 -6.481955,-1.40282 -8.900595,-4.49867 -0.290237,-0.38699 -0.725592,-0.53211 -1.451184,-0.0484 l -3.047487,2.12841 c -0.580473,0.43535 -0.580473,0.77396 -0.290236,1.30606 2.563758,3.9182 7.836393,6.19172 14.124857,6.19172 8.56199,0 13.88299,-4.11169 13.88299,-10.69039 0,-4.59542 -2.46701,-8.12663 -8.36849,-9.91642 l -7.449412,-2.22515 c -3.62796,-1.16095 -4.305179,-2.99912 -4.305179,-4.30518 0,-2.75725 2.273521,-4.59542 6.627071,-4.59542 3.9182,0 5.99823,1.49956 7.49779,3.19261 z"
         style="font-style:normal;font-variant:normal;font-weight:600;font-stretch:normal;font-size:48.3728px;font-family:'Libre Franklin';-inkscape-font-specification:'Libre Franklin Semi-Bold';fill:#363636;fill-opacity:1;stroke-width:0.243705"
         id="path2417" />
      <path
         d="m 120.00484,279.96411 h 4.30518 c 0.82234,0 1.11258,-0.29024 1.11258,-0.96745 v -17.22072 c 2.1284,-2.22515 3.77308,-3.28935 5.99822,-3.28935 2.56376,0 3.77308,1.49956 3.77308,3.96657 v 16.64024 c 0,0.62885 0.29024,0.87071 0.82234,0.87071 h 4.4503 c 0.67722,0 1.01583,-0.33861 1.01583,-1.01583 v -16.35 c 0,-0.5321 0.14511,-0.91909 0.58047,-1.40281 1.20932,-1.20932 3.1926,-2.70888 5.41775,-2.70888 2.51539,0 3.77308,1.49956 3.77308,3.96657 v 16.64024 c 0,0.62885 0.24187,0.87071 0.82234,0.87071 h 4.4503 c 0.72559,0 1.01583,-0.33861 1.01583,-1.01583 V 261.4857 c 0,-4.74053 -2.80563,-7.6429 -7.40104,-7.6429 -3.09586,0 -6.0466,1.78979 -8.56199,4.30518 -0.29023,0.29024 -0.58047,0.33861 -0.67722,0.0967 -0.87071,-2.51538 -3.24097,-4.45029 -6.86893,-4.45029 -3.09586,0 -5.56288,1.54793 -8.22338,3.96657 -0.33861,0.29023 -0.5321,0.19349 -0.5321,-0.19349 v -2.51539 c 0,-0.48373 -0.19349,-0.72559 -0.67722,-0.72559 h -4.78891 c -0.43535,0 -0.67722,0.29023 -0.67722,0.82234 v 23.94453 c 0,0.62885 0.24187,0.87071 0.87071,0.87071 z"
         style="font-style:normal;font-variant:normal;font-weight:600;font-stretch:normal;font-size:48.3728px;font-family:'Libre Franklin';-inkscape-font-specification:'Libre Franklin Semi-Bold';fill:#363636;fill-opacity:1;stroke-width:0.243705"
         id="path2419" />
      <path
         d="m 177.47171,277.30361 c 0.5321,-0.5321 0.87071,-0.48373 0.91908,0.0484 l 0.0967,1.45118 c 0.0484,0.67722 0.24187,1.16095 0.87071,1.16095 h 4.11169 c 0.62885,0 0.82234,-0.24186 0.82234,-0.96745 v -17.02723 c 0,-4.93403 -3.04749,-8.12663 -10.44852,-8.12663 -5.61125,0 -9.48107,1.93491 -11.17412,5.56287 -0.33861,0.77397 -0.14512,0.96746 0.19349,1.0642 l 4.06332,1.01583 c 0.58047,0.14512 0.72559,0.0484 0.91908,-0.38698 1.45118,-2.27352 3.48284,-3.1926 5.70799,-3.1926 2.99911,0 4.74053,1.69304 4.74053,4.49867 v 1.11257 c 0,0.5321 -0.38698,0.67722 -0.77396,0.72559 l -2.41864,0.14512 c -8.61036,0.33861 -13.54439,3.67633 -13.54439,8.99734 0,4.16006 2.99912,7.06243 7.93314,7.06243 3.24098,0 5.80474,-1.16095 7.98152,-3.14423 z m 0.82233,-9.04572 v 3.43447 c 0,1.0642 -0.72559,2.08003 -1.83816,2.95074 -1.11258,0.91909 -2.61213,1.54793 -4.35355,1.54793 -2.70888,0 -4.40193,-1.35444 -4.40193,-3.57958 0,-3.14424 3.72471,-4.74054 7.88477,-5.03078 l 1.98328,-0.14511 c 0.5321,0 0.72559,0.24186 0.72559,0.82233 z"
         style="font-style:normal;font-variant:normal;font-weight:600;font-stretch:normal;font-size:48.3728px;font-family:'Libre Franklin';-inkscape-font-specification:'Libre Franklin Semi-Bold';fill:#363636;fill-opacity:1;stroke-width:0.243705"
         id="path2421" />
      <path
         d="m 191.20952,279.96411 h 4.30518 c 0.77396,0 1.11257,-0.29024 1.11257,-0.96745 v -14.80208 c 0,-2.37027 3.24098,-4.69216 5.80474,-4.69216 0.87071,0 2.03165,0.0967 2.99911,0.33861 0.38698,0.0484 0.62885,-0.14512 0.62885,-0.58048 v -4.64379 c 0,-0.5321 -0.58048,-0.77396 -1.74142,-0.77396 -2.41864,0 -5.17589,1.5963 -7.3043,4.30518 -0.29023,0.38698 -0.62884,0.29024 -0.62884,-0.14512 v -2.95074 c 0,-0.48373 -0.24187,-0.72559 -0.67722,-0.72559 h -4.69216 c -0.43536,0 -0.67722,0.29023 -0.67722,0.82234 v 23.94453 c 0,0.58047 0.24186,0.87071 0.87071,0.87071 z"
         style="font-style:normal;font-variant:normal;font-weight:600;font-stretch:normal;font-size:48.3728px;font-family:'Libre Franklin';-inkscape-font-specification:'Libre Franklin Semi-Bold';fill:#363636;fill-opacity:1;stroke-width:0.243705"
         id="path2423" />
      <path
         d="m 225.07044,258.72845 c 0.58048,0 0.82234,-0.29023 0.82234,-0.72559 v -3.04749 c 0,-0.43535 -0.29024,-0.67721 -0.72559,-0.67721 h -5.46613 c -0.29023,0 -0.43535,-0.14512 -0.43535,-0.43536 v -7.40104 c 0,-0.5321 -0.29024,-0.82234 -0.67722,-0.82234 h -4.30518 c -0.48373,0 -0.62885,0.24187 -0.67722,0.77397 l -0.62885,7.44941 c 0,0.29024 -0.14511,0.48373 -0.43535,0.48373 h -3.57959 c -0.48373,0 -0.72559,0.19349 -0.72559,0.62884 v 3.04749 c 0,0.43536 0.19349,0.72559 0.77396,0.72559 h 3.24098 c 0.43536,0 0.58048,0.19349 0.58048,0.62885 v 14.46347 c 0,4.16006 2.41864,6.14334 6.72381,6.14334 1.54793,0 3.86983,-0.0484 5.32101,-0.29024 0.62885,-0.0967 0.91909,-0.38698 0.91909,-0.96745 l 0.0484,-2.51539 c 0,-0.38698 -0.29024,-0.67722 -0.67722,-0.67722 h -2.854 c -2.17677,0 -3.1926,-0.82233 -3.1926,-3.33772 v -12.91554 c 0,-0.38698 0.19349,-0.5321 0.48373,-0.5321 z"
         style="font-style:normal;font-variant:normal;font-weight:600;font-stretch:normal;font-size:48.3728px;font-family:'Libre Franklin';-inkscape-font-specification:'Libre Franklin Semi-Bold';fill:#363636;fill-opacity:1;stroke-width:0.243705"
         id="path2425" />
      <path
         d="m 253.12666,263.17875 c 0.29023,0 0.43535,0.14512 0.43535,0.43536 v 15.62441 c 0,0.5321 0.24187,0.72559 0.82234,0.72559 h 3.14423 c 0.48373,0 0.67722,-0.19349 0.67722,-0.67722 v -34.53818 c 0,-0.48372 -0.14512,-0.67722 -0.58047,-0.67722 h -3.53122 c -0.33861,0 -0.5321,0.1935 -0.5321,0.58048 v 14.26997 c 0,0.38699 -0.14512,0.58048 -0.48372,0.58048 h -15.86628 c -0.38699,0 -0.5321,-0.14512 -0.5321,-0.58048 v -14.2216 c 0,-0.43535 -0.1935,-0.62885 -0.58048,-0.62885 h -3.48284 c -0.38698,0 -0.58047,0.1935 -0.58047,0.67722 v 34.53818 c 0,0.48373 0.14512,0.67722 0.67722,0.67722 h 3.14423 c 0.58047,0 0.82234,-0.19349 0.82234,-0.72559 v -15.67279 c 0,-0.19349 0.14511,-0.38698 0.38698,-0.38698 z"
         style="font-style:normal;font-variant:normal;font-weight:normal;font-stretch:normal;font-family:'Libre Franklin';-inkscape-font-specification:'Libre Franklin'"
         id="path2427" />
      <path
         d="m 277.36136,280.44784 c 7.3043,0 12.23832,-5.46613 12.23832,-13.20577 0,-7.8364 -4.88565,-13.39927 -12.18994,-13.39927 -7.20755,0 -12.2867,5.5145 -12.2867,13.44764 0,7.73965 4.88566,13.1574 12.23832,13.1574 z m 0.0967,-3.04749 c -5.07915,0 -8.175,-3.91819 -8.175,-10.25503 0,-6.33684 3.09585,-10.30341 8.12663,-10.30341 4.98239,0 8.02988,3.96657 8.02988,10.30341 0,6.38521 -2.95074,10.25503 -7.98151,10.25503 z"
         style="font-style:normal;font-variant:normal;font-weight:normal;font-stretch:normal;font-family:'Libre Franklin';-inkscape-font-specification:'Libre Franklin'"
         id="path2429" />
      <path
         d="m 296.27509,279.96411 h 2.6605 c 0.5321,0 0.72559,-0.19349 0.72559,-0.72559 V 260.9536 c 2.95074,-2.61213 4.83728,-3.9182 7.59453,-3.9182 3.24098,0 4.64379,1.88654 4.64379,5.03078 v 17.26908 c 0,0.43536 0.24186,0.62885 0.62885,0.62885 h 2.70887 c 0.43536,0 0.7256,-0.24186 0.7256,-0.77396 v -17.46258 c 0,-0.58048 0.19349,-0.91909 0.67721,-1.40282 1.59631,-1.40281 4.01495,-3.28935 6.91731,-3.28935 3.19261,0 4.64379,1.88654 4.64379,5.03078 v 17.26908 c 0,0.43536 0.19349,0.62885 0.62885,0.62885 h 2.70888 c 0.48372,0 0.72559,-0.24186 0.72559,-0.77396 v -17.99468 c 0,-4.4503 -2.70888,-7.35267 -7.40104,-7.35267 -3.1926,0 -5.70799,1.5963 -8.75548,4.16006 -0.29023,0.24186 -0.58047,0.38698 -0.67722,0.0967 -0.77396,-2.22515 -3.04748,-4.25681 -6.86893,-4.25681 -3.24098,0 -5.46613,1.45118 -8.56199,3.96657 -0.33861,0.29024 -0.48373,0.19349 -0.48373,-0.14512 v -2.80562 c 0,-0.33861 -0.14511,-0.5321 -0.48372,-0.5321 h -2.90237 c -0.33861,0 -0.5321,0.24186 -0.5321,0.62884 v 24.37989 c 0,0.43536 0.19349,0.62885 0.67722,0.62885 z"
         style="font-style:normal;font-variant:normal;font-weight:normal;font-stretch:normal;font-family:'Libre Franklin';-inkscape-font-specification:'Libre Franklin'"
         id="path2431" />
      <path
         d="m 342.13241,268.74162 c 0,-0.43535 0.14512,-0.72559 0.43536,-0.72559 h 18.52678 c 0.77396,0 0.72559,-0.5321 0.72559,-1.0642 0,-8.27175 -4.64379,-13.10903 -11.65784,-13.10903 -6.91731,0 -12.23832,5.17589 -12.23832,13.54438 0,7.73965 5.12752,13.06066 12.28669,13.06066 4.78891,0 8.175,-1.64468 10.73876,-5.56287 0.19349,-0.29024 0.14512,-0.5321 -0.0967,-0.67722 l -2.03166,-1.01583 c -0.29024,-0.14512 -0.43536,-0.0967 -0.67722,0.14512 -1.83817,2.70887 -4.30518,4.01494 -7.54616,4.01494 -4.74053,0 -8.46524,-3.86982 -8.46524,-8.61036 z m 0.0967,-3.38609 c -0.0484,-4.30518 2.85399,-8.61036 8.02988,-8.61036 4.74054,0 7.49779,3.77308 7.49779,7.93314 0,0.58047 -0.14512,0.67722 -0.82234,0.67722 z"
         style="font-style:normal;font-variant:normal;font-weight:normal;font-stretch:normal;font-family:'Libre Franklin';-inkscape-font-specification:'Libre Franklin'"
         id="path2433" />
    </g>
    <path
       sodipodi:nodetypes="ccc"
       id="path7505"
       d="M 14.06133,247.22495 40.210076,225.782 66.358824,247.22495"
       style="fill:none;stroke:#363636;stroke-width:4.5;stroke-linecap:butt;stroke-linejoin:bevel;stroke-miterlimit:4;stroke-dasharray:none;stroke-opacity:1" />
    <path
       style="color:#000000;font-style:normal;font-variant:normal;font-weight:normal;font-stretch:normal;font-size:medium;line-height:normal;font-family:sans-serif;font-variant-ligatures:normal;font-variant-position:normal;font-variant-caps:normal;font-variant-numeric:normal;font-variant-alternates:normal;font-variant-east-asian:normal;font-feature-settings:normal;font-variation-settings:normal;text-indent:0;text-align:start;text-decoration:none;text-decoration-line:none;text-decoration-style:solid;text-decoration-color:#000000;letter-spacing:normal;word-spacing:normal;text-transform:none;writing-mode:lr-tb;direction:ltr;text-orientation:mixed;dominant-baseline:auto;baseline-shift:baseline;text-anchor:start;white-space:normal;shape-padding:0;shape-margin:0;inline-size:0;clip-rule:nonzero;display:inline;overflow:visible;visibility:visible;opacity:1;isolation:auto;mix-blend-mode:normal;color-interpolation:sRGB;color-interpolation-filters:linearRGB;solid-color:#000000;solid-opacity:1;vector-effect:none;fill:#363636;fill-opacity:1;fill-rule:nonzero;stroke:none;stroke-width:4.5;stroke-linecap:square;stroke-linejoin:bevel;stroke-miterlimit:4;stroke-dasharray:none;stroke-dashoffset:0;stroke-opacity:1;color-rendering:auto;image-rendering:auto;shape-rendering:auto;text-rendering:auto;enable-background:accumulate;stop-color:#000000;stop-opacity:1"
       d="m 20.598517,263.30716 -1.78287,1.78692 v 5.36073 l 1.78287,1.78691 h 5.348607 l 1.782869,-1.78691 v -5.36073 l -1.782869,-1.78692 z m 1.782868,3.57383 h 1.782869 v 1.78691 h -1.782869 z"
       id="path7532"
       sodipodi:nodetypes="cccccccccccccc" />
  </g>
</svg>
