<?xml version="1.0" encoding="UTF-8"?>
<svg width="500px" height="500px" viewBox="0 0 500 500" version="1.1" xmlns="http://www.w3.org/2000/svg" xmlns:xlink="http://www.w3.org/1999/xlink">
    <!-- Generator: Sketch 39.1 (31720) - http://www.bohemiancoding.com/sketch -->
    <title>icon-sprite</title>
    <desc>Created with Sketch.</desc>
    <defs>
        <circle id="path-1" cx="75" cy="75" r="75"/>
        <circle id="path-3" cx="75" cy="75" r="75"/>
        <path d="M31.001,15.73 C30.035,14.902 28.58,15.019 27.755,15.989 L20.19,24.857 L16.408,21.609 C15.441,20.782 13.988,20.892 13.161,21.857 C12.332,22.823 12.444,24.275 13.409,25.103 L18.942,29.855 C19.364,30.213 19.893,30.411 20.442,30.411 C20.504,30.411 20.561,30.409 20.624,30.404 C21.231,30.357 21.8,30.068 22.196,29.603 L31.262,18.976 C32.084,18.009 31.971,16.557 31.001,15.73 L31.001,15.73 Z" id="path-5"/>
        <mask id="mask-6" maskContentUnits="userSpaceOnUse" maskUnits="objectBoundingBox" x="0" y="0" width="19.2053182" height="15.2331084" fill="white">
            <use xlink:href="#path-5"/>
        </mask>
    </defs>
    <g id="Page-1" stroke="none" stroke-width="1" fill="none" fill-rule="evenodd">
        <g id="icon-sprite">
            <path d="M15,-5.46397416e-14 C6.71616462,-5.46397416e-14 -5.84079996e-14,6.71616462 -5.84079996e-14,15 C-5.84079996e-14,23.2838354 6.71616462,30 15,30 C23.2838354,30 30,23.2838354 30,15 C30,6.71616462 23.2838354,-5.46397416e-14 15,-5.46397416e-14 L15,-5.46397416e-14 Z M14.7645312,24.4187527 C13.3305049,24.4187527 12.3568095,23.362325 12.3568095,21.9558761 C12.3568095,20.5197285 13.3580823,19.4929996 14.7645312,19.4929996 C16.2261349,19.4929996 17.1743742,20.5197285 17.1998303,21.9558761 C17.1998303,23.362325 16.2261349,24.4187527 14.7645312,24.4187527 L14.7645312,24.4187527 Z M18.0398812,14.3508697 C17.0386084,15.4582096 16.6334323,16.5167586 16.6610098,17.7322868 L16.6610098,18.2201952 L13.063216,18.2201952 L13.0356385,17.5159101 C12.9550276,16.1349173 13.4153585,14.7284684 14.6308867,13.2668647 C15.4985151,12.2380144 16.2028002,11.3725074 16.2028002,10.4518456 C16.2028002,9.50360628 15.579126,8.88205346 14.2235893,8.8268986 C13.3326262,8.8268986 12.2486211,9.15146373 11.544336,9.63937208 L10.6236742,6.68858719 C11.5973695,6.12006788 13.2223165,5.57912601 15.1442512,5.57912601 C18.7165889,5.57912601 20.3415359,7.55409419 20.3415359,9.80271532 C20.3415359,11.8604158 19.0687314,13.2138311 18.0398812,14.3508697 L18.0398812,14.3508697 Z" id="Shape" fill="#FFFFFF"/>
            <path d="M15,60 C6.71616462,60 -5.84079996e-14,66.7161646 -5.84079996e-14,75 C-5.84079996e-14,83.2838354 6.71616462,90 15,90 C23.2838354,90 30,83.2838354 30,75 C30,66.7161646 23.2838354,60 15,60 L15,60 Z M14.7645312,84.4187527 C13.3305049,84.4187527 12.3568095,83.362325 12.3568095,81.9558761 C12.3568095,80.5197285 13.3580823,79.4929996 14.7645312,79.4929996 C16.2261349,79.4929996 17.1743742,80.5197285 17.1998303,81.9558761 C17.1998303,83.362325 16.2261349,84.4187527 14.7645312,84.4187527 L14.7645312,84.4187527 Z M18.0398812,74.3508697 C17.0386084,75.4582096 16.6334323,76.5167586 16.6610098,77.7322868 L16.6610098,78.2201952 L13.063216,78.2201952 L13.0356385,77.5159101 C12.9550276,76.1349173 13.4153585,74.7284684 14.6308867,73.2668647 C15.4985151,72.2380144 16.2028002,71.3725074 16.2028002,70.4518456 C16.2028002,69.5036063 15.579126,68.8820535 14.2235893,68.8268986 C13.3326262,68.8268986 12.2486211,69.1514637 11.544336,69.6393721 L10.6236742,66.6885872 C11.5973695,66.1200679 13.2223165,65.579126 15.1442512,65.579126 C18.7165889,65.579126 20.3415359,67.5540942 20.3415359,69.8027153 C20.3415359,71.8604158 19.0687314,73.2138311 18.0398812,74.3508697 L18.0398812,74.3508697 Z" id="Shape" fill="#6A6A6A"/>
            <g id="image" transform="translate(50.000000, 0.000000)" fill="#FFFFFF">
                <path d="M0,0 L0,30 L40,30 L40,0 L0,0 L0,0 Z M37.5,27.5 L2.5,27.5 L2.5,2.5 L37.5,2.5 L37.5,27.5 L37.5,27.5 Z" id="Shape"/>
                <circle id="Oval" cx="31.25" cy="8.75" r="3.75"/>
                <path d="M25.2775,15.0525 C23.005,15.0525 23.24,19.8925 20.1275,19.8925 C17.0225,19.8925 15.3325,7.51 11.47,7.51 C7.61,7.51 5.01,25.0625 5.01,25.0625 L35.375,25.0625 C35.375,25.0625 27.5525,15.0525 25.2775,15.0525 L25.2775,15.0525 Z" id="Shape"/>
            </g>
            <g id="image" transform="translate(50.000000, 60.000000)" fill="#6A6A6A">
                <path d="M0,0 L0,30 L40,30 L40,0 L0,0 L0,0 Z M37.5,27.5 L2.5,27.5 L2.5,2.5 L37.5,2.5 L37.5,27.5 L37.5,27.5 Z" id="Shape"/>
                <circle id="Oval" cx="31.25" cy="8.75" r="3.75"/>
                <path d="M25.2775,15.0525 C23.005,15.0525 23.24,19.8925 20.1275,19.8925 C17.0225,19.8925 15.3325,7.51 11.47,7.51 C7.61,7.51 5.01,25.0625 5.01,25.0625 L35.375,25.0625 C35.375,25.0625 27.5525,15.0525 25.2775,15.0525 L25.2775,15.0525 Z" id="Shape"/>
            </g>
            <g id="robot" transform="translate(110.000000, 0.000000)" fill="#FFFFFF">
                <path d="M9.73298077,0.6328125 L9.73298077,2.49975 L8.58157343,2.49975 C7.31074301,2.49975 6.2769493,3.463875 6.2769493,4.6490625 L6.2769493,10.153125 C6.2769493,11.3383125 7.31074301,12.3024375 8.58157343,12.3024375 L9.75951923,12.3024375 L9.75951923,13.6569375 L5.22144231,13.6569375 L5.20515734,13.6569375 L1.39326923,13.6569375 C1.06033217,13.6569375 0.790122378,13.9089375 0.790122378,14.2194375 L0.790122378,26.41725 C0.790122378,26.7283125 1.06033217,26.97975 1.39326923,26.97975 L4.60201049,26.97975 L4.60201049,28.294875 C4.10019231,27.83025 3.40958916,27.541125 2.64781469,27.541125 C1.11763112,27.541125 -0.127263986,28.702125 -0.127263986,30.12975 C-0.127263986,30.9065625 0.242465035,31.63725 0.887229021,32.1316875 C1.14477273,32.3296875 1.52475524,32.29425 1.73645979,32.052375 C1.94756119,31.81275 1.91076923,31.4578125 1.65322552,31.2615 C1.28892483,30.9825 1.07963287,30.5701875 1.07963287,30.12975 C1.07963287,29.322 1.78350524,28.666125 2.64841783,28.666125 C3.51333042,28.666125 4.2172028,29.322 4.2172028,30.12975 C4.2172028,30.655125 3.91381993,31.1405625 3.42466783,31.402125 C3.13576049,31.5545625 3.03503497,31.8999375 3.2002972,32.1688125 C3.31127622,32.3499375 3.51513986,32.4523125 3.72443182,32.4523125 C3.82576049,32.4523125 3.92829545,32.428125 4.02298951,32.3775 C4.23770979,32.2633125 4.43192308,32.1238125 4.60261364,31.966875 L4.60261364,44.3683125 C4.60261364,44.679375 4.87282343,44.9308125 5.20576049,44.9308125 L12.489965,44.9308125 C12.8229021,44.9308125 13.0931119,44.679375 13.0931119,44.3683125 L13.0931119,42.7224375 L13.4290647,42.7224375 L13.4290647,44.3683125 C13.4290647,44.67825 13.6980682,44.9308125 14.0316084,44.9308125 L21.3152098,44.9308125 C21.64875,44.9308125 21.9183566,44.67825 21.9183566,44.3683125 L21.9183566,31.9483125 C22.0938724,32.11425 22.2929108,32.2605 22.515472,32.3780625 C22.6095629,32.4286875 22.7120979,32.452875 22.8134266,32.452875 C23.0233217,32.452875 23.2271853,32.3505 23.3375612,32.169375 C23.5022203,31.8999375 23.4008916,31.555125 23.1125874,31.4026875 C22.6234353,31.141125 22.3206556,30.6556875 22.3206556,30.1303125 C22.3206556,29.3225625 23.0239248,28.6666875 23.8888374,28.6666875 C24.7549563,28.6666875 25.4594318,29.3225625 25.4594318,30.1303125 C25.4594318,30.569625 25.2483304,30.9830625 24.8858392,31.2620625 C24.6276923,31.4600625 24.5915035,31.8133125 24.8020017,32.0529375 C25.0143094,32.2948125 25.3930857,32.3274375 25.6500262,32.13225 C26.2953934,31.6378125 26.6657255,30.90825 26.6657255,30.1303125 C26.6657255,28.70325 25.4214336,27.5416875 23.8900437,27.5416875 C23.1210315,27.5416875 22.4219843,27.837 21.9189598,28.31175 L21.9189598,26.9803125 L25.1433829,26.9803125 C25.4781294,26.9803125 25.7465297,26.728875 25.7465297,26.4178125 L25.7465297,14.218875 C25.7465297,13.908375 25.4781294,13.656375 25.1433829,13.656375 L21.3158129,13.656375 L16.814528,13.656375 L16.814528,12.301875 L17.9393969,12.301875 C19.209021,12.301875 20.2422115,11.33775 20.2422115,10.1525625 L20.2422115,4.6485 C20.2422115,3.4633125 19.209021,2.4991875 17.9393969,2.4991875 L16.7885927,2.4991875 L16.7885927,0.63225 C16.7885927,0.32175 16.5177797,0.06975 16.1854458,0.06975 L10.3367308,0.06975 C10.0025874,0.0703125 9.73298077,0.3223125 9.73298077,0.6328125 L9.73298077,0.6328125 Z M11.8868182,41.5963125 L5.8083042,41.5963125 L5.8083042,29.85525 L11.886215,29.85525 L11.8868182,41.5963125 L11.8868182,41.5963125 Z M1.99762238,25.8541875 L1.99762238,14.781375 L4.60321678,14.781375 L4.60321678,25.8541875 L1.99762238,25.8541875 L1.99762238,25.8541875 Z M11.8868182,43.8046875 L5.8083042,43.8046875 L5.8083042,42.7213125 L11.886215,42.7213125 L11.8868182,43.8046875 L11.8868182,43.8046875 Z M13.0931119,41.5963125 L13.0931119,29.85525 L13.4290647,29.85525 L13.4290647,41.5963125 L13.0931119,41.5963125 L13.0931119,41.5963125 Z M20.7120629,41.5963125 L14.6347552,41.5963125 L14.6347552,29.85525 L20.7120629,29.85525 L20.7120629,41.5963125 L20.7120629,41.5963125 Z M14.6347552,43.8046875 L14.6347552,42.7213125 L20.7120629,42.7213125 L20.7120629,43.8046875 L14.6347552,43.8046875 L14.6347552,43.8046875 Z M24.5408392,25.8541875 L21.9183566,25.8541875 L21.9183566,14.781375 L24.5408392,14.781375 L24.5408392,25.8541875 L24.5408392,25.8541875 Z M20.7120629,26.4166875 L20.7120629,28.73025 L14.0316084,28.73025 L12.4905682,28.73025 L5.8083042,28.73025 L5.8083042,26.4920625 C5.81192308,26.465625 5.82458916,26.4425625 5.82458916,26.416125 L5.82458916,14.781375 L10.3626661,14.781375 L16.2101748,14.781375 L20.7114598,14.781375 L20.7114598,26.4166875 L20.7120629,26.4166875 L20.7120629,26.4166875 Z M15.6076311,13.656375 L10.9670192,13.656375 L10.9670192,12.301875 L15.6076311,12.301875 L15.6076311,13.656375 L15.6076311,13.656375 Z M19.0371241,4.649625 L19.0371241,10.1536875 C19.0371241,10.7184375 18.5467657,11.178 17.9418094,11.178 L16.2137937,11.178 L10.3656818,11.178 L8.58458916,11.178 C7.97902972,11.178 7.48625874,10.7184375 7.48625874,10.1536875 L7.48625874,4.649625 C7.48625874,4.084875 7.97902972,3.6253125 8.58458916,3.6253125 L10.095472,3.6253125 C10.1702622,3.65625 10.2516871,3.6748125 10.3391434,3.6748125 L16.1878584,3.6748125 C16.2753147,3.6748125 16.3537238,3.65625 16.4291171,3.6253125 L17.9418094,3.6253125 C18.5443531,3.62475 19.0371241,4.084875 19.0371241,4.649625 L19.0371241,4.649625 Z M15.5816958,1.1953125 L15.5816958,2.49975 L10.9392745,2.49975 L10.9392745,1.1953125 L15.5816958,1.1953125 L15.5816958,1.1953125 Z" id="Shape" stroke="#FFFFFF"/>
                <path d="M18.9756031,24.79725 C19.3091434,24.79725 19.57875,24.5458125 19.57875,24.23475 L19.57875,16.4998125 C19.57875,16.1893125 19.3091434,15.9373125 18.9756031,15.9373125 C18.6432692,15.9373125 18.3724563,16.1893125 18.3724563,16.4998125 L18.3724563,24.23475 C18.3724563,24.5469375 18.6432692,24.79725 18.9756031,24.79725 L18.9756031,24.79725 Z" id="Shape"/>
                <path d="M17.1685752,8.4853125 C17.5009091,8.4853125 17.771722,8.2333125 17.771722,7.9228125 L17.771722,5.3679375 C17.771722,5.0574375 17.5009091,4.8054375 17.1685752,4.8054375 C16.835035,4.8054375 16.5654283,5.0574375 16.5654283,5.3679375 L16.5654283,7.9228125 C16.5654283,8.2344375 16.835035,8.4853125 17.1685752,8.4853125 L17.1685752,8.4853125 Z" id="Shape"/>
            </g>
            <g id="robot" transform="translate(109.000000, 60.000000)" fill="#6A6A6A">
                <path d="M10.7329808,0.6328125 L10.7329808,2.49975 L9.58157343,2.49975 C8.31074301,2.49975 7.2769493,3.463875 7.2769493,4.6490625 L7.2769493,10.153125 C7.2769493,11.3383125 8.31074301,12.3024375 9.58157343,12.3024375 L10.7595192,12.3024375 L10.7595192,13.6569375 L6.22144231,13.6569375 L6.20515734,13.6569375 L2.39326923,13.6569375 C2.06033217,13.6569375 1.79012238,13.9089375 1.79012238,14.2194375 L1.79012238,26.41725 C1.79012238,26.7283125 2.06033217,26.97975 2.39326923,26.97975 L5.60201049,26.97975 L5.60201049,28.294875 C5.10019231,27.83025 4.40958916,27.541125 3.64781469,27.541125 C2.11763112,27.541125 0.872736014,28.702125 0.872736014,30.12975 C0.872736014,30.9065625 1.24246503,31.63725 1.88722902,32.1316875 C2.14477273,32.3296875 2.52475524,32.29425 2.73645979,32.052375 C2.94756119,31.81275 2.91076923,31.4578125 2.65322552,31.2615 C2.28892483,30.9825 2.07963287,30.5701875 2.07963287,30.12975 C2.07963287,29.322 2.78350524,28.666125 3.64841783,28.666125 C4.51333042,28.666125 5.2172028,29.322 5.2172028,30.12975 C5.2172028,30.655125 4.91381993,31.1405625 4.42466783,31.402125 C4.13576049,31.5545625 4.03503497,31.8999375 4.2002972,32.1688125 C4.31127622,32.3499375 4.51513986,32.4523125 4.72443182,32.4523125 C4.82576049,32.4523125 4.92829545,32.428125 5.02298951,32.3775 C5.23770979,32.2633125 5.43192308,32.1238125 5.60261364,31.966875 L5.60261364,44.3683125 C5.60261364,44.679375 5.87282343,44.9308125 6.20576049,44.9308125 L13.489965,44.9308125 C13.8229021,44.9308125 14.0931119,44.679375 14.0931119,44.3683125 L14.0931119,42.7224375 L14.4290647,42.7224375 L14.4290647,44.3683125 C14.4290647,44.67825 14.6980682,44.9308125 15.0316084,44.9308125 L22.3152098,44.9308125 C22.64875,44.9308125 22.9183566,44.67825 22.9183566,44.3683125 L22.9183566,31.9483125 C23.0938724,32.11425 23.2929108,32.2605 23.515472,32.3780625 C23.6095629,32.4286875 23.7120979,32.452875 23.8134266,32.452875 C24.0233217,32.452875 24.2271853,32.3505 24.3375612,32.169375 C24.5022203,31.8999375 24.4008916,31.555125 24.1125874,31.4026875 C23.6234353,31.141125 23.3206556,30.6556875 23.3206556,30.1303125 C23.3206556,29.3225625 24.0239248,28.6666875 24.8888374,28.6666875 C25.7549563,28.6666875 26.4594318,29.3225625 26.4594318,30.1303125 C26.4594318,30.569625 26.2483304,30.9830625 25.8858392,31.2620625 C25.6276923,31.4600625 25.5915035,31.8133125 25.8020017,32.0529375 C26.0143094,32.2948125 26.3930857,32.3274375 26.6500262,32.13225 C27.2953934,31.6378125 27.6657255,30.90825 27.6657255,30.1303125 C27.6657255,28.70325 26.4214336,27.5416875 24.8900437,27.5416875 C24.1210315,27.5416875 23.4219843,27.837 22.9189598,28.31175 L22.9189598,26.9803125 L26.1433829,26.9803125 C26.4781294,26.9803125 26.7465297,26.728875 26.7465297,26.4178125 L26.7465297,14.218875 C26.7465297,13.908375 26.4781294,13.656375 26.1433829,13.656375 L22.3158129,13.656375 L17.814528,13.656375 L17.814528,12.301875 L18.9393969,12.301875 C20.209021,12.301875 21.2422115,11.33775 21.2422115,10.1525625 L21.2422115,4.6485 C21.2422115,3.4633125 20.209021,2.4991875 18.9393969,2.4991875 L17.7885927,2.4991875 L17.7885927,0.63225 C17.7885927,0.32175 17.5177797,0.06975 17.1854458,0.06975 L11.3367308,0.06975 C11.0025874,0.0703125 10.7329808,0.3223125 10.7329808,0.6328125 L10.7329808,0.6328125 Z M12.8868182,41.5963125 L6.8083042,41.5963125 L6.8083042,29.85525 L12.886215,29.85525 L12.8868182,41.5963125 L12.8868182,41.5963125 Z M2.99762238,25.8541875 L2.99762238,14.781375 L5.60321678,14.781375 L5.60321678,25.8541875 L2.99762238,25.8541875 L2.99762238,25.8541875 Z M12.8868182,43.8046875 L6.8083042,43.8046875 L6.8083042,42.7213125 L12.886215,42.7213125 L12.8868182,43.8046875 L12.8868182,43.8046875 Z M14.0931119,41.5963125 L14.0931119,29.85525 L14.4290647,29.85525 L14.4290647,41.5963125 L14.0931119,41.5963125 L14.0931119,41.5963125 Z M21.7120629,41.5963125 L15.6347552,41.5963125 L15.6347552,29.85525 L21.7120629,29.85525 L21.7120629,41.5963125 L21.7120629,41.5963125 Z M15.6347552,43.8046875 L15.6347552,42.7213125 L21.7120629,42.7213125 L21.7120629,43.8046875 L15.6347552,43.8046875 L15.6347552,43.8046875 Z M25.5408392,25.8541875 L22.9183566,25.8541875 L22.9183566,14.781375 L25.5408392,14.781375 L25.5408392,25.8541875 L25.5408392,25.8541875 Z M21.7120629,26.4166875 L21.7120629,28.73025 L15.0316084,28.73025 L13.4905682,28.73025 L6.8083042,28.73025 L6.8083042,26.4920625 C6.81192308,26.465625 6.82458916,26.4425625 6.82458916,26.416125 L6.82458916,14.781375 L11.3626661,14.781375 L17.2101748,14.781375 L21.7114598,14.781375 L21.7114598,26.4166875 L21.7120629,26.4166875 L21.7120629,26.4166875 Z M16.6076311,13.656375 L11.9670192,13.656375 L11.9670192,12.301875 L16.6076311,12.301875 L16.6076311,13.656375 L16.6076311,13.656375 Z M20.0371241,4.649625 L20.0371241,10.1536875 C20.0371241,10.7184375 19.5467657,11.178 18.9418094,11.178 L17.2137937,11.178 L11.3656818,11.178 L9.58458916,11.178 C8.97902972,11.178 8.48625874,10.7184375 8.48625874,10.1536875 L8.48625874,4.649625 C8.48625874,4.084875 8.97902972,3.6253125 9.58458916,3.6253125 L11.095472,3.6253125 C11.1702622,3.65625 11.2516871,3.6748125 11.3391434,3.6748125 L17.1878584,3.6748125 C17.2753147,3.6748125 17.3537238,3.65625 17.4291171,3.6253125 L18.9418094,3.6253125 C19.5443531,3.62475 20.0371241,4.084875 20.0371241,4.649625 L20.0371241,4.649625 Z M16.5816958,1.1953125 L16.5816958,2.49975 L11.9392745,2.49975 L11.9392745,1.1953125 L16.5816958,1.1953125 L16.5816958,1.1953125 Z" id="Shape" stroke="#6A6A6A"/>
                <path d="M19.9756031,24.79725 C20.3091434,24.79725 20.57875,24.5458125 20.57875,24.23475 L20.57875,16.4998125 C20.57875,16.1893125 20.3091434,15.9373125 19.9756031,15.9373125 C19.6432692,15.9373125 19.3724563,16.1893125 19.3724563,16.4998125 L19.3724563,24.23475 C19.3724563,24.5469375 19.6432692,24.79725 19.9756031,24.79725 L19.9756031,24.79725 Z" id="Shape"/>
                <path d="M18.1685752,8.4853125 C18.5009091,8.4853125 18.771722,8.2333125 18.771722,7.9228125 L18.771722,5.3679375 C18.771722,5.0574375 18.5009091,4.8054375 18.1685752,4.8054375 C17.835035,4.8054375 17.5654283,5.0574375 17.5654283,5.3679375 L17.5654283,7.9228125 C17.5654283,8.2344375 17.835035,8.4853125 18.1685752,8.4853125 L18.1685752,8.4853125 Z" id="Shape"/>
            </g>
            <path d="M211.724448,5.14911097 C213.388993,6.18258123 214.556196,7.93142823 214.76915,9.96144321 C215.447548,10.2755328 216.201423,10.4561565 216.999775,10.4561565 C219.916436,10.4561565 222.279596,8.11561105 222.279596,5.22830068 C222.279596,2.34054543 219.916436,-7.83216549e-16 216.999775,-7.83216549e-16 C214.111419,0.000444886035 211.768476,2.29917103 211.724448,5.14911097 L211.724448,5.14911097 Z M208.265519,15.8539587 C211.18128,15.8539587 213.545339,13.5129684 213.545339,10.6256581 C213.545339,7.73834769 211.18128,5.39780226 208.265519,5.39780226 C205.349757,5.39780226 202.9848,7.73879258 202.9848,10.6261029 C202.9848,13.5134133 205.349757,15.8539587 208.265519,15.8539587 L208.265519,15.8539587 Z M210.50468,16.2103125 L206.025009,16.2103125 C202.297417,16.2103125 199.264845,19.2137381 199.264845,22.9045126 L199.264845,28.3303427 L199.278772,28.4153159 L199.656159,28.532321 C203.213478,29.6325241 206.304006,30 208.847772,30 C213.816249,30 216.696069,28.5972743 216.87398,28.5078522 L217.226657,28.3307876 L217.264395,28.3307876 L217.264395,22.9045126 C217.264845,19.2137381 214.232273,16.2103125 210.50468,16.2103125 L210.50468,16.2103125 Z M219.240285,10.8129551 L214.794759,10.8129551 C214.746687,12.5742589 213.98742,14.1602776 212.786971,15.3009654 C216.100337,16.2766005 218.524148,19.3191761 218.524148,22.9129655 L218.524148,24.5848472 C222.913516,24.4251331 225.442905,23.1936886 225.609584,23.1104949 L225.962261,22.9334302 L226,22.9334302 L226,17.5067104 C226,13.8159358 222.967428,10.8129551 219.240285,10.8129551 L219.240285,10.8129551 Z M199.001123,10.4566014 C200.033995,10.4566014 200.994983,10.1580828 201.80906,9.6495781 C202.06784,7.97814127 202.972669,6.51758041 204.265219,5.52281524 C204.27061,5.42494031 204.280045,5.32795516 204.280045,5.22919046 C204.280045,2.3414352 201.915987,0.00088977207 199.001123,0.00088977207 C196.084463,0.00088977207 193.721303,2.3414352 193.721303,5.22919046 C193.721303,8.11605594 196.084463,10.4566014 199.001123,10.4566014 L199.001123,10.4566014 Z M203.742718,15.3009654 C202.54766,14.1660611 201.791089,12.5884952 201.735829,10.8378687 C201.570947,10.8258568 201.407862,10.8129551 201.239835,10.8129551 L196.760165,10.8129551 C193.032572,10.8129551 190,13.8159358 190,17.5067104 L190,22.9329853 L190.013927,23.0170688 L190.391314,23.1345187 C193.245077,24.0171726 195.791988,24.4233536 198.004193,24.5514807 L198.004193,22.9129655 C198.005092,19.3191761 200.428454,16.2770454 203.742718,15.3009654 L203.742718,15.3009654 Z" id="Shape" fill="#FFFFFF"/>
            <path d="M211.724448,65.149111 C213.388993,66.1825812 214.556196,67.9314282 214.76915,69.9614432 C215.447548,70.2755328 216.201423,70.4561565 216.999775,70.4561565 C219.916436,70.4561565 222.279596,68.1156111 222.279596,65.2283007 C222.279596,62.3405454 219.916436,60 216.999775,60 C214.111419,60.0004449 211.768476,62.299171 211.724448,65.149111 L211.724448,65.149111 Z M208.265519,75.8539587 C211.18128,75.8539587 213.545339,73.5129684 213.545339,70.6256581 C213.545339,67.7383477 211.18128,65.3978023 208.265519,65.3978023 C205.349757,65.3978023 202.9848,67.7387926 202.9848,70.6261029 C202.9848,73.5134133 205.349757,75.8539587 208.265519,75.8539587 L208.265519,75.8539587 Z M210.50468,76.2103125 L206.025009,76.2103125 C202.297417,76.2103125 199.264845,79.2137381 199.264845,82.9045126 L199.264845,88.3303427 L199.278772,88.4153159 L199.656159,88.532321 C203.213478,89.6325241 206.304006,90 208.847772,90 C213.816249,90 216.696069,88.5972743 216.87398,88.5078522 L217.226657,88.3307876 L217.264395,88.3307876 L217.264395,82.9045126 C217.264845,79.2137381 214.232273,76.2103125 210.50468,76.2103125 L210.50468,76.2103125 Z M219.240285,70.8129551 L214.794759,70.8129551 C214.746687,72.5742589 213.98742,74.1602776 212.786971,75.3009654 C216.100337,76.2766005 218.524148,79.3191761 218.524148,82.9129655 L218.524148,84.5848472 C222.913516,84.4251331 225.442905,83.1936886 225.609584,83.1104949 L225.962261,82.9334302 L226,82.9334302 L226,77.5067104 C226,73.8159358 222.967428,70.8129551 219.240285,70.8129551 L219.240285,70.8129551 Z M199.001123,70.4566014 C200.033995,70.4566014 200.994983,70.1580828 201.80906,69.6495781 C202.06784,67.9781413 202.972669,66.5175804 204.265219,65.5228152 C204.27061,65.4249403 204.280045,65.3279552 204.280045,65.2291905 C204.280045,62.3414352 201.915987,60.0008898 199.001123,60.0008898 C196.084463,60.0008898 193.721303,62.3414352 193.721303,65.2291905 C193.721303,68.1160559 196.084463,70.4566014 199.001123,70.4566014 L199.001123,70.4566014 Z M203.742718,75.3009654 C202.54766,74.1660611 201.791089,72.5884952 201.735829,70.8378687 C201.570947,70.8258568 201.407862,70.8129551 201.239835,70.8129551 L196.760165,70.8129551 C193.032572,70.8129551 190,73.8159358 190,77.5067104 L190,82.9329853 L190.013927,83.0170688 L190.391314,83.1345187 C193.245077,84.0171726 195.791988,84.4233536 198.004193,84.5514807 L198.004193,82.9129655 C198.005092,79.3191761 200.428454,76.2770454 203.742718,75.3009654 L203.742718,75.3009654 Z" id="Shape" fill="#6A6A6A"/>
            <g id="article" transform="translate(150.000000, 0.000000)" fill="#FFFFFF">
                <path d="M0,0 L0,30.3965217 L26.35875,30.3965217 L26.35875,0 L0,0 L0,0 Z M24.69555,1.60565217 L24.69555,28.7882609 L1.66455,28.7882609 L1.66455,1.60565217 L24.69555,1.60565217 L24.69555,1.60565217 Z" id="Shape"/>
                <polygon id="Shape" points="4.1067 22.4230435 22.5639 22.4230435 22.5639 24.0313043 4.1067 24.0313043"/>
                <polygon id="Shape" points="4.1067 3.73956522 22.5639 3.73956522 22.5639 6.15521739 4.1067 6.15521739"/>
                <polygon id="Shape" points="4.1067 25.6865217 22.5639 25.6865217 22.5639 27.2973913 4.1067 27.2973913"/>
                <path d="M4.02975,20.9178261 L8.4888,20.9178261 L8.4888,7.75826087 L4.02975,7.75826087 L4.02975,20.9178261 L4.02975,20.9178261 Z M10.72035,20.9178261 L15.17535,20.9178261 L15.17535,11.493913 L10.72035,11.493913 L10.72035,20.9178261 L10.72035,20.9178261 Z M17.037,15.393913 L17.037,20.9178261 L21.4974,20.9178261 L21.4974,15.393913 L17.037,15.393913 L17.037,15.393913 Z" id="Shape"/>
            </g>
            <g id="article" transform="translate(150.000000, 60.000000)" fill="#6A6A6A">
                <path d="M0,0 L0,30.3965217 L26.35875,30.3965217 L26.35875,0 L0,0 L0,0 Z M24.69555,1.60565217 L24.69555,28.7882609 L1.66455,28.7882609 L1.66455,1.60565217 L24.69555,1.60565217 L24.69555,1.60565217 Z" id="Shape"/>
                <polygon id="Shape" points="4.1067 22.4230435 22.5639 22.4230435 22.5639 24.0313043 4.1067 24.0313043"/>
                <polygon id="Shape" points="4.1067 3.73956522 22.5639 3.73956522 22.5639 6.15521739 4.1067 6.15521739"/>
                <polygon id="Shape" points="4.1067 25.6865217 22.5639 25.6865217 22.5639 27.2973913 4.1067 27.2973913"/>
                <path d="M4.02975,20.9178261 L8.4888,20.9178261 L8.4888,7.75826087 L4.02975,7.75826087 L4.02975,20.9178261 L4.02975,20.9178261 Z M10.72035,20.9178261 L15.17535,20.9178261 L15.17535,11.493913 L10.72035,11.493913 L10.72035,20.9178261 L10.72035,20.9178261 Z M17.037,15.393913 L17.037,20.9178261 L21.4974,20.9178261 L21.4974,15.393913 L17.037,15.393913 L17.037,15.393913 Z" id="Shape"/>
            </g>
            <path d="M267.71875,0 C269.530902,0 271,1.46905664 271,3.28125 C271,4.01994141 270.755752,4.70158008 270.34375,5.25 L269.03125,6.5625 L264.4375,1.96875 L265.75,0.65625 C266.29842,0.244248047 266.980018,0 267.71875,0 L267.71875,0 Z M251.3125,15.09375 L250,21 L255.90625,19.6875 L268.046875,7.546875 L263.453125,2.953125 L251.3125,15.09375 L251.3125,15.09375 Z M264.674939,7.45618945 L255.487439,16.6436895 L254.356311,15.5125605 L263.543811,6.32506055 L264.674939,7.45618945 L264.674939,7.45618945 Z" id="Shape" fill="#FFFFFF"/>
            <g id="calendar146" transform="translate(290.000000, 0.000000)" fill="#FFFFFF">
                <g id="_x31_5">
                    <g id="Group">
                        <path d="M6.76313477,6.40136719 L7.1019043,6.40136719 C7.61674805,6.40136719 8.03408203,5.98388672 8.03408203,5.46918945 L8.03408203,2.89677734 L8.03408203,1.93457031 C8.03408203,1.41987305 7.61674805,1.00244141 7.1019043,1.00244141 L6.76313477,1.00244141 C6.24833984,1.00244141 5.83100586,1.41987305 5.83100586,1.93457031 L5.83100586,2.89682617 L5.83100586,5.46918945 C5.83100586,5.98388672 6.24833984,6.40136719 6.76313477,6.40136719 L6.76313477,6.40136719 Z" id="Shape"/>
                        <path d="M18.7195801,6.37827148 L19.0583496,6.37827148 C19.5731445,6.37827148 19.9904785,5.96083984 19.9904785,5.44609375 L19.9904785,2.65263672 L19.9904785,1.91142578 C19.9904785,1.39677734 19.5731445,0.979345703 19.0583496,0.979345703 L18.7195801,0.979345703 C18.2047363,0.979345703 17.7874023,1.39677734 17.7874023,1.91142578 L17.7874023,2.65263672 L17.7874023,5.44604492 C17.7874512,5.96083984 18.2047852,6.37827148 18.7195801,6.37827148 L18.7195801,6.37827148 Z" id="Shape"/>
                        <path d="M23.140625,3 L20.7482422,3 L20.7482422,5.7934082 C20.7482422,6.72524414 19.9901855,7.23920898 19.0583984,7.23920898 L18.7196289,7.23920898 C17.787793,7.23920898 17.0297363,6.48110352 17.0297363,5.54926758 L17.0297363,3 L8.7918457,3 L8.7918457,5.57236328 C8.7918457,6.50419922 8.03378906,7.26230469 7.10195312,7.26230469 L6.76318359,7.26230469 C5.83139648,7.26230469 5.07333984,6.50419922 5.07333984,5.57236328 L5.07333984,3 L2.4921875,3 C1.6565918,3 0.976757812,3.67983398 0.976757812,4.51547852 L0.976757812,22.8274902 C0.976757812,23.6631348 1.6565918,24.3429687 2.4921875,24.3429687 L23.140625,24.3429687 C23.9762207,24.3429687 24.6560547,23.6631348 24.6560547,22.8274902 L24.6560547,4.51547852 C24.6561035,3.67988281 23.9762695,3 23.140625,3 L23.140625,3 Z M23.140625,22.8274902 L2.49223633,22.8274902 L2.4921875,8.99873047 L23.1408691,8.99873047 L23.1416504,22.8274414 C23.1416016,22.8274414 23.1412598,22.8274902 23.140625,22.8274902 L23.140625,22.8274902 Z" id="Shape"/>
                        <path d="M13.5987305,13.534082 L16.3197266,13.534082 C16.4275879,13.534082 16.5150391,13.4466309 16.5150391,13.3387695 L16.5150391,10.9825684 C16.5150391,10.874707 16.4275879,10.7872559 16.3197266,10.7872559 L13.5987305,10.7872559 C13.4908691,10.7872559 13.403418,10.874707 13.403418,10.9825684 L13.403418,13.3387695 C13.403418,13.4466309 13.4908691,13.534082 13.5987305,13.534082 L13.5987305,13.534082 Z" id="Shape"/>
                        <path d="M18.0394043,13.534082 L20.7604004,13.534082 C20.8682617,13.534082 20.9557129,13.4466309 20.9557129,13.3387695 L20.9557129,10.9825684 C20.9557129,10.874707 20.8682617,10.7872559 20.7604004,10.7872559 L18.0394043,10.7872559 C17.931543,10.7872559 17.8440918,10.874707 17.8440918,10.9825684 L17.8440918,13.3387695 C17.8440918,13.4466309 17.931543,13.534082 18.0394043,13.534082 L18.0394043,13.534082 Z" id="Shape"/>
                        <path d="M4.7175293,17.3915039 L7.43852539,17.3915039 C7.54638672,17.3915039 7.63383789,17.3040527 7.63383789,17.1961914 L7.63383789,14.8399902 C7.63383789,14.7321289 7.54638672,14.6446777 7.43852539,14.6446777 L4.7175293,14.6446777 C4.60966797,14.6446777 4.5222168,14.7321289 4.5222168,14.8399902 L4.5222168,17.1961914 C4.5222168,17.3040527 4.60966797,17.3915039 4.7175293,17.3915039 L4.7175293,17.3915039 Z" id="Shape"/>
                        <path d="M9.1581543,17.3915039 L11.8791504,17.3915039 C11.9870117,17.3915039 12.0744629,17.3040527 12.0744629,17.1961914 L12.0744629,14.8399902 C12.0744629,14.7321289 11.9870117,14.6446777 11.8791504,14.6446777 L9.1581543,14.6446777 C9.05029297,14.6446777 8.9628418,14.7321289 8.9628418,14.8399902 L8.9628418,17.1961914 C8.9628418,17.3040527 9.05029297,17.3915039 9.1581543,17.3915039 L9.1581543,17.3915039 Z" id="Shape"/>
                        <path d="M13.5987793,17.3915039 L16.3197754,17.3915039 C16.4276367,17.3915039 16.5150879,17.3040527 16.5150879,17.1961914 L16.5150879,14.8399902 C16.5150879,14.7321289 16.4276367,14.6446777 16.3197754,14.6446777 L13.5987793,14.6446777 C13.490918,14.6446777 13.4034668,14.7321289 13.4034668,14.8399902 L13.4034668,17.1961914 C13.4034668,17.3040527 13.490918,17.3915039 13.5987793,17.3915039 L13.5987793,17.3915039 Z" id="Shape"/>
                        <path d="M18.0394531,17.3915039 L20.7604492,17.3915039 C20.8683105,17.3915039 20.9557617,17.3040527 20.9557617,17.1961914 L20.9557617,14.8399902 C20.9557617,14.7321289 20.8683105,14.6446777 20.7604492,14.6446777 L18.0394531,14.6446777 C17.9315918,14.6446777 17.8441406,14.7321289 17.8441406,14.8399902 L17.8441406,17.1961914 C17.8441406,17.3040527 17.9315918,17.3915039 18.0394531,17.3915039 L18.0394531,17.3915039 Z" id="Shape"/>
                        <path d="M7.43852539,18.5020996 L4.71757813,18.5020996 C4.6097168,18.5020996 4.52226563,18.5895508 4.52226563,18.6974121 L4.52226563,21.0536133 C4.52226563,21.1614746 4.6097168,21.2489258 4.71757813,21.2489258 L7.43857422,21.2489258 C7.54643555,21.2489258 7.63388672,21.1614746 7.63388672,21.0536133 L7.63388672,18.6974121 C7.63383789,18.5895508 7.54638672,18.5020996 7.43852539,18.5020996 L7.43852539,18.5020996 Z" id="Shape"/>
                        <path d="M11.8791992,18.5020996 L9.15820313,18.5020996 C9.0503418,18.5020996 8.96289063,18.5895508 8.96289063,18.6974121 L8.96289063,21.0536133 C8.96289063,21.1614746 9.0503418,21.2489258 9.15820313,21.2489258 L11.8791992,21.2489258 C11.9870605,21.2489258 12.0745117,21.1614746 12.0745117,21.0536133 L12.0745117,18.6974121 C12.0745117,18.5895508 11.9870605,18.5020996 11.8791992,18.5020996 L11.8791992,18.5020996 Z" id="Shape"/>
                        <path d="M16.3198242,18.5020996 L13.5988281,18.5020996 C13.4909668,18.5020996 13.4035156,18.5895508 13.4035156,18.6974121 L13.4035156,21.0536133 C13.4035156,21.1614746 13.4909668,21.2489258 13.5988281,21.2489258 L16.3198242,21.2489258 C16.4276855,21.2489258 16.5151367,21.1614746 16.5151367,21.0536133 L16.5151367,18.6974121 C16.5151367,18.5895508 16.4276855,18.5020996 16.3198242,18.5020996 L16.3198242,18.5020996 Z" id="Shape"/>
                        <path d="M20.7604492,18.5020996 L18.0394531,18.5020996 C17.9315918,18.5020996 17.8441406,18.5895508 17.8441406,18.6974121 L17.8441406,21.0536133 C17.8441406,21.1614746 17.9315918,21.2489258 18.0394531,21.2489258 L20.7604492,21.2489258 C20.8683105,21.2489258 20.9557617,21.1614746 20.9557617,21.0536133 L20.9557617,18.6974121 C20.9557617,18.5895508 20.8683105,18.5020996 20.7604492,18.5020996 L20.7604492,18.5020996 Z" id="Shape"/>
                    </g>
                </g>
            </g>
            <g id="calendar146-2" transform="translate(290.000000, 40.000000)" fill="#000000" opacity="0.7">
                <g id="_x31_5">
                    <g id="Group">
                        <path d="M6.76313477,6.40136719 L7.1019043,6.40136719 C7.61674805,6.40136719 8.03408203,5.98388672 8.03408203,5.46918945 L8.03408203,2.89677734 L8.03408203,1.93457031 C8.03408203,1.41987305 7.61674805,1.00244141 7.1019043,1.00244141 L6.76313477,1.00244141 C6.24833984,1.00244141 5.83100586,1.41987305 5.83100586,1.93457031 L5.83100586,2.89682617 L5.83100586,5.46918945 C5.83100586,5.98388672 6.24833984,6.40136719 6.76313477,6.40136719 L6.76313477,6.40136719 Z" id="Shape"/>
                        <path d="M18.7195801,6.37827148 L19.0583496,6.37827148 C19.5731445,6.37827148 19.9904785,5.96083984 19.9904785,5.44609375 L19.9904785,2.65263672 L19.9904785,1.91142578 C19.9904785,1.39677734 19.5731445,0.979345703 19.0583496,0.979345703 L18.7195801,0.979345703 C18.2047363,0.979345703 17.7874023,1.39677734 17.7874023,1.91142578 L17.7874023,2.65263672 L17.7874023,5.44604492 C17.7874512,5.96083984 18.2047852,6.37827148 18.7195801,6.37827148 L18.7195801,6.37827148 Z" id="Shape"/>
                        <path d="M23.140625,3 L20.7482422,3 L20.7482422,5.7934082 C20.7482422,6.72524414 19.9901855,7.23920898 19.0583984,7.23920898 L18.7196289,7.23920898 C17.787793,7.23920898 17.0297363,6.48110352 17.0297363,5.54926758 L17.0297363,3 L8.7918457,3 L8.7918457,5.57236328 C8.7918457,6.50419922 8.03378906,7.26230469 7.10195312,7.26230469 L6.76318359,7.26230469 C5.83139648,7.26230469 5.07333984,6.50419922 5.07333984,5.57236328 L5.07333984,3 L2.4921875,3 C1.6565918,3 0.976757812,3.67983398 0.976757812,4.51547852 L0.976757812,22.8274902 C0.976757812,23.6631348 1.6565918,24.3429687 2.4921875,24.3429687 L23.140625,24.3429687 C23.9762207,24.3429687 24.6560547,23.6631348 24.6560547,22.8274902 L24.6560547,4.51547852 C24.6561035,3.67988281 23.9762695,3 23.140625,3 L23.140625,3 Z M23.140625,22.8274902 L2.49223633,22.8274902 L2.4921875,8.99873047 L23.1408691,8.99873047 L23.1416504,22.8274414 C23.1416016,22.8274414 23.1412598,22.8274902 23.140625,22.8274902 L23.140625,22.8274902 Z" id="Shape"/>
                        <path d="M13.5987305,13.534082 L16.3197266,13.534082 C16.4275879,13.534082 16.5150391,13.4466309 16.5150391,13.3387695 L16.5150391,10.9825684 C16.5150391,10.874707 16.4275879,10.7872559 16.3197266,10.7872559 L13.5987305,10.7872559 C13.4908691,10.7872559 13.403418,10.874707 13.403418,10.9825684 L13.403418,13.3387695 C13.403418,13.4466309 13.4908691,13.534082 13.5987305,13.534082 L13.5987305,13.534082 Z" id="Shape"/>
                        <path d="M18.0394043,13.534082 L20.7604004,13.534082 C20.8682617,13.534082 20.9557129,13.4466309 20.9557129,13.3387695 L20.9557129,10.9825684 C20.9557129,10.874707 20.8682617,10.7872559 20.7604004,10.7872559 L18.0394043,10.7872559 C17.931543,10.7872559 17.8440918,10.874707 17.8440918,10.9825684 L17.8440918,13.3387695 C17.8440918,13.4466309 17.931543,13.534082 18.0394043,13.534082 L18.0394043,13.534082 Z" id="Shape"/>
                        <path d="M4.7175293,17.3915039 L7.43852539,17.3915039 C7.54638672,17.3915039 7.63383789,17.3040527 7.63383789,17.1961914 L7.63383789,14.8399902 C7.63383789,14.7321289 7.54638672,14.6446777 7.43852539,14.6446777 L4.7175293,14.6446777 C4.60966797,14.6446777 4.5222168,14.7321289 4.5222168,14.8399902 L4.5222168,17.1961914 C4.5222168,17.3040527 4.60966797,17.3915039 4.7175293,17.3915039 L4.7175293,17.3915039 Z" id="Shape"/>
                        <path d="M9.1581543,17.3915039 L11.8791504,17.3915039 C11.9870117,17.3915039 12.0744629,17.3040527 12.0744629,17.1961914 L12.0744629,14.8399902 C12.0744629,14.7321289 11.9870117,14.6446777 11.8791504,14.6446777 L9.1581543,14.6446777 C9.05029297,14.6446777 8.9628418,14.7321289 8.9628418,14.8399902 L8.9628418,17.1961914 C8.9628418,17.3040527 9.05029297,17.3915039 9.1581543,17.3915039 L9.1581543,17.3915039 Z" id="Shape"/>
                        <path d="M13.5987793,17.3915039 L16.3197754,17.3915039 C16.4276367,17.3915039 16.5150879,17.3040527 16.5150879,17.1961914 L16.5150879,14.8399902 C16.5150879,14.7321289 16.4276367,14.6446777 16.3197754,14.6446777 L13.5987793,14.6446777 C13.490918,14.6446777 13.4034668,14.7321289 13.4034668,14.8399902 L13.4034668,17.1961914 C13.4034668,17.3040527 13.490918,17.3915039 13.5987793,17.3915039 L13.5987793,17.3915039 Z" id="Shape"/>
                        <path d="M18.0394531,17.3915039 L20.7604492,17.3915039 C20.8683105,17.3915039 20.9557617,17.3040527 20.9557617,17.1961914 L20.9557617,14.8399902 C20.9557617,14.7321289 20.8683105,14.6446777 20.7604492,14.6446777 L18.0394531,14.6446777 C17.9315918,14.6446777 17.8441406,14.7321289 17.8441406,14.8399902 L17.8441406,17.1961914 C17.8441406,17.3040527 17.9315918,17.3915039 18.0394531,17.3915039 L18.0394531,17.3915039 Z" id="Shape"/>
                        <path d="M7.43852539,18.5020996 L4.71757813,18.5020996 C4.6097168,18.5020996 4.52226563,18.5895508 4.52226563,18.6974121 L4.52226563,21.0536133 C4.52226563,21.1614746 4.6097168,21.2489258 4.71757813,21.2489258 L7.43857422,21.2489258 C7.54643555,21.2489258 7.63388672,21.1614746 7.63388672,21.0536133 L7.63388672,18.6974121 C7.63383789,18.5895508 7.54638672,18.5020996 7.43852539,18.5020996 L7.43852539,18.5020996 Z" id="Shape"/>
                        <path d="M11.8791992,18.5020996 L9.15820313,18.5020996 C9.0503418,18.5020996 8.96289063,18.5895508 8.96289063,18.6974121 L8.96289063,21.0536133 C8.96289063,21.1614746 9.0503418,21.2489258 9.15820313,21.2489258 L11.8791992,21.2489258 C11.9870605,21.2489258 12.0745117,21.1614746 12.0745117,21.0536133 L12.0745117,18.6974121 C12.0745117,18.5895508 11.9870605,18.5020996 11.8791992,18.5020996 L11.8791992,18.5020996 Z" id="Shape"/>
                        <path d="M16.3198242,18.5020996 L13.5988281,18.5020996 C13.4909668,18.5020996 13.4035156,18.5895508 13.4035156,18.6974121 L13.4035156,21.0536133 C13.4035156,21.1614746 13.4909668,21.2489258 13.5988281,21.2489258 L16.3198242,21.2489258 C16.4276855,21.2489258 16.5151367,21.1614746 16.5151367,21.0536133 L16.5151367,18.6974121 C16.5151367,18.5895508 16.4276855,18.5020996 16.3198242,18.5020996 L16.3198242,18.5020996 Z" id="Shape"/>
                        <path d="M20.7604492,18.5020996 L18.0394531,18.5020996 C17.9315918,18.5020996 17.8441406,18.5895508 17.8441406,18.6974121 L17.8441406,21.0536133 C17.8441406,21.1614746 17.9315918,21.2489258 18.0394531,21.2489258 L20.7604492,21.2489258 C20.8683105,21.2489258 20.9557617,21.1614746 20.9557617,21.0536133 L20.9557617,18.6974121 C20.9557617,18.5895508 20.8683105,18.5020996 20.7604492,18.5020996 L20.7604492,18.5020996 Z" id="Shape"/>
                    </g>
                </g>
            </g>
            <polygon id="Shape" fill="#FFFFFF" points="339 0 337.425 1.575 343.725 7.875 330 7.875 330 10.125 343.725 10.125 337.425 16.425 339 18 348 9"/>
            <path d="M362.59895,4.63148781 C362.59895,4.4818839 362.619609,4.15878101 362.660928,3.66425696 C362.705346,3.168694 362.89128,2.65027488 363.224929,2.10588286 C363.555479,1.56356868 364.09159,1.07631704 364.837393,0.645166876 C365.580098,0.216094541 366.653353,0 368.054059,0 L372,0 L372,4.32500758 L369.110786,4.32500758 C368.824654,4.32500758 368.558148,4.43305485 368.317466,4.64603264 C368.07885,4.85901043 367.955927,5.06159906 367.955927,5.24964287 L367.955927,7.94043548 L371.998967,7.94043548 C371.956615,8.46716592 371.910132,8.97935154 371.856417,9.47387559 L371.696307,10.780832 C371.632263,11.2223713 371.567186,11.6317043 371.503142,12.0088308 L367.927004,12.0088308 L367.927004,24 L362.59895,24 L362.59895,12.0077919 L360,12.0077919 L360,7.94043548 L362.59895,7.94043548 L362.59895,4.63148781 L362.59895,4.63148781 Z" id="Shape" fill="#FFFFFF"/>
            <path d="M412.001,2.12953846 C411.191189,2.49092308 410.322259,2.736 409.409331,2.84538462 C410.341507,2.28323077 411.055075,1.39153846 411.393298,0.332307692 C410.520243,0.852923077 409.553695,1.23092308 408.525276,1.43584615 C407.703092,0.551076923 406.53031,0 405.232413,0 C402.739737,0 400.718647,2.03538462 400.718647,4.54430769 C400.718647,4.90015385 400.758519,5.24769231 400.835513,5.58 C397.084811,5.39030769 393.758951,3.58061538 391.533003,0.830769231 C391.143909,1.50092308 390.922552,2.28184615 390.922552,3.11538462 C390.922552,4.69246154 391.719988,6.084 392.929892,6.89815385 C392.190201,6.87323077 391.494506,6.66830769 390.88543,6.32769231 L390.88543,6.38446154 C390.88543,8.586 392.441806,10.4233846 394.505517,10.8415385 C394.127422,10.944 393.728703,11.0007692 393.316236,11.0007692 C393.024759,11.0007692 392.742907,10.9716923 392.466554,10.9176923 C393.041258,12.7232308 394.707626,14.0372308 396.681969,14.0746154 C395.137966,15.2930769 393.191121,16.0186154 391.076539,16.0186154 C390.712193,16.0186154 390.353347,15.9964615 390,15.9563077 C391.997716,17.2467692 394.369402,18 396.91845,18 C405.220039,18 409.759928,11.0741538 409.759928,5.06769231 L409.744804,4.47923077 C410.630234,3.84092308 411.397423,3.04061538 412.001,2.12953846 L412.001,2.12953846 Z" id="Shape" fill="#FFFFFF"/>
            <path d="M267.71875,40 C269.530902,40 271,41.4690566 271,43.28125 C271,44.0199414 270.755752,44.7015801 270.34375,45.25 L269.03125,46.5625 L264.4375,41.96875 L265.75,40.65625 C266.29842,40.244248 266.980018,40 267.71875,40 L267.71875,40 Z M251.3125,55.09375 L250,61 L255.90625,59.6875 L268.046875,47.546875 L263.453125,42.953125 L251.3125,55.09375 L251.3125,55.09375 Z M264.674939,47.4561895 L255.487439,56.6436895 L254.356311,55.5125605 L263.543811,46.3250605 L264.674939,47.4561895 L264.674939,47.4561895 Z" id="Shape-2" fill="#000000" opacity="0.7"/>
            <g id="Oval-10-+-Group" transform="translate(0.000000, 130.000000)">
                <mask id="mask-2" fill="white">
                    <use xlink:href="#path-1"/>
                </mask>
                <use id="Oval-10" fill="#6A6A6A" xlink:href="#path-1"/>
                <g id="Group" mask="url(#mask-2)" fill="#343434">
                    <g transform="translate(30.000000, 30.000000)" id="Shape">
                        <path d="M45,60 C61.5820312,60 75,46.5672656 75,30 C75,13.4327344 61.5820312,0 45,0 C28.4325,0 15,13.4327344 15,30 C15,46.5672656 28.4327344,60 45,60 L45,60 Z M37.5,15 C41.8139062,19.3249219 45,30 67.5,30 C67.5,42.4073437 57.4071094,52.5 45,52.5 C32.5928906,52.5 22.5,42.4071094 22.5,30 C22.5,30 31.2304687,24.7192969 37.5,15 L37.5,15 Z"/>
                        <polygon points="45 67.5 37.5 75 45 105 52.5 75"/>
                        <path d="M75,67.5 L55.6054688,67.5 L60.8057812,72.7003125 L48.984375,120 L75,120 L82.5,120 C86.645625,120 90,116.645391 90,112.5 L90,82.5 C90,74.21625 83.2910156,67.5 75,67.5 L75,67.5 Z"/>
                        <path d="M34.3945312,67.5 L15,67.5 C6.72351563,67.5 0,74.21625 0,82.5 L0,112.5 C0,116.645625 3.35460938,120 7.5,120 L15,120 L41.0228906,120 L29.1942188,72.7000781 L34.3945312,67.5 L34.3945312,67.5 Z"/>
                    </g>
                </g>
            </g>
            <g id="Oval-10-+-Group" transform="translate(170.000000, 130.000000)">
                <mask id="mask-4" fill="white">
                    <use xlink:href="#path-3"/>
                </mask>
                <use id="Oval-10" fill="#6A6A6A" xlink:href="#path-3"/>
                <g id="Group" mask="url(#mask-4)" fill="#343434">
                    <g transform="translate(30.000000, 29.000000)" id="Shape">
                        <path d="M22.75,60.5 L68.25,60.5 C72.4416875,60.5 75.8333333,57.1138906 75.8333333,52.9375 L75.8333333,30.25 C75.8333333,13.5446738 62.2515833,0 45.5,0 C28.7484167,0 15.1666667,13.5446738 15.1666667,30.25 L15.1666667,52.9375 C15.1666667,57.1138906 18.5585495,60.5 22.75,60.5 L22.75,60.5 Z M45.5,7.5625 C45.5,7.5625 45.5,30.4863281 68.25,30.25 C68.25,42.7791719 58.0598958,52.9375 45.5,52.9375 C32.9401042,52.9375 22.75,42.7791719 22.75,30.25 C22.75,30.25 45.5,30.4863281 45.5,7.5625 L45.5,7.5625 Z"/>
                        <path d="M75.8333333,68.0625 L56.875,68.0625 L64.4583333,75.625 L45.5,98.3125 L26.5416667,75.625 L34.125,68.0625 L15.1666667,68.0625 C6.790875,68.0625 0,74.8347188 0,83.1875 L0,113.4375 C0,117.617672 3.39188281,121 7.58333333,121 L15.1666667,121 L75.8333333,121 L83.4166667,121 C87.6083542,121 91,117.617436 91,113.4375 L91,83.1875 C91,74.8347188 84.209125,68.0625 75.8333333,68.0625 L75.8333333,68.0625 Z"/>
                    </g>
                </g>
            </g>
            <g id="Group" transform="translate(340.000000, 60.000000)" fill="#FFFFFF">
                <path d="M11.5,15 C15.7376302,15 19.1666667,11.6418164 19.1666667,7.5 C19.1666667,3.35818359 15.7376302,0 11.5,0 C7.26608333,0 3.83333333,3.35818359 3.83333333,7.5 C3.83333333,11.6418164 7.26614323,15 11.5,15 L11.5,15 Z M9.58333333,3.75 C10.685776,4.83123047 11.5,7.5 17.25,7.5 C17.25,10.6018359 14.6707057,13.125 11.5,13.125 C8.32929427,13.125 5.75,10.6017773 5.75,7.5 C5.75,7.5 7.98111979,6.17982422 9.58333333,3.75 L9.58333333,3.75 Z" id="Shape"/>
                <polygon id="Shape" points="11.5 16.875 9.58333333 18.75 11.5 26.25 13.4166667 18.75"/>
                <path d="M19.1666667,16.875 L14.2102865,16.875 L15.5392552,18.1750781 L12.5182292,30 L19.1666667,30 L21.0833333,30 C22.1427708,30 23,29.1613477 23,28.125 L23,20.625 C23,18.5540625 21.2854818,16.875 19.1666667,16.875 L19.1666667,16.875 Z" id="Shape"/>
                <path d="M8.78971354,16.875 L3.83333333,16.875 C1.71823177,16.875 0,18.5540625 0,20.625 L0,28.125 C0,29.1614062 0.857289063,30 1.91666667,30 L3.83333333,30 L10.4836276,30 L7.46074479,18.1750195 L8.78971354,16.875 L8.78971354,16.875 Z" id="Shape"/>
            </g>
            <g id="Group" transform="translate(380.000000, 60.000000)" stroke="#FFFFFF" fill="#FFFFFF">
                <path d="M32,0 L28.9375,0 L3.0625,0 L0,0 L0,1 L3.0625,1 L3.0625,19.125 L14.793,19.125 L9.553,24.365 L10.26,25.072 L15.5,19.832 L15.5,25 L16.5,25 L16.5,19.832 L21.5995,24.9315 L22.3065,24.2245 L17.207,19.125 L28.9375,19.125 L28.9375,1 L32,1 L32,0 L32,0 Z M27.9375,18.125 L4.0625,18.125 L4.0625,1 L27.9375,1 L27.9375,18.125 L27.9375,18.125 Z" id="Shape"/>
                <polygon id="Shape" points="9.0455 10.2515 14.347 13.056 17.2735 8.805 22.1945 10.1465 26.121 3.312 25.254 2.814 21.712 8.9785 16.8515 7.6535 14.028 11.7565 8.5795 8.874 5.7335 15.0405 6.6415 15.4595"/>
            </g>
            <g id="Group" transform="translate(430.000000, 60.000000)" fill="#FF9800">
                <path d="M10.697,25.199 L4.798,25.199 C3.671,25.199 2.738,24.314 2.738,23.187 L2.738,4.901 C2.738,3.774 3.671,2.895 4.798,2.895 L19.075,2.895 C20.202,2.895 21.121,3.774 21.121,4.901 L21.121,20.223 L23.758,17.089 L23.758,2.943 C23.758,1.461 22.587,0.259 21.106,0.259 L2.661,0.259 C1.238,0.259 0.102,1.412 0.102,2.834 L0.102,25.216 C0.102,26.698 1.287,27.903 2.771,27.903 L13.129,27.903 L11.905,26.84 C11.369,26.377 10.966,25.807 10.697,25.199 L10.697,25.199 Z" id="Shape"/>
                <path d="M17.977,6.275 L6.136,6.275 C5.408,6.275 4.822,6.866 4.822,7.593 C4.822,8.319 5.409,8.91 6.136,8.91 L17.976,8.91 C18.704,8.91 19.288,8.319 19.288,7.593 C19.29,6.866 18.703,6.275 17.977,6.275 L17.977,6.275 Z" id="Shape"/>
                <path d="M17.977,10.667 L6.136,10.667 C5.408,10.667 4.822,11.257 4.822,11.985 C4.822,12.709 5.409,13.303 6.136,13.303 L17.976,13.303 C18.704,13.303 19.288,12.709 19.288,11.985 C19.29,11.258 18.703,10.667 17.977,10.667 L17.977,10.667 Z" id="Shape"/>
                <path d="M17.977,15.061 L6.136,15.061 C5.408,15.061 4.822,15.619 4.822,16.346 C4.822,17.071 5.409,17.629 6.136,17.629 L17.976,17.629 C18.704,17.629 19.288,17.07 19.288,16.346 C19.29,15.619 18.703,15.061 17.977,15.061 L17.977,15.061 Z" id="Shape"/>
                <path d="M4.821,20.536 C4.821,21.262 5.408,21.82 6.135,21.82 L10.553,21.82 C10.738,21.347 11.022,20.797 11.41,20.341 C11.818,19.868 12.299,19.521 12.822,19.249 L6.136,19.249 C5.408,19.251 4.821,19.811 4.821,20.536 L4.821,20.536 Z" id="Shape"/>
                <path d="M17.977,19.251 L16.989,19.251 C17.313,19.387 17.622,19.617 17.905,19.863 L19.217,20.986 C19.267,20.851 19.293,20.705 19.293,20.549 C19.29,19.826 18.703,19.251 17.977,19.251 L17.977,19.251 Z" id="Shape"/>
                <use id="Shape" stroke="#6A6A6A" mask="url(#mask-6)" stroke-width="2" xlink:href="#path-5"/>
            </g>
            <g id="open-book" transform="translate(360.000000, 130.000000)" fill="#FFFFFF">
                <g id="Layer_1">
                    <g id="Group">
                        <path d="M17.0208772,14.1994737 C17.1091813,14.3721637 17.2848538,14.4719298 17.4664912,14.4719298 C17.5423392,14.4719298 17.6201754,14.4544444 17.6925731,14.4175439 C17.7219883,14.4025731 20.6592982,12.9104678 22.1079532,12.4528655 C22.3704678,12.3695322 22.5161404,12.0890643 22.432807,11.8266082 C22.3499415,11.5640936 22.0715205,11.4178947 21.8065497,11.5007602 C20.2805263,11.9833333 17.3632164,13.4654386 17.2394737,13.5283041 C16.9939181,13.6530409 16.8961404,13.9535088 17.0208772,14.1994737 L17.0208772,14.1994737 Z" id="Shape"/>
                        <path d="M17.4664912,8.48368421 C17.5423392,8.48368421 17.6201754,8.46619883 17.6925731,8.42929825 C17.7219883,8.41432749 20.6592982,6.92222222 22.1079532,6.46461988 C22.3704678,6.38128655 22.5161404,6.10081871 22.432807,5.83836257 C22.3499415,5.57584795 22.0715205,5.42964912 21.8065497,5.51251462 C20.2805263,5.99508772 17.3632164,7.47719298 17.2394737,7.54005848 C16.9939766,7.66479532 16.8961404,7.96520468 17.0208772,8.21122807 C17.1091813,8.38385965 17.2848538,8.48368421 17.4664912,8.48368421 L17.4664912,8.48368421 Z" id="Shape"/>
                        <path d="M29.4426316,7.48561404 C29.1666667,7.48561404 28.9436257,7.70918129 28.9436257,7.98461988 L28.9436257,27.4466082 C28.9436257,28.2719883 28.2719298,28.9436842 27.4465497,28.9436842 L15.4699415,28.9436842 L15.4699415,27.7954386 C16.1975439,27.5409357 18.092807,26.9476023 19.9611696,26.9476023 C24.3081871,26.9476023 27.2599415,27.9102339 27.2893567,27.9201754 C27.4395322,27.9700585 27.6072515,27.9451462 27.7384795,27.8512865 C27.8687135,27.7574854 27.9455556,27.6067836 27.9455556,27.4465497 L27.9455556,5.48953216 C27.9455556,5.25549708 27.7833918,5.0528655 27.5547953,5.00245614 C27.5547953,5.00245614 27.1635673,4.9151462 26.4948538,4.79233918 C26.2248538,4.74245614 25.9639181,4.92210526 25.9139766,5.1925731 C25.8640936,5.46403509 26.0432164,5.72403509 26.3142105,5.77391813 C26.5692398,5.82081871 26.782807,5.86222222 26.9474854,5.89520468 L26.9474854,26.7833918 C25.8166667,26.4869591 23.305614,25.9495322 19.9611111,25.9495322 C17.7868421,25.9495322 15.6510526,26.6636257 14.9902924,26.9056725 C14.402924,26.6461988 12.6274269,25.9495322 10.4795906,25.9495322 C7.0422807,25.9495322 4.21081871,26.5164327 2.99421053,26.804386 L2.99421053,5.87573099 C3.99076023,5.63070175 6.93403509,4.99046784 10.4795906,4.99046784 C12.2990643,4.99046784 13.8594737,5.55684211 14.4718129,5.8128655 L14.4718129,25.4505263 C14.4718129,25.6301754 14.5685965,25.7963743 14.7247953,25.8846784 C14.8809942,25.9735088 15.0736257,25.9709942 15.2278363,25.8781871 C15.2772515,25.8487719 20.2215789,22.8954971 24.61,21.4328655 C24.8140936,21.3645029 24.951345,21.174386 24.951345,20.9592982 L24.951345,0.499239766 C24.951345,0.335555556 24.8709942,0.182339181 24.7362573,0.0890643275 C24.6025146,-0.00426900585 24.4308772,-0.0257309942 24.2766667,0.0316959064 C20.2839766,1.52923977 16.2439181,4.04333333 16.2034503,4.06830409 C15.969883,4.21450292 15.898538,4.52239766 16.0447368,4.75596491 C16.1904678,4.98953216 16.4983626,5.06087719 16.7323977,4.91467836 C16.7692982,4.89122807 20.2839766,2.70450292 23.9532749,1.22888889 L23.9532749,20.6020468 C20.5469006,21.785731 16.9903509,23.7184795 15.4698246,24.5837427 L15.4698246,5.48953216 C15.4698246,5.30040936 15.3630409,5.1277193 15.1938596,5.04292398 C15.1080117,5.00052632 13.0630409,3.99245614 10.4795906,3.99245614 C5.97040936,3.99245614 2.50368421,4.96807018 2.35795322,5.00994152 C2.14385965,5.07081871 1.99614035,5.26695906 1.99614035,5.48953216 L1.99614035,27.4466667 C1.99614035,27.6028655 2.07,27.7505848 2.19426901,27.8449123 C2.28210526,27.9112865 2.38789474,27.945731 2.49520468,27.945731 C2.54111111,27.945731 2.58701754,27.9392398 2.63192982,27.9262573 C2.66637427,27.9167836 6.1171345,26.9476608 10.4795906,26.9476608 C12.3040351,26.9476608 13.8629825,27.5155556 14.4718129,27.7705263 L14.4718129,28.9437427 L2.49520468,28.9437427 C1.66982456,28.9437427 0.998128655,28.2720468 0.998128655,27.4466667 L0.998128655,7.98467836 C0.998128655,7.70923977 0.774561404,7.48567251 0.499122807,7.48567251 C0.223684211,7.48567251 0.000116959064,7.70923977 0.000116959064,7.98467836 L0.000116959064,27.4466667 C0.000116959064,28.8224561 1.1194152,29.9418129 2.49526316,29.9418129 L27.4465497,29.9418129 C28.8223392,29.9418129 29.9416959,28.8225146 29.9416959,27.4466667 L29.9416959,7.98467836 C29.9416374,7.70918129 29.7185965,7.48561404 29.4426316,7.48561404 L29.4426316,7.48561404 Z" id="Shape"/>
                        <path d="M17.0208772,11.2053216 C17.1091813,11.3780117 17.2848538,11.4777778 17.4664912,11.4777778 C17.5423392,11.4777778 17.6201754,11.4602924 17.6925731,11.4233918 C17.7219883,11.4084211 20.6592982,9.91631579 22.1079532,9.45871345 C22.3704678,9.37538012 22.5161404,9.09491228 22.432807,8.83245614 C22.3499415,8.56994152 22.0715205,8.42374269 21.8065497,8.50660819 C20.2805263,8.98918129 17.3632164,10.4712865 17.2394737,10.534152 C16.9939181,10.6588889 16.8961404,10.9593567 17.0208772,11.2053216 L17.0208772,11.2053216 Z" id="Shape"/>
                        <path d="M17.0208772,17.1936257 C17.1091813,17.3663158 17.2848538,17.4660819 17.4664912,17.4660819 C17.5423392,17.4660819 17.6201754,17.4485965 17.6925731,17.4116959 C17.7219883,17.3967251 20.6592982,15.9046199 22.1079532,15.4470175 C22.3704678,15.3636842 22.5161404,15.0832164 22.432807,14.8207602 C22.3499415,14.5582456 22.0715205,14.4120468 21.8065497,14.4949123 C20.2805263,14.9774854 17.3632164,16.4595906 17.2394737,16.5224561 C16.9939181,16.647193 16.8961404,16.9476608 17.0208772,17.1936257 L17.0208772,17.1936257 Z" id="Shape"/>
                        <path d="M12.0905263,9.26116959 C9.00906433,8.53807018 5.50736842,9.45929825 5.36017544,9.49871345 C5.09421053,9.57005848 4.93602339,9.84350877 5.00736842,10.11 C5.06725146,10.3330409 5.26883041,10.4797661 5.48894737,10.4797661 C5.53187135,10.4797661 5.57526316,10.474269 5.61871345,10.462807 C5.65216374,10.4533333 9.02356725,9.56654971 11.8630409,10.2327485 C12.13,10.2951462 12.4,10.1289474 12.4628655,9.86046784 C12.5256725,9.59251462 12.3590058,9.32403509 12.0905263,9.26116959 L12.0905263,9.26116959 Z" id="Shape"/>
                        <path d="M12.0905263,12.2553216 C9.00906433,11.5327485 5.50736842,12.4534503 5.36017544,12.4928655 C5.09421053,12.5642105 4.93602339,12.8377193 5.00736842,13.104152 C5.06725146,13.327193 5.26883041,13.4739181 5.48894737,13.4739181 C5.53187135,13.4739181 5.57526316,13.4684211 5.61871345,13.4569591 C5.65216374,13.4474854 9.02356725,12.5607018 11.8630409,13.2269006 C12.13,13.2892982 12.4,13.1230994 12.4628655,12.8546199 C12.5256725,12.5866667 12.3590058,12.3181871 12.0905263,12.2553216 L12.0905263,12.2553216 Z" id="Shape"/>
                        <path d="M17.0208772,20.1877778 C17.1091813,20.3604678 17.2848538,20.4602339 17.4664912,20.4602339 C17.5423392,20.4602339 17.6201754,20.4427485 17.6925731,20.405848 C17.7219883,20.3908772 20.6592982,18.8987719 22.1079532,18.4411696 C22.3704678,18.3578363 22.5161404,18.0773684 22.432807,17.8149123 C22.3499415,17.5524561 22.0715205,17.4061988 21.8065497,17.4890643 C20.2805263,17.9716374 17.3632164,19.4537427 17.2394737,19.5166082 C16.9939181,19.641345 16.8961404,19.9418129 17.0208772,20.1877778 L17.0208772,20.1877778 Z" id="Shape"/>
                        <path d="M12.0905263,15.2494737 C9.00906433,14.5269006 5.50736842,15.447076 5.36017544,15.4870175 C5.09421053,15.5583626 4.93602339,15.8318713 5.00736842,16.0983041 C5.06725146,16.321345 5.26883041,16.4685965 5.48894737,16.4685965 C5.53187135,16.4685965 5.57526316,16.4626316 5.61871345,16.4511111 C5.65216374,16.4416374 9.02356725,15.5548538 11.8630409,16.2210526 C12.13,16.2834503 12.4,16.1172515 12.4628655,15.8487719 C12.5256725,15.5808187 12.3590058,15.3123392 12.0905263,15.2494737 L12.0905263,15.2494737 Z" id="Shape"/>
                        <path d="M12.0905263,21.2377778 C9.00906433,20.5146784 5.50736842,21.4359064 5.36017544,21.4753216 C5.09421053,21.5466667 4.93602339,21.8201754 5.00736842,22.0866082 C5.06725146,22.3096491 5.26883041,22.4569006 5.48894737,22.4569006 C5.53187135,22.4569006 5.57526316,22.4509357 5.61871345,22.4394152 C5.65216374,22.4299415 9.02356725,21.5431579 11.8630409,22.2093567 C12.13,22.2712281 12.4,22.1055556 12.4628655,21.837076 C12.5256725,21.5691228 12.3590058,21.3006433 12.0905263,21.2377778 L12.0905263,21.2377778 Z" id="Shape"/>
                        <path d="M12.0905263,18.2436257 C9.00906433,17.5205263 5.50736842,18.4412281 5.36017544,18.4811696 C5.09421053,18.5525146 4.93602339,18.8260234 5.00736842,19.0924561 C5.06725146,19.3154971 5.26883041,19.4627485 5.48894737,19.4627485 C5.53187135,19.4627485 5.57526316,19.4567836 5.61871345,19.4452632 C5.65216374,19.4357895 9.02356725,18.5490058 11.8630409,19.2152047 C12.13,19.2776023 12.4,19.1114035 12.4628655,18.842924 C12.5256725,18.5749708 12.3590058,18.3064912 12.0905263,18.2436257 L12.0905263,18.2436257 Z" id="Shape"/>
                    </g>
                </g>
            </g>
            <g id="open-book-copy" transform="translate(360.000000, 175.000000)" fill="#6A6A6A">
                <g id="Layer_1">
                    <g id="Group">
                        <path d="M17.0208772,14.1994737 C17.1091813,14.3721637 17.2848538,14.4719298 17.4664912,14.4719298 C17.5423392,14.4719298 17.6201754,14.4544444 17.6925731,14.4175439 C17.7219883,14.4025731 20.6592982,12.9104678 22.1079532,12.4528655 C22.3704678,12.3695322 22.5161404,12.0890643 22.432807,11.8266082 C22.3499415,11.5640936 22.0715205,11.4178947 21.8065497,11.5007602 C20.2805263,11.9833333 17.3632164,13.4654386 17.2394737,13.5283041 C16.9939181,13.6530409 16.8961404,13.9535088 17.0208772,14.1994737 L17.0208772,14.1994737 Z" id="Shape"/>
                        <path d="M17.4664912,8.48368421 C17.5423392,8.48368421 17.6201754,8.46619883 17.6925731,8.42929825 C17.7219883,8.41432749 20.6592982,6.92222222 22.1079532,6.46461988 C22.3704678,6.38128655 22.5161404,6.10081871 22.432807,5.83836257 C22.3499415,5.57584795 22.0715205,5.42964912 21.8065497,5.51251462 C20.2805263,5.99508772 17.3632164,7.47719298 17.2394737,7.54005848 C16.9939766,7.66479532 16.8961404,7.96520468 17.0208772,8.21122807 C17.1091813,8.38385965 17.2848538,8.48368421 17.4664912,8.48368421 L17.4664912,8.48368421 Z" id="Shape"/>
                        <path d="M29.4426316,7.48561404 C29.1666667,7.48561404 28.9436257,7.70918129 28.9436257,7.98461988 L28.9436257,27.4466082 C28.9436257,28.2719883 28.2719298,28.9436842 27.4465497,28.9436842 L15.4699415,28.9436842 L15.4699415,27.7954386 C16.1975439,27.5409357 18.092807,26.9476023 19.9611696,26.9476023 C24.3081871,26.9476023 27.2599415,27.9102339 27.2893567,27.9201754 C27.4395322,27.9700585 27.6072515,27.9451462 27.7384795,27.8512865 C27.8687135,27.7574854 27.9455556,27.6067836 27.9455556,27.4465497 L27.9455556,5.48953216 C27.9455556,5.25549708 27.7833918,5.0528655 27.5547953,5.00245614 C27.5547953,5.00245614 27.1635673,4.9151462 26.4948538,4.79233918 C26.2248538,4.74245614 25.9639181,4.92210526 25.9139766,5.1925731 C25.8640936,5.46403509 26.0432164,5.72403509 26.3142105,5.77391813 C26.5692398,5.82081871 26.782807,5.86222222 26.9474854,5.89520468 L26.9474854,26.7833918 C25.8166667,26.4869591 23.305614,25.9495322 19.9611111,25.9495322 C17.7868421,25.9495322 15.6510526,26.6636257 14.9902924,26.9056725 C14.402924,26.6461988 12.6274269,25.9495322 10.4795906,25.9495322 C7.0422807,25.9495322 4.21081871,26.5164327 2.99421053,26.804386 L2.99421053,5.87573099 C3.99076023,5.63070175 6.93403509,4.99046784 10.4795906,4.99046784 C12.2990643,4.99046784 13.8594737,5.55684211 14.4718129,5.8128655 L14.4718129,25.4505263 C14.4718129,25.6301754 14.5685965,25.7963743 14.7247953,25.8846784 C14.8809942,25.9735088 15.0736257,25.9709942 15.2278363,25.8781871 C15.2772515,25.8487719 20.2215789,22.8954971 24.61,21.4328655 C24.8140936,21.3645029 24.951345,21.174386 24.951345,20.9592982 L24.951345,0.499239766 C24.951345,0.335555556 24.8709942,0.182339181 24.7362573,0.0890643275 C24.6025146,-0.00426900585 24.4308772,-0.0257309942 24.2766667,0.0316959064 C20.2839766,1.52923977 16.2439181,4.04333333 16.2034503,4.06830409 C15.969883,4.21450292 15.898538,4.52239766 16.0447368,4.75596491 C16.1904678,4.98953216 16.4983626,5.06087719 16.7323977,4.91467836 C16.7692982,4.89122807 20.2839766,2.70450292 23.9532749,1.22888889 L23.9532749,20.6020468 C20.5469006,21.785731 16.9903509,23.7184795 15.4698246,24.5837427 L15.4698246,5.48953216 C15.4698246,5.30040936 15.3630409,5.1277193 15.1938596,5.04292398 C15.1080117,5.00052632 13.0630409,3.99245614 10.4795906,3.99245614 C5.97040936,3.99245614 2.50368421,4.96807018 2.35795322,5.00994152 C2.14385965,5.07081871 1.99614035,5.26695906 1.99614035,5.48953216 L1.99614035,27.4466667 C1.99614035,27.6028655 2.07,27.7505848 2.19426901,27.8449123 C2.28210526,27.9112865 2.38789474,27.945731 2.49520468,27.945731 C2.54111111,27.945731 2.58701754,27.9392398 2.63192982,27.9262573 C2.66637427,27.9167836 6.1171345,26.9476608 10.4795906,26.9476608 C12.3040351,26.9476608 13.8629825,27.5155556 14.4718129,27.7705263 L14.4718129,28.9437427 L2.49520468,28.9437427 C1.66982456,28.9437427 0.998128655,28.2720468 0.998128655,27.4466667 L0.998128655,7.98467836 C0.998128655,7.70923977 0.774561404,7.48567251 0.499122807,7.48567251 C0.223684211,7.48567251 0.000116959064,7.70923977 0.000116959064,7.98467836 L0.000116959064,27.4466667 C0.000116959064,28.8224561 1.1194152,29.9418129 2.49526316,29.9418129 L27.4465497,29.9418129 C28.8223392,29.9418129 29.9416959,28.8225146 29.9416959,27.4466667 L29.9416959,7.98467836 C29.9416374,7.70918129 29.7185965,7.48561404 29.4426316,7.48561404 L29.4426316,7.48561404 Z" id="Shape"/>
                        <path d="M17.0208772,11.2053216 C17.1091813,11.3780117 17.2848538,11.4777778 17.4664912,11.4777778 C17.5423392,11.4777778 17.6201754,11.4602924 17.6925731,11.4233918 C17.7219883,11.4084211 20.6592982,9.91631579 22.1079532,9.45871345 C22.3704678,9.37538012 22.5161404,9.09491228 22.432807,8.83245614 C22.3499415,8.56994152 22.0715205,8.42374269 21.8065497,8.50660819 C20.2805263,8.98918129 17.3632164,10.4712865 17.2394737,10.534152 C16.9939181,10.6588889 16.8961404,10.9593567 17.0208772,11.2053216 L17.0208772,11.2053216 Z" id="Shape"/>
                        <path d="M17.0208772,17.1936257 C17.1091813,17.3663158 17.2848538,17.4660819 17.4664912,17.4660819 C17.5423392,17.4660819 17.6201754,17.4485965 17.6925731,17.4116959 C17.7219883,17.3967251 20.6592982,15.9046199 22.1079532,15.4470175 C22.3704678,15.3636842 22.5161404,15.0832164 22.432807,14.8207602 C22.3499415,14.5582456 22.0715205,14.4120468 21.8065497,14.4949123 C20.2805263,14.9774854 17.3632164,16.4595906 17.2394737,16.5224561 C16.9939181,16.647193 16.8961404,16.9476608 17.0208772,17.1936257 L17.0208772,17.1936257 Z" id="Shape"/>
                        <path d="M12.0905263,9.26116959 C9.00906433,8.53807018 5.50736842,9.45929825 5.36017544,9.49871345 C5.09421053,9.57005848 4.93602339,9.84350877 5.00736842,10.11 C5.06725146,10.3330409 5.26883041,10.4797661 5.48894737,10.4797661 C5.53187135,10.4797661 5.57526316,10.474269 5.61871345,10.462807 C5.65216374,10.4533333 9.02356725,9.56654971 11.8630409,10.2327485 C12.13,10.2951462 12.4,10.1289474 12.4628655,9.86046784 C12.5256725,9.59251462 12.3590058,9.32403509 12.0905263,9.26116959 L12.0905263,9.26116959 Z" id="Shape"/>
                        <path d="M12.0905263,12.2553216 C9.00906433,11.5327485 5.50736842,12.4534503 5.36017544,12.4928655 C5.09421053,12.5642105 4.93602339,12.8377193 5.00736842,13.104152 C5.06725146,13.327193 5.26883041,13.4739181 5.48894737,13.4739181 C5.53187135,13.4739181 5.57526316,13.4684211 5.61871345,13.4569591 C5.65216374,13.4474854 9.02356725,12.5607018 11.8630409,13.2269006 C12.13,13.2892982 12.4,13.1230994 12.4628655,12.8546199 C12.5256725,12.5866667 12.3590058,12.3181871 12.0905263,12.2553216 L12.0905263,12.2553216 Z" id="Shape"/>
                        <path d="M17.0208772,20.1877778 C17.1091813,20.3604678 17.2848538,20.4602339 17.4664912,20.4602339 C17.5423392,20.4602339 17.6201754,20.4427485 17.6925731,20.405848 C17.7219883,20.3908772 20.6592982,18.8987719 22.1079532,18.4411696 C22.3704678,18.3578363 22.5161404,18.0773684 22.432807,17.8149123 C22.3499415,17.5524561 22.0715205,17.4061988 21.8065497,17.4890643 C20.2805263,17.9716374 17.3632164,19.4537427 17.2394737,19.5166082 C16.9939181,19.641345 16.8961404,19.9418129 17.0208772,20.1877778 L17.0208772,20.1877778 Z" id="Shape"/>
                        <path d="M12.0905263,15.2494737 C9.00906433,14.5269006 5.50736842,15.447076 5.36017544,15.4870175 C5.09421053,15.5583626 4.93602339,15.8318713 5.00736842,16.0983041 C5.06725146,16.321345 5.26883041,16.4685965 5.48894737,16.4685965 C5.53187135,16.4685965 5.57526316,16.4626316 5.61871345,16.4511111 C5.65216374,16.4416374 9.02356725,15.5548538 11.8630409,16.2210526 C12.13,16.2834503 12.4,16.1172515 12.4628655,15.8487719 C12.5256725,15.5808187 12.3590058,15.3123392 12.0905263,15.2494737 L12.0905263,15.2494737 Z" id="Shape"/>
                        <path d="M12.0905263,21.2377778 C9.00906433,20.5146784 5.50736842,21.4359064 5.36017544,21.4753216 C5.09421053,21.5466667 4.93602339,21.8201754 5.00736842,22.0866082 C5.06725146,22.3096491 5.26883041,22.4569006 5.48894737,22.4569006 C5.53187135,22.4569006 5.57526316,22.4509357 5.61871345,22.4394152 C5.65216374,22.4299415 9.02356725,21.5431579 11.8630409,22.2093567 C12.13,22.2712281 12.4,22.1055556 12.4628655,21.837076 C12.5256725,21.5691228 12.3590058,21.3006433 12.0905263,21.2377778 L12.0905263,21.2377778 Z" id="Shape"/>
                        <path d="M12.0905263,18.2436257 C9.00906433,17.5205263 5.50736842,18.4412281 5.36017544,18.4811696 C5.09421053,18.5525146 4.93602339,18.8260234 5.00736842,19.0924561 C5.06725146,19.3154971 5.26883041,19.4627485 5.48894737,19.4627485 C5.53187135,19.4627485 5.57526316,19.4567836 5.61871345,19.4452632 C5.65216374,19.4357895 9.02356725,18.5490058 11.8630409,19.2152047 C12.13,19.2776023 12.4,19.1114035 12.4628655,18.842924 C12.5256725,18.5749708 12.3590058,18.3064912 12.0905263,18.2436257 L12.0905263,18.2436257 Z" id="Shape"/>
                    </g>
                </g>
            </g>
        </g>
    </g>
</svg>