<?xml version="1.0" encoding="UTF-8" standalone="no"?>
<svg
   xmlns:dc="http://purl.org/dc/elements/1.1/"
   xmlns:cc="http://creativecommons.org/ns#"
   xmlns:rdf="http://www.w3.org/1999/02/22-rdf-syntax-ns#"
   xmlns:svg="http://www.w3.org/2000/svg"
   xmlns="http://www.w3.org/2000/svg"
   xmlns:xlink="http://www.w3.org/1999/xlink"
   xmlns:sodipodi="http://sodipodi.sourceforge.net/DTD/sodipodi-0.dtd"
   xmlns:inkscape="http://www.inkscape.org/namespaces/inkscape"
   width="500px"
   height="500px"
   viewBox="0 0 500 500"
   version="1.1"
   id="svg1455"
   sodipodi:docname="icon-sprite.svg"
   inkscape:version="1.0.1 (3bc2e813f5, 2020-09-07)">
  <metadata
     id="metadata1459">
    <rdf:RDF>
      <cc:Work
         rdf:about="">
        <dc:format>image/svg+xml</dc:format>
        <dc:type
           rdf:resource="http://purl.org/dc/dcmitype/StillImage" />
        <dc:title>icon-sprite</dc:title>
      </cc:Work>
    </rdf:RDF>
  </metadata>
  <sodipodi:namedview
     pagecolor="#7b7b7b"
     bordercolor="#666666"
     borderopacity="1"
     objecttolerance="10"
     gridtolerance="10"
     guidetolerance="10"
     inkscape:pageopacity="0"
     inkscape:pageshadow="2"
     inkscape:window-width="1366"
     inkscape:window-height="713"
     id="namedview1457"
     showgrid="false"
     inkscape:snap-bbox="true"
     inkscape:snap-bbox-edge-midpoints="true"
     inkscape:snap-bbox-midpoints="true"
     inkscape:snap-global="true"
     showguides="true"
     inkscape:guide-bbox="true"
     inkscape:snap-intersection-paths="true"
     inkscape:bbox-nodes="true"
     inkscape:snap-page="true"
     inkscape:zoom="7.984"
     inkscape:cx="375.55222"
     inkscape:cy="15.152817"
     inkscape:window-x="0"
     inkscape:window-y="0"
     inkscape:window-maximized="1"
     inkscape:current-layer="svg1455"
     inkscape:document-rotation="0">
    <sodipodi:guide
       position="430.11055,439.69547"
       orientation="1,0"
       id="guide1493" />
    <sodipodi:guide
       position="367.927,476"
       orientation="0,-1"
       id="guide1511" />
  </sodipodi:namedview>
  <!-- Generator: Sketch 39.1 (31720) - http://www.bohemiancoding.com/sketch -->
  <title
     id="title1196">icon-sprite</title>
  <desc
     id="desc1198">Created with Sketch.</desc>
  <defs
     id="defs1206">
    <circle
       id="path-1"
       cx="75"
       cy="75"
       r="75" />
    <circle
       id="path-3"
       cx="75"
       cy="75"
       r="75" />
    <path
       d="M31.001,15.73 C30.035,14.902 28.58,15.019 27.755,15.989 L20.19,24.857 L16.408,21.609 C15.441,20.782 13.988,20.892 13.161,21.857 C12.332,22.823 12.444,24.275 13.409,25.103 L18.942,29.855 C19.364,30.213 19.893,30.411 20.442,30.411 C20.504,30.411 20.561,30.409 20.624,30.404 C21.231,30.357 21.8,30.068 22.196,29.603 L31.262,18.976 C32.084,18.009 31.971,16.557 31.001,15.73 L31.001,15.73 Z"
       id="path-5" />
    <mask
       id="mask-6"
       maskContentUnits="userSpaceOnUse"
       maskUnits="objectBoundingBox"
       x="0"
       y="0"
       width="19.2053182"
       height="15.2331084"
       fill="white">
      <use
         xlink:href="#path-5"
         id="use1203" />
    </mask>
  </defs>
  <path
     d="M 15,0 C 6.7161646,0 0,6.7161646 0,15 0,23.283835 6.7161646,30 15,30 23.283835,30 30,23.283835 30,15 30,6.7161646 23.283835,0 15,0 Z m -0.235469,24.418753 c -1.434026,0 -2.407721,-1.056428 -2.407721,-2.462877 0,-1.436148 1.001272,-2.462876 2.407721,-2.462876 1.461604,0 2.409843,1.026728 2.435299,2.462876 0,1.406449 -0.973695,2.462877 -2.435299,2.462877 z m 3.27535,-10.067883 c -1.001273,1.10734 -1.406449,2.165889 -1.378871,3.381417 v 0.487908 h -3.597794 l -0.02758,-0.704285 c -0.08061,-1.380993 0.379721,-2.787442 1.595249,-4.249045 0.867628,-1.028851 1.571913,-1.894358 1.571913,-2.815019 0,-0.9482397 -0.623674,-1.5697925 -1.979211,-1.6249474 -0.890963,0 -1.974968,0.3245651 -2.679253,0.8124735 l -0.92066,-2.9507849 c 0.973695,-0.5685193 2.598643,-1.1094612 4.520577,-1.1094612 3.572338,0 5.197285,1.9749682 5.197285,4.2235893 0,2.0577007 -1.272805,3.4111157 -2.301655,4.5481547 z"
     id="Shape"
     fill="#ffffff"
     style="fill-rule:evenodd;stroke:none;stroke-width:1" />
  <path
     d="M 15,60 C 6.7161646,60 0,66.716165 0,75 0,83.283835 6.7161646,90 15,90 23.283835,90 30,83.283835 30,75 30,66.716165 23.283835,60 15,60 Z m -0.235469,24.418753 c -1.434026,0 -2.407721,-1.056428 -2.407721,-2.462877 0,-1.436148 1.001272,-2.462876 2.407721,-2.462876 1.461604,0 2.409843,1.026728 2.435299,2.462876 0,1.406449 -0.973695,2.462877 -2.435299,2.462877 z m 3.27535,-10.067883 c -1.001273,1.10734 -1.406449,2.165889 -1.378871,3.381417 v 0.487908 h -3.597794 l -0.02758,-0.704285 c -0.08061,-1.380993 0.379721,-2.787442 1.595249,-4.249045 0.867628,-1.028851 1.571913,-1.894358 1.571913,-2.815019 0,-0.94824 -0.623674,-1.569793 -1.979211,-1.624947 -0.890963,0 -1.974968,0.324565 -2.679253,0.812473 l -0.920662,-2.950785 c 0.973695,-0.568519 2.598643,-1.109461 4.520577,-1.109461 3.572338,0 5.197285,1.974968 5.197285,4.223589 0,2.057701 -1.272805,3.411116 -2.301655,4.548155 z"
     id="path1209"
     fill="#6a6a6a"
     style="fill-rule:evenodd;stroke:none;stroke-width:1" />
  <g
     id="image"
     transform="translate(50)"
     fill="#ffffff"
     style="fill-rule:evenodd;stroke:none;stroke-width:1">
    <path
       d="M 0,0 V 30 H 40 V 0 Z m 37.5,27.5 h -35 v -25 h 35 z"
       id="path1211" />
    <circle
       id="Oval"
       cx="31.25"
       cy="8.75"
       r="3.75" />
    <path
       d="m 25.2775,15.0525 c -2.2725,0 -2.0375,4.84 -5.15,4.84 -3.105,0 -4.795,-12.3825 -8.6575,-12.3825 -3.86,0 -6.46,17.5525 -6.46,17.5525 h 30.365 c 0,0 -7.8225,-10.01 -10.0975,-10.01 z"
       id="path1214" />
  </g>
  <g
     id="g1223"
     transform="translate(50,60)"
     fill="#6a6a6a"
     style="fill-rule:evenodd;stroke:none;stroke-width:1">
    <path
       d="M 0,0 V 30 H 40 V 0 Z m 37.5,27.5 h -35 v -25 h 35 z"
       id="path1217" />
    <circle
       id="circle1219"
       cx="31.25"
       cy="8.75"
       r="3.75" />
    <path
       d="m 25.2775,15.0525 c -2.2725,0 -2.0375,4.84 -5.15,4.84 -3.105,0 -4.795,-12.3825 -8.6575,-12.3825 -3.86,0 -6.46,17.5525 -6.46,17.5525 h 30.365 c 0,0 -7.8225,-10.01 -10.0975,-10.01 z"
       id="path1221" />
  </g>
  <g
     id="robot"
     transform="translate(110)"
     fill="#ffffff"
     style="fill-rule:evenodd;stroke:none;stroke-width:1">
    <path
       d="M 9.7329808,0.6328125 V 2.49975 H 8.5815734 c -1.2708304,0 -2.3046241,0.964125 -2.3046241,2.1493125 v 5.5040625 c 0,1.185188 1.0337937,2.149313 2.3046241,2.149313 h 1.1779458 v 1.3545 H 5.2214423 5.2051573 1.3932692 c -0.332937,0 -0.60314682,0.252 -0.60314682,0.5625 V 26.41725 c 0,0.311062 0.27020982,0.5625 0.60314682,0.5625 h 3.2087413 v 1.315125 c -0.5018182,-0.464625 -1.1924213,-0.75375 -1.9541958,-0.75375 -1.5301836,0 -2.77507869,1.161 -2.77507869,2.588625 0,0.776812 0.36972902,1.5075 1.01449301,2.001937 0.25754368,0.198 0.63752618,0.162563 0.84923078,-0.07931 C 1.9475612,31.81275 1.9107692,31.457812 1.6532255,31.2615 1.2889248,30.9825 1.0796329,30.570187 1.0796329,30.12975 c 0,-0.80775 0.7038723,-1.463625 1.5687849,-1.463625 0.8649126,0 1.568785,0.655875 1.568785,1.463625 0,0.525375 -0.3033829,1.010813 -0.792535,1.272375 -0.2889073,0.152437 -0.3896328,0.497812 -0.2243706,0.766688 0.110979,0.181125 0.3148427,0.283499 0.5241346,0.283499 0.1013287,0 0.2038636,-0.02419 0.2985577,-0.07481 0.2147203,-0.114188 0.4089336,-0.253688 0.5796241,-0.410625 v 12.401438 c 0,0.311062 0.2702098,0.5625 0.6031469,0.5625 h 7.2842045 c 0.332937,0 0.603147,-0.251438 0.603147,-0.5625 v -1.645876 h 0.335953 v 1.645876 c 0,0.309937 0.269003,0.5625 0.602543,0.5625 h 7.283602 c 0.33354,0 0.603147,-0.252563 0.603147,-0.5625 V 31.948312 c 0.175515,0.165938 0.374554,0.312188 0.597115,0.42975 0.09409,0.05063 0.196626,0.07481 0.297955,0.07481 0.209895,0 0.413758,-0.102375 0.524134,-0.2835 0.164659,-0.269438 0.06333,-0.61425 -0.224974,-0.766688 -0.489152,-0.261562 -0.791931,-0.747 -0.791931,-1.272375 0,-0.80775 0.703269,-1.463625 1.568181,-1.463625 0.866119,0 1.570595,0.655875 1.570595,1.463625 0,0.439313 -0.211102,0.85275 -0.573593,1.13175 -0.258147,0.198 -0.294335,0.55125 -0.08384,0.790875 0.212307,0.241875 0.591084,0.274501 0.848024,0.07931 0.645367,-0.494438 1.015699,-1.224 1.015699,-2.001938 0,-1.427062 -1.244291,-2.588625 -2.775681,-2.588625 -0.769013,0 -1.46806,0.295313 -1.971084,0.770063 v -1.331438 h 3.224423 c 0.334746,0 0.603147,-0.251437 0.603147,-0.5625 V 14.218875 c 0,-0.3105 -0.268401,-0.5625 -0.603147,-0.5625 h -3.82757 -4.501285 v -1.3545 h 1.124869 c 1.269624,0 2.302814,-0.964125 2.302814,-2.149312 V 4.6485 c 0,-1.1851875 -1.03319,-2.1493125 -2.302814,-2.1493125 H 16.788593 V 0.63225 c 0,-0.3105 -0.270813,-0.5625 -0.603147,-0.5625 H 10.336731 C 10.002587,0.0703125 9.7329808,0.3223125 9.7329808,0.6328125 Z M 11.886818,41.596313 H 5.8083042 V 29.85525 H 11.886215 Z M 1.9976224,25.854187 V 14.781375 h 2.6055944 v 11.072812 z m 9.8891956,17.9505 H 5.8083042 v -1.083374 h 6.0779108 z m 1.206294,-2.208374 V 29.85525 h 0.335953 v 11.741063 z m 7.618951,0 H 14.634755 V 29.85525 h 6.077308 z m -6.077308,2.208374 v -1.083374 h 6.077308 v 1.083374 z m 9.906084,-17.9505 H 21.918357 V 14.781375 h 2.622482 z m -3.828776,0.5625 v 2.313563 h -6.680455 -1.54104 -6.6822638 v -2.238188 c 0.00362,-0.02644 0.016285,-0.0495 0.016285,-0.07594 v -11.63475 h 4.5380768 5.847509 4.501285 v 11.635312 h 6.03e-4 z M 15.607631,13.656375 h -4.640612 v -1.3545 h 4.640612 z m 3.429493,-9.00675 v 5.504063 c 0,0.56475 -0.490358,1.024312 -1.095315,1.024312 H 16.213794 10.365682 8.5845892 c -0.6055595,0 -1.0983305,-0.459562 -1.0983305,-1.024312 V 4.649625 c 0,-0.56475 0.492771,-1.0243125 1.0983305,-1.0243125 h 1.5108828 c 0.07479,0.030937 0.156215,0.0495 0.243671,0.0495 h 5.848715 c 0.08746,0 0.165866,-0.018562 0.241259,-0.0495 h 1.512692 C 18.544353,3.62475 19.037124,4.084875 19.037124,4.649625 Z M 15.581696,1.1953125 V 2.49975 H 10.939275 V 1.1953125 Z"
       id="path1225"
       stroke="#ffffff" />
    <path
       d="m 18.975603,24.79725 c 0.33354,0 0.603147,-0.251438 0.603147,-0.5625 v -7.734938 c 0,-0.3105 -0.269607,-0.562499 -0.603147,-0.562499 -0.332334,0 -0.603147,0.251999 -0.603147,0.562499 v 7.734938 c 0,0.312187 0.270813,0.5625 0.603147,0.5625 z"
       id="path1227" />
    <path
       d="m 17.168575,8.4853125 c 0.332334,0 0.603147,-0.252 0.603147,-0.5625 v -2.554875 c 0,-0.3105 -0.270813,-0.5625 -0.603147,-0.5625 -0.33354,0 -0.603147,0.252 -0.603147,0.5625 v 2.554875 c 0,0.311625 0.269607,0.5625 0.603147,0.5625 z"
       id="path1229" />
  </g>
  <g
     id="g1238"
     transform="translate(109,60)"
     fill="#6a6a6a"
     style="fill-rule:evenodd;stroke:none;stroke-width:1">
    <path
       d="M 10.732981,0.6328125 V 2.49975 H 9.5815734 c -1.2708304,0 -2.3046241,0.964125 -2.3046241,2.1493125 v 5.5040625 c 0,1.185188 1.0337937,2.149313 2.3046241,2.149313 h 1.1779456 v 1.3545 H 6.2214423 6.2051573 2.3932692 c -0.332937,0 -0.6031468,0.252 -0.6031468,0.5625 V 26.41725 c 0,0.311062 0.2702098,0.5625 0.6031468,0.5625 h 3.2087413 v 1.315125 c -0.5018182,-0.464625 -1.1924213,-0.75375 -1.9541958,-0.75375 -1.5301836,0 -2.77507869,1.161 -2.77507869,2.588625 0,0.776812 0.36972899,1.5075 1.01449299,2.001937 0.2575437,0.198 0.6375262,0.162563 0.8492308,-0.07931 C 2.9475612,31.81275 2.9107692,31.457812 2.6532255,31.2615 2.2889248,30.9825 2.0796329,30.570187 2.0796329,30.12975 c 0,-0.80775 0.7038723,-1.463625 1.5687849,-1.463625 0.8649126,0 1.568785,0.655875 1.568785,1.463625 0,0.525375 -0.3033829,1.010813 -0.792535,1.272375 -0.2889073,0.152437 -0.3896328,0.497812 -0.2243706,0.766688 0.110979,0.181125 0.3148427,0.283499 0.5241346,0.283499 0.1013287,0 0.2038636,-0.02419 0.2985577,-0.07481 0.2147203,-0.114188 0.4089336,-0.253688 0.5796241,-0.410625 v 12.401438 c 0,0.311062 0.2702098,0.5625 0.6031469,0.5625 h 7.2842045 c 0.332937,0 0.603147,-0.251438 0.603147,-0.5625 v -1.645876 h 0.335953 v 1.645876 c 0,0.309937 0.269003,0.5625 0.602543,0.5625 h 7.283602 c 0.33354,0 0.603147,-0.252563 0.603147,-0.5625 V 31.948312 c 0.175515,0.165938 0.374554,0.312188 0.597115,0.42975 0.09409,0.05063 0.196626,0.07481 0.297955,0.07481 0.209895,0 0.413758,-0.102375 0.524134,-0.2835 0.164659,-0.269438 0.06333,-0.61425 -0.224974,-0.766688 -0.489152,-0.261562 -0.791931,-0.747 -0.791931,-1.272375 0,-0.80775 0.703269,-1.463625 1.568181,-1.463625 0.866119,0 1.570595,0.655875 1.570595,1.463625 0,0.439313 -0.211102,0.85275 -0.573593,1.13175 -0.258147,0.198 -0.294335,0.55125 -0.08384,0.790875 0.212307,0.241875 0.591084,0.274501 0.848024,0.07931 0.645367,-0.494438 1.015699,-1.224 1.015699,-2.001938 0,-1.427062 -1.244291,-2.588625 -2.775681,-2.588625 -0.769013,0 -1.46806,0.295313 -1.971084,0.770063 v -1.331438 h 3.224423 c 0.334746,0 0.603147,-0.251437 0.603147,-0.5625 V 14.218875 c 0,-0.3105 -0.268401,-0.5625 -0.603147,-0.5625 h -3.82757 -4.501285 v -1.3545 h 1.124869 c 1.269624,0 2.302814,-0.964125 2.302814,-2.149312 V 4.6485 c 0,-1.1851875 -1.03319,-2.1493125 -2.302814,-2.1493125 H 17.788593 V 0.63225 c 0,-0.3105 -0.270813,-0.5625 -0.603147,-0.5625 h -5.848715 c -0.334144,5.625e-4 -0.60375,0.2525625 -0.60375,0.5630625 z M 12.886818,41.596313 H 6.8083042 V 29.85525 H 12.886215 Z M 2.9976224,25.854187 V 14.781375 h 2.6055944 v 11.072812 z m 9.8891956,17.9505 H 6.8083042 v -1.083374 h 6.0779108 z m 1.206294,-2.208374 V 29.85525 h 0.335953 v 11.741063 z m 7.618951,0 H 15.634755 V 29.85525 h 6.077308 z m -6.077308,2.208374 v -1.083374 h 6.077308 v 1.083374 z m 9.906084,-17.9505 H 22.918357 V 14.781375 h 2.622482 z m -3.828776,0.5625 v 2.313563 h -6.680455 -1.54104 -6.6822638 v -2.238188 c 0.00362,-0.02644 0.016285,-0.0495 0.016285,-0.07594 v -11.63475 h 4.5380768 5.847509 4.501285 v 11.635312 h 6.03e-4 z M 16.607631,13.656375 h -4.640612 v -1.3545 h 4.640612 z m 3.429493,-9.00675 v 5.504063 c 0,0.56475 -0.490358,1.024312 -1.095315,1.024312 H 17.213794 11.365682 9.5845892 c -0.6055595,0 -1.0983305,-0.459562 -1.0983305,-1.024312 V 4.649625 c 0,-0.56475 0.492771,-1.0243125 1.0983305,-1.0243125 h 1.5108828 c 0.07479,0.030937 0.156215,0.0495 0.243671,0.0495 h 5.848715 c 0.08746,0 0.165866,-0.018562 0.241259,-0.0495 h 1.512692 C 19.544353,3.62475 20.037124,4.084875 20.037124,4.649625 Z M 16.581696,1.1953125 V 2.49975 H 11.939275 V 1.1953125 Z"
       id="path1232"
       stroke="#6a6a6a" />
    <path
       d="m 19.975603,24.79725 c 0.33354,0 0.603147,-0.251438 0.603147,-0.5625 v -7.734938 c 0,-0.3105 -0.269607,-0.562499 -0.603147,-0.562499 -0.332334,0 -0.603147,0.251999 -0.603147,0.562499 v 7.734938 c 0,0.312187 0.270813,0.5625 0.603147,0.5625 z"
       id="path1234" />
    <path
       d="m 18.168575,8.4853125 c 0.332334,0 0.603147,-0.252 0.603147,-0.5625 v -2.554875 c 0,-0.3105 -0.270813,-0.5625 -0.603147,-0.5625 -0.33354,0 -0.603147,0.252 -0.603147,0.5625 v 2.554875 c 0,0.311625 0.269607,0.5625 0.603147,0.5625 z"
       id="path1236" />
  </g>
  <path
     d="m 211.72445,5.149111 c 1.66454,1.0334702 2.83175,2.7823172 3.0447,4.8123322 0.6784,0.3140898 1.43227,0.4947138 2.23062,0.4947138 2.91667,0 5.27983,-2.3405459 5.27983,-5.2278563 C 222.2796,2.3405454 219.91644,0 216.99977,0 c -2.88835,4.4488604e-4 -5.23129,2.299171 -5.27532,5.149111 z m -3.45893,10.704848 c 2.91576,0 5.27982,-2.340991 5.27982,-5.228301 0,-2.8873103 -2.36406,-5.2278557 -5.27982,-5.2278557 -2.91576,0 -5.28072,2.3409903 -5.28072,5.2283007 0,2.88731 2.36496,5.227856 5.28072,5.227856 z m 2.23916,0.356353 h -4.47967 c -3.72759,0 -6.76017,3.003426 -6.76017,6.694201 v 5.42583 l 0.0139,0.08497 0.37739,0.117005 C 203.21348,29.632524 206.30401,30 208.84777,30 c 4.96848,0 7.8483,-1.402726 8.02621,-1.492148 l 0.35268,-0.177064 h 0.0377 v -5.426275 c 4.5e-4,-3.690775 -3.03212,-6.694201 -6.75971,-6.694201 z m 8.7356,-5.397357 h -4.44552 c -0.0481,1.761304 -0.80734,3.347323 -2.00779,4.48801 3.31337,0.975635 5.73718,4.018211 5.73718,7.612 v 1.671882 c 4.38937,-0.159714 6.91875,-1.391158 7.08543,-1.474352 l 0.35268,-0.177065 H 226 v -5.42672 c 0,-3.690774 -3.03257,-6.693755 -6.75972,-6.693755 z m -20.23916,-0.356354 c 1.03287,0 1.99386,-0.298518 2.80794,-0.8070229 0.25878,-1.6714368 1.16361,-3.1319977 2.45616,-4.1267629 0.005,-0.097875 0.0148,-0.19486 0.0148,-0.2936247 0,-2.8877553 -2.36405,-5.22830072793 -5.27892,-5.22830072793 -2.91666,0 -5.27982,2.34054542793 -5.27982,5.22830072793 0,2.8868654 2.36316,5.2274105 5.27982,5.2274105 z m 4.7416,4.844364 c -1.19506,-1.134904 -1.95163,-2.71247 -2.00689,-4.463096 -0.16488,-0.01201 -0.32797,-0.02491 -0.496,-0.02491 h -4.47967 c -3.72759,0 -6.76016,3.002981 -6.76016,6.693755 v 5.426275 l 0.0139,0.08408 0.37738,0.11745 c 2.85377,0.882654 5.40068,1.288835 7.61288,1.416962 v -1.638516 c 9e-4,-3.593789 2.42426,-6.63592 5.73853,-7.612 z"
     id="path1240"
     fill="#ffffff"
     style="fill-rule:evenodd;stroke:none;stroke-width:1" />
  <path
     d="m 211.72445,65.149111 c 1.66454,1.03347 2.83175,2.782317 3.0447,4.812332 0.6784,0.31409 1.43227,0.494714 2.23062,0.494714 2.91667,0 5.27983,-2.340546 5.27983,-5.227856 C 222.2796,62.340545 219.91644,60 216.99977,60 c -2.88835,4.45e-4 -5.23129,2.299171 -5.27532,5.149111 z m -3.45893,10.704848 c 2.91576,0 5.27982,-2.340991 5.27982,-5.228301 0,-2.88731 -2.36406,-5.227856 -5.27982,-5.227856 -2.91576,0 -5.28072,2.340991 -5.28072,5.228301 0,2.88731 2.36496,5.227856 5.28072,5.227856 z m 2.23916,0.356353 h -4.47967 c -3.72759,0 -6.76017,3.003426 -6.76017,6.694201 v 5.42583 l 0.0139,0.08497 0.37739,0.117005 C 203.21348,89.632524 206.30401,90 208.84777,90 c 4.96848,0 7.8483,-1.402726 8.02621,-1.492148 l 0.35268,-0.177064 h 0.0377 v -5.426275 c 4.5e-4,-3.690775 -3.03212,-6.694201 -6.75971,-6.694201 z m 8.7356,-5.397357 h -4.44552 c -0.0481,1.761304 -0.80734,3.347323 -2.00779,4.48801 3.31337,0.975635 5.73718,4.018211 5.73718,7.612 v 1.671882 c 4.38937,-0.159714 6.91875,-1.391158 7.08543,-1.474352 l 0.35268,-0.177065 H 226 v -5.42672 c 0,-3.690774 -3.03257,-6.693755 -6.75972,-6.693755 z m -20.23916,-0.356354 c 1.03287,0 1.99386,-0.298518 2.80794,-0.807023 0.25878,-1.671437 1.16361,-3.131998 2.45616,-4.126763 0.005,-0.09787 0.0148,-0.19486 0.0148,-0.293624 0,-2.887756 -2.36405,-5.228301 -5.27892,-5.228301 -2.91666,0 -5.27982,2.340545 -5.27982,5.228301 0,2.886865 2.36316,5.22741 5.27982,5.22741 z m 4.7416,4.844364 c -1.19506,-1.134904 -1.95163,-2.71247 -2.00689,-4.463096 -0.16488,-0.01201 -0.32797,-0.02491 -0.496,-0.02491 h -4.47967 c -3.72759,0 -6.76016,3.002981 -6.76016,6.693755 v 5.426275 l 0.0139,0.08408 0.37738,0.11745 c 2.85377,0.882654 5.40068,1.288835 7.61288,1.416962 v -1.638516 c 9e-4,-3.593789 2.42426,-6.63592 5.73853,-7.612 z"
     id="path1242"
     fill="#6a6a6a"
     style="fill-rule:evenodd;stroke:none;stroke-width:1" />
  <g
     id="article"
     transform="translate(150)"
     fill="#ffffff"
     style="fill-rule:evenodd;stroke:none;stroke-width:1">
    <path
       d="M 0,0 V 30.396522 H 26.35875 V 0 Z M 24.69555,1.6056522 V 28.788261 H 1.66455 V 1.6056522 Z"
       id="path1244" />
    <polygon
       id="polygon1246"
       points="4.1067,22.423043 22.5639,22.423043 22.5639,24.031304 4.1067,24.031304 " />
    <polygon
       id="polygon1248"
       points="4.1067,3.7395652 22.5639,3.7395652 22.5639,6.1552174 4.1067,6.1552174 " />
    <polygon
       id="polygon1250"
       points="4.1067,25.686522 22.5639,25.686522 22.5639,27.297391 4.1067,27.297391 " />
    <path
       d="M 4.02975,20.917826 H 8.4888 V 7.7582609 H 4.02975 Z m 6.6906,0 h 4.455 v -9.423913 h -4.455 z M 17.037,15.393913 v 5.523913 h 4.4604 v -5.523913 z"
       id="path1252" />
  </g>
  <g
     id="g1265"
     transform="translate(150,60)"
     fill="#6a6a6a"
     style="fill-rule:evenodd;stroke:none;stroke-width:1">
    <path
       d="M 0,0 V 30.396522 H 26.35875 V 0 Z M 24.69555,1.6056522 V 28.788261 H 1.66455 V 1.6056522 Z"
       id="path1255" />
    <polygon
       id="polygon1257"
       points="4.1067,22.423043 22.5639,22.423043 22.5639,24.031304 4.1067,24.031304 " />
    <polygon
       id="polygon1259"
       points="4.1067,3.7395652 22.5639,3.7395652 22.5639,6.1552174 4.1067,6.1552174 " />
    <polygon
       id="polygon1261"
       points="4.1067,25.686522 22.5639,25.686522 22.5639,27.297391 4.1067,27.297391 " />
    <path
       d="M 4.02975,20.917826 H 8.4888 V 7.7582609 H 4.02975 Z m 6.6906,0 h 4.455 v -9.423913 h -4.455 z M 17.037,15.393913 v 5.523913 h 4.4604 v -5.523913 z"
       id="path1263" />
  </g>
  <path
     d="M 267.71875,0 C 269.5309,0 271,1.4690566 271,3.28125 271,4.0199414 270.75575,4.7015801 270.34375,5.25 l -1.3125,1.3125 -4.59375,-4.59375 1.3125,-1.3125 C 266.29842,0.24424805 266.98002,0 267.71875,0 Z M 251.3125,15.09375 250,21 l 5.90625,-1.3125 12.14062,-12.140625 -4.59375,-4.59375 z m 13.36244,-7.6375606 -9.1875,9.1874996 -1.13113,-1.131129 9.1875,-9.1874995 z"
     id="path1267"
     fill="#ffffff"
     style="fill-rule:evenodd;stroke:none;stroke-width:1" />
  <g
     id="calendar146"
     transform="translate(290)"
     fill="#ffffff"
     style="fill-rule:evenodd;stroke:none;stroke-width:1">
    <g
       id="_x31_5">
      <g
         id="Group">
        <path
           d="m 6.7631348,6.4013672 h 0.3387695 c 0.5148437,0 0.9321777,-0.4174805 0.9321777,-0.9321778 V 2.8967773 1.9345703 c 0,-0.5146972 -0.417334,-0.9321289 -0.9321777,-0.9321289 H 6.7631348 c -0.514795,0 -0.9321289,0.4174317 -0.9321289,0.9321289 v 0.9622559 2.5723632 c 0,0.5146973 0.4173339,0.9321778 0.9321289,0.9321778 z"
           id="path1269" />
        <path
           d="m 18.71958,6.3782715 h 0.33877 c 0.514795,0 0.932128,-0.4174317 0.932128,-0.9321778 V 2.6526367 1.9114258 c 0,-0.5146485 -0.417333,-0.9320801 -0.932128,-0.9320801 h -0.33877 c -0.514844,0 -0.932178,0.4174316 -0.932178,0.9320801 v 0.7412109 2.7934082 c 4.9e-5,0.5147949 0.417383,0.9322266 0.932178,0.9322266 z"
           id="path1271" />
        <path
           d="m 23.140625,3 h -2.392383 v 2.7934082 c 0,0.9318359 -0.758057,1.4458008 -1.689844,1.4458008 h -0.338769 c -0.931836,0 -1.689893,-0.7581055 -1.689893,-1.6899414 V 3 H 8.7918457 v 2.5723633 c 0,0.9318359 -0.7580566,1.6899414 -1.6898926,1.6899414 H 6.7631836 c -0.9317871,0 -1.6898438,-0.7581055 -1.6898438,-1.6899414 V 3 H 2.4921875 C 1.6565918,3 0.97675781,3.679834 0.97675781,4.5154785 V 22.82749 c 0,0.835645 0.67983399,1.515479 1.51542969,1.515479 H 23.140625 c 0.835596,0 1.51543,-0.679834 1.51543,-1.515479 V 4.5154785 C 24.656103,3.6798828 23.976269,3 23.140625,3 Z m 0,19.82749 H 2.4922363 L 2.4921875,8.9987305 H 23.140869 l 7.81e-4,13.8287105 c -4.8e-5,0 -3.9e-4,4.9e-5 -10e-4,4.9e-5 z"
           id="path1273" />
        <path
           d="m 13.598731,13.534082 h 2.720996 c 0.107861,0 0.195312,-0.08745 0.195312,-0.195312 v -2.356202 c 0,-0.107861 -0.08745,-0.195312 -0.195312,-0.195312 h -2.720996 c -0.107862,0 -0.195313,0.08745 -0.195313,0.195312 v 2.356202 c 0,0.107861 0.08745,0.195312 0.195313,0.195312 z"
           id="path1275" />
        <path
           d="M 18.039404,13.534082 H 20.7604 c 0.107862,0 0.195313,-0.08745 0.195313,-0.195312 v -2.356202 c 0,-0.107861 -0.08745,-0.195312 -0.195313,-0.195312 h -2.720996 c -0.107861,0 -0.195312,0.08745 -0.195312,0.195312 v 2.356202 c 0,0.107861 0.08745,0.195312 0.195312,0.195312 z"
           id="path1277" />
        <path
           d="m 4.7175293,17.391504 h 2.7209961 c 0.1078613,0 0.1953125,-0.08745 0.1953125,-0.195313 V 14.83999 c 0,-0.107861 -0.087451,-0.195312 -0.1953125,-0.195312 H 4.7175293 c -0.1078613,0 -0.1953125,0.08745 -0.1953125,0.195312 v 2.356201 c 0,0.107862 0.087451,0.195313 0.1953125,0.195313 z"
           id="path1279" />
        <path
           d="M 9.1581543,17.391504 H 11.87915 c 0.107862,0 0.195313,-0.08745 0.195313,-0.195313 V 14.83999 c 0,-0.107861 -0.08745,-0.195312 -0.195313,-0.195312 H 9.1581543 c -0.1078613,0 -0.1953125,0.08745 -0.1953125,0.195312 v 2.356201 c 0,0.107862 0.087451,0.195313 0.1953125,0.195313 z"
           id="path1281" />
        <path
           d="m 13.598779,17.391504 h 2.720996 c 0.107862,0 0.195313,-0.08745 0.195313,-0.195313 V 14.83999 c 0,-0.107861 -0.08745,-0.195312 -0.195313,-0.195312 h -2.720996 c -0.107861,0 -0.195312,0.08745 -0.195312,0.195312 v 2.356201 c 0,0.107862 0.08745,0.195313 0.195312,0.195313 z"
           id="path1283" />
        <path
           d="m 18.039453,17.391504 h 2.720996 c 0.107861,0 0.195313,-0.08745 0.195313,-0.195313 V 14.83999 c 0,-0.107861 -0.08745,-0.195312 -0.195313,-0.195312 h -2.720996 c -0.107861,0 -0.195312,0.08745 -0.195312,0.195312 v 2.356201 c 0,0.107862 0.08745,0.195313 0.195312,0.195313 z"
           id="path1285" />
        <path
           d="M 7.4385254,18.5021 H 4.7175781 c -0.1078613,0 -0.1953125,0.08745 -0.1953125,0.195312 v 2.356201 c 0,0.107862 0.087451,0.195313 0.1953125,0.195313 h 2.7209961 c 0.1078613,0 0.1953125,-0.08745 0.1953125,-0.195313 V 18.697412 C 7.6338379,18.589551 7.5463867,18.5021 7.4385254,18.5021 Z"
           id="path1287" />
        <path
           d="M 11.879199,18.5021 H 9.1582031 c -0.1078613,0 -0.1953125,0.08745 -0.1953125,0.195312 v 2.356201 c 0,0.107862 0.087451,0.195313 0.1953125,0.195313 h 2.7209959 c 0.107862,0 0.195313,-0.08745 0.195313,-0.195313 v -2.356201 c 0,-0.107861 -0.08745,-0.195312 -0.195313,-0.195312 z"
           id="path1289" />
        <path
           d="m 16.319824,18.5021 h -2.720996 c -0.107861,0 -0.195312,0.08745 -0.195312,0.195312 v 2.356201 c 0,0.107862 0.08745,0.195313 0.195312,0.195313 h 2.720996 c 0.107861,0 0.195313,-0.08745 0.195313,-0.195313 v -2.356201 c 0,-0.107861 -0.08745,-0.195312 -0.195313,-0.195312 z"
           id="path1291" />
        <path
           d="m 20.760449,18.5021 h -2.720996 c -0.107861,0 -0.195312,0.08745 -0.195312,0.195312 v 2.356201 c 0,0.107862 0.08745,0.195313 0.195312,0.195313 h 2.720996 c 0.107861,0 0.195313,-0.08745 0.195313,-0.195313 v -2.356201 c 0,-0.107861 -0.08745,-0.195312 -0.195313,-0.195312 z"
           id="path1293" />
      </g>
    </g>
  </g>
  <g
     id="calendar146-2"
     transform="translate(290,40)"
     fill="#000000"
     opacity="0.7"
     style="fill-rule:evenodd;stroke:none;stroke-width:1">
    <g
       id="g1326">
      <g
         id="g1324">
        <path
           d="m 6.7631348,6.4013672 h 0.3387695 c 0.5148437,0 0.9321777,-0.4174805 0.9321777,-0.9321778 V 2.8967773 1.9345703 c 0,-0.5146972 -0.417334,-0.9321289 -0.9321777,-0.9321289 H 6.7631348 c -0.514795,0 -0.9321289,0.4174317 -0.9321289,0.9321289 v 0.9622559 2.5723632 c 0,0.5146973 0.4173339,0.9321778 0.9321289,0.9321778 z"
           id="path1298" />
        <path
           d="m 18.71958,6.3782715 h 0.33877 c 0.514795,0 0.932128,-0.4174317 0.932128,-0.9321778 V 2.6526367 1.9114258 c 0,-0.5146485 -0.417333,-0.9320801 -0.932128,-0.9320801 h -0.33877 c -0.514844,0 -0.932178,0.4174316 -0.932178,0.9320801 v 0.7412109 2.7934082 c 4.9e-5,0.5147949 0.417383,0.9322266 0.932178,0.9322266 z"
           id="path1300" />
        <path
           d="m 23.140625,3 h -2.392383 v 2.7934082 c 0,0.9318359 -0.758057,1.4458008 -1.689844,1.4458008 h -0.338769 c -0.931836,0 -1.689893,-0.7581055 -1.689893,-1.6899414 V 3 H 8.7918457 v 2.5723633 c 0,0.9318359 -0.7580566,1.6899414 -1.6898926,1.6899414 H 6.7631836 c -0.9317871,0 -1.6898438,-0.7581055 -1.6898438,-1.6899414 V 3 H 2.4921875 C 1.6565918,3 0.97675781,3.679834 0.97675781,4.5154785 V 22.82749 c 0,0.835645 0.67983399,1.515479 1.51542969,1.515479 H 23.140625 c 0.835596,0 1.51543,-0.679834 1.51543,-1.515479 V 4.5154785 C 24.656103,3.6798828 23.976269,3 23.140625,3 Z m 0,19.82749 H 2.4922363 L 2.4921875,8.9987305 H 23.140869 l 7.81e-4,13.8287105 c -4.8e-5,0 -3.9e-4,4.9e-5 -10e-4,4.9e-5 z"
           id="path1302" />
        <path
           d="m 13.598731,13.534082 h 2.720996 c 0.107861,0 0.195312,-0.08745 0.195312,-0.195312 v -2.356202 c 0,-0.107861 -0.08745,-0.195312 -0.195312,-0.195312 h -2.720996 c -0.107862,0 -0.195313,0.08745 -0.195313,0.195312 v 2.356202 c 0,0.107861 0.08745,0.195312 0.195313,0.195312 z"
           id="path1304" />
        <path
           d="M 18.039404,13.534082 H 20.7604 c 0.107862,0 0.195313,-0.08745 0.195313,-0.195312 v -2.356202 c 0,-0.107861 -0.08745,-0.195312 -0.195313,-0.195312 h -2.720996 c -0.107861,0 -0.195312,0.08745 -0.195312,0.195312 v 2.356202 c 0,0.107861 0.08745,0.195312 0.195312,0.195312 z"
           id="path1306" />
        <path
           d="m 4.7175293,17.391504 h 2.7209961 c 0.1078613,0 0.1953125,-0.08745 0.1953125,-0.195313 V 14.83999 c 0,-0.107861 -0.087451,-0.195312 -0.1953125,-0.195312 H 4.7175293 c -0.1078613,0 -0.1953125,0.08745 -0.1953125,0.195312 v 2.356201 c 0,0.107862 0.087451,0.195313 0.1953125,0.195313 z"
           id="path1308" />
        <path
           d="M 9.1581543,17.391504 H 11.87915 c 0.107862,0 0.195313,-0.08745 0.195313,-0.195313 V 14.83999 c 0,-0.107861 -0.08745,-0.195312 -0.195313,-0.195312 H 9.1581543 c -0.1078613,0 -0.1953125,0.08745 -0.1953125,0.195312 v 2.356201 c 0,0.107862 0.087451,0.195313 0.1953125,0.195313 z"
           id="path1310" />
        <path
           d="m 13.598779,17.391504 h 2.720996 c 0.107862,0 0.195313,-0.08745 0.195313,-0.195313 V 14.83999 c 0,-0.107861 -0.08745,-0.195312 -0.195313,-0.195312 h -2.720996 c -0.107861,0 -0.195312,0.08745 -0.195312,0.195312 v 2.356201 c 0,0.107862 0.08745,0.195313 0.195312,0.195313 z"
           id="path1312" />
        <path
           d="m 18.039453,17.391504 h 2.720996 c 0.107861,0 0.195313,-0.08745 0.195313,-0.195313 V 14.83999 c 0,-0.107861 -0.08745,-0.195312 -0.195313,-0.195312 h -2.720996 c -0.107861,0 -0.195312,0.08745 -0.195312,0.195312 v 2.356201 c 0,0.107862 0.08745,0.195313 0.195312,0.195313 z"
           id="path1314" />
        <path
           d="M 7.4385254,18.5021 H 4.7175781 c -0.1078613,0 -0.1953125,0.08745 -0.1953125,0.195312 v 2.356201 c 0,0.107862 0.087451,0.195313 0.1953125,0.195313 h 2.7209961 c 0.1078613,0 0.1953125,-0.08745 0.1953125,-0.195313 V 18.697412 C 7.6338379,18.589551 7.5463867,18.5021 7.4385254,18.5021 Z"
           id="path1316" />
        <path
           d="M 11.879199,18.5021 H 9.1582031 c -0.1078613,0 -0.1953125,0.08745 -0.1953125,0.195312 v 2.356201 c 0,0.107862 0.087451,0.195313 0.1953125,0.195313 h 2.7209959 c 0.107862,0 0.195313,-0.08745 0.195313,-0.195313 v -2.356201 c 0,-0.107861 -0.08745,-0.195312 -0.195313,-0.195312 z"
           id="path1318" />
        <path
           d="m 16.319824,18.5021 h -2.720996 c -0.107861,0 -0.195312,0.08745 -0.195312,0.195312 v 2.356201 c 0,0.107862 0.08745,0.195313 0.195312,0.195313 h 2.720996 c 0.107861,0 0.195313,-0.08745 0.195313,-0.195313 v -2.356201 c 0,-0.107861 -0.08745,-0.195312 -0.195313,-0.195312 z"
           id="path1320" />
        <path
           d="m 20.760449,18.5021 h -2.720996 c -0.107861,0 -0.195312,0.08745 -0.195312,0.195312 v 2.356201 c 0,0.107862 0.08745,0.195313 0.195312,0.195313 h 2.720996 c 0.107861,0 0.195313,-0.08745 0.195313,-0.195313 v -2.356201 c 0,-0.107861 -0.08745,-0.195312 -0.195313,-0.195312 z"
           id="path1322" />
      </g>
    </g>
  </g>
  <polygon
     id="polygon1329"
     fill="#ffffff"
     points="330,10.125 343.725,10.125 337.425,16.425 339,18 348,9 339,0 337.425,1.575 343.725,7.875 330,7.875 "
     style="fill-rule:evenodd;stroke:none;stroke-width:1" />
  <path
     d="M 412.001,2.1295385 C 411.19119,2.4909231 410.32226,2.736 409.40933,2.8453846 410.34151,2.2832308 411.05507,1.3915385 411.3933,0.33230769 410.52024,0.85292308 409.55369,1.2309231 408.52528,1.4358461 407.70309,0.55107692 406.53031,0 405.23241,0 c -2.49267,0 -4.51376,2.0353846 -4.51376,4.5443077 0,0.3558461 0.0399,0.7033846 0.11686,1.0356923 -3.7507,-0.1896923 -7.07656,-1.9993846 -9.30251,-4.74923077 -0.38909,0.67015387 -0.61045,1.45107687 -0.61045,2.28461537 0,1.5770769 0.79744,2.9686154 2.00734,3.7827692 -0.73969,-0.024923 -1.43538,-0.2298461 -2.04446,-0.5704615 v 0.056769 c 0,2.2015385 1.55638,4.0389237 3.62009,4.4570777 -0.3781,0.102461 -0.77682,0.15923 -1.18928,0.15923 -0.29148,0 -0.57333,-0.02908 -0.84969,-0.08308 0.57471,1.805539 2.24108,3.119539 4.21542,3.156923 -1.544,1.218462 -3.49085,1.944 -5.60543,1.944 -0.36435,0 -0.72319,-0.02215 -1.07654,-0.06231 C 391.99772,17.246769 394.3694,18 396.91845,18 c 8.30159,0 12.84148,-6.925846 12.84148,-12.9323077 l -0.0151,-0.5884615 c 0.88543,-0.6383077 1.65262,-1.4386154 2.2562,-2.3496923 z"
     id="path1333"
     fill="#ffffff"
     style="fill-rule:evenodd;stroke:none;stroke-width:1" />
  <path
     d="M 267.71875,40 C 269.5309,40 271,41.469057 271,43.28125 c 0,0.738691 -0.24425,1.42033 -0.65625,1.96875 l -1.3125,1.3125 -4.59375,-4.59375 1.3125,-1.3125 C 266.29842,40.244248 266.98002,40 267.71875,40 Z M 251.3125,55.09375 250,61 l 5.90625,-1.3125 12.14062,-12.140625 -4.59375,-4.59375 z m 13.36244,-7.637561 -9.1875,9.1875 -1.13113,-1.131129 9.1875,-9.1875 z"
     id="Shape-2"
     fill="#000000"
     opacity="0.7"
     style="fill-rule:evenodd;stroke:none;stroke-width:1" />
  <g
     id="Oval-10-+-Group"
     transform="translate(0,130)"
     style="fill:none;fill-rule:evenodd;stroke:none;stroke-width:1">
    <mask
       id="mask-2"
       fill="#ffffff">
      <use
         xlink:href="#path-1"
         id="use1336"
         x="0"
         y="0"
         width="100%"
         height="100%" />
    </mask>
    <use
       id="Oval-10"
       fill="#6a6a6a"
       xlink:href="#path-1"
       x="0"
       y="0"
       width="100%"
       height="100%" />
    <g
       id="g1350"
       mask="url(#mask-2)"
       fill="#343434">
      <g
         transform="translate(30,30)"
         id="g1348">
        <path
           d="M 45,60 C 61.582031,60 75,46.567266 75,30 75,13.432734 61.582031,0 45,0 28.4325,0 15,13.432734 15,30 15,46.567266 28.432734,60 45,60 Z M 37.5,15 c 4.313906,4.324922 7.5,15 30,15 C 67.5,42.407344 57.407109,52.5 45,52.5 32.592891,52.5 22.5,42.407109 22.5,30 c 0,0 8.730469,-5.280703 15,-15 z"
           id="path1340" />
        <polygon
           points="45,67.5 37.5,75 45,105 52.5,75 "
           id="polygon1342" />
        <path
           d="M 75,67.5 H 55.605469 L 60.805781,72.700312 48.984375,120 H 75 82.5 c 4.145625,0 7.5,-3.35461 7.5,-7.5 v -30 c 0,-8.28375 -6.708984,-15 -15,-15 z"
           id="path1344" />
        <path
           d="M 34.394531,67.5 H 15 c -8.2764844,0 -15,6.71625 -15,15 v 30 c 0,4.14562 3.3546094,7.5 7.5,7.5 H 15 41.022891 L 29.194219,72.700078 Z"
           id="path1346" />
      </g>
    </g>
  </g>
  <g
     id="g1366"
     transform="translate(170,130)"
     style="fill:none;fill-rule:evenodd;stroke:none;stroke-width:1">
    <mask
       id="mask-4"
       fill="#ffffff">
      <use
         xlink:href="#path-3"
         id="use1353"
         x="0"
         y="0"
         width="100%"
         height="100%" />
    </mask>
    <use
       id="use1356"
       fill="#6a6a6a"
       xlink:href="#path-3"
       x="0"
       y="0"
       width="100%"
       height="100%" />
    <g
       id="g1364"
       mask="url(#mask-4)"
       fill="#343434">
      <g
         transform="translate(30,29)"
         id="g1362">
        <path
           d="m 22.75,60.5 h 45.5 c 4.191687,0 7.583333,-3.386109 7.583333,-7.5625 V 30.25 C 75.833333,13.544674 62.251583,0 45.5,0 28.748417,0 15.166667,13.544674 15.166667,30.25 v 22.6875 c 0,4.176391 3.391883,7.5625 7.583333,7.5625 z M 45.5,7.5625 c 0,0 0,22.923828 22.75,22.6875 0,12.529172 -10.190104,22.6875 -22.75,22.6875 -12.559896,0 -22.75,-10.158328 -22.75,-22.6875 0,0 22.75,0.236328 22.75,-22.6875 z"
           id="path1358" />
        <path
           d="M 75.833333,68.0625 H 56.875 L 64.458333,75.625 45.5,98.3125 26.541667,75.625 34.125,68.0625 H 15.166667 C 6.790875,68.0625 0,74.834719 0,83.1875 v 30.25 C 0,117.61767 3.3918828,121 7.5833333,121 h 7.5833337 60.666666 7.583334 C 87.608354,121 91,117.61744 91,113.4375 v -30.25 c 0,-8.352781 -6.790875,-15.125 -15.166667,-15.125 z"
           id="path1360" />
      </g>
    </g>
  </g>
  <g
     id="g1376"
     transform="translate(340,60)"
     fill="#ffffff"
     style="fill-rule:evenodd;stroke:none;stroke-width:1">
    <path
       d="m 11.5,15 c 4.23763,0 7.666667,-3.358184 7.666667,-7.5 C 19.166667,3.3581836 15.73763,0 11.5,0 7.2660833,0 3.8333333,3.3581836 3.8333333,7.5 3.8333333,11.641816 7.2661432,15 11.5,15 Z M 9.5833333,3.75 C 10.685776,4.8312305 11.5,7.5 17.25,7.5 c 0,3.101836 -2.579294,5.625 -5.75,5.625 -3.1707057,0 -5.75,-2.523223 -5.75,-5.625 0,0 2.2311198,-1.3201758 3.8333333,-3.75 z"
       id="path1368" />
    <polygon
       id="polygon1370"
       points="11.5,16.875 9.5833333,18.75 11.5,26.25 13.416667,18.75 " />
    <path
       d="m 19.166667,16.875 h -4.95638 L 15.539255,18.175078 12.518229,30 h 6.648438 1.916666 C 22.142771,30 23,29.161348 23,28.125 v -7.5 c 0,-2.070938 -1.714518,-3.75 -3.833333,-3.75 z"
       id="path1372" />
    <path
       d="M 8.7897135,16.875 H 3.8333333 C 1.7182318,16.875 0,18.554062 0,20.625 v 7.5 C 0,29.161406 0.85728906,30 1.9166667,30 H 3.8333333 10.483628 L 7.4607448,18.175019 Z"
       id="path1374" />
  </g>
  <g
     id="g1382"
     transform="translate(380,60)"
     stroke="#ffffff"
     fill="#ffffff"
     style="fill-rule:evenodd;stroke-width:1">
    <path
       d="M 32,0 H 28.9375 3.0625 0 V 1 H 3.0625 V 19.125 H 14.793 l -5.24,5.24 0.707,0.707 5.24,-5.24 V 25 h 1 v -5.168 l 5.0995,5.0995 0.707,-0.707 L 17.207,19.125 H 28.9375 V 1 H 32 Z M 27.9375,18.125 H 4.0625 V 1 h 23.875 z"
       id="path1378" />
    <polygon
       id="polygon1380"
       points="26.121,3.312 25.254,2.814 21.712,8.9785 16.8515,7.6535 14.028,11.7565 8.5795,8.874 5.7335,15.0405 6.6415,15.4595 9.0455,10.2515 14.347,13.056 17.2735,8.805 22.1945,10.1465 " />
  </g>
  <g
     id="g1398"
     transform="translate(430,60)"
     fill="#ff9800"
     style="fill-rule:evenodd;stroke:none;stroke-width:1">
    <path
       d="M 10.697,25.199 H 4.798 c -1.127,0 -2.06,-0.885 -2.06,-2.012 V 4.901 c 0,-1.127 0.933,-2.006 2.06,-2.006 h 14.277 c 1.127,0 2.046,0.879 2.046,2.006 v 15.322 l 2.637,-3.134 V 2.943 c 0,-1.482 -1.171,-2.684 -2.652,-2.684 H 2.661 c -1.423,0 -2.559,1.153 -2.559,2.575 v 22.382 c 0,1.482 1.185,2.687 2.669,2.687 H 13.129 L 11.905,26.84 c -0.536,-0.463 -0.939,-1.033 -1.208,-1.641 z"
       id="path1384" />
    <path
       d="M 17.977,6.275 H 6.136 c -0.728,0 -1.314,0.591 -1.314,1.318 0,0.726 0.587,1.317 1.314,1.317 h 11.84 c 0.728,0 1.312,-0.591 1.312,-1.317 C 19.29,6.866 18.703,6.275 17.977,6.275 Z"
       id="path1386" />
    <path
       d="M 17.977,10.667 H 6.136 c -0.728,0 -1.314,0.59 -1.314,1.318 0,0.724 0.587,1.318 1.314,1.318 h 11.84 c 0.728,0 1.312,-0.594 1.312,-1.318 0.002,-0.727 -0.585,-1.318 -1.311,-1.318 z"
       id="path1388" />
    <path
       d="M 17.977,15.061 H 6.136 c -0.728,0 -1.314,0.558 -1.314,1.285 0,0.725 0.587,1.283 1.314,1.283 h 11.84 c 0.728,0 1.312,-0.559 1.312,-1.283 0.002,-0.727 -0.585,-1.285 -1.311,-1.285 z"
       id="path1390" />
    <path
       d="m 4.821,20.536 c 0,0.726 0.587,1.284 1.314,1.284 h 4.418 c 0.185,-0.473 0.469,-1.023 0.857,-1.479 0.408,-0.473 0.889,-0.82 1.412,-1.092 H 6.136 c -0.728,0.002 -1.315,0.562 -1.315,1.287 z"
       id="path1392" />
    <path
       d="m 17.977,19.251 h -0.988 c 0.324,0.136 0.633,0.366 0.916,0.612 l 1.312,1.123 c 0.05,-0.135 0.076,-0.281 0.076,-0.437 -0.003,-0.723 -0.59,-1.298 -1.316,-1.298 z"
       id="path1394" />
    <use
       id="use1396"
       stroke="#6a6a6a"
       mask="url(#mask-6)"
       stroke-width="2"
       xlink:href="#path-5"
       x="0"
       y="0"
       width="100%"
       height="100%" />
  </g>
  <g
     id="open-book"
     transform="translate(360,130)"
     fill="#ffffff"
     style="fill-rule:evenodd;stroke:none;stroke-width:1">
    <g
       id="Layer_1">
      <g
         id="g1422">
        <path
           d="m 17.020877,14.199474 c 0.0883,0.17269 0.263977,0.272456 0.445614,0.272456 0.07585,0 0.153684,-0.01749 0.226082,-0.05439 0.02942,-0.01497 2.966725,-1.507076 4.41538,-1.964678 0.262515,-0.08333 0.408187,-0.363802 0.324854,-0.626258 -0.08287,-0.262514 -0.361287,-0.408713 -0.626257,-0.325848 -1.526024,0.482573 -4.443334,1.964679 -4.567076,2.027544 -0.245556,0.124737 -0.343334,0.425205 -0.218597,0.67117 z"
           id="path1400" />
        <path
           d="m 17.466491,8.4836842 c 0.07585,0 0.153684,-0.017485 0.226082,-0.054386 0.02942,-0.014971 2.966725,-1.5070761 4.41538,-1.9646784 C 22.370468,6.3812865 22.51614,6.1008187 22.432807,5.8383626 22.349941,5.5758479 22.07152,5.4296491 21.80655,5.5125146 20.280526,5.9950877 17.363216,7.477193 17.239474,7.5400585 16.993977,7.6647953 16.89614,7.9652047 17.020877,8.2112281 c 0.0883,0.1726316 0.263977,0.2724561 0.445614,0.2724561 z"
           id="path1402" />
        <path
           d="m 29.442632,7.485614 c -0.275965,0 -0.499006,0.2235673 -0.499006,0.4990059 V 27.446608 c 0,0.82538 -0.671696,1.497076 -1.497076,1.497076 H 15.469941 v -1.148245 c 0.727603,-0.254503 2.622866,-0.847837 4.491229,-0.847837 4.347017,0 7.298771,0.962632 7.328187,0.972573 0.150175,0.04988 0.317894,0.02497 0.449122,-0.06889 0.130234,-0.0938 0.207077,-0.244502 0.207077,-0.404736 V 5.4895322 c 0,-0.2340351 -0.162164,-0.4366667 -0.390761,-0.4870761 0,0 -0.391228,-0.08731 -1.059941,-0.2101169 -0.27,-0.049883 -0.530936,0.1297661 -0.580877,0.4002339 -0.04988,0.271462 0.129239,0.531462 0.400234,0.581345 0.255029,0.046901 0.468596,0.088304 0.633274,0.1212866 V 26.783392 c -1.130818,-0.296433 -3.641871,-0.83386 -6.986374,-0.83386 -2.174269,0 -4.310058,0.714094 -4.970819,0.956141 -0.587368,-0.259474 -2.362865,-0.956141 -4.510701,-0.956141 -3.4373103,0 -6.2687723,0.566901 -7.4853805,0.854854 V 5.875731 C 3.9907602,5.6307017 6.9340351,4.9904678 10.479591,4.9904678 c 1.819473,0 3.379883,0.5663743 3.992222,0.8223977 V 25.450526 c 0,0.179649 0.09678,0.345848 0.252982,0.434152 0.156199,0.08883 0.348831,0.08632 0.503041,-0.0065 0.04942,-0.02942 4.993743,-2.98269 9.382164,-4.445322 0.204094,-0.06836 0.341345,-0.258479 0.341345,-0.473567 V 0.49923977 c 0,-0.16368421 -0.08035,-0.31690059 -0.215088,-0.41017544 -0.133742,-0.09333334 -0.30538,-0.11479532 -0.45959,-0.05736842 -3.99269,1.49754389 -8.032749,4.01163739 -8.073217,4.03660819 -0.233567,0.1461988 -0.304912,0.4540936 -0.158713,0.6876608 0.145731,0.2335673 0.453626,0.3049123 0.687661,0.1587135 0.0369,-0.02345 3.551579,-2.2101755 7.220877,-3.6857895 V 20.602047 c -3.406374,1.183684 -6.962924,3.116432 -8.48345,3.981696 V 5.4895322 c 0,-0.1891228 -0.106784,-0.3618129 -0.275965,-0.4466082 -0.08585,-0.042398 -2.130819,-1.0504679 -4.714269,-1.0504679 -4.5091816,0 -7.9759068,0.9756141 -8.1216378,1.0174854 C 2.1438597,5.0708187 1.9961403,5.2669591 1.9961403,5.4895322 V 27.446667 c 0,0.156198 0.07386,0.303918 0.1981287,0.398245 0.087836,0.06637 0.1936257,0.100819 0.3009357,0.100819 0.045906,0 0.091813,-0.0065 0.1367251,-0.01947 0.034445,-0.0095 3.4852047,-0.978596 7.8476612,-0.978596 1.824444,0 3.383391,0.567895 3.992222,0.822865 v 1.173217 H 2.4952047 c -0.8253801,0 -1.49707604,-0.671696 -1.49707604,-1.497076 V 7.9846784 c 0,-0.2754386 -0.22356726,-0.4990059 -0.49900585,-0.4990059 -0.2754386,0 -0.49900585094,0.2235673 -0.49900585094,0.4990059 V 27.446667 c 0,1.375789 1.11929824094,2.495146 2.49514624094,2.495146 H 27.44655 c 1.375789,0 2.495146,-1.119298 2.495146,-2.495146 V 7.9846784 C 29.941637,7.7091813 29.718596,7.485614 29.442632,7.485614 Z"
           id="path1404" />
        <path
           d="m 17.020877,11.205322 c 0.0883,0.17269 0.263977,0.272456 0.445614,0.272456 0.07585,0 0.153684,-0.01749 0.226082,-0.05439 0.02942,-0.01497 2.966725,-1.5070762 4.41538,-1.9646786 0.262515,-0.083333 0.408187,-0.3638011 0.324854,-0.6262573 -0.08287,-0.2625146 -0.361287,-0.4087134 -0.626257,-0.3258479 -1.526024,0.4825731 -4.443334,1.9646788 -4.567076,2.0275438 -0.245556,0.124737 -0.343334,0.425205 -0.218597,0.67117 z"
           id="path1406" />
        <path
           d="m 17.020877,17.193626 c 0.0883,0.17269 0.263977,0.272456 0.445614,0.272456 0.07585,0 0.153684,-0.01749 0.226082,-0.05439 0.02942,-0.01497 2.966725,-1.507076 4.41538,-1.964679 0.262515,-0.08333 0.408187,-0.363801 0.324854,-0.626257 -0.08287,-0.262514 -0.361287,-0.408713 -0.626257,-0.325848 -1.526024,0.482573 -4.443334,1.964679 -4.567076,2.027544 -0.245556,0.124737 -0.343334,0.425205 -0.218597,0.67117 z"
           id="path1408" />
        <path
           d="M 12.090526,9.2611696 C 9.0090643,8.5380702 5.5073684,9.4592983 5.3601754,9.4987135 5.0942105,9.5700585 4.9360234,9.8435088 5.0073684,10.11 c 0.059883,0.223041 0.261462,0.369766 0.481579,0.369766 0.042924,0 0.086316,-0.0055 0.1297661,-0.01696 0.03345,-0.0095 3.4048537,-0.8962573 6.2443275,-0.230058 C 12.13,10.295146 12.4,10.128947 12.462865,9.8604678 12.525673,9.5925146 12.359006,9.3240351 12.090526,9.2611696 Z"
           id="path1410" />
        <path
           d="m 12.090526,12.255322 c -3.0814617,-0.722573 -6.5831576,0.198128 -6.7303506,0.237544 -0.2659649,0.07135 -0.424152,0.344853 -0.352807,0.611286 0.059883,0.223041 0.261462,0.369766 0.481579,0.369766 0.042924,0 0.086316,-0.0055 0.1297661,-0.01696 0.03345,-0.0095 3.4048537,-0.896257 6.2443275,-0.230058 C 12.13,13.2893 12.4,13.123098 12.462865,12.854619 c 0.06281,-0.267953 -0.103859,-0.536433 -0.372339,-0.599297 z"
           id="path1412" />
        <path
           d="m 17.020877,20.187778 c 0.0883,0.17269 0.263977,0.272456 0.445614,0.272456 0.07585,0 0.153684,-0.01749 0.226082,-0.05439 0.02942,-0.01497 2.966725,-1.507076 4.41538,-1.964678 0.262515,-0.08333 0.408187,-0.363802 0.324854,-0.626258 -0.08287,-0.262456 -0.361287,-0.408713 -0.626257,-0.325848 -1.526024,0.482573 -4.443334,1.964679 -4.567076,2.027544 -0.245556,0.124737 -0.343334,0.425205 -0.218597,0.67117 z"
           id="path1414" />
        <path
           d="m 12.090526,15.249474 c -3.0814617,-0.722573 -6.5831576,0.197602 -6.7303506,0.237544 -0.2659649,0.07134 -0.424152,0.344853 -0.352807,0.611286 0.059883,0.223041 0.261462,0.370292 0.481579,0.370292 0.042924,0 0.086316,-0.006 0.1297661,-0.01749 0.03345,-0.0095 3.4048537,-0.896257 6.2443275,-0.230058 0.266959,0.0624 0.536959,-0.103802 0.599824,-0.372281 0.06281,-0.267953 -0.103859,-0.536433 -0.372339,-0.599298 z"
           id="path1416" />
        <path
           d="m 12.090526,21.237778 c -3.0814617,-0.7231 -6.5831576,0.198128 -6.7303506,0.237544 -0.2659649,0.07135 -0.424152,0.344853 -0.352807,0.611286 0.059883,0.223041 0.261462,0.370293 0.481579,0.370293 0.042924,0 0.086316,-0.006 0.1297661,-0.01749 0.03345,-0.0095 3.4048537,-0.896257 6.2443275,-0.230058 0.266959,0.06187 0.536959,-0.103801 0.599824,-0.372281 0.06281,-0.267953 -0.103859,-0.536433 -0.372339,-0.599298 z"
           id="path1418" />
        <path
           d="m 12.090526,18.243626 c -3.0814617,-0.7231 -6.5831576,0.197602 -6.7303506,0.237544 -0.2659649,0.07135 -0.424152,0.344853 -0.352807,0.611286 0.059883,0.223041 0.261462,0.370292 0.481579,0.370292 0.042924,0 0.086316,-0.006 0.1297661,-0.01749 0.03345,-0.0095 3.4048537,-0.896257 6.2443275,-0.230058 C 12.13,19.2776 12.4,19.111399 12.462865,18.842919 c 0.06281,-0.267953 -0.103859,-0.536433 -0.372339,-0.599298 z"
           id="path1420" />
      </g>
    </g>
  </g>
  <g
     id="open-book-copy"
     transform="translate(360,175)"
     fill="#6a6a6a"
     style="fill-rule:evenodd;stroke:none;stroke-width:1">
    <g
       id="g1450">
      <g
         id="g1448">
        <path
           d="m 17.020877,14.199474 c 0.0883,0.17269 0.263977,0.272456 0.445614,0.272456 0.07585,0 0.153684,-0.01749 0.226082,-0.05439 0.02942,-0.01497 2.966725,-1.507076 4.41538,-1.964678 0.262515,-0.08333 0.408187,-0.363802 0.324854,-0.626258 -0.08287,-0.262514 -0.361287,-0.408713 -0.626257,-0.325848 -1.526024,0.482573 -4.443334,1.964679 -4.567076,2.027544 -0.245556,0.124737 -0.343334,0.425205 -0.218597,0.67117 z"
           id="path1426" />
        <path
           d="m 17.466491,8.4836842 c 0.07585,0 0.153684,-0.017485 0.226082,-0.054386 0.02942,-0.014971 2.966725,-1.5070761 4.41538,-1.9646784 C 22.370468,6.3812865 22.51614,6.1008187 22.432807,5.8383626 22.349941,5.5758479 22.07152,5.4296491 21.80655,5.5125146 20.280526,5.9950877 17.363216,7.477193 17.239474,7.5400585 16.993977,7.6647953 16.89614,7.9652047 17.020877,8.2112281 c 0.0883,0.1726316 0.263977,0.2724561 0.445614,0.2724561 z"
           id="path1428" />
        <path
           d="m 29.442632,7.485614 c -0.275965,0 -0.499006,0.2235673 -0.499006,0.4990059 V 27.446608 c 0,0.82538 -0.671696,1.497076 -1.497076,1.497076 H 15.469941 v -1.148245 c 0.727603,-0.254503 2.622866,-0.847837 4.491229,-0.847837 4.347017,0 7.298771,0.962632 7.328187,0.972573 0.150175,0.04988 0.317894,0.02497 0.449122,-0.06889 0.130234,-0.0938 0.207077,-0.244502 0.207077,-0.404736 V 5.4895322 c 0,-0.2340351 -0.162164,-0.4366667 -0.390761,-0.4870761 0,0 -0.391228,-0.08731 -1.059941,-0.2101169 -0.27,-0.049883 -0.530936,0.1297661 -0.580877,0.4002339 -0.04988,0.271462 0.129239,0.531462 0.400234,0.581345 0.255029,0.046901 0.468596,0.088304 0.633274,0.1212866 V 26.783392 c -1.130818,-0.296433 -3.641871,-0.83386 -6.986374,-0.83386 -2.174269,0 -4.310058,0.714094 -4.970819,0.956141 -0.587368,-0.259474 -2.362865,-0.956141 -4.510701,-0.956141 -3.4373103,0 -6.2687723,0.566901 -7.4853805,0.854854 V 5.875731 C 3.9907602,5.6307017 6.9340351,4.9904678 10.479591,4.9904678 c 1.819473,0 3.379883,0.5663743 3.992222,0.8223977 V 25.450526 c 0,0.179649 0.09678,0.345848 0.252982,0.434152 0.156199,0.08883 0.348831,0.08632 0.503041,-0.0065 0.04942,-0.02942 4.993743,-2.98269 9.382164,-4.445322 0.204094,-0.06836 0.341345,-0.258479 0.341345,-0.473567 V 0.49923977 c 0,-0.16368421 -0.08035,-0.31690059 -0.215088,-0.41017544 -0.133742,-0.09333334 -0.30538,-0.11479532 -0.45959,-0.05736842 -3.99269,1.49754389 -8.032749,4.01163739 -8.073217,4.03660819 -0.233567,0.1461988 -0.304912,0.4540936 -0.158713,0.6876608 0.145731,0.2335673 0.453626,0.3049123 0.687661,0.1587135 0.0369,-0.02345 3.551579,-2.2101755 7.220877,-3.6857895 V 20.602047 c -3.406374,1.183684 -6.962924,3.116432 -8.48345,3.981696 V 5.4895322 c 0,-0.1891228 -0.106784,-0.3618129 -0.275965,-0.4466082 -0.08585,-0.042398 -2.130819,-1.0504679 -4.714269,-1.0504679 -4.5091816,0 -7.9759068,0.9756141 -8.1216378,1.0174854 C 2.1438597,5.0708187 1.9961403,5.2669591 1.9961403,5.4895322 V 27.446667 c 0,0.156198 0.07386,0.303918 0.1981287,0.398245 0.087836,0.06637 0.1936257,0.100819 0.3009357,0.100819 0.045906,0 0.091813,-0.0065 0.1367251,-0.01947 0.034445,-0.0095 3.4852047,-0.978596 7.8476612,-0.978596 1.824444,0 3.383391,0.567895 3.992222,0.822865 v 1.173217 H 2.4952047 c -0.8253801,0 -1.49707604,-0.671696 -1.49707604,-1.497076 V 7.9846784 c 0,-0.2754386 -0.22356726,-0.4990059 -0.49900585,-0.4990059 -0.2754386,0 -0.49900585094,0.2235673 -0.49900585094,0.4990059 V 27.446667 c 0,1.375789 1.11929824094,2.495146 2.49514624094,2.495146 H 27.44655 c 1.375789,0 2.495146,-1.119298 2.495146,-2.495146 V 7.9846784 C 29.941637,7.7091813 29.718596,7.485614 29.442632,7.485614 Z"
           id="path1430" />
        <path
           d="m 17.020877,11.205322 c 0.0883,0.17269 0.263977,0.272456 0.445614,0.272456 0.07585,0 0.153684,-0.01749 0.226082,-0.05439 0.02942,-0.01497 2.966725,-1.5070762 4.41538,-1.9646786 0.262515,-0.083333 0.408187,-0.3638011 0.324854,-0.6262573 -0.08287,-0.2625146 -0.361287,-0.4087134 -0.626257,-0.3258479 -1.526024,0.4825731 -4.443334,1.9646788 -4.567076,2.0275438 -0.245556,0.124737 -0.343334,0.425205 -0.218597,0.67117 z"
           id="path1432" />
        <path
           d="m 17.020877,17.193626 c 0.0883,0.17269 0.263977,0.272456 0.445614,0.272456 0.07585,0 0.153684,-0.01749 0.226082,-0.05439 0.02942,-0.01497 2.966725,-1.507076 4.41538,-1.964679 0.262515,-0.08333 0.408187,-0.363801 0.324854,-0.626257 -0.08287,-0.262514 -0.361287,-0.408713 -0.626257,-0.325848 -1.526024,0.482573 -4.443334,1.964679 -4.567076,2.027544 -0.245556,0.124737 -0.343334,0.425205 -0.218597,0.67117 z"
           id="path1434" />
        <path
           d="M 12.090526,9.2611696 C 9.0090643,8.5380702 5.5073684,9.4592983 5.3601754,9.4987135 5.0942105,9.5700585 4.9360234,9.8435088 5.0073684,10.11 c 0.059883,0.223041 0.261462,0.369766 0.481579,0.369766 0.042924,0 0.086316,-0.0055 0.1297661,-0.01696 0.03345,-0.0095 3.4048537,-0.8962573 6.2443275,-0.230058 C 12.13,10.295146 12.4,10.128947 12.462865,9.8604678 12.525673,9.5925146 12.359006,9.3240351 12.090526,9.2611696 Z"
           id="path1436" />
        <path
           d="m 12.090526,12.255322 c -3.0814617,-0.722573 -6.5831576,0.198128 -6.7303506,0.237544 -0.2659649,0.07135 -0.424152,0.344853 -0.352807,0.611286 0.059883,0.223041 0.261462,0.369766 0.481579,0.369766 0.042924,0 0.086316,-0.0055 0.1297661,-0.01696 0.03345,-0.0095 3.4048537,-0.896257 6.2443275,-0.230058 C 12.13,13.2893 12.4,13.123098 12.462865,12.854619 c 0.06281,-0.267953 -0.103859,-0.536433 -0.372339,-0.599297 z"
           id="path1438" />
        <path
           d="m 17.020877,20.187778 c 0.0883,0.17269 0.263977,0.272456 0.445614,0.272456 0.07585,0 0.153684,-0.01749 0.226082,-0.05439 0.02942,-0.01497 2.966725,-1.507076 4.41538,-1.964678 0.262515,-0.08333 0.408187,-0.363802 0.324854,-0.626258 -0.08287,-0.262456 -0.361287,-0.408713 -0.626257,-0.325848 -1.526024,0.482573 -4.443334,1.964679 -4.567076,2.027544 -0.245556,0.124737 -0.343334,0.425205 -0.218597,0.67117 z"
           id="path1440" />
        <path
           d="m 12.090526,15.249474 c -3.0814617,-0.722573 -6.5831576,0.197602 -6.7303506,0.237544 -0.2659649,0.07134 -0.424152,0.344853 -0.352807,0.611286 0.059883,0.223041 0.261462,0.370292 0.481579,0.370292 0.042924,0 0.086316,-0.006 0.1297661,-0.01749 0.03345,-0.0095 3.4048537,-0.896257 6.2443275,-0.230058 0.266959,0.0624 0.536959,-0.103802 0.599824,-0.372281 0.06281,-0.267953 -0.103859,-0.536433 -0.372339,-0.599298 z"
           id="path1442" />
        <path
           d="m 12.090526,21.237778 c -3.0814617,-0.7231 -6.5831576,0.198128 -6.7303506,0.237544 -0.2659649,0.07135 -0.424152,0.344853 -0.352807,0.611286 0.059883,0.223041 0.261462,0.370293 0.481579,0.370293 0.042924,0 0.086316,-0.006 0.1297661,-0.01749 0.03345,-0.0095 3.4048537,-0.896257 6.2443275,-0.230058 0.266959,0.06187 0.536959,-0.103801 0.599824,-0.372281 0.06281,-0.267953 -0.103859,-0.536433 -0.372339,-0.599298 z"
           id="path1444" />
        <path
           d="m 12.090526,18.243626 c -3.0814617,-0.7231 -6.5831576,0.197602 -6.7303506,0.237544 -0.2659649,0.07135 -0.424152,0.344853 -0.352807,0.611286 0.059883,0.223041 0.261462,0.370292 0.481579,0.370292 0.042924,0 0.086316,-0.006 0.1297661,-0.01749 0.03345,-0.0095 3.4048537,-0.896257 6.2443275,-0.230058 C 12.13,19.2776 12.4,19.111399 12.462865,18.842919 c 0.06281,-0.267953 -0.103859,-0.536433 -0.372339,-0.599298 z"
           id="path1446" />
      </g>
    </g>
  </g>
  <path
     id="path1504"
     style="color:#000000;font-style:normal;font-variant:normal;font-weight:normal;font-stretch:normal;font-size:medium;line-height:normal;font-family:sans-serif;font-variant-ligatures:normal;font-variant-position:normal;font-variant-caps:normal;font-variant-numeric:normal;font-variant-alternates:normal;font-variant-east-asian:normal;font-feature-settings:normal;font-variation-settings:normal;text-indent:0;text-align:start;text-decoration:none;text-decoration-line:none;text-decoration-style:solid;text-decoration-color:#000000;letter-spacing:normal;word-spacing:normal;text-transform:none;writing-mode:lr-tb;direction:ltr;text-orientation:mixed;dominant-baseline:auto;baseline-shift:baseline;text-anchor:start;white-space:normal;shape-padding:0;shape-margin:0;inline-size:0;clip-rule:nonzero;display:inline;overflow:visible;visibility:visible;opacity:1;isolation:auto;mix-blend-mode:normal;color-interpolation:sRGB;color-interpolation-filters:linearRGB;solid-color:#000000;solid-opacity:1;vector-effect:none;fill:#ffffff;fill-opacity:1;fill-rule:nonzero;stroke:none;stroke-width:2.32685;stroke-linecap:butt;stroke-linejoin:miter;stroke-miterlimit:4;stroke-dasharray:none;stroke-dashoffset:0;stroke-opacity:1;color-rendering:auto;image-rendering:auto;shape-rendering:auto;text-rendering:auto;enable-background:accumulate;stop-color:#000000;stop-opacity:1"
     d="M 426.77348,0 C 423.04071,0 420,3.0407039 420,6.7734738 V 17.224666 C 420,20.957436 423.04071,24 426.77348,24 h 10.54416 c 3.73278,0 6.77347,-3.042564 6.77347,-6.775334 V 6.7734738 C 444.09111,3.0407039 441.05042,0 437.31764,0 Z m 0,2.3259994 h 10.54416 c 2.48395,0 4.44747,1.9635324 4.44747,4.4474744 V 17.224666 c 0,2.483942 -1.96352,4.447475 -4.44747,4.447475 h -10.54416 c -2.48394,0 -4.44748,-1.963533 -4.44748,-4.447475 V 6.7734738 c 0,-2.483942 1.96354,-4.4474744 4.44748,-4.4474744 z m 11.54075,1.9969012 a 1.4071794,1.4071794 0 0 0 -1.40564,1.4074992 1.4071794,1.4071794 0 0 0 1.40564,1.4074992 1.4071794,1.4071794 0 0 0 1.4075,-1.4074992 1.4071794,1.4071794 0 0 0 -1.4075,-1.4074992 z m -6.26774,1.4149364 c -3.44459,2e-6 -6.26217,2.8175753 -6.26217,6.262163 0,3.444587 2.81758,6.26216 6.26217,6.262162 3.44458,5e-6 6.26029,-2.81757 6.26029,-6.262162 0,-3.4445925 -2.81571,-6.2621676 -6.26029,-6.262163 z m 0,2.3278583 c 2.18706,-2e-6 3.93429,1.7472397 3.93429,3.9343047 0,2.187065 -1.74723,3.934306 -3.93429,3.934304 -2.18707,-2e-6 -3.93617,-1.747242 -3.93617,-3.934304 0,-2.1870621 1.7491,-3.9343019 3.93617,-3.9343047 z" />
  <path
     id="path2"
     style="fill:#ffffff;fill-opacity:1;fill-rule:nonzero;stroke:none;stroke-width:0.0234374"
     d="M 371.99998,0 C 365.37257,0 360,5.37257 360,11.99998 c 0,5.98956 4.38821,10.95401 10.125,11.85424 v -8.38548 h -3.04689 V 11.99998 H 370.125 V 9.35623 c 0,-3.00751 1.79149,-4.66874 4.53257,-4.66874 1.31287,0 2.68616,0.23438 2.68616,0.23438 V 7.875 h -1.51316 c -1.49066,0 -1.95557,0.92504 -1.95557,1.87399 v 2.25099 h 3.32811 l -0.53202,3.46876 H 373.875 v 8.38548 C 379.61179,22.95399 384,17.98954 384,11.99998 384,5.37257 378.62739,0 371.99998,0 Z" />
</svg>
