<svg xmlns="http://www.w3.org/2000/svg" viewBox="0 0 866 351.73"><defs><style>.a{fill:#6a6a6a;}.b{fill:#fff;}</style></defs><title>lego</title><rect class="a" x="501.11" y="159.19" width="364.89" height="192.55"/><path class="b" d="M216.8,395.39h55.05v27.38h-87.9V284.37H216.8Z" transform="translate(-183.95 -282.24)"/><path class="b" d="M387.33,310.73h-65.9v28.39h51.81v26.06H321.43v30.21h65.9v27.38H288.48V284.37h98.85Z" transform="translate(-183.95 -282.24)"/><path class="b" d="M514.58,348.75v74h-14.8a109,109,0,0,0-4.61-15.92q-14.81,18-37.74,18-27.08,0-42.15-19.37t-15.06-50.09q0-33.05,16.07-53.13t43.65-20.08q23.12,0,37.31,13t17.34,34.57l-30.82,4.06q-3.75-25.14-23.83-25.14-13.18,0-19.92,11.91t-6.74,34q0,21.29,7.3,32.55t20.78,11.25a23.7,23.7,0,0,0,15.56-5.68q6.84-5.68,6.84-18.15H457.7V348.75Z" transform="translate(-183.95 -282.24)"/><path class="b" d="M592.09,424.9q-28,0-43.26-21t-15.3-50.8q0-30.31,15.5-50.59t44.17-20.28q29,0,43.71,21.65t14.74,49.53q0,30.11-15.2,50.8T592.09,424.9ZM593,308.71q-25.5,0-25.5,44.81T593,398.43q24.69,0,24.69-44.81T593,308.71Z" transform="translate(-183.95 -282.24)"/><path class="b" d="M734.25,491.4V550l39.09-58.58h28l-29.95,44.51,37.44,80.17H776.62l-24.88-54.14-17.49,25.55v28.59H705.57V491.4Z" transform="translate(-183.95 -282.24)"/><path class="b" d="M864.3,618q-25.19,0-39-18.91t-13.78-45.76q0-27.31,14-45.58t39.79-18.27q26.1,0,39.38,19.5T918,553.6q0,27.13-13.69,45.76T864.3,618ZM850.46,478.06a10.12,10.12,0,0,1-7.85-3.2,10.65,10.65,0,0,1,.09-14.75,10.13,10.13,0,0,1,7.76-3.24,11.74,11.74,0,0,1,7.67,2.79,9.56,9.56,0,0,1,3.38,7.81,9.8,9.8,0,0,1-3.24,7.72A11.36,11.36,0,0,1,850.46,478.06Zm14.66,35.26q-23,0-23,40.37t23,40.46q22.24,0,22.24-40.37T865.12,513.32ZM881,478.06a10.12,10.12,0,0,1-7.85-3.2,10.59,10.59,0,0,1,.14-14.75,10.27,10.27,0,0,1,7.81-3.24,11.4,11.4,0,0,1,7.67,2.83,9.71,9.71,0,0,1,3.29,7.76,9.81,9.81,0,0,1-3.24,7.72A11.36,11.36,0,0,1,881,478.06Z" transform="translate(-183.95 -282.24)"/><path class="b" d="M962.47,566.66v49.42H933.06V491.4h54.8q15.16,0,24.34,3.52t15.21,12.92a37.93,37.93,0,0,1,6,20.9q0,22.45-21.65,32.22l23,55.12h-32.27l-19.15-49.42Zm0-53.07v31.79h17.9q8.77,0,12.74-1.23a14.07,14.07,0,0,0,7.08-5.48,16.06,16.06,0,0,0,3.11-9.73,15.06,15.06,0,0,0-3.11-9.32q-3.11-4.11-6.76-5.07t-13.7-1Z" transform="translate(-183.95 -282.24)"/></svg>