<?xml version="1.0" ?><svg height="24px" version="1.1" viewBox="0 0 24 24" width="24px" xmlns="http://www.w3.org/2000/svg" xmlns:sketch="http://www.bohemiancoding.com/sketch/ns" xmlns:xlink="http://www.w3.org/1999/xlink"><title/><desc/><defs/><g fill="none" fill-rule="evenodd" id="miu" stroke="none" stroke-width="1"><g id="Artboard-1" transform="translate(-827.000000, -587.000000)"><g id="slice" transform="translate(215.000000, 119.000000)"/><path d="M835,588 C835,588 833,588 833,590.003082 L833,608.030817 C833,610.033898 835,610.033898 835,610.033898 L844,610.033898 C844,610.033898 846,610.033898 846,608.030817 L846,590.003082 C846,588 844,588 844,588 L835,588 L835,588 Z M834,590.5 L834,606.5 L845,606.5 L845,590.5 L834,590.5 L834,590.5 Z M839.5,609.199997 C840.052285,609.199997 840.5,608.752282 840.5,608.199997 C840.5,607.647712 840.052285,607.199997 839.5,607.199997 C838.947715,607.199997 838.5,607.647712 838.5,608.199997 C838.5,608.752282 838.947715,609.199997 839.5,609.199997 L839.5,609.199997 Z M837.221295,589 C837.099077,589 837,589.096554 837,589.221103 L837,589.279668 C837,589.401779 837.099877,589.50077 837.221295,589.50077 L841.778705,589.50077 C841.900923,589.50077 842,589.404217 842,589.279668 L842,589.221103 C842,589.098991 841.900123,589 841.778705,589 L837.221295,589 L837.221295,589 Z" fill="#000000" id="device-smart-phone-vertical-glyph"/></g></g></svg>