<?xml version="1.0" encoding="UTF-8" standalone="no"?>
<!-- Created with Inkscape (http://www.inkscape.org/) -->

<svg
   xmlns:dc="http://purl.org/dc/elements/1.1/"
   xmlns:cc="http://creativecommons.org/ns#"
   xmlns:rdf="http://www.w3.org/1999/02/22-rdf-syntax-ns#"
   xmlns:svg="http://www.w3.org/2000/svg"
   xmlns="http://www.w3.org/2000/svg"
   xmlns:xlink="http://www.w3.org/1999/xlink"
   xmlns:sodipodi="http://sodipodi.sourceforge.net/DTD/sodipodi-0.dtd"
   xmlns:inkscape="http://www.inkscape.org/namespaces/inkscape"
   width="500"
   height="500"
   viewBox="0 0 132.29166 132.29167"
   version="1.1"
   id="svg848"
   inkscape:version="0.92.4 5da689c313, 2019-01-14"
   sodipodi:docname="NoImage.svg">
  <defs
     id="defs842">
    <linearGradient
       inkscape:collect="always"
       id="linearGradient1459">
      <stop
         style="stop-color:#cdcdcd;stop-opacity:1"
         offset="0"
         id="stop1455" />
      <stop
         style="stop-color:#f7f7f7;stop-opacity:1"
         offset="1"
         id="stop1457" />
    </linearGradient>
    <linearGradient
       inkscape:collect="always"
       xlink:href="#linearGradient1459"
       id="linearGradient1461"
       x1="132.29167"
       y1="297"
       x2="132.29167"
       y2="164.70831"
       gradientUnits="userSpaceOnUse" />
  </defs>
  <sodipodi:namedview
     id="base"
     pagecolor="#ffffff"
     bordercolor="#666666"
     borderopacity="1.0"
     inkscape:pageopacity="0.0"
     inkscape:pageshadow="2"
     inkscape:zoom="0.35355339"
     inkscape:cx="80.585896"
     inkscape:cy="-14.598856"
     inkscape:document-units="mm"
     inkscape:current-layer="layer1"
     showgrid="false"
     units="px"
     inkscape:snap-page="true"
     inkscape:window-width="1366"
     inkscape:window-height="717"
     inkscape:window-x="0"
     inkscape:window-y="25"
     inkscape:window-maximized="1" />
  <metadata
     id="metadata845">
    <rdf:RDF>
      <cc:Work
         rdf:about="">
        <dc:format>image/svg+xml</dc:format>
        <dc:type
           rdf:resource="http://purl.org/dc/dcmitype/StillImage" />
        <dc:title />
      </cc:Work>
    </rdf:RDF>
  </metadata>
  <g
     inkscape:label="1. réteg"
     inkscape:groupmode="layer"
     id="layer1"
     transform="translate(0,-164.70832)">
    <rect
       style="opacity:1;vector-effect:none;fill:url(#linearGradient1461);fill-opacity:1;stroke:none;stroke-width:3.60994363;stroke-linecap:round;stroke-linejoin:round;stroke-miterlimit:4;stroke-dasharray:none;stroke-dashoffset:0;stroke-opacity:1"
       id="rect1445"
       width="132.29167"
       height="132.29167"
       x="0"
       y="164.70831" />
    <g
       id="g830"
       transform="matrix(0.92629602,0,0,0.92629602,4.8752101,16.09427)">
      <path
         style="fill:#f5f5f5;fill-opacity:1;stroke-width:0.26458332"
         d="m 21.006499,380.7875 v -50.80001 h -2.24895 -2.24896 v -2.51354 c 0,-1.38245 -0.0298,-2.51019 -0.0661,-2.50609 -0.0364,0.004 -0.72099,0.22352 -1.52136,0.48759 l -1.45521,0.48015 -0.23956,1.48553 -0.23956,1.48554 1.30783,1.17585 c 2.64907,2.38174 3.92223,6.05623 3.90906,11.28206 -0.01,3.80329 -0.42577,5.77061 -1.81909,8.59896 -1.4713,2.98663 -3.94742,5.20619 -6.96691,6.24505 -1.68953,0.58129 -2.78442,0.64037 -3.1706,0.17109 -0.18828,-0.22879 -0.12025,-1.59469 0.22073,-4.43177 0.6005,-4.99638 0.91275,-6.24954 1.81298,-7.27604 1.74905,-1.99439 2.1064,-4.35064 1.07705,-7.1018 -0.44516,-1.18981 -0.84796,-1.68151 -2.37256,-2.8962 -2.36361,-1.88314 -3.85984,-2.38821 -6.69816,-2.26104 -3.40588,0.15261 -5.21871,1.28969 -6.63352,4.16082 -0.43445,0.88165 -0.57981,1.5852 -0.5252,2.54197 0.0415,0.7276 0.0866,1.56104 0.10017,1.85208 0.0225,0.48283 -0.74538,3.41302 -1.14404,4.36563 -0.0914,0.21828 -0.62307,2.24234 -1.18161,4.49791 -0.89265,3.60486 -1.08404,4.11106 -1.58184,4.1838 -0.41188,0.0602 -0.79331,-0.22843 -1.39864,-1.05833 -4.64042,-6.36191 -4.85367,-15.26171 -0.51866,-21.6453 1.32344,-1.94886 3.77251,-4.1928 5.64267,-5.17004 l 1.5005,-0.78408 6.3e-4,-1.60175 c 5.9e-4,-1.49645 -0.0623,-1.66168 -0.95659,-2.51354 -1.72158,-1.63988 -1.72507,-1.70001 -0.45526,-7.8568 0.62281,-3.01973 2.10193,-10.31245 3.28693,-16.20604 l 2.15456,-10.71563 2.44877,-4.36562 c 1.34682,-2.40109 3.61121,-6.50875 5.03196,-9.12813 6.38736,-11.77605 10.64322,-16.74773 16.23292,-18.96321 1.23729,-0.4904 2.02454,-0.59411 4.58468,-0.60401 3.01631,-0.0117 3.10037,-0.028 3.4843,-0.67796 0.87253,-1.47707 2.60569,-3.12566 4.18782,-3.98347 1.7934,-1.30861 3.85434,-0.95188 5.98152,-0.99586 l 4.3091,-0.0891 -0.0758,-2.40416 -0.0758,-2.40416 -1.51536,-0.34354 c -3.45454,-0.78317 -6.29089,-3.04872 -7.89445,-6.30574 l -0.90894,-1.84617 -0.0747,-18.45938 c -0.0825,-20.38567 -0.10345,-20.08184 1.57639,-22.87792 1.11537,-1.85653 2.74086,-3.2974 4.94283,-4.38143 1.57411,-0.77493 2.01461,-0.86435 4.86758,-0.98819 l 3.136837,-0.13616 0.05158,-5.07416 c 0.02147,-1.25748 0,-4.20979 0,-5.89919 0,-1.63519 0.721109,-1.84219 1.972518,-1.85895 4.27337,-0.0572 15.012396,0 15.012396,0 h 15.095917 c 1.248694,0 1.688367,0.97384 1.705124,1.85895 0.01972,1.04155 0,3.23216 0,6.14057 v 4.96507 h 3.416011 c 4.864997,0 6.878974,0.69151 9.544362,3.27714 0.674187,0.65402 1.542327,1.7707 1.929207,2.48153 1.50778,2.77028 1.51458,2.86801 1.51458,21.75799 0,18.76056 -0.005,18.83377 -1.44708,21.67981 -1.38228,2.72779 -4.849674,5.24059 -7.94831,5.76008 l -1.320229,0.22133 v 2.50742 2.50741 l 3.96875,0.13267 c 3.403079,0.11376 4.157299,0.21927 5.291659,0.74026 1.55319,0.71335 3.339799,2.36766 4.288519,3.97095 0.48998,0.82803 0.79172,1.09348 1.10336,0.97067 0.23593,-0.093 1.28594,-0.23561 2.33336,-0.31696 6.14433,-0.47725 11.43487,3.07253 16.90038,11.33959 0.9271,1.40232 3.01479,4.9742 4.6393,7.9375 1.62451,2.9633 4.00849,7.25402 5.29774,9.53494 l 2.34407,4.14712 0.78326,3.92267 c 1.33426,6.68218 3.95778,19.58112 4.92888,24.23367 0.90169,4.31997 0.91414,4.46082 0.47572,5.38473 -0.24761,0.52179 -1.0262,1.37874 -1.7302,1.90432 -1.20341,0.89843 -1.27979,1.02744 -1.27639,2.15591 0.006,1.9418 0.19089,2.26848 1.67172,2.95116 0.83162,0.38339 2.15565,1.41237 3.37922,2.62619 5.35391,5.31124 6.78182,13.75259 3.52978,20.86693 -0.8019,1.75426 -2.41961,4.17001 -2.92141,4.36256 -0.68959,0.26463 -1.09954,-0.63596 -2.05695,-4.51871 -0.53178,-2.15664 -1.21387,-4.71068 -1.51574,-5.67565 -0.51113,-1.63386 -0.51999,-1.8103 -0.12892,-2.56655 0.70213,-1.35777 0.54492,-2.86403 -0.43996,-4.21536 -2.56653,-3.52148 -3.93082,-4.45949 -6.88763,-4.73561 -4.81319,-0.44946 -9.17761,2.93649 -9.8579,7.64784 -0.19817,1.37242 0.0401,3.2054 0.38866,2.98997 0.12045,-0.0744 0.29066,0.22295 0.37824,0.66087 0.0876,0.43792 0.45282,1.0898 0.81163,1.44861 0.85343,0.85343 1.37744,2.89567 1.85787,7.24073 0.46695,4.22317 0.35114,4.67576 -1.12556,4.39873 -2.70698,-0.50783 -4.73963,-1.59656 -6.65818,-3.56627 -3.86068,-3.96361 -5.19554,-11.55257 -3.17991,-18.07843 0.66059,-2.13873 2.31023,-4.6993 3.50206,-5.43589 0.9131,-0.56433 0.92184,-0.58713 0.70062,-1.82781 -0.12321,-0.69099 -0.29179,-1.6433 -0.37462,-2.11625 -0.0828,-0.47294 -0.30364,-0.85989 -0.49067,-0.85989 -0.18702,0 -0.89227,-0.27958 -1.56722,-0.62128 l -1.22717,-0.62128 -0.0744,2.93639 -0.0744,2.93638 -1.87553,0.0769 -1.87553,0.0769 -0.17499,9.55754 c -0.0962,5.25665 -0.175,28.05229 -0.175,50.65698 v 41.09945 H 89.377717 67.526007 l 0.08973,-25.40474 0.08973,-25.40474 1.256771,-1.07418 1.25677,-1.07418 v -17.7065 -17.7065 h -4.365622 -4.365625 l 0.01003,17.79323 0.01,17.79323 1.140542,0.89273 1.140539,0.89273 0.171479,4.13435 c 0.09431,2.2739 0.171876,13.74865 0.17236,25.49946 l 8.84e-4,21.36511 H 42.570049 21.006509 Z m 41.476913,40.01823 0.06962,-9.06198 H 42.573519 22.593999 v 8.95173 c 0,4.92346 0.0801,9.03187 0.17807,9.1298 0.0979,0.0979 9.05738,0.14754 19.90989,0.11024 l 19.731833,-0.0678 z m 46.893918,0.0695 v -9.12477 l -19.532695,-0.0695 c -10.742985,-0.0382 -19.732203,-0.031 -19.976041,0.016 -0.404495,0.0781 -0.443344,0.88374 -0.443344,9.19427 v 9.10874 h 19.976042 19.976038 z m -46.895085,-24.91791 0.06845,-14.06663 -1.457515,-1.2452 c -0.807805,-0.69013 -1.457516,-1.46675 -1.457516,-1.74222 0,-0.48158 -0.575601,-0.49702 -18.520835,-0.49702 h -18.52083 v 15.69861 c 0,8.63423 0.0772,15.77581 0.17156,15.87016 0.0944,0.0944 9.05381,0.14397 19.9099,0.11025 l 19.738333,-0.0613 z m 46.895085,-1.67607 v -15.61042 l -13.295309,-8e-4 c -7.312422,-2.6e-4 -15.706328,-0.0788 -18.653125,-0.17428 -5.15662,-0.16708 -5.357818,-0.15463 -5.357942,0.33142 -7.1e-5,0.27776 -0.595384,1.01764 -1.322917,1.64418 l -1.322787,1.13925 v 14.14053 14.14053 h 19.976042 19.976038 z m -49.805835,-34.35669 0.06812,-16.7115 -18.456656,0.0679 -18.45667,0.0679 -0.0681,16.60077 -0.0681,16.60077 18.0598,0.068 c 9.932892,0.0374 18.238396,0.0566 18.456677,0.0428 0.347556,-0.0221 0.405339,-2.10187 0.464994,-16.73669 z m 49.805835,0.0931 v -16.801 H 90.724208 72.071084 v 16.80104 16.80104 h 18.653124 18.653122 z m 14.99201,-5.22552 c -0.0806,-0.32742 -0.22655,-1.54781 -0.32425,-2.71198 -0.1401,-1.66936 -0.3356,-2.36827 -0.92512,-3.30729 -0.41112,-0.65484 -1.08179,-1.905 -1.49037,-2.77812 -0.66617,-1.42356 -0.74289,-1.87441 -0.74289,-4.36563 0,-2.51737 0.0707,-2.9221 0.75275,-4.31203 0.99785,-2.03334 2.92562,-3.9134 5.12082,-4.99409 1.71233,-0.84298 1.91758,-0.88034 4.83649,-0.88034 3.21619,0 4.03269,0.23987 6.15319,1.80762 2.05936,1.52255 3.59926,5.07414 3.80497,8.77572 0.12178,2.19134 1.51726,8.98844 1.94345,9.46614 0.26325,0.29507 1.74391,-2.85856 2.28111,-4.85849 1.05127,-3.91372 0.31007,-9.32202 -1.7614,-12.85248 -1.29886,-2.21368 -3.75246,-4.54564 -5.94201,-5.64743 l -1.84353,-0.92768 -0.26458,-3.52928 c -0.30316,-4.04378 -0.22572,-3.93304 -3.175,-4.54009 -3.7154,-0.76473 -9.22428,0.58285 -12.12017,2.96483 l -0.74307,0.6112 0.64587,3.82894 c 0.35523,2.10592 0.58932,3.97633 0.52019,4.15646 -0.0691,0.18014 -0.36063,0.40209 -0.64779,0.49323 -1.00928,0.32034 -2.42982,1.85017 -3.16867,3.41246 -2.37724,5.02667 -1.94588,12.28493 0.99323,16.7129 1.29997,1.95847 4.23206,4.02838 5.75168,4.06039 0.3786,0.008 0.45798,-0.12659 0.3451,-0.58496 z m -114.107031,-0.7861 c 2.76167,-1.39393 4.99415,-4.65802 5.86594,-8.57653 0.58966,-2.6504 0.41162,-7.47691 -0.35536,-9.63395 -1.08399,-3.04856 -2.2601,-4.66311 -3.82837,-5.25556 -0.90759,-0.34286 -0.91768,-0.66727 -0.15835,-5.09248 l 0.57471,-3.3493 -0.77042,-0.67386 c -1.12887,-0.98738 -3.72827,-2.20885 -5.6792,-2.66869 -3.45964,-0.81544 -8.59011,-0.3133 -9.24188,0.90454 -0.14802,0.27658 -0.28205,1.25484 -0.29784,2.17391 -0.0158,0.91908 -0.10509,2.37649 -0.19844,3.23871 l -0.16972,1.56766 -2.03063,1.02319 c -7.16815,3.61187 -10.0541,13.5272 -6.26896,21.53845 0.43849,0.92808 0.8824,1.68741 0.98647,1.68741 0.33709,0 1.89977,-6.96701 1.89905,-8.46667 -9.3e-4,-1.92583 0.61385,-4.74667 1.40322,-6.43858 0.94099,-2.01687 2.34884,-3.482 4.22039,-4.39211 6.21235,-3.02099 14.16507,1.02979 15.21922,7.75203 0.4402,2.80712 -0.10941,4.85851 -2.45525,9.16408 -0.50612,0.92894 -0.68861,1.76419 -0.83029,3.80035 l -0.18159,2.60972 0.63377,-0.19628 c 0.34857,-0.10795 1.09716,-0.43017 1.66353,-0.71604 z m 99.379611,-18.06546 v -5.42396 H 66.250251 22.858589 v 5.42396 5.42396 H 66.250251 109.64192 Z M 15.847129,323.66294 c 2.23843,-1.26396 0.15456,-3.50862 -5.0899,-5.48263 -2.30428,-0.86733 -2.92111,-0.78859 -0.99552,0.12708 0.87313,0.41519 2.21772,1.25537 2.98799,1.86705 l 1.40048,1.11216 -0.18125,1.60207 c -0.18084,1.59834 -0.17979,1.60162 0.45159,1.41227 0.34807,-0.10439 0.99005,-0.39149 1.42661,-0.638 z m 102.400061,-0.51722 c -0.1638,-0.96952 -0.1088,-1.077 1.0923,-2.13425 1.54018,-1.35571 4.40044,-2.76729 6.7106,-3.31177 2.1209,-0.49987 6.29245,-0.52588 8.078,-0.0504 2.36711,0.63039 3.29508,1.35345 3.29508,2.56748 0,1.01157 0.30899,0.97739 1.44639,-0.16001 1.13202,-1.13201 1.17819,-1.76626 0.18033,-2.4768 -1.13632,-0.80913 -3.01709,-1.14267 -6.38922,-1.13307 -6.42794,0.0183 -13.99586,2.44204 -15.95003,5.10825 -0.62103,0.84732 -0.4494,1.53412 0.53604,2.14506 1.05886,0.65647 1.19258,0.58235 1.00051,-0.55452 z m -122.647951,-5.1118 c 0.66691,-0.54003 2.93566,-1.27355 3.95789,-1.27964 0.37377,-0.002 0.85818,-0.11947 1.07646,-0.26054 0.35278,-0.22798 0.35278,-0.2567 0,-0.25852 -1.50469,-0.008 -4.9669,0.58876 -5.95555,1.02609 -0.99117,0.43844 -1.1882,0.64589 -1.1882,1.25102 0,0.39899 0.26789,1.01099 0.59531,1.36001 l 0.59531,0.63458 0.16488,-0.99802 c 0.0925,-0.56015 0.4233,-1.20727 0.7539,-1.47498 z"
         id="path1443"
         inkscape:connector-curvature="0"
         sodipodi:nodetypes="ccccscccccscsccscsscssccsccscccccscsssccccccccccsscsccsscssscsccscccccsscccssscscccccscccccscsccssscccccscccccccsccccccccccccccccsccccccccscsccccccscccccccsscscscccccsscccccccccccccsccccccccccccccccsccsssccsccccccscccccccsccscccscscscssccscsccccccccccccsccccscsccccsccscccccccccsccsc" />
      <path
         sodipodi:nodetypes="ccccscccccscsccscsscssccsccscccccscsssccccccccccsscsccsscssscsccscccccsscccssscscccccscccccscsccssscccccscccccccsccccccccccccccccsccccccccscsccccccscccccccsscscscccccsscccccccccccccsccccccccccccccccsccsssccsccccccscccccccsccscccscscscssccscsccccccccccccsscccccscsccccssccccscsccccsccscccccccccsccscscccsscsccscccscccccccccccsccscccccccccccsssccccsssccsscsssssccc"
         inkscape:connector-curvature="0"
         id="path1424"
         d="m 21.006512,380.7875 v -50.80001 h -2.248958 -2.248959 v -2.51354 c 0,-1.38245 -0.02976,-2.51019 -0.06615,-2.50609 -0.03638,0.004 -0.720989,0.22352 -1.521354,0.48759 l -1.455208,0.48015 -0.239564,1.48553 -0.239565,1.48554 1.307833,1.17585 c 2.649075,2.38174 3.922228,6.05623 3.909057,11.28206 -0.0096,3.80329 -0.425764,5.77061 -1.819087,8.59896 -1.471295,2.98663 -3.947416,5.20619 -6.9669052,6.24505 -1.689536,0.58129 -2.784419,0.64037 -3.170602,0.17109 -0.188283,-0.22879 -0.120254,-1.59469 0.220728,-4.43177 0.600504,-4.99638 0.912755,-6.24954 1.812978,-7.27604 1.7490522,-1.99439 2.1063982,-4.35064 1.077056,-7.1018 -0.445165,-1.18981 -0.847961,-1.68151 -2.372567,-2.8962 -2.363602,-1.88314 -3.859834,-2.38821 -6.698156,-2.26104 -3.405883,0.15261 -5.218713,1.28969 -6.633522,4.16082 -0.43445,0.88165 -0.579812,1.5852 -0.525198,2.54197 0.04153,0.7276 0.08661,1.56104 0.100169,1.85208 0.02249,0.48283 -0.74538,3.41302 -1.144041,4.36563 -0.09135,0.21828 -0.623072,2.24234 -1.181607,4.49791 -0.89265,3.60486 -1.0840368,4.11106 -1.5818418,4.1838 -0.411883,0.0602 -0.793305,-0.22843 -1.398642,-1.05833 -4.640416,-6.36191 -4.85367,-15.26171 -0.518656,-21.6453 1.323443,-1.94886 3.7725108,-4.1928 5.6426638,-5.17004 l 1.500504,-0.78408 6.35e-4,-1.60175 c 5.82e-4,-1.49645 -0.06229,-1.66168 -0.956598,-2.51354 -1.721581,-1.63988 -1.725066,-1.70001 -0.455252,-7.8568 0.622802,-3.01973 2.101921,-10.31245 3.286927,-16.20604 l 2.154555,-10.71563 2.448772,-4.36562 c 1.346824,-2.40109 3.611207,-6.50875 5.031962,-9.12813 6.3873582,-11.77605 10.6432232,-16.74773 16.2329242,-18.96321 1.237287,-0.4904 2.024536,-0.59411 4.584671,-0.60401 3.01631,-0.0117 3.100374,-0.028 3.484308,-0.67796 0.872524,-1.47707 2.605691,-3.12566 4.187814,-3.98347 1.793406,-1.30861 3.854341,-0.95188 5.981518,-0.99586 l 4.309104,-0.0891 -0.07577,-2.40416 -0.07577,-2.40416 -1.515359,-0.34354 c -3.454543,-0.78317 -6.290887,-3.04872 -7.89445,-6.30574 l -0.908941,-1.84617 -0.07472,-18.45938 c -0.08252,-20.38567 -0.103449,-20.08184 1.576388,-22.87792 1.115369,-1.85653 2.740866,-3.2974 4.942834,-4.38143 1.574104,-0.77493 2.014604,-0.86435 4.867574,-0.98819 l 3.136842,-0.13616 0.05158,-5.07416 c 0.02147,-1.25748 0,-4.20979 0,-5.89919 0,-1.63519 0.721109,-1.84219 1.972518,-1.85895 4.27337,-0.0572 15.012396,0 15.012396,0 h 15.095917 c 1.248694,0 1.688367,0.97384 1.705124,1.85895 0.01972,1.04155 0,3.23216 0,6.14057 v 4.96507 h 3.416011 c 4.864997,0 6.878974,0.69151 9.544362,3.27714 0.674187,0.65402 1.542327,1.7707 1.929207,2.48153 1.50778,2.77028 1.51458,2.86801 1.51458,21.75799 0,18.76056 -0.005,18.83377 -1.44708,21.67981 -1.38228,2.72779 -4.849674,5.24059 -7.94831,5.76008 l -1.320229,0.22133 v 2.50742 2.50741 l 3.96875,0.13267 c 3.403079,0.11376 4.157299,0.21927 5.291659,0.74026 1.55319,0.71335 3.339799,2.36766 4.288519,3.97095 0.48998,0.82803 0.79172,1.09348 1.10336,0.97067 0.23593,-0.093 1.28594,-0.23561 2.33336,-0.31696 6.14433,-0.47725 11.43487,3.07253 16.90038,11.33959 0.9271,1.40232 3.01479,4.9742 4.6393,7.9375 1.62451,2.9633 4.00849,7.25402 5.29774,9.53494 l 2.34407,4.14712 0.78326,3.92267 c 1.33426,6.68218 3.95778,19.58112 4.92888,24.23367 0.90169,4.31997 0.91414,4.46082 0.47572,5.38473 -0.24761,0.52179 -1.0262,1.37874 -1.7302,1.90432 -1.20341,0.89843 -1.27979,1.02744 -1.27639,2.15591 0.006,1.9418 0.19089,2.26848 1.67172,2.95116 0.83162,0.38339 2.15565,1.41237 3.37922,2.62619 5.35391,5.31124 6.78182,13.75259 3.52978,20.86693 -0.8019,1.75426 -2.41961,4.17001 -2.92141,4.36256 -0.68959,0.26463 -1.09954,-0.63596 -2.05695,-4.51871 -0.53178,-2.15664 -1.21387,-4.71068 -1.51574,-5.67565 -0.51113,-1.63386 -0.51999,-1.8103 -0.12892,-2.56655 0.70213,-1.35777 0.54492,-2.86403 -0.43996,-4.21536 -2.56653,-3.52148 -3.93082,-4.45949 -6.88763,-4.73561 -4.81319,-0.44946 -9.17761,2.93649 -9.8579,7.64784 -0.19817,1.37242 0.0401,3.2054 0.38866,2.98997 0.12045,-0.0744 0.29066,0.22295 0.37824,0.66087 0.0876,0.43792 0.45282,1.0898 0.81163,1.44861 0.85343,0.85343 1.37744,2.89567 1.85787,7.24073 0.46695,4.22317 0.35114,4.67576 -1.12556,4.39873 -2.70698,-0.50783 -4.73963,-1.59656 -6.65818,-3.56627 -3.86068,-3.96361 -5.19554,-11.55257 -3.17991,-18.07843 0.66059,-2.13873 2.31023,-4.6993 3.50206,-5.43589 0.9131,-0.56433 0.92184,-0.58713 0.70062,-1.82781 -0.12321,-0.69099 -0.29179,-1.6433 -0.37462,-2.11625 -0.0828,-0.47294 -0.30364,-0.85989 -0.49067,-0.85989 -0.18702,0 -0.89227,-0.27958 -1.56722,-0.62128 l -1.22717,-0.62128 -0.0744,2.93639 -0.0744,2.93638 -1.87553,0.0769 -1.87553,0.0769 -0.17499,9.55754 c -0.0962,5.25665 -0.175,28.05229 -0.175,50.65698 v 41.09945 H 89.377717 67.526007 l 0.08973,-25.40474 0.08973,-25.40474 1.256771,-1.07418 1.25677,-1.07418 v -17.7065 -17.7065 h -4.365622 -4.365625 l 0.01003,17.79323 0.01,17.79323 1.140542,0.89273 1.140539,0.89273 0.171479,4.13435 c 0.09431,2.2739 0.171876,13.74865 0.17236,25.49946 l 8.84e-4,21.36511 H 42.570053 21.006512 Z m 41.47691,40.01823 0.06962,-9.06198 H 42.573527 22.594012 v 8.95173 c 0,4.92346 0.08013,9.03187 0.178062,9.1298 0.09793,0.0979 9.057385,0.14754 19.909895,0.11024 l 19.731833,-0.0678 z m 46.893918,0.0695 v -9.12477 l -19.532695,-0.0695 c -10.742985,-0.0382 -19.732203,-0.031 -19.976041,0.016 -0.404495,0.0781 -0.443344,0.88374 -0.443344,9.19427 v 9.10874 h 19.976042 19.976038 z m -46.895085,-24.91791 0.06845,-14.06663 -1.457515,-1.2452 c -0.807805,-0.69013 -1.457516,-1.46675 -1.457516,-1.74222 0,-0.48158 -0.575601,-0.49702 -18.520832,-0.49702 h -18.52083 v 15.69861 c 0,8.63423 0.0772,15.77581 0.171558,15.87016 0.09436,0.0944 9.053809,0.14397 19.909896,0.11025 l 19.738336,-0.0613 z m 46.895085,-1.67607 v -15.61042 l -13.295309,-8e-4 c -7.312422,-2.6e-4 -15.706328,-0.0788 -18.653125,-0.17428 -5.15662,-0.16708 -5.357818,-0.15463 -5.357942,0.33142 -7.1e-5,0.27776 -0.595384,1.01764 -1.322917,1.64418 l -1.322787,1.13925 v 14.14053 14.14053 h 19.976042 19.976038 z m -49.805835,-34.35669 0.06812,-16.7115 -18.456661,0.0679 -18.456661,0.0679 -0.06813,16.60077 -0.06813,16.60077 18.059799,0.068 c 9.932889,0.0374 18.238393,0.0566 18.456674,0.0428 0.347556,-0.0221 0.405339,-2.10187 0.464994,-16.73669 z m 49.805835,0.0931 v -16.801 H 90.724218 72.071094 v 16.80104 16.80104 h 18.653124 18.653122 z m 14.99201,-5.22552 c -0.0806,-0.32742 -0.22655,-1.54781 -0.32425,-2.71198 -0.1401,-1.66936 -0.3356,-2.36827 -0.92512,-3.30729 -0.41112,-0.65484 -1.08179,-1.905 -1.49037,-2.77812 -0.66617,-1.42356 -0.74289,-1.87441 -0.74289,-4.36563 0,-2.51737 0.0707,-2.9221 0.75275,-4.31203 0.99785,-2.03334 2.92562,-3.9134 5.12082,-4.99409 1.71233,-0.84298 1.91758,-0.88034 4.83649,-0.88034 3.21619,0 4.03269,0.23987 6.15319,1.80762 2.05936,1.52255 3.59926,5.07414 3.80497,8.77572 0.12178,2.19134 1.51726,8.98844 1.94345,9.46614 0.26325,0.29507 1.74391,-2.85856 2.28111,-4.85849 1.05127,-3.91372 0.31007,-9.32202 -1.7614,-12.85248 -1.29886,-2.21368 -3.75246,-4.54564 -5.94201,-5.64743 l -1.84353,-0.92768 -0.26458,-3.52928 c -0.30316,-4.04378 -0.22572,-3.93304 -3.175,-4.54009 -3.7154,-0.76473 -9.22428,0.58285 -12.12017,2.96483 l -0.74307,0.6112 0.64587,3.82894 c 0.35523,2.10592 0.58932,3.97633 0.52019,4.15646 -0.0691,0.18014 -0.36063,0.40209 -0.64779,0.49323 -1.00928,0.32034 -2.42982,1.85017 -3.16867,3.41246 -2.37724,5.02667 -1.94588,12.28493 0.99323,16.7129 1.29997,1.95847 4.23206,4.02838 5.75168,4.06039 0.3786,0.008 0.45798,-0.12659 0.3451,-0.58496 z m -114.107027,-0.7861 c 2.76167,-1.39393 4.994148,-4.65802 5.865934,-8.57653 0.589658,-2.6504 0.411625,-7.47691 -0.355359,-9.63395 C 14.68891,332.747 13.5128,331.13245 11.944533,330.54 c -0.907598,-0.34286 -0.917686,-0.66727 -0.158358,-5.09248 l 0.574709,-3.3493 -0.770416,-0.67386 c -1.128866,-0.98738 -3.7282682,-2.20885 -5.6791992,-2.66869 -3.459638,-0.81544 -8.590107,-0.3133 -9.241877,0.90454 -0.148021,0.27658 -0.282052,1.25484 -0.297846,2.17391 -0.01579,0.91908 -0.10509,2.37649 -0.198437,3.23871 l -0.169721,1.56766 -2.030632,1.02319 c -7.1681488,3.61187 -10.0540948,13.5272 -6.2689598,21.53845 0.438492,0.92808 0.882404,1.68741 0.98647,1.68741 0.337091,0 1.8997698,-6.96701 1.8990498,-8.46667 -9.26e-4,-1.92583 0.613849,-4.74667 1.403226,-6.43858 0.940986,-2.01687 2.348835,-3.482 4.220389,-4.39211 6.212349,-3.02099 14.1650682,1.02979 15.2192182,7.75203 0.4402,2.80712 -0.109408,4.85851 -2.4552462,9.16408 -0.506127,0.92894 -0.68861,1.76419 -0.830292,3.80035 l -0.181591,2.60972 0.633767,-0.19628 c 0.348572,-0.10795 1.097163,-0.43017 1.6635362,-0.71604 z m 99.379607,-18.06546 v -5.42396 H 66.250261 22.858595 v 5.42396 5.42396 h 43.391666 43.391669 z m 3.96874,-11.08051 c 0,-3.4668 -0.11746,-4.18379 -5.68924,-34.72656 -3.12908,-17.15268 -5.86934,-31.96059 -6.08946,-32.90647 -0.54759,-2.35314 -1.59142,-4.31658 -2.970769,-5.58802 -2.2892,-2.1101 0.36835,-1.94313 -32.346357,-2.03227 -19.799347,-0.0539 -29.543898,0.01 -30.188918,0.19716 -1.244817,0.36178 -3.213954,1.87896 -3.918722,3.0193 -0.408726,0.66133 -1.518537,5.65811 -4.130101,18.59523 -1.96415,9.72999 -3.696496,18.04808 -3.849656,18.48464 -0.345188,0.98392 -5.153451,26.53554 -5.675931,30.1625 -0.20963,1.45521 -0.383323,3.92575 -0.38599,5.4901 l -0.0048,2.84427 h 47.624951 47.624993 z m -97.763533,-1.19713 c 2.238436,-1.26396 0.154564,-3.50862 -5.089898,-5.48263 -2.3042772,-0.86733 -2.9211142,-0.78859 -0.9955192,0.12708 0.8731252,0.41519 2.2177172,1.25537 2.9879852,1.86705 l 1.400482,1.11216 -0.181253,1.60207 c -0.180832,1.59834 -0.179782,1.60162 0.451599,1.41227 0.34807,-0.10439 0.990042,-0.39149 1.426604,-0.638 z M 118.2472,323.14572 c -0.1638,-0.96952 -0.1088,-1.077 1.0923,-2.13425 1.54018,-1.35571 4.40044,-2.76729 6.7106,-3.31177 2.1209,-0.49987 6.29245,-0.52588 8.078,-0.0504 2.36711,0.63039 3.29508,1.35345 3.29508,2.56748 0,1.01157 0.30899,0.97739 1.44639,-0.16001 1.13202,-1.13201 1.17819,-1.76626 0.18033,-2.4768 -1.13632,-0.80913 -3.01709,-1.14267 -6.38922,-1.13307 -6.42794,0.0183 -13.99586,2.44204 -15.95003,5.10825 -0.62103,0.84732 -0.4494,1.53412 0.53604,2.14506 1.05886,0.65647 1.19258,0.58235 1.00051,-0.55452 z m -122.6479512,-5.1118 c 0.66691,-0.54003 2.935659,-1.27355 3.95789,-1.27964 0.37377,-0.002 0.858176,-0.11947 1.076457,-0.26054 0.352778,-0.22798 0.352778,-0.2567 0,-0.25852 -1.504687,-0.008 -4.966896,0.58876 -5.955546,1.02609 -0.99117,0.43844 -1.188204,0.64589 -1.188204,1.25102 0,0.39899 0.267891,1.01099 0.595313,1.36001 l 0.595312,0.63458 0.164876,-0.99802 c 0.09254,-0.56015 0.423301,-1.20727 0.753902,-1.47498 z m 22.3798772,-5.28805 c 1.341897,-10.41152 2.558216,-16.57068 4.223625,-21.38754 0.59173,-1.71147 7.216807,-33.64563 7.353282,-35.44426 0.04469,-0.58895 -0.07765,-0.67046 -1.27348,-0.84849 -5.925838,-0.8822 -11.714408,3.40541 -17.406894,12.89334 -0.780423,1.30077 -3.0088132,5.28206 -4.9519772,8.84732 -1.943164,3.56526 -3.995641,7.24119 -4.561062,8.16872 -1.00206,1.64382 -1.102072,2.05015 -3.958022,16.08076 -1.611492,7.91687 -2.869615,14.45469 -2.795829,14.52847 0.07379,0.0738 0.655885,0.009 1.293554,-0.14449 0.637669,-0.15326 2.669465,-0.35361 4.515102,-0.44522 3.820864,-0.18965 6.494722,0.14068 9.285733,1.14717 1.8775462,0.67708 5.4274742,2.48248 6.5150992,3.31342 0.349639,0.26711 0.686806,0.43457 0.749263,0.37211 0.06246,-0.0625 0.517681,-3.24905 1.011606,-7.08131 z m 99.167894,6.53516 c 1.24209,-0.94738 6.10489,-3.20196 8.10532,-3.75793 2.12948,-0.59183 9.31092,-0.66762 11.72881,-0.12378 0.84828,0.19079 1.5783,0.30674 1.62226,0.25764 0.044,-0.0491 -1.24541,-6.58399 -2.86525,-14.522 -2.91248,-14.27246 -2.95736,-14.45317 -4.04123,-16.27188 -0.60284,-1.01152 -2.75412,-4.87522 -4.78064,-8.586 -5.28439,-9.67632 -7.34001,-12.87865 -10.45455,-16.28644 -1.67866,-1.83673 -4.84971,-3.95756 -6.77333,-4.53007 -1.46625,-0.43639 -5.50009,-0.60835 -6.06602,-0.25859 -0.17163,0.10608 -0.1863,0.57101 -0.0408,1.29377 0.12489,0.62051 1.54379,8.2365 3.1531,16.92442 2.20784,11.9191 3.17856,16.57364 3.9549,18.96359 1.88077,5.78986 3.32828,12.82238 4.78562,23.25009 0.33048,2.36471 0.64942,4.29948 0.70875,4.29948 0.0593,0 0.49272,-0.29354 0.96308,-0.6523 z M 86.623177,245.45312 v -2.24896 H 66.514844 46.406511 v 2.24896 2.24896 h 20.108333 20.108333 z m 7.962128,-7.57665 c 1.596449,-1.59803 2.336239,-3.1776 2.348599,-4.75955 l 0.140317,-17.9586 c 0.147114,-18.82859 -0.003,-18.92349 -0.57174,-20.15481 -0.71964,-1.55713 -2.486738,-3.48956 -4.00424,-4.37888 -2.357379,-1.38152 -2.467557,-1.38739 -25.983397,-1.38487 -13.453642,0.001 -22.26374,0.10282 -22.96356,0.26424 -4.306411,1.64267 -6.469678,4.19655 -7.281621,6.53818 -0.388893,1.12155 -0.314193,18.98385 -0.314193,18.98385 -0.109631,17.29034 0.02661,18.32794 0.503198,19.6117 0.715547,1.92743 2.056696,3.65409 3.665167,4.71869 2.656202,1.75807 1.853842,1.7091 27.052467,1.65113 l 21.332031,-0.0523 c 3.030421,-0.007 5.088142,-2.08898 6.076972,-3.07878 z M 80.773652,177.88352 c 0,-0.73053 0.188334,-1.61895 -2.058425,-1.61895 H 65.581585 52.186638 c -1.285911,0 -1.549705,0.24587 -1.546794,1.5468 0.0036,1.61534 0,4.59764 0,4.59764 0,3.22317 -0.22258,5.01006 0,5.23265 h 30.133808 z"
         style="fill:#909090;fill-opacity:1;stroke-width:0.26458332" />
      <circle
         r="3.8742559"
         cy="212.7113"
         cx="56.696426"
         id="path1437"
         style="opacity:1;vector-effect:none;fill:#909090;fill-opacity:1;stroke:none;stroke-width:0.5;stroke-linecap:butt;stroke-linejoin:miter;stroke-miterlimit:4;stroke-dasharray:none;stroke-dashoffset:0;stroke-opacity:0.49019608" />
      <circle
         style="opacity:1;vector-effect:none;fill:#909090;fill-opacity:1;stroke:none;stroke-width:0.5;stroke-linecap:butt;stroke-linejoin:miter;stroke-miterlimit:4;stroke-dasharray:none;stroke-dashoffset:0;stroke-opacity:0.49019608"
         id="circle1439"
         cx="75.595238"
         cy="212.7113"
         r="3.8742559" />
      <path
         sodipodi:nodetypes="cc"
         inkscape:connector-curvature="0"
         id="path1441"
         d="m 58.302829,227.16889 c 0,0 7.750478,7.1234 16.545308,-0.27792"
         style="fill:none;stroke:#909090;stroke-width:3;stroke-linecap:round;stroke-linejoin:round;stroke-miterlimit:4;stroke-dasharray:none;stroke-opacity:1" />
    </g>
  </g>
</svg>
